<svg width="169" height="212" viewBox="0 0 169 212" fill="none" xmlns="http://www.w3.org/2000/svg">
<rect width="169" height="212" fill="white"/>
<path d="M36.8196 164L41.7786 150.472H43.4221L48.3811 164H46.2056L45.2746 161.283H39.9356L38.9951 164H36.8196ZM40.5341 159.535H44.6666L42.6051 153.54L40.5341 159.535ZM53.2469 164.114C52.2969 164.114 51.4799 163.829 50.8529 163.202C50.1499 162.499 49.9029 161.577 49.9029 160.523V154.357H51.8409V160.238C51.8409 161.739 52.7054 162.375 53.7979 162.375C54.8904 162.375 55.7834 161.729 55.7834 160.238V154.357H57.7214V164H55.8119V163.031C55.5364 163.335 55.1944 163.582 54.8619 163.753C54.3774 163.99 53.8454 164.114 53.2469 164.114ZM63.6752 164C62.8392 164 62.2027 163.724 61.7657 163.278C61.2812 162.803 61.0342 162.128 61.0342 161.34V156.02H59.9322V154.538H61.0342V151.612H62.9722V154.538H64.8437V156.02H62.9722V161.226C62.9722 161.948 63.3142 162.347 64.0267 162.347H64.8437V164H63.6752ZM70.7701 164.114C69.6016 164.114 68.6516 163.734 67.9201 163.002C66.9321 162.005 66.7611 160.694 66.7611 159.183C66.7611 157.663 66.9321 156.352 67.9296 155.345C68.6516 154.623 69.6016 154.243 70.7701 154.243C71.9291 154.243 72.8791 154.623 73.6106 155.345C74.6081 156.352 74.7791 157.663 74.7791 159.183C74.7791 160.694 74.6081 162.005 73.6106 163.002C72.8791 163.734 71.9291 164.114 70.7701 164.114ZM68.6991 159.183C68.6991 160.219 68.7561 161.226 69.3451 161.815C69.7156 162.185 70.1906 162.375 70.7701 162.375C71.3496 162.375 71.8246 162.185 72.1856 161.815C72.7841 161.226 72.8411 160.219 72.8411 159.183C72.8411 158.138 72.7841 157.141 72.1856 156.542C71.8246 156.172 71.3496 155.982 70.7701 155.982C70.1906 155.982 69.7156 156.172 69.3451 156.542C68.7561 157.141 68.6991 158.138 68.6991 159.183ZM77.4126 164V154.357H79.3221V155.336C79.6071 155.013 79.9301 154.785 80.2721 154.614C80.7756 154.357 81.2981 154.243 81.8966 154.243C83.0746 154.243 84.0152 154.718 84.6232 155.649C84.9651 155.212 85.3642 154.87 85.8297 154.633C86.3522 154.376 86.9316 154.243 87.5967 154.243C88.6607 154.243 89.5062 154.566 90.1237 155.174C90.7697 155.83 91.1022 156.761 91.1022 157.806V164H89.1642V158.119C89.1642 156.618 88.3091 155.982 87.2166 155.982C86.1526 155.982 85.2312 156.628 85.2312 158.024V164H83.2931V158.119C83.2931 156.618 82.4382 155.982 81.3362 155.982C80.2436 155.982 79.3506 156.628 79.3506 158.119V164H77.4126ZM97.6373 164.114C96.4688 164.114 95.5188 163.734 94.7873 163.002C93.7993 162.005 93.6283 160.694 93.6283 159.183C93.6283 157.663 93.7993 156.352 94.7968 155.345C95.5188 154.623 96.4688 154.243 97.6373 154.243C98.7963 154.243 99.7463 154.623 100.478 155.345C101.475 156.352 101.646 157.663 101.646 159.183C101.646 160.694 101.475 162.005 100.478 163.002C99.7463 163.734 98.7963 164.114 97.6373 164.114ZM95.5663 159.183C95.5663 160.219 95.6233 161.226 96.2123 161.815C96.5828 162.185 97.0578 162.375 97.6373 162.375C98.2168 162.375 98.6918 162.185 99.0528 161.815C99.6513 161.226 99.7083 160.219 99.7083 159.183C99.7083 158.138 99.6513 157.141 99.0528 156.542C98.6918 156.172 98.2168 155.982 97.6373 155.982C97.0578 155.982 96.5828 156.172 96.2123 156.542C95.6233 157.141 95.5663 158.138 95.5663 159.183ZM107.149 164C106.313 164 105.676 163.724 105.239 163.278C104.755 162.803 104.508 162.128 104.508 161.34V156.02H103.406V154.538H104.508V151.612H106.446V154.538H108.317V156.02H106.446V161.226C106.446 161.948 106.788 162.347 107.5 162.347H108.317V164H107.149ZM110.774 164V154.547H112.712V164H110.774ZM110.717 152.153V150.424H112.778V152.153H110.717ZM117.94 164L114.406 154.357H116.467L118.738 161.131L121.008 154.357H123.07L119.536 164H117.94ZM128.379 164.114C127.011 164.114 126.033 163.743 125.311 163.031C124.532 162.242 124.066 160.998 124.066 159.183C124.066 157.464 124.541 156.153 125.387 155.307C126.09 154.604 127.021 154.243 128.142 154.243C129.301 154.243 130.222 154.595 130.906 155.288C131.771 156.153 132.236 157.454 132.236 159.335V159.753H125.976C125.976 160.646 126.223 161.349 126.688 161.815C127.106 162.233 127.686 162.461 128.427 162.461C129.51 162.461 130.08 162.147 130.764 161.463L132.008 162.613C131.02 163.591 130.07 164.114 128.379 164.114ZM125.976 158.385H130.308C130.279 157.682 130.137 156.97 129.605 156.438C129.263 156.096 128.788 155.877 128.142 155.877C127.505 155.877 127.021 156.096 126.679 156.438C126.156 156.97 126.014 157.682 125.976 158.385Z" fill="#1F1F1F"/>
<path d="M100.534 110.312H70.4493C68.9451 110.312 67.7417 109.092 67.7417 107.604V99.2437C67.7417 97.739 68.9618 96.5352 70.4493 96.5352H100.534C102.038 96.5352 103.241 97.7557 103.241 99.2437V107.604C103.241 109.108 102.021 110.312 100.534 110.312ZM70.4493 98.6084C70.0983 98.6084 69.8142 98.8926 69.8142 99.2437V107.604C69.8142 107.955 70.0983 108.239 70.4493 108.239H100.534C100.885 108.239 101.169 107.955 101.169 107.604V99.2437C101.169 98.8926 100.885 98.6084 100.534 98.6084H70.4493Z" fill="#D70A32"/>
<path d="M98.8626 98.6089H72.1208C71.7866 98.6089 71.469 98.4417 71.2684 98.1742C71.0679 97.9067 71.0177 97.5555 71.118 97.2379L73.6919 89.4967C74.2936 87.7077 75.965 86.5039 77.8536 86.5039H93.0964C94.9851 86.5039 96.6564 87.7077 97.2581 89.4967L99.832 97.2379C99.9323 97.5555 99.8821 97.9067 99.6816 98.1742C99.481 98.4417 99.1635 98.6089 98.8292 98.6089H98.8626ZM73.5749 96.5189H97.4252L95.3026 90.1488C94.9851 89.2125 94.1159 88.5771 93.1298 88.5771H77.887C76.9009 88.5771 76.0151 89.2125 75.7143 90.1488L73.5916 96.5189H73.5749Z" fill="#D70A32"/>
<path d="M98.8624 116.999C98.2942 116.999 97.8262 116.531 97.8262 115.963V109.275C97.8262 108.706 98.2942 108.238 98.8624 108.238C99.4307 108.238 99.8987 108.706 99.8987 109.275V115.963C99.8987 116.531 99.4307 116.999 98.8624 116.999Z" fill="#D70A32"/>
<path d="M72.1207 116.999C71.5525 116.999 71.0845 116.531 71.0845 115.963V109.275C71.0845 108.706 71.5525 108.238 72.1207 108.238C72.689 108.238 73.157 108.706 73.157 109.275V115.963C73.157 116.531 72.689 116.999 72.1207 116.999Z" fill="#D70A32"/>
<path d="M74.6279 105.078C75.551 105.078 76.2993 104.33 76.2993 103.406C76.2993 102.483 75.551 101.734 74.6279 101.734C73.7048 101.734 72.9565 102.483 72.9565 103.406C72.9565 104.33 73.7048 105.078 74.6279 105.078Z" fill="#D70A32"/>
<path d="M96.3554 105.078C97.2785 105.078 98.0268 104.33 98.0268 103.406C98.0268 102.483 97.2785 101.734 96.3554 101.734C95.4324 101.734 94.6841 102.483 94.6841 103.406C94.6841 104.33 95.4324 105.078 96.3554 105.078Z" fill="#D70A32"/>
<path d="M98.8625 98.6078C98.6619 98.6078 98.4614 98.5576 98.2775 98.4406C97.7928 98.1229 97.6591 97.4708 97.9934 96.986L101.336 91.9701C101.537 91.6859 101.854 91.502 102.205 91.502H105.548C106.116 91.502 106.584 91.9701 106.584 92.5386C106.584 93.107 106.116 93.5752 105.548 93.5752H102.757L99.7316 98.1229C99.531 98.4239 99.1968 98.5911 98.8625 98.5911V98.6078Z" fill="#D70A32"/>
<path d="M72.1375 98.6086C71.8032 98.6086 71.4689 98.4414 71.2684 98.1405L68.2432 93.5928H65.452C64.8838 93.5928 64.4158 93.1246 64.4158 92.5561C64.4158 91.9877 64.8838 91.5195 65.452 91.5195H68.7947C69.1457 91.5195 69.4633 91.6867 69.6638 91.9877L73.0066 97.0036C73.3241 97.4884 73.1904 98.1238 72.7224 98.4582C72.5386 98.5752 72.338 98.6254 72.1375 98.6254V98.6086Z" fill="#D70A32"/>
<path d="M128.947 117.001H42.0362C41.468 117.001 41 116.533 41 115.964C41 115.396 41.468 114.928 42.0362 114.928H128.947C129.515 114.928 129.983 115.396 129.983 115.964C129.983 116.533 129.515 117.001 128.947 117.001Z" fill="#262626"/>
<path d="M123.933 117H47.0504C46.4821 117 46.0142 116.532 46.0142 115.963V39.0366C46.0142 38.4681 46.4821 38 47.0504 38H123.933C124.501 38 124.969 38.4681 124.969 39.0366V115.947C124.969 116.515 124.501 116.983 123.933 116.983V117ZM48.1034 114.91H122.897V40.0899H48.1034V114.91Z" fill="#262626"/>
<path d="M113.905 116.999H57.0785C56.5102 116.999 56.0422 116.531 56.0422 115.963V69.1479C56.0422 68.5795 56.5102 68.1113 57.0785 68.1113H113.905C114.473 68.1113 114.941 68.5795 114.941 69.1479V115.963C114.941 116.531 114.473 116.999 113.905 116.999ZM58.1314 114.909H112.869V70.1846H58.1314V114.909Z" fill="#262626"/>
<path d="M91.3415 60.1538H79.642C79.0737 60.1538 78.6057 59.6857 78.6057 59.1172V49.0854C78.6057 48.517 79.0737 48.0488 79.642 48.0488H91.3415C91.9098 48.0488 92.3777 48.517 92.3777 49.0854V59.1172C92.3777 59.6857 91.9098 60.1538 91.3415 60.1538ZM80.6949 58.0639H90.3052V50.1221H80.6949V58.0639Z" fill="#262626"/>
<path d="M113.905 60.1538H102.205C101.637 60.1538 101.169 59.6857 101.169 59.1172V49.0854C101.169 48.517 101.637 48.0488 102.205 48.0488H113.905C114.473 48.0488 114.941 48.517 114.941 49.0854V59.1172C114.941 59.6857 114.473 60.1538 113.905 60.1538ZM103.258 58.0639H112.868V50.1221H103.258V58.0639Z" fill="#262626"/>
<path d="M68.778 60.1538H57.0785C56.5102 60.1538 56.0422 59.6857 56.0422 59.1172V49.0854C56.0422 48.517 56.5102 48.0488 57.0785 48.0488H68.778C69.3463 48.0488 69.8143 48.517 69.8143 49.0854V59.1172C69.8143 59.6857 69.3463 60.1538 68.778 60.1538ZM58.1314 58.0639H67.7418V50.1221H58.1314V58.0639Z" fill="#262626"/>
<path d="M125.604 40.0908H45.379C44.8108 40.0908 44.3428 39.6227 44.3428 39.0542C44.3428 38.4857 44.8108 38.0176 45.379 38.0176H125.604C126.173 38.0176 126.641 38.4857 126.641 39.0542C126.641 39.6227 126.173 40.0908 125.604 40.0908Z" fill="#262626"/>
</svg>
