<svg width="136" height="213" viewBox="0 0 136 213" fill="none" xmlns="http://www.w3.org/2000/svg">
<path d="M17.6547 152.792L22.6037 140.112H24.244L29.193 152.792H27.0219L26.0927 150.245H20.7644L19.8258 152.792H17.6547ZM21.3617 148.607H25.486L23.4286 142.988L21.3617 148.607Z" fill="#1F1F1F"/>
<path d="M34.049 152.899C33.1009 152.899 32.2856 152.632 31.6598 152.044C30.9582 151.385 30.7117 150.521 30.7117 149.533V143.754H32.6459V149.266C32.6459 150.673 33.5086 151.269 34.5989 151.269C35.6892 151.269 36.5804 150.664 36.5804 149.266V143.754H38.5146V152.792H36.6089V151.884C36.3339 152.169 35.9926 152.4 35.6608 152.561C35.1773 152.783 34.6463 152.899 34.049 152.899Z" fill="#1F1F1F"/>
<path d="M44.4564 152.792C43.6221 152.792 42.9869 152.534 42.5508 152.115C42.0672 151.67 41.8207 151.038 41.8207 150.299V145.312H40.721V143.923H41.8207V141.18H43.7549V143.923H45.6226V145.312H43.7549V150.192C43.7549 150.869 44.0962 151.243 44.8072 151.243H45.6226V152.792H44.4564Z" fill="#1F1F1F"/>
<path d="M51.5371 152.899C50.3709 152.899 49.4228 152.543 48.6928 151.857C47.7068 150.922 47.5361 149.693 47.5361 148.277C47.5361 146.853 47.7068 145.624 48.7023 144.68C49.4228 144.003 50.3709 143.647 51.5371 143.647C52.6938 143.647 53.6419 144.003 54.3719 144.68C55.3674 145.624 55.538 146.853 55.538 148.277C55.538 149.693 55.3674 150.922 54.3719 151.857C53.6419 152.543 52.6938 152.899 51.5371 152.899ZM49.4702 148.277C49.4702 149.248 49.5271 150.192 50.1149 150.744C50.4847 151.091 50.9588 151.269 51.5371 151.269C52.1154 151.269 52.5895 151.091 52.9498 150.744C53.5471 150.192 53.6039 149.248 53.6039 148.277C53.6039 147.298 53.5471 146.363 52.9498 145.802C52.5895 145.455 52.1154 145.276 51.5371 145.276C50.9588 145.276 50.4847 145.455 50.1149 145.802C49.5271 146.363 49.4702 147.298 49.4702 148.277Z" fill="#1F1F1F"/>
<path d="M58.1663 152.792V143.754H60.072V144.671C60.3564 144.368 60.6788 144.154 61.0201 143.994C61.5226 143.754 62.0441 143.647 62.6414 143.647C63.817 143.647 64.7556 144.092 65.3624 144.965C65.7037 144.555 66.1019 144.235 66.5665 144.012C67.0879 143.772 67.6663 143.647 68.3299 143.647C69.3918 143.647 70.2356 143.95 70.8519 144.52C71.4966 145.134 71.8284 146.007 71.8284 146.986V152.792H69.8943V147.28C69.8943 145.873 69.041 145.276 67.9507 145.276C66.8888 145.276 65.9692 145.882 65.9692 147.191V152.792H64.0351V147.28C64.0351 145.873 63.1818 145.276 62.082 145.276C60.9917 145.276 60.1005 145.882 60.1005 147.28V152.792H58.1663Z" fill="#1F1F1F"/>
<path d="M78.3504 152.899C77.1842 152.899 76.2361 152.543 75.5061 151.857C74.5201 150.922 74.3494 149.693 74.3494 148.277C74.3494 146.853 74.5201 145.624 75.5156 144.68C76.2361 144.003 77.1842 143.647 78.3504 143.647C79.5071 143.647 80.4552 144.003 81.1852 144.68C82.1807 145.624 82.3514 146.853 82.3514 148.277C82.3514 149.693 82.1807 150.922 81.1852 151.857C80.4552 152.543 79.5071 152.899 78.3504 152.899ZM76.2836 148.277C76.2836 149.248 76.3404 150.192 76.9283 150.744C77.298 151.091 77.7721 151.269 78.3504 151.269C78.9287 151.269 79.4028 151.091 79.7631 150.744C80.3604 150.192 80.4172 149.248 80.4172 148.277C80.4172 147.298 80.3604 146.363 79.7631 145.802C79.4028 145.455 78.9287 145.276 78.3504 145.276C77.7721 145.276 77.298 145.455 76.9283 145.802C76.3404 146.363 76.2836 147.298 76.2836 148.277Z" fill="#1F1F1F"/>
<path d="M87.8429 152.792C87.0086 152.792 86.3734 152.534 85.9372 152.115C85.4537 151.67 85.2072 151.038 85.2072 150.299V145.312H84.1074V143.923H85.2072V141.18H87.1413V143.923H89.0091V145.312H87.1413V150.192C87.1413 150.869 87.4826 151.243 88.1937 151.243H89.0091V152.792H87.8429Z" fill="#1F1F1F"/>
<path d="M91.4608 152.792V143.932H93.3949V152.792H91.4608ZM91.4039 141.688V140.067H93.4613V141.688H91.4039Z" fill="#1F1F1F"/>
<path d="M98.6122 152.792L95.0853 143.754H97.1427L99.4086 150.103L101.675 143.754H103.732L100.205 152.792H98.6122Z" fill="#1F1F1F"/>
<path d="M109.031 152.899C107.665 152.899 106.689 152.552 105.968 151.884C105.191 151.145 104.726 149.978 104.726 148.277C104.726 146.666 105.2 145.437 106.044 144.644C106.746 143.985 107.675 143.647 108.794 143.647C109.95 143.647 110.87 143.976 111.553 144.626C112.415 145.437 112.88 146.657 112.88 148.42V148.812H106.632C106.632 149.649 106.878 150.308 107.343 150.744C107.76 151.136 108.338 151.349 109.078 151.349C110.159 151.349 110.728 151.056 111.41 150.414L112.652 151.492C111.666 152.409 110.718 152.899 109.031 152.899ZM106.632 147.529H110.955C110.927 146.87 110.785 146.203 110.254 145.704C109.912 145.383 109.438 145.178 108.794 145.178C108.158 145.178 107.675 145.383 107.334 145.704C106.812 146.203 106.67 146.87 106.632 147.529Z" fill="#1F1F1F"/>
<path d="M80.2432 102.468H50.2191C48.7178 102.468 47.5169 101.324 47.5169 99.9293V92.0933C47.5169 90.6828 48.7345 89.5544 50.2191 89.5544H80.2432C81.7444 89.5544 82.9454 90.6985 82.9454 92.0933V99.9293C82.9454 101.34 81.7278 102.468 80.2432 102.468ZM50.2191 91.4978C49.8688 91.4978 49.5852 91.7642 49.5852 92.0933V99.9293C49.5852 100.258 49.8688 100.525 50.2191 100.525H80.2432C80.5935 100.525 80.8771 100.258 80.8771 99.9293V92.0933C80.8771 91.7642 80.5935 91.4978 80.2432 91.4978H50.2191Z" fill="#D70A32"/>
<path d="M78.5752 91.4978H51.8871C51.5535 91.4978 51.2365 91.341 51.0364 91.0903C50.8362 90.8395 50.7862 90.5104 50.8863 90.2127L53.455 82.9565C54.0555 81.2796 55.7235 80.1512 57.6083 80.1512H72.8206C74.7054 80.1512 76.3734 81.2796 76.9739 82.9565L79.5427 90.2127C79.6427 90.5104 79.5927 90.8395 79.3925 91.0903C79.1924 91.341 78.8755 91.4978 78.5419 91.4978H78.5752ZM53.3382 89.5388H77.1407L75.0224 83.5677C74.7054 82.6901 73.8381 82.0946 72.8539 82.0946H57.6417C56.6576 82.0946 55.7735 82.6901 55.4733 83.5677L53.3549 89.5388H53.3382Z" fill="#D70A32"/>
<path d="M78.5752 108.737C78.0081 108.737 77.541 108.298 77.541 107.765V101.496C77.541 100.964 78.0081 100.525 78.5752 100.525C79.1423 100.525 79.6094 100.964 79.6094 101.496V107.765C79.6094 108.298 79.1423 108.737 78.5752 108.737Z" fill="#D70A32"/>
<path d="M51.8871 108.737C51.3199 108.737 50.8529 108.298 50.8529 107.765V101.496C50.8529 100.964 51.3199 100.525 51.8871 100.525C52.4542 100.525 52.9212 100.964 52.9212 101.496V107.765C52.9212 108.298 52.4542 108.737 51.8871 108.737Z" fill="#D70A32"/>
<path d="M54.3891 97.5627C55.3103 97.5627 56.0571 96.8611 56.0571 95.9955C56.0571 95.13 55.3103 94.4283 54.3891 94.4283C53.4679 94.4283 52.7211 95.13 52.7211 95.9955C52.7211 96.8611 53.4679 97.5627 54.3891 97.5627Z" fill="#D70A32"/>
<path d="M76.0732 97.5627C76.9944 97.5627 77.7412 96.8611 77.7412 95.9955C77.7412 95.13 76.9944 94.4283 76.0732 94.4283C75.152 94.4283 74.4052 95.13 74.4052 95.9955C74.4052 96.8611 75.152 97.5627 76.0732 97.5627Z" fill="#D70A32"/>
<path d="M78.5752 91.4978C78.3751 91.4978 78.1749 91.4507 77.9914 91.341C77.5077 91.0433 77.3743 90.4321 77.7079 89.9776L81.0439 85.276C81.244 85.0095 81.561 84.8372 81.9112 84.8372H85.2473C85.8144 84.8372 86.2814 85.276 86.2814 85.8088C86.2814 86.3417 85.8144 86.7805 85.2473 86.7805H82.4617L79.4426 91.0433C79.2424 91.3254 78.9088 91.4821 78.5752 91.4821V91.4978Z" fill="#D70A32"/>
<path d="M51.9037 91.4977C51.5701 91.4977 51.2365 91.341 51.0364 91.0589L48.0173 86.7961H45.2317C44.6646 86.7961 44.1975 86.3573 44.1975 85.8245C44.1975 85.2916 44.6646 84.8528 45.2317 84.8528H48.5677C48.918 84.8528 49.2349 85.0095 49.4351 85.2916L52.7711 89.9932C53.088 90.4477 52.9546 91.0432 52.4875 91.3567C52.3041 91.4664 52.1039 91.5134 51.9037 91.5134V91.4977Z" fill="#D70A32"/>
<path d="M108.599 108.737H21.8629C21.2958 108.737 20.8287 108.298 20.8287 107.765C20.8287 107.232 21.2958 106.794 21.8629 106.794H108.599C109.167 106.794 109.634 107.232 109.634 107.765C109.634 108.298 109.167 108.737 108.599 108.737Z" fill="#262626"/>
<path d="M103.595 108.737H26.8669C26.2998 108.737 25.8327 108.298 25.8327 107.765V35.6584C25.8327 35.1256 26.2998 34.6868 26.8669 34.6868H103.595C104.162 34.6868 104.63 35.1256 104.63 35.6584V107.75C104.63 108.282 104.162 108.721 103.595 108.721V108.737ZM27.9178 106.778H102.561V36.6458H27.9178V106.778Z" fill="#262626"/>
<path d="M93.5873 108.737H36.875C36.3078 108.737 35.8408 108.298 35.8408 107.765V63.8836C35.8408 63.3508 36.3078 62.912 36.875 62.912H93.5873C94.1544 62.912 94.6215 63.3508 94.6215 63.8836V107.765C94.6215 108.298 94.1544 108.737 93.5873 108.737ZM37.9258 106.778H92.5531V64.8553H37.9258V106.778Z" fill="#262626"/>
<path d="M71.0692 55.4521H59.3931C58.826 55.4521 58.3589 55.0133 58.3589 54.4804V45.0773C58.3589 44.5444 58.826 44.1056 59.3931 44.1056H71.0692C71.6363 44.1056 72.1033 44.5444 72.1033 45.0773V54.4804C72.1033 55.0133 71.6363 55.4521 71.0692 55.4521ZM60.444 53.4931H70.035V46.0489H60.444V53.4931Z" fill="#262626"/>
<path d="M93.5873 55.4521H81.9112C81.3441 55.4521 80.8771 55.0133 80.8771 54.4804V45.0773C80.8771 44.5444 81.3441 44.1056 81.9112 44.1056H93.5873C94.1544 44.1056 94.6215 44.5444 94.6215 45.0773V54.4804C94.6215 55.0133 94.1544 55.4521 93.5873 55.4521ZM82.9621 53.4931H92.5531V46.0489H82.9621V53.4931Z" fill="#262626"/>
<path d="M48.551 55.4521H36.875C36.3078 55.4521 35.8408 55.0133 35.8408 54.4804V45.0773C35.8408 44.5444 36.3078 44.1056 36.875 44.1056H48.551C49.1182 44.1056 49.5852 44.5444 49.5852 45.0773V54.4804C49.5852 55.0133 49.1182 55.4521 48.551 55.4521ZM37.9258 53.4931H47.5169V46.0489H37.9258V53.4931Z" fill="#262626"/>
<path d="M105.263 36.646H25.1989C24.6318 36.646 24.1647 36.2071 24.1647 35.6743C24.1647 35.1415 24.6318 34.7026 25.1989 34.7026H105.263C105.83 34.7026 106.298 35.1415 106.298 35.6743C106.298 36.2071 105.83 36.646 105.263 36.646Z" fill="#262626"/>
</svg>
