<svg width="136" height="92" viewBox="0 0 136 92" fill="none" xmlns="http://www.w3.org/2000/svg">
<path d="M17.6547 31.792L22.6037 19.1117H24.244L29.193 31.792H27.0219L26.0927 29.2453H20.7644L19.8258 31.792H17.6547ZM21.3617 27.6068H25.486L23.4286 21.9879L21.3617 27.6068Z" fill="#1F1F1F"/>
<path d="M34.049 31.8989C33.1009 31.8989 32.2856 31.6318 31.6598 31.044C30.9582 30.3851 30.7117 29.5213 30.7117 28.5329V22.7537H32.6459V28.2658C32.6459 29.6727 33.5086 30.2693 34.5989 30.2693C35.6892 30.2693 36.5804 29.6638 36.5804 28.2658V22.7537H38.5146V31.792H36.6089V30.8838C36.3339 31.1687 35.9926 31.4002 35.6608 31.5605C35.1773 31.7831 34.6463 31.8989 34.049 31.8989Z" fill="#1F1F1F"/>
<path d="M44.4564 31.792C43.6221 31.792 42.9869 31.5338 42.5508 31.1153C42.0672 30.67 41.8207 30.0378 41.8207 29.2987V24.312H40.721V22.9229H41.8207V20.1802H43.7549V22.9229H45.6226V24.312H43.7549V29.1919C43.7549 29.8686 44.0962 30.2426 44.8072 30.2426H45.6226V31.792H44.4564Z" fill="#1F1F1F"/>
<path d="M51.5371 31.8989C50.3709 31.8989 49.4228 31.5427 48.6928 30.857C47.7068 29.922 47.5361 28.6932 47.5361 27.2773C47.5361 25.8526 47.7068 24.6237 48.7023 23.6798C49.4228 23.003 50.3709 22.6469 51.5371 22.6469C52.6938 22.6469 53.6419 23.003 54.3719 23.6798C55.3674 24.6237 55.538 25.8526 55.538 27.2773C55.538 28.6932 55.3674 29.922 54.3719 30.857C53.6419 31.5427 52.6938 31.8989 51.5371 31.8989ZM49.4702 27.2773C49.4702 28.2479 49.5271 29.1919 50.1149 29.7439C50.4847 30.0912 50.9588 30.2693 51.5371 30.2693C52.1154 30.2693 52.5895 30.0912 52.9498 29.7439C53.5471 29.1919 53.6039 28.2479 53.6039 27.2773C53.6039 26.2978 53.5471 25.3628 52.9498 24.8018C52.5895 24.4545 52.1154 24.2764 51.5371 24.2764C50.9588 24.2764 50.4847 24.4545 50.1149 24.8018C49.5271 25.3628 49.4702 26.2978 49.4702 27.2773Z" fill="#1F1F1F"/>
<path d="M58.1663 31.792V22.7537H60.072V23.6709C60.3564 23.3681 60.6788 23.1544 61.0201 22.9941C61.5226 22.7537 62.0441 22.6469 62.6414 22.6469C63.817 22.6469 64.7556 23.0921 65.3624 23.9648C65.7037 23.5551 66.1019 23.2346 66.5665 23.0119C67.0879 22.7715 67.6663 22.6469 68.3299 22.6469C69.3918 22.6469 70.2356 22.9496 70.8519 23.5195C71.4966 24.1339 71.8284 25.0066 71.8284 25.9861V31.792H69.8943V26.28C69.8943 24.873 69.041 24.2764 67.9507 24.2764C66.8888 24.2764 65.9692 24.8819 65.9692 26.1909V31.792H64.0351V26.28C64.0351 24.873 63.1818 24.2764 62.082 24.2764C60.9917 24.2764 60.1005 24.8819 60.1005 26.28V31.792H58.1663Z" fill="#1F1F1F"/>
<path d="M78.3504 31.8989C77.1842 31.8989 76.2361 31.5427 75.5061 30.857C74.5201 29.922 74.3494 28.6932 74.3494 27.2773C74.3494 25.8526 74.5201 24.6237 75.5156 23.6798C76.2361 23.003 77.1842 22.6469 78.3504 22.6469C79.5071 22.6469 80.4552 23.003 81.1852 23.6798C82.1807 24.6237 82.3514 25.8526 82.3514 27.2773C82.3514 28.6932 82.1807 29.922 81.1852 30.857C80.4552 31.5427 79.5071 31.8989 78.3504 31.8989ZM76.2836 27.2773C76.2836 28.2479 76.3404 29.1919 76.9283 29.7439C77.298 30.0912 77.7721 30.2693 78.3504 30.2693C78.9287 30.2693 79.4028 30.0912 79.7631 29.7439C80.3604 29.1919 80.4172 28.2479 80.4172 27.2773C80.4172 26.2978 80.3604 25.3628 79.7631 24.8018C79.4028 24.4545 78.9287 24.2764 78.3504 24.2764C77.7721 24.2764 77.298 24.4545 76.9283 24.8018C76.3404 25.3628 76.2836 26.2978 76.2836 27.2773Z" fill="#1F1F1F"/>
<path d="M87.8429 31.792C87.0086 31.792 86.3734 31.5338 85.9372 31.1153C85.4537 30.67 85.2072 30.0378 85.2072 29.2987V24.312H84.1074V22.9229H85.2072V20.1802H87.1413V22.9229H89.0091V24.312H87.1413V29.1919C87.1413 29.8686 87.4826 30.2426 88.1937 30.2426H89.0091V31.792H87.8429Z" fill="#1F1F1F"/>
<path d="M91.4608 31.792V22.9318H93.3949V31.792H91.4608ZM91.4039 20.6878V19.0671H93.4613V20.6878H91.4039Z" fill="#1F1F1F"/>
<path d="M98.6122 31.792L95.0853 22.7537H97.1427L99.4086 29.1028L101.675 22.7537H103.732L100.205 31.792H98.6122Z" fill="#1F1F1F"/>
<path d="M109.031 31.8989C107.665 31.8989 106.689 31.5516 105.968 30.8838C105.191 30.1447 104.726 28.9781 104.726 27.2773C104.726 25.6656 105.2 24.4367 106.044 23.6442C106.746 22.9852 107.675 22.6469 108.794 22.6469C109.95 22.6469 110.87 22.9763 111.553 23.6264C112.415 24.4367 112.88 25.6567 112.88 27.4198V27.8116H106.632C106.632 28.6487 106.878 29.3076 107.343 29.7439C107.76 30.1358 108.338 30.3495 109.078 30.3495C110.159 30.3495 110.728 30.0556 111.41 29.4145L112.652 30.4919C111.666 31.4091 110.718 31.8989 109.031 31.8989ZM106.632 26.5293H110.955C110.927 25.8704 110.785 25.2025 110.254 24.7039C109.912 24.3833 109.438 24.1785 108.794 24.1785C108.158 24.1785 107.675 24.3833 107.334 24.7039C106.812 25.2025 106.67 25.8704 106.632 26.5293Z" fill="#1F1F1F"/>
</svg>
