<svg width="136" height="121" viewBox="0 0 136 121" fill="none" xmlns="http://www.w3.org/2000/svg">
<path d="M81.7052 119H36.5785C35.0742 119 33.8708 117.78 33.8708 116.292V41.0644C33.8708 39.5602 35.0909 38.3568 36.5785 38.3568H80.0339C81.5381 38.3568 82.7415 39.5769 82.7415 41.0644V111.262C82.7415 111.83 82.2735 112.298 81.7052 112.298C81.137 112.298 80.669 111.83 80.669 111.262V41.0644C80.669 40.7134 80.3848 40.4293 80.0339 40.4293H36.5785C36.2275 40.4293 35.9433 40.7134 35.9433 41.0644V116.276C35.9433 116.627 36.2275 116.911 36.5785 116.911H81.7052C82.2902 116.911 82.7415 117.379 82.7415 117.947C82.7415 118.515 82.2735 118.983 81.7052 118.983V119Z" fill="#1F1F1F"/>
<path d="M70.0057 40.446H46.6066C46.0216 40.446 45.5704 39.978 45.5704 39.4098V32.7076C45.5704 31.2034 46.7905 30 48.278 30H68.3343C69.8385 30 71.0419 31.2201 71.0419 32.7076V39.3931C71.0419 39.9613 70.5739 40.4293 70.0057 40.4293V40.446ZM47.6596 38.3568H68.9694V32.7076C68.9694 32.3566 68.6853 32.0725 68.3343 32.0725H48.278C47.927 32.0725 47.6429 32.3566 47.6429 32.7076V38.3568H47.6596Z" fill="#1F1F1F"/>
<path d="M58.3062 103.122C58.3062 103.122 58.1725 103.122 58.1223 103.105C57.6543 103.022 57.3033 102.637 57.2699 102.153L55.866 84.1187L43.5648 87.8124C43.1803 87.9294 42.7458 87.8124 42.4784 87.4948C42.211 87.1773 42.1441 86.7427 42.3279 86.3583L57.3702 54.8364C57.5708 54.4186 58.0387 54.1679 58.5067 54.2682C58.9747 54.3517 59.3257 54.7361 59.3591 55.2208L60.7631 73.2548L73.0643 69.5611C73.4654 69.4441 73.8833 69.5611 74.1507 69.8787C74.4181 70.1962 74.4849 70.6308 74.3011 71.0152L59.2588 102.554C59.075 102.921 58.7073 103.155 58.3229 103.155L58.3062 103.122ZM56.8187 81.6952C57.0192 81.6952 57.2365 81.762 57.4036 81.879C57.671 82.0629 57.8382 82.347 57.8549 82.6646L59.0583 98.108L71.4096 72.2186L60.1279 75.6114C59.8271 75.695 59.4928 75.6449 59.2421 75.4777C58.9747 75.2939 58.8076 75.0097 58.7909 74.6922L57.5875 59.2488L45.2361 85.1382L56.5178 81.7453C56.6181 81.7119 56.7184 81.6952 56.8187 81.6952Z" fill="#D70A32"/>
<path d="M106.776 119H81.7052C81.1202 119 80.669 118.532 80.669 117.964C80.669 117.396 81.137 116.928 81.7052 116.928H106.776C107.127 116.928 107.411 116.643 107.411 116.292V72.837C107.411 72.2688 107.879 71.8008 108.447 71.8008C109.015 71.8008 109.483 72.2688 109.483 72.837V116.292C109.483 117.797 108.263 119 106.776 119Z" fill="#1F1F1F"/>
<path d="M109.283 73.8732H107.611C101.511 73.8732 96.5469 68.9093 96.5469 62.8088V54.452C96.5469 53.8838 97.0149 53.4158 97.5831 53.4158H119.311C119.896 53.4158 120.347 53.8838 120.347 54.452V62.8088C120.347 68.9093 115.383 73.8732 109.283 73.8732ZM98.6361 55.4883V62.8088C98.6361 67.7561 102.664 71.8007 107.628 71.8007H109.299C114.247 71.8007 118.291 67.7728 118.291 62.8088V55.4883H98.6528H98.6361Z" fill="#1F1F1F"/>
<path d="M115.132 55.4882H101.762C101.177 55.4882 100.725 55.0202 100.725 54.452V42.7524C100.725 42.1842 101.193 41.7162 101.762 41.7162C102.33 41.7162 102.798 42.1842 102.798 42.7524V53.4157H114.079V42.7524C114.079 42.1842 114.547 41.7162 115.116 41.7162C115.684 41.7162 116.152 42.1842 116.152 42.7524V54.452C116.152 55.0202 115.684 55.4882 115.116 55.4882H115.132Z" fill="#1F1F1F"/>
<path d="M121.818 55.4883H95.0761C94.4911 55.4883 94.0399 55.0203 94.0399 54.452C94.0399 53.8838 94.5078 53.4158 95.0761 53.4158H121.818C122.403 53.4158 122.854 53.8838 122.854 54.452C122.854 55.0203 122.386 55.4883 121.818 55.4883Z" fill="#1F1F1F"/>
</svg>
