<svg width="136" height="213" viewBox="0 0 136 213" fill="none" xmlns="http://www.w3.org/2000/svg">
<path d="M31.7678 152.792V140.112H37.0108C38.3381 140.112 39.4094 140.495 40.111 141.154C40.7462 141.75 41.097 142.578 41.097 143.585C41.097 144.493 40.7083 145.223 40.1774 145.713C39.9024 145.98 39.5991 146.167 39.2767 146.283C39.6844 146.434 40.0636 146.666 40.3955 146.977C40.9264 147.476 41.3056 148.206 41.3056 149.212C41.3056 150.308 40.9264 151.162 40.3006 151.75C39.5706 152.436 38.4898 152.792 37.2288 152.792H31.7678ZM33.8252 151.073H37.0202C38.4424 151.073 39.2388 150.281 39.2388 149.132C39.2388 147.983 38.4424 147.2 37.0202 147.2H33.8252V151.073ZM33.8252 145.481H36.8591C38.1674 145.481 39.0397 144.849 39.0397 143.656C39.0397 142.463 38.1674 141.83 36.8591 141.83H33.8252V145.481Z" fill="#1F1F1F"/>
<path d="M46.7114 152.89C45.5358 152.89 44.7394 152.641 44.1515 152.08C43.6491 151.617 43.3931 150.895 43.3931 150.147C43.3931 149.453 43.6301 148.838 44.1231 148.375C44.7204 147.814 45.5263 147.529 46.7019 147.529H49.2618V146.888C49.2618 146.354 49.1385 145.953 48.8351 145.668C48.5033 145.348 47.9629 145.196 47.2044 145.196C46.1331 145.196 45.5832 145.472 45.0427 146.113L43.7818 144.974C44.6825 143.976 45.64 143.647 47.2234 143.647C48.6645 143.647 49.7074 143.967 50.371 144.591C50.9209 145.107 51.1959 145.829 51.1959 146.764V152.792H49.2997V151.964C49.0153 152.24 48.7308 152.445 48.418 152.587C47.9629 152.801 47.4319 152.89 46.7114 152.89ZM45.2703 150.112C45.2703 150.949 45.8202 151.385 47.0717 151.385C47.8017 151.385 48.399 151.278 48.8446 150.86C49.167 150.548 49.2618 150.076 49.2618 149.551V148.812H47.0053C46.3416 148.812 45.9055 148.936 45.6116 149.221C45.3746 149.444 45.2703 149.738 45.2703 150.112Z" fill="#1F1F1F"/>
<path d="M57.0133 152.792C56.179 152.792 55.5438 152.534 55.1077 152.115C54.6241 151.67 54.3776 151.038 54.3776 150.299V145.312H53.2778V143.923H54.3776V141.18H56.3117V143.923H58.1795V145.312H56.3117V150.192C56.3117 150.869 56.6531 151.243 57.3641 151.243H58.1795V152.792H57.0133Z" fill="#1F1F1F"/>
<path d="M63.3833 152.792C62.549 152.792 61.9138 152.534 61.4777 152.115C60.9942 151.67 60.7476 151.038 60.7476 150.299V145.312H59.6479V143.923H60.7476V141.18H62.6818V143.923H64.5495V145.312H62.6818V150.192C62.6818 150.869 63.0231 151.243 63.7341 151.243H64.5495V152.792H63.3833Z" fill="#1F1F1F"/>
<path d="M70.72 152.899C69.3547 152.899 68.3782 152.552 67.6576 151.884C66.8802 151.145 66.4156 149.978 66.4156 148.277C66.4156 146.666 66.8897 145.437 67.7335 144.644C68.4351 143.985 69.3642 143.647 70.4829 143.647C71.6396 143.647 72.5593 143.976 73.2419 144.626C74.1047 145.437 74.5692 146.657 74.5692 148.42V148.812H68.3213C68.3213 149.649 68.5678 150.308 69.0324 150.744C69.4495 151.136 70.0279 151.349 70.7674 151.349C71.8482 151.349 72.4171 151.056 73.0997 150.414L74.3417 151.492C73.3557 152.409 72.4076 152.899 70.72 152.899ZM68.3213 147.529H72.6446C72.6162 146.87 72.474 146.203 71.943 145.704C71.6017 145.383 71.1277 145.178 70.4829 145.178C69.8477 145.178 69.3642 145.383 69.0229 145.704C68.5014 146.203 68.3592 146.87 68.3213 147.529Z" fill="#1F1F1F"/>
<path d="M77.1488 152.792V143.754H79.0545V144.733C79.5475 144.101 80.5335 143.647 81.6048 143.647C82.5529 143.647 83.2071 143.861 83.8898 144.502L82.4486 145.873C82.003 145.463 81.6522 145.276 80.9981 145.276C79.9457 145.276 79.0829 146.06 79.0829 147.298V152.792H77.1488Z" fill="#1F1F1F"/>
<path d="M85.4817 152.792V143.932H87.4158V152.792H85.4817ZM85.4248 141.688V140.067H87.4821V141.688H85.4248Z" fill="#1F1F1F"/>
<path d="M94.3112 152.899C92.946 152.899 91.9694 152.552 91.2489 151.884C90.4715 151.145 90.0069 149.978 90.0069 148.277C90.0069 146.666 90.4809 145.437 91.3247 144.644C92.0263 143.985 92.9555 143.647 94.0742 143.647C95.2309 143.647 96.1505 143.976 96.8332 144.626C97.6959 145.437 98.1605 146.657 98.1605 148.42V148.812H91.9126C91.9126 149.649 92.1591 150.308 92.6236 150.744C93.0408 151.136 93.6191 151.349 94.3586 151.349C95.4395 151.349 96.0083 151.056 96.691 150.414L97.933 151.492C96.9469 152.409 95.9988 152.899 94.3112 152.899ZM91.9126 147.529H96.2359C96.2074 146.87 96.0652 146.203 95.5343 145.704C95.193 145.383 94.7189 145.178 94.0742 145.178C93.439 145.178 92.9555 145.383 92.6141 145.704C92.0927 146.203 91.9505 146.87 91.9126 147.529Z" fill="#1F1F1F"/>
<path d="M103.84 152.899C102.276 152.899 100.949 152.65 99.8109 151.599L101.081 150.406C101.849 151.145 102.902 151.341 103.831 151.341C105.291 151.341 105.945 150.869 105.945 150.076C105.945 149.471 105.585 149.114 104.665 149.034L103.12 148.91C101.318 148.749 100.276 148.01 100.276 146.416C100.276 144.644 101.906 143.647 104.011 143.647C105.367 143.647 106.58 143.941 107.481 144.68L106.258 145.82C105.642 145.357 104.817 145.178 104.002 145.178C102.722 145.178 102.162 145.642 102.162 146.345C102.162 146.959 102.541 147.28 103.471 147.36L104.988 147.485C106.76 147.645 107.841 148.402 107.841 150.04C107.841 151.919 106.154 152.899 103.84 152.899Z" fill="#1F1F1F"/>
<g clip-path="url(#clip0_2744_6395)">
<path d="M81.7052 119H36.5785C35.0742 119 33.8708 117.78 33.8708 116.292V41.0644C33.8708 39.5602 35.0909 38.3568 36.5785 38.3568H80.0339C81.5381 38.3568 82.7415 39.5769 82.7415 41.0644V111.262C82.7415 111.83 82.2735 112.298 81.7052 112.298C81.137 112.298 80.669 111.83 80.669 111.262V41.0644C80.669 40.7134 80.3848 40.4293 80.0339 40.4293H36.5785C36.2275 40.4293 35.9433 40.7134 35.9433 41.0644V116.276C35.9433 116.627 36.2275 116.911 36.5785 116.911H81.7052C82.2902 116.911 82.7415 117.379 82.7415 117.947C82.7415 118.515 82.2735 118.983 81.7052 118.983V119Z" fill="#1F1F1F"/>
<path d="M70.0057 40.446H46.6066C46.0216 40.446 45.5704 39.978 45.5704 39.4098V32.7076C45.5704 31.2034 46.7905 30 48.278 30H68.3343C69.8385 30 71.0419 31.2201 71.0419 32.7076V39.3931C71.0419 39.9613 70.5739 40.4293 70.0057 40.4293V40.446ZM47.6596 38.3568H68.9694V32.7076C68.9694 32.3566 68.6853 32.0725 68.3343 32.0725H48.278C47.927 32.0725 47.6429 32.3566 47.6429 32.7076V38.3568H47.6596Z" fill="#1F1F1F"/>
<path d="M58.3062 103.122C58.3062 103.122 58.1725 103.122 58.1223 103.105C57.6543 103.022 57.3033 102.637 57.2699 102.153L55.866 84.1187L43.5648 87.8124C43.1803 87.9294 42.7458 87.8124 42.4784 87.4948C42.211 87.1773 42.1441 86.7427 42.3279 86.3583L57.3702 54.8364C57.5708 54.4186 58.0387 54.1679 58.5067 54.2682C58.9747 54.3517 59.3257 54.7361 59.3591 55.2208L60.7631 73.2548L73.0643 69.5611C73.4654 69.4441 73.8833 69.5611 74.1507 69.8787C74.4181 70.1962 74.4849 70.6308 74.3011 71.0152L59.2588 102.554C59.075 102.921 58.7073 103.155 58.3229 103.155L58.3062 103.122ZM56.8187 81.6952C57.0192 81.6952 57.2365 81.762 57.4036 81.879C57.671 82.0629 57.8382 82.347 57.8549 82.6646L59.0583 98.108L71.4096 72.2186L60.1279 75.6114C59.8271 75.695 59.4928 75.6449 59.2421 75.4777C58.9747 75.2939 58.8076 75.0097 58.7909 74.6922L57.5875 59.2488L45.2361 85.1382L56.5178 81.7453C56.6181 81.7119 56.7184 81.6952 56.8187 81.6952Z" fill="#D70A32"/>
<path d="M106.776 119H81.7052C81.1202 119 80.669 118.532 80.669 117.964C80.669 117.396 81.137 116.928 81.7052 116.928H106.776C107.127 116.928 107.411 116.643 107.411 116.292V72.837C107.411 72.2688 107.879 71.8008 108.447 71.8008C109.015 71.8008 109.483 72.2688 109.483 72.837V116.292C109.483 117.797 108.263 119 106.776 119Z" fill="#1F1F1F"/>
<path d="M109.283 73.8732H107.611C101.511 73.8732 96.5469 68.9093 96.5469 62.8088V54.452C96.5469 53.8838 97.0149 53.4158 97.5831 53.4158H119.311C119.896 53.4158 120.347 53.8838 120.347 54.452V62.8088C120.347 68.9093 115.383 73.8732 109.283 73.8732ZM98.6361 55.4883V62.8088C98.6361 67.7561 102.664 71.8007 107.628 71.8007H109.299C114.247 71.8007 118.291 67.7728 118.291 62.8088V55.4883H98.6528H98.6361Z" fill="#1F1F1F"/>
<path d="M115.132 55.4882H101.762C101.177 55.4882 100.725 55.0202 100.725 54.452V42.7524C100.725 42.1842 101.193 41.7162 101.762 41.7162C102.33 41.7162 102.798 42.1842 102.798 42.7524V53.4157H114.079V42.7524C114.079 42.1842 114.547 41.7162 115.116 41.7162C115.684 41.7162 116.152 42.1842 116.152 42.7524V54.452C116.152 55.0202 115.684 55.4882 115.116 55.4882H115.132Z" fill="#1F1F1F"/>
<path d="M121.818 55.4883H95.0761C94.4911 55.4883 94.0399 55.0203 94.0399 54.452C94.0399 53.8838 94.5078 53.4158 95.0761 53.4158H121.818C122.403 53.4158 122.854 53.8838 122.854 54.452C122.854 55.0203 122.386 55.4883 121.818 55.4883Z" fill="#1F1F1F"/>
</g>
<defs>
<clipPath id="clip0_2744_6395">
<rect width="89" height="89" fill="white" transform="translate(33.8708 30)"/>
</clipPath>
</defs>
</svg>
