<svg width="136" height="121" viewBox="0 0 136 121" fill="none" xmlns="http://www.w3.org/2000/svg">
<path d="M56.7601 102.287H41.604C41.1994 102.287 40.8285 102.034 40.7105 101.669C40.5925 101.304 40.7273 100.908 41.0645 100.686L46.1559 97.3076L41.0645 93.9297C40.7273 93.7077 40.5925 93.3112 40.7105 92.9465C40.8285 92.5817 41.1994 92.328 41.604 92.328H56.7601C57.2828 92.328 57.7042 92.7245 57.7042 93.2161C57.7042 93.7077 57.2828 94.1042 56.7601 94.1042H44.5543L48.3138 96.594C48.5667 96.7526 48.7185 97.0222 48.7185 97.3076C48.7185 97.5931 48.5667 97.8627 48.3138 98.0213L44.5543 100.511H56.7601C57.2828 100.511 57.7042 100.908 57.7042 101.399C57.7042 101.891 57.2828 102.287 56.7601 102.287Z" fill="#D70A32"/>
<path d="M56.7601 88.2048H41.604C41.0814 88.2048 40.6599 87.8083 40.6599 87.3167C40.6599 86.8251 41.0814 86.4286 41.604 86.4286H56.7601C57.2828 86.4286 57.7042 86.8251 57.7042 87.3167C57.7042 87.8083 57.2828 88.2048 56.7601 88.2048Z" fill="#D70A32"/>
<path d="M56.7601 82.2736H41.604C41.0814 82.2736 40.6599 81.8772 40.6599 81.3856C40.6599 80.8939 41.0814 80.4975 41.604 80.4975H55.8329V76.4218C55.8329 75.9302 56.2544 75.5337 56.777 75.5337C57.2996 75.5337 57.7211 75.9302 57.7211 76.4218V81.3856C57.7211 81.8772 57.2996 82.2736 56.777 82.2736H56.7601Z" fill="#D70A32"/>
<path d="M51.5002 71.4263C51.3147 71.4263 51.1124 71.3629 50.9438 71.2519L41.0308 64.4009C40.6093 64.1154 40.525 63.5604 40.8285 63.1639C41.1319 62.7675 41.722 62.6882 42.1435 62.9736L52.0565 69.8246C52.478 70.11 52.5623 70.6651 52.2588 71.0616C52.0734 71.2994 51.7868 71.4263 51.5002 71.4263Z" fill="#D70A32"/>
<path d="M48.3813 69.2695C48.0778 69.2695 47.7744 69.1268 47.5889 68.873C47.3023 68.4607 47.4372 67.9215 47.8586 67.6519L56.2375 62.5454C56.6758 62.2758 57.249 62.4027 57.5356 62.7991C57.8222 63.2115 57.6874 63.7507 57.2659 64.0203L48.887 69.1268C48.7353 69.2219 48.5499 69.2695 48.3813 69.2695Z" fill="#D70A32"/>
<path d="M56.7601 71.4263H41.604C41.0814 71.4263 40.6599 71.0299 40.6599 70.5382C40.6599 70.0466 41.0814 69.6501 41.604 69.6501H56.7601C57.2828 69.6501 57.7042 70.0466 57.7042 70.5382C57.7042 71.0299 57.2828 71.4263 56.7601 71.4263Z" fill="#D70A32"/>
<path d="M92.973 111.549H28.9767C28.4541 111.549 28.0326 111.152 28.0326 110.677V53.5376C28.0326 53.046 28.4541 52.6495 28.9767 52.6495H92.973C93.4956 52.6495 93.9171 53.046 93.9171 53.5376V110.677C93.9171 111.168 93.4956 111.565 92.973 111.565V111.549ZM29.9039 109.788H92.0289V54.4099H29.9039V109.788Z" fill="#1F1F1F"/>
<path d="M69.3537 111.549C68.8311 111.549 68.4096 111.152 68.4096 110.661V53.5376C68.4096 53.046 68.8311 52.6495 69.3537 52.6495C69.8763 52.6495 70.2978 53.046 70.2978 53.5376V110.677C70.2978 111.168 69.8763 111.565 69.3537 111.565V111.549Z" fill="#1F1F1F"/>
<path d="M69.3536 54.4098C69.1513 54.4098 68.9658 54.3464 68.7804 54.2354L49.1566 40.2322L29.5329 54.2354C29.1283 54.5367 28.5382 54.4574 28.2179 54.061C27.8976 53.6803 27.9819 53.1253 28.4034 52.824L48.6003 38.4243C48.9375 38.1864 49.3927 38.1864 49.7298 38.4243L69.9268 52.824C70.3314 53.1253 70.4157 53.6645 70.1122 54.061C69.9268 54.283 69.6402 54.4098 69.3704 54.4098H69.3536Z" fill="#1F1F1F"/>
<path d="M92.973 54.4099C92.7707 54.4099 92.5852 54.3465 92.3998 54.2355L72.4557 40.0102H49.1567C48.6341 40.0102 48.2126 39.6137 48.2126 39.1221C48.2126 38.6305 48.6341 38.234 49.1567 38.234H72.7592C72.9615 38.234 73.1638 38.2974 73.3324 38.4085L93.5293 52.8082C93.9339 53.1095 94.0182 53.6487 93.7148 54.0451C93.5293 54.2672 93.2427 54.394 92.973 54.394V54.4099Z" fill="#1F1F1F"/>
<path d="M72.7592 40.0102C72.2366 40.0102 71.8151 39.6137 71.8151 39.1221V33.635H50.084V39.1221C50.084 39.6137 49.6625 40.0102 49.1399 40.0102C48.6173 40.0102 48.1958 39.6137 48.1958 39.1221V32.7627C48.1958 32.2711 48.6173 31.8746 49.1399 31.8746H72.7423C73.265 31.8746 73.6864 32.2711 73.6864 32.7627V39.1379C73.6864 39.6295 73.265 40.026 72.7423 40.026L72.7592 40.0102Z" fill="#1F1F1F"/>
</svg>
