<svg width="136" height="92" viewBox="0 0 136 92" fill="none" xmlns="http://www.w3.org/2000/svg">
<path d="M41.1298 31.792V19.1117H45.8703C47.0554 19.1117 48.3448 19.361 49.3403 20.296C50.6866 21.5516 50.7151 23.1099 50.7151 25.4519C50.7151 27.7938 50.6866 29.3521 49.3403 30.6077C48.3448 31.5427 47.0554 31.792 45.8703 31.792H41.1298ZM43.1872 30.0734H45.5859C46.4202 30.0734 47.2071 29.922 47.8139 29.3521C48.6103 28.6041 48.6577 27.4287 48.6577 25.4519C48.6577 23.475 48.6103 22.2996 47.8139 21.5516C47.2071 20.9817 46.4202 20.8303 45.5859 20.8303H43.1872V30.0734Z" fill="#1F1F1F"/>
<path d="M56.129 31.89C54.9533 31.89 54.1569 31.6407 53.5691 31.0797C53.0666 30.6166 52.8106 29.8953 52.8106 29.1473C52.8106 28.4528 53.0477 27.8383 53.5407 27.3753C54.138 26.8143 54.9439 26.5293 56.1195 26.5293H58.6794V25.8882C58.6794 25.3539 58.5561 24.9532 58.2527 24.6682C57.9209 24.3477 57.3805 24.1963 56.622 24.1963C55.5506 24.1963 55.0007 24.4723 54.4603 25.1135L53.1994 23.9737C54.1001 22.9763 55.0576 22.6469 56.6409 22.6469C58.0821 22.6469 59.125 22.9674 59.7886 23.5908C60.3385 24.1072 60.6135 24.8285 60.6135 25.7635V31.792H58.7173V30.9639C58.4328 31.2399 58.1484 31.4448 57.8355 31.5872C57.3805 31.8009 56.8495 31.89 56.129 31.89ZM54.6879 29.1117C54.6879 29.9488 55.2378 30.3851 56.4893 30.3851C57.2193 30.3851 57.8166 30.2782 58.2622 29.8597C58.5845 29.548 58.6794 29.0761 58.6794 28.5507V27.8116H56.4229C55.7592 27.8116 55.3231 27.9363 55.0292 28.2212C54.7922 28.4439 54.6879 28.7377 54.6879 29.1117Z" fill="#1F1F1F"/>
<path d="M63.5677 31.792V22.9318H65.5018V31.792H63.5677ZM63.5108 20.6878V19.0671H65.5682V20.6878H63.5108Z" fill="#1F1F1F"/>
<path d="M68.5859 31.792V22.7537H70.4916V23.7332C70.9846 23.101 71.9706 22.6469 73.042 22.6469C73.99 22.6469 74.6442 22.8606 75.3269 23.5017L73.8858 24.873C73.4402 24.4634 73.0894 24.2764 72.4352 24.2764C71.3828 24.2764 70.52 25.06 70.52 26.2978V31.792H68.5859Z" fill="#1F1F1F"/>
<path d="M76.6204 35.4875V33.8579H77.1134C77.9383 33.8579 78.2227 33.6264 78.4976 32.8873L79.076 31.3557L75.7102 22.7537H77.7676L80.0525 29.1028L82.309 22.7537H84.3664L80.062 33.76C79.5785 34.9889 78.7442 35.4875 77.3315 35.4875H76.6204Z" fill="#1F1F1F"/>
</svg>
