<svg width="169" height="212" viewBox="0 0 169 212" fill="none" xmlns="http://www.w3.org/2000/svg">
<rect width="169" height="212" fill="white"/>
<path d="M64.1236 164V150.472H68.8736C70.0611 150.472 71.3531 150.738 72.3506 151.735C73.6996 153.075 73.7281 154.737 73.7281 157.236C73.7281 159.734 73.6996 161.397 72.3506 162.736C71.3531 163.734 70.0611 164 68.8736 164H64.1236ZM66.1851 162.166H68.5886C69.4246 162.166 70.2131 162.005 70.8211 161.397C71.6191 160.599 71.6666 159.345 71.6666 157.236C71.6666 155.127 71.6191 153.873 70.8211 153.075C70.2131 152.467 69.4246 152.305 68.5886 152.305H66.1851V162.166ZM79.1529 164.105C77.9749 164.105 77.1769 163.838 76.5879 163.24C76.0844 162.746 75.8279 161.976 75.8279 161.178C75.8279 160.437 76.0654 159.782 76.5594 159.288C77.1579 158.689 77.9654 158.385 79.1434 158.385H81.7084V157.701C81.7084 157.131 81.5849 156.704 81.2809 156.4C80.9484 156.058 80.4069 155.896 79.6469 155.896C78.5734 155.896 78.0224 156.191 77.4809 156.875L76.2174 155.659C77.1199 154.595 78.0794 154.243 79.6659 154.243C81.1099 154.243 82.1549 154.585 82.8199 155.25C83.3709 155.801 83.6464 156.571 83.6464 157.568V164H81.7464V163.116C81.4614 163.411 81.1764 163.629 80.8629 163.781C80.4069 164.01 79.8749 164.105 79.1529 164.105ZM77.7089 161.14C77.7089 162.033 78.2599 162.499 79.5139 162.499C80.2454 162.499 80.8439 162.385 81.2904 161.938C81.6134 161.606 81.7084 161.102 81.7084 160.542V159.753H79.4474C78.7824 159.753 78.3454 159.886 78.0509 160.19C77.8134 160.428 77.7089 160.741 77.7089 161.14ZM86.6065 164V154.547H88.5445V164H86.6065ZM86.5495 152.153V150.424H88.611V152.153H86.5495ZM91.6348 164V154.357H93.5443V155.402C94.0383 154.728 95.0263 154.243 96.0998 154.243C97.0498 154.243 97.7053 154.471 98.3893 155.155L96.9453 156.618C96.4988 156.181 96.1473 155.982 95.4918 155.982C94.4373 155.982 93.5728 156.818 93.5728 158.138V164H91.6348ZM99.6855 167.943V166.204H100.179C101.006 166.204 101.291 165.957 101.566 165.169L102.146 163.534L98.7735 154.357H100.835L103.124 161.131L105.385 154.357H107.447L103.134 166.1C102.649 167.411 101.813 167.943 100.398 167.943H99.6855Z" fill="#1F1F1F"/>
<g clip-path="url(#clip0_2632_5037)">
<path d="M79.7853 110.119H64.5987C64.1933 110.119 63.8217 109.848 63.7034 109.459C63.5852 109.07 63.7203 108.647 64.0582 108.41L69.1598 104.807L64.0582 101.203C63.7203 100.966 63.5852 100.543 63.7034 100.154C63.8217 99.7648 64.1933 99.4941 64.5987 99.4941H79.7853C80.309 99.4941 80.7313 99.9171 80.7313 100.442C80.7313 100.966 80.309 101.389 79.7853 101.389H67.555L71.3221 104.045C71.5755 104.214 71.7275 104.502 71.7275 104.807C71.7275 105.111 71.5755 105.399 71.3221 105.568L67.555 108.224H79.7853C80.309 108.224 80.7313 108.647 80.7313 109.172C80.7313 109.696 80.309 110.119 79.7853 110.119Z" fill="#D70A32"/>
<path d="M79.7852 95.0961H64.5986C64.0749 95.0961 63.6526 94.6731 63.6526 94.1486C63.6526 93.6241 64.0749 93.2012 64.5986 93.2012H79.7852C80.3088 93.2012 80.7312 93.6241 80.7312 94.1486C80.7312 94.6731 80.3088 95.0961 79.7852 95.0961Z" fill="#D70A32"/>
<path d="M79.7852 88.7686H64.5986C64.0749 88.7686 63.6526 88.3456 63.6526 87.8212C63.6526 87.2967 64.0749 86.8737 64.5986 86.8737H78.8561V82.5256C78.8561 82.0011 79.2784 81.5781 79.8021 81.5781C80.3257 81.5781 80.7481 82.0011 80.7481 82.5256V87.8212C80.7481 88.3456 80.3257 88.7686 79.8021 88.7686H79.7852Z" fill="#D70A32"/>
<path d="M74.5146 77.1957C74.3288 77.1957 74.1261 77.128 73.9572 77.0096L64.0242 69.7007C63.6019 69.3962 63.5175 68.804 63.8215 68.381C64.1256 67.9581 64.7168 67.8735 65.1392 68.178L75.0721 75.4869C75.4944 75.7915 75.5789 76.3836 75.2748 76.8066C75.089 77.0604 74.8018 77.1957 74.5146 77.1957Z" fill="#D70A32"/>
<path d="M71.3896 74.8944C71.0855 74.8944 70.7814 74.7422 70.5956 74.4714C70.3084 74.0316 70.4436 73.4563 70.8659 73.1687L79.2616 67.7209C79.7008 67.4332 80.2752 67.5686 80.5623 67.9916C80.8495 68.4314 80.7144 69.0067 80.2921 69.2943L71.8964 74.7422C71.7443 74.8437 71.5585 74.8944 71.3896 74.8944Z" fill="#D70A32"/>
<path d="M79.7852 77.1957H64.5986C64.0749 77.1957 63.6526 76.7727 63.6526 76.2482C63.6526 75.7238 64.0749 75.3008 64.5986 75.3008H79.7852C80.3088 75.3008 80.7312 75.7238 80.7312 76.2482C80.7312 76.7727 80.3088 77.1957 79.7852 77.1957Z" fill="#D70A32"/>
<path d="M116.071 120H51.946C51.4223 120 51 119.577 51 119.07V58.1115C51 57.587 51.4223 57.1641 51.946 57.1641H116.071C116.595 57.1641 117.017 57.587 117.017 58.1115V119.07C117.017 119.594 116.595 120.017 116.071 120.017V120ZM52.8751 118.122H115.125V59.042H52.8751V118.122Z" fill="#1F1F1F"/>
<path d="M92.4042 120C91.8806 120 91.4583 119.577 91.4583 119.053V58.1115C91.4583 57.587 91.8806 57.1641 92.4042 57.1641C92.9279 57.1641 93.3502 57.587 93.3502 58.1115V119.07C93.3502 119.594 92.9279 120.017 92.4042 120.017V120Z" fill="#1F1F1F"/>
<path d="M92.404 59.0414C92.2013 59.0414 92.0155 58.9737 91.8297 58.8552L72.1665 43.916L52.5033 58.8552C52.0979 59.1767 51.5067 59.0921 51.1857 58.6691C50.8647 58.2631 50.9492 57.6709 51.3715 57.3495L71.609 41.9872C71.9469 41.7334 72.403 41.7334 72.7409 41.9872L92.9784 57.3495C93.3838 57.6709 93.4683 58.2462 93.1642 58.6691C92.9784 58.906 92.6912 59.0414 92.4209 59.0414H92.404Z" fill="#1F1F1F"/>
<path d="M116.071 59.0423C115.868 59.0423 115.682 58.9746 115.497 58.8562L95.5125 43.6801H72.1667C71.643 43.6801 71.2207 43.2571 71.2207 42.7326C71.2207 42.2081 71.643 41.7852 72.1667 41.7852H95.8166C96.0193 41.7852 96.222 41.8528 96.3909 41.9713L116.628 57.3335C117.034 57.655 117.118 58.2302 116.814 58.6532C116.628 58.8901 116.341 59.0254 116.071 59.0254V59.0423Z" fill="#1F1F1F"/>
<path d="M95.8166 43.6793C95.2929 43.6793 94.8706 43.2564 94.8706 42.7319V36.878H73.0958V42.7319C73.0958 43.2564 72.6735 43.6793 72.1499 43.6793C71.6262 43.6793 71.2039 43.2564 71.2039 42.7319V35.9475C71.2039 35.423 71.6262 35 72.1499 35H95.7997C96.3234 35 96.7457 35.423 96.7457 35.9475V42.7488C96.7457 43.2733 96.3234 43.6963 95.7997 43.6963L95.8166 43.6793Z" fill="#1F1F1F"/>
</g>
<defs>
<clipPath id="clip0_2632_5037">
<rect width="66" height="85" fill="white" transform="translate(51 35)"/>
</clipPath>
</defs>
</svg>
