<svg width="169" height="212" viewBox="0 0 169 212" fill="none" xmlns="http://www.w3.org/2000/svg">
<rect width="169" height="212" fill="white"/>
<path d="M30.6695 164V150.472H39.324V152.305H32.731V156.257H38.355V158.1H32.731V162.166H39.324V164H30.6695ZM41.6237 159.63V157.815H47.1717V159.63H41.6237ZM54.587 164.114C53.0955 164.114 51.9555 163.61 51.0815 162.736C49.7705 161.425 49.7135 160.067 49.7135 157.236C49.7135 154.405 49.7705 153.047 51.0815 151.735C51.9555 150.861 53.0955 150.358 54.587 150.358C57.076 150.358 58.938 151.83 59.413 154.519H57.3135C57 153.141 56.0785 152.191 54.587 152.191C53.808 152.191 53.143 152.457 52.6205 152.98C51.851 153.759 51.775 154.889 51.775 157.236C51.775 159.582 51.851 160.713 52.6205 161.492C53.143 162.014 53.808 162.28 54.587 162.28C56.0785 162.28 57 161.33 57.3135 159.953H59.413C58.938 162.641 57.076 164.114 54.587 164.114ZM65.417 164.114C64.2485 164.114 63.2985 163.734 62.567 163.002C61.579 162.005 61.408 160.694 61.408 159.183C61.408 157.663 61.579 156.352 62.5765 155.345C63.2985 154.623 64.2485 154.243 65.417 154.243C66.576 154.243 67.526 154.623 68.2575 155.345C69.255 156.352 69.426 157.663 69.426 159.183C69.426 160.694 69.255 162.005 68.2575 163.002C67.526 163.734 66.576 164.114 65.417 164.114ZM63.346 159.183C63.346 160.219 63.403 161.226 63.992 161.815C64.3625 162.185 64.8375 162.375 65.417 162.375C65.9965 162.375 66.4715 162.185 66.8325 161.815C67.431 161.226 67.488 160.219 67.488 159.183C67.488 158.138 67.431 157.141 66.8325 156.542C66.4715 156.172 65.9965 155.982 65.417 155.982C64.8375 155.982 64.3625 156.172 63.992 156.542C63.403 157.141 63.346 158.138 63.346 159.183ZM72.0596 164V154.357H73.9691V155.336C74.2541 155.013 74.5771 154.785 74.9191 154.614C75.4226 154.357 75.9451 154.243 76.5436 154.243C77.7216 154.243 78.6621 154.718 79.2701 155.649C79.6121 155.212 80.0111 154.87 80.4766 154.633C80.9991 154.376 81.5786 154.243 82.2436 154.243C83.3076 154.243 84.1531 154.566 84.7706 155.174C85.4166 155.83 85.7491 156.761 85.7491 157.806V164H83.8111V158.119C83.8111 156.618 82.9561 155.982 81.8636 155.982C80.7996 155.982 79.8781 156.628 79.8781 158.024V164H77.9401V158.119C77.9401 156.618 77.0851 155.982 75.9831 155.982C74.8906 155.982 73.9976 156.628 73.9976 158.119V164H72.0596ZM88.7217 164V154.357H90.6312V155.336C90.9162 155.013 91.2392 154.785 91.5812 154.614C92.0847 154.357 92.6072 154.243 93.2057 154.243C94.3837 154.243 95.3242 154.718 95.9322 155.649C96.2742 155.212 96.6732 154.87 97.1387 154.633C97.6612 154.376 98.2407 154.243 98.9057 154.243C99.9697 154.243 100.815 154.566 101.433 155.174C102.079 155.83 102.411 156.761 102.411 157.806V164H100.473V158.119C100.473 156.618 99.6182 155.982 98.5257 155.982C97.4617 155.982 96.5402 156.628 96.5402 158.024V164H94.6022V158.119C94.6022 156.618 93.7472 155.982 92.6452 155.982C91.5527 155.982 90.6597 156.628 90.6597 158.119V164H88.7217ZM109.203 164.114C107.835 164.114 106.856 163.743 106.134 163.031C105.355 162.242 104.89 160.998 104.89 159.183C104.89 157.464 105.365 156.153 106.21 155.307C106.913 154.604 107.844 154.243 108.965 154.243C110.124 154.243 111.046 154.595 111.73 155.288C112.594 156.153 113.06 157.454 113.06 159.335V159.753H106.799C106.799 160.646 107.046 161.349 107.512 161.815C107.93 162.233 108.509 162.461 109.25 162.461C110.333 162.461 110.903 162.147 111.587 161.463L112.832 162.613C111.844 163.591 110.894 164.114 109.203 164.114ZM106.799 158.385H111.131C111.103 157.682 110.96 156.97 110.428 156.438C110.086 156.096 109.611 155.877 108.965 155.877C108.329 155.877 107.844 156.096 107.502 156.438C106.98 156.97 106.837 157.682 106.799 158.385ZM115.645 164V154.357H117.554V155.402C118.048 154.728 119.036 154.243 120.11 154.243C121.06 154.243 121.715 154.471 122.399 155.155L120.955 156.618C120.509 156.181 120.157 155.982 119.502 155.982C118.447 155.982 117.583 156.818 117.583 158.138V164H115.645ZM127.183 164.114C125.967 164.114 124.941 163.743 124.19 162.993C123.383 162.195 122.898 160.95 122.898 159.183C122.898 157.407 123.383 156.162 124.19 155.364C124.941 154.614 125.967 154.243 127.183 154.243C128.513 154.243 129.444 154.642 130.356 155.611L129.035 156.894C128.427 156.238 127.943 155.982 127.183 155.982C126.527 155.982 126.014 156.181 125.596 156.599C125.007 157.188 124.836 158.053 124.836 159.183C124.836 160.304 125.007 161.169 125.596 161.758C126.014 162.185 126.527 162.375 127.183 162.375C127.943 162.375 128.427 162.119 129.035 161.463L130.356 162.755C129.444 163.724 128.513 164.114 127.183 164.114ZM136.144 164.114C134.776 164.114 133.798 163.743 133.076 163.031C132.297 162.242 131.831 160.998 131.831 159.183C131.831 157.464 132.306 156.153 133.152 155.307C133.855 154.604 134.786 154.243 135.907 154.243C137.066 154.243 137.987 154.595 138.671 155.288C139.536 156.153 140.001 157.454 140.001 159.335V159.753H133.741C133.741 160.646 133.988 161.349 134.453 161.815C134.871 162.233 135.451 162.461 136.192 162.461C137.275 162.461 137.845 162.147 138.529 161.463L139.773 162.613C138.785 163.591 137.835 164.114 136.144 164.114ZM133.741 158.385H138.073C138.044 157.682 137.902 156.97 137.37 156.438C137.028 156.096 136.553 155.877 135.907 155.877C135.27 155.877 134.786 156.096 134.444 156.438C133.921 156.97 133.779 157.682 133.741 158.385ZM50.2732 187.114C48.2497 187.114 46.7867 186.639 45.4852 185.328L46.8437 183.969C47.8317 184.957 48.9432 185.28 50.3112 185.28C51.3372 185.28 52.1067 185.024 52.5627 184.559C52.9142 184.216 53.0947 183.751 53.0947 183.19C53.0947 182.782 53.0187 182.468 52.8952 182.212C52.6387 181.718 52.1542 181.404 51.2517 181.262L49.4942 180.996C47.9932 180.768 46.8627 180.198 46.3117 179.086C46.0647 178.583 45.9412 178.003 45.9412 177.319C45.9412 176.217 46.3022 175.296 46.9862 174.612C47.7842 173.823 48.9907 173.358 50.5582 173.358C52.2587 173.358 53.5032 173.814 54.6622 174.887L53.3607 176.198C52.6007 175.467 51.7552 175.153 50.4917 175.153C49.5702 175.153 48.8957 175.419 48.4777 175.828C48.1262 176.189 47.9362 176.673 47.9362 177.224C47.9362 177.576 48.0027 177.87 48.1167 178.098C48.4207 178.706 49.1522 179.001 49.9217 179.115L51.6602 179.381C53.1897 179.609 54.1872 180.169 54.7477 181.29C54.9947 181.803 55.1372 182.43 55.1372 183.143C55.1372 184.216 54.7572 185.109 54.1017 185.774C53.2277 186.639 51.8787 187.114 50.2732 187.114ZM61.2237 187.114C60.0552 187.114 59.1052 186.734 58.3737 186.002C57.3857 185.005 57.2147 183.694 57.2147 182.183C57.2147 180.663 57.3857 179.352 58.3832 178.345C59.1052 177.623 60.0552 177.243 61.2237 177.243C62.3827 177.243 63.3327 177.623 64.0642 178.345C65.0617 179.352 65.2327 180.663 65.2327 182.183C65.2327 183.694 65.0617 185.005 64.0642 186.002C63.3327 186.734 62.3827 187.114 61.2237 187.114ZM59.1527 182.183C59.1527 183.219 59.2097 184.226 59.7987 184.815C60.1692 185.185 60.6442 185.375 61.2237 185.375C61.8032 185.375 62.2782 185.185 62.6392 184.815C63.2377 184.226 63.2947 183.219 63.2947 182.183C63.2947 181.138 63.2377 180.141 62.6392 179.542C62.2782 179.172 61.8032 178.982 61.2237 178.982C60.6442 178.982 60.1692 179.172 59.7987 179.542C59.2097 180.141 59.1527 181.138 59.1527 182.183ZM70.4503 187C69.5953 187 68.9683 186.743 68.5218 186.297C68.0468 185.822 67.8093 185.119 67.8093 184.33V173.472H69.7473V184.216C69.7473 184.976 70.0133 185.347 70.8018 185.347H71.6568V187H70.4503ZM77.0247 187.114C76.0747 187.114 75.2577 186.829 74.6307 186.202C73.9277 185.499 73.6807 184.577 73.6807 183.523V177.357H75.6187V183.238C75.6187 184.739 76.4832 185.375 77.5757 185.375C78.6682 185.375 79.5612 184.729 79.5612 183.238V177.357H81.4992V187H79.5897V186.031C79.3142 186.335 78.9722 186.582 78.6397 186.753C78.1552 186.99 77.6232 187.114 77.0247 187.114ZM87.453 187C86.617 187 85.9805 186.724 85.5435 186.278C85.059 185.803 84.812 185.128 84.812 184.34V179.02H83.71V177.538H84.812V174.612H86.75V177.538H88.6215V179.02H86.75V184.226C86.75 184.948 87.092 185.347 87.8045 185.347H88.6215V187H87.453ZM91.0782 187V177.547H93.0162V187H91.0782ZM91.0212 175.153V173.424H93.0827V175.153H91.0212ZM99.669 187.114C98.5005 187.114 97.5505 186.734 96.819 186.002C95.831 185.005 95.66 183.694 95.66 182.183C95.66 180.663 95.831 179.352 96.8285 178.345C97.5505 177.623 98.5005 177.243 99.669 177.243C100.828 177.243 101.778 177.623 102.509 178.345C103.507 179.352 103.678 180.663 103.678 182.183C103.678 183.694 103.507 185.005 102.509 186.002C101.778 186.734 100.828 187.114 99.669 187.114ZM97.598 182.183C97.598 183.219 97.655 184.226 98.244 184.815C98.6145 185.185 99.0895 185.375 99.669 185.375C100.248 185.375 100.723 185.185 101.084 184.815C101.683 184.226 101.74 183.219 101.74 182.183C101.74 181.138 101.683 180.141 101.084 179.542C100.723 179.172 100.248 178.982 99.669 178.982C99.0895 178.982 98.6145 179.172 98.244 179.542C97.655 180.141 97.598 181.138 97.598 182.183ZM106.312 187V177.357H108.221V178.336C108.497 178.022 108.839 177.775 109.171 177.604C109.656 177.367 110.188 177.243 110.786 177.243C111.736 177.243 112.553 177.528 113.18 178.155C113.883 178.858 114.13 179.789 114.13 180.844V187H112.192V181.119C112.192 179.618 111.337 178.982 110.235 178.982C109.143 178.982 108.25 179.628 108.25 181.119V187H106.312ZM120.217 187.114C118.649 187.114 117.319 186.848 116.179 185.727L117.452 184.454C118.222 185.242 119.276 185.451 120.207 185.451C121.67 185.451 122.326 184.948 122.326 184.102C122.326 183.456 121.965 183.076 121.043 182.991L119.495 182.858C117.69 182.687 116.645 181.898 116.645 180.198C116.645 178.307 118.279 177.243 120.388 177.243C121.746 177.243 122.962 177.557 123.865 178.345L122.639 179.561C122.022 179.067 121.195 178.877 120.378 178.877C119.096 178.877 118.535 179.371 118.535 180.122C118.535 180.777 118.915 181.119 119.846 181.205L121.366 181.338C123.143 181.509 124.226 182.316 124.226 184.064C124.226 186.069 122.535 187.114 120.217 187.114Z" fill="#1F1F1F"/>
<g clip-path="url(#clip0_2632_5038)">
<path d="M64.8552 93.8137C64.627 93.8137 64.3988 93.7072 64.2467 93.5247C63.9881 93.1901 64.049 92.7185 64.3836 92.4599L108.937 58.0977C109.272 57.8391 109.744 57.8999 110.002 58.2346C110.261 58.5692 110.2 59.0408 109.865 59.2994L65.3115 93.6616C65.1746 93.7681 65.0073 93.8137 64.8552 93.8137Z" fill="#D70A32" stroke="#D70A32" stroke-width="0.25" stroke-miterlimit="10"/>
<path d="M71.9437 100.507C71.7155 100.507 71.4873 100.4 71.3352 100.218C71.0766 99.8829 71.1375 99.4113 71.4721 99.1527L117.806 63.4063C118.14 63.1477 118.612 63.2085 118.87 63.5432C119.129 63.8778 119.068 64.3494 118.734 64.608L72.4 100.354C72.2631 100.461 72.0958 100.507 71.9437 100.507Z" fill="#D70A32" stroke="#D70A32" stroke-width="0.25" stroke-miterlimit="10"/>
<path d="M87.7177 100.507C87.4895 100.507 87.2614 100.4 87.1093 100.218C86.8507 99.8832 86.9115 99.4116 87.2462 99.153L112.345 79.7891C112.679 79.5305 113.151 79.5913 113.41 79.926C113.668 80.2606 113.607 80.7322 113.273 80.9908L88.1741 100.355C88.0372 100.461 87.8698 100.507 87.7177 100.507Z" fill="#D70A32" stroke="#D70A32" stroke-width="0.25" stroke-miterlimit="10"/>
<path d="M59.0598 73.9478C58.8316 73.9478 58.6034 73.8413 58.4513 73.6588C58.1927 73.3241 58.2536 72.8526 58.5882 72.594L77.3893 58.0977C77.724 57.8391 78.1955 57.8999 78.4541 58.2346C78.7127 58.5692 78.6519 59.0408 78.3172 59.2994L59.5161 73.7957C59.3792 73.9022 59.2119 73.9478 59.0598 73.9478Z" fill="#D70A32" stroke="#D70A32" stroke-width="0.25" stroke-miterlimit="10"/>
<path d="M61.9499 83.8808C61.7217 83.8808 61.4936 83.7743 61.3414 83.5918C61.0829 83.2571 61.1437 82.7856 61.4783 82.527L93.1482 58.0977C93.4828 57.8391 93.9544 57.8999 94.213 58.2346C94.4716 58.5692 94.4107 59.0408 94.0761 59.2994L62.4214 83.7134C62.2845 83.8199 62.1172 83.8656 61.9651 83.8656L61.9499 83.8808Z" fill="#D70A32" stroke="#D70A32" stroke-width="0.25" stroke-miterlimit="10"/>
<path d="M104.83 121.803C100.221 121.803 96.4642 118.046 96.4642 113.437C96.4642 108.827 100.221 105.07 104.83 105.07C109.439 105.07 113.197 108.827 113.197 113.437C113.197 118.046 109.439 121.803 104.83 121.803ZM104.83 106.591C101.058 106.591 97.9854 109.664 97.9854 113.437C97.9854 117.209 101.058 120.282 104.83 120.282C108.603 120.282 111.676 117.209 111.676 113.437C111.676 109.664 108.603 106.591 104.83 106.591Z" fill="#1F1F1F" stroke="black" stroke-width="0.25" stroke-miterlimit="10"/>
<path d="M104.83 117.238C102.731 117.238 101.028 115.535 101.028 113.436C101.028 111.336 102.731 109.633 104.83 109.633C106.93 109.633 108.633 111.336 108.633 113.436C108.633 115.535 106.93 117.238 104.83 117.238ZM104.83 111.154C103.568 111.154 102.549 112.173 102.549 113.436C102.549 114.698 103.568 115.717 104.83 115.717C106.093 115.717 107.112 114.698 107.112 113.436C107.112 112.173 106.093 111.154 104.83 111.154Z" fill="#1F1F1F" stroke="black" stroke-width="0.25" stroke-miterlimit="10"/>
<path d="M62.2389 121.803C57.6299 121.803 53.8727 118.046 53.8727 113.437C53.8727 108.827 57.6299 105.07 62.2389 105.07C66.8479 105.07 70.6051 108.827 70.6051 113.437C70.6051 118.046 66.8479 121.803 62.2389 121.803ZM62.2389 106.591C58.4665 106.591 55.3938 109.664 55.3938 113.437C55.3938 117.209 58.4665 120.282 62.2389 120.282C66.0113 120.282 69.0839 117.209 69.0839 113.437C69.0839 109.664 66.0113 106.591 62.2389 106.591Z" fill="#1F1F1F" stroke="black" stroke-width="0.25" stroke-miterlimit="10"/>
<path d="M62.2389 117.238C60.1397 117.238 58.436 115.535 58.436 113.436C58.436 111.336 60.1397 109.633 62.2389 109.633C64.338 109.633 66.0417 111.336 66.0417 113.436C66.0417 115.535 64.338 117.238 62.2389 117.238ZM62.2389 111.154C60.9763 111.154 59.9572 112.173 59.9572 113.436C59.9572 114.698 60.9763 115.717 62.2389 115.717C63.5014 115.717 64.5205 114.698 64.5205 113.436C64.5205 112.173 63.5014 111.154 62.2389 111.154Z" fill="#1F1F1F" stroke="black" stroke-width="0.25" stroke-miterlimit="10"/>
<path d="M97.2248 114.197H69.8445C69.4186 114.197 69.084 113.862 69.084 113.436C69.084 113.01 69.4186 112.676 69.8445 112.676H97.2248C97.6507 112.676 97.9854 113.01 97.9854 113.436C97.9854 113.862 97.6507 114.197 97.2248 114.197Z" fill="#1F1F1F" stroke="black" stroke-width="0.25" stroke-miterlimit="10"/>
<path d="M66.8022 100.506C66.4676 100.506 66.1633 100.293 66.0721 99.958L49.3701 42.7028H40.9431C40.5324 42.7028 40.1825 42.3681 40.1825 41.9422C40.1825 41.5163 40.5324 41.1816 40.9431 41.1816H49.9329C50.2676 41.1816 50.5718 41.4098 50.6631 41.7292L67.5324 99.5321C67.654 99.9428 67.4259 100.353 67.0152 100.475C66.9391 100.49 66.8783 100.506 66.8022 100.506Z" fill="#1F1F1F" stroke="black" stroke-width="0.25" stroke-miterlimit="10"/>
<path d="M64.6575 106.987C64.5814 106.987 64.4902 106.987 64.4141 106.942C64.0186 106.805 63.8057 106.379 63.9274 105.983L66.0874 99.5033C66.2243 99.1079 66.6502 98.8949 67.0457 99.0166C67.4412 99.1535 67.6541 99.5794 67.5324 99.9749L65.3724 106.455C65.2659 106.774 64.9769 106.972 64.6575 106.972V106.987Z" fill="#1F1F1F" stroke="black" stroke-width="0.25" stroke-miterlimit="10"/>
<path d="M106.352 100.506H66.8023C66.4676 100.506 66.1634 100.277 66.0721 99.958L54.0856 58.8876C54.0248 58.6594 54.0704 58.416 54.2073 58.2183C54.3442 58.0205 54.5724 57.9141 54.8158 57.9141H120.042C120.285 57.9141 120.513 58.0358 120.665 58.2335C120.802 58.4312 120.848 58.6898 120.772 58.918L107.082 99.9884C106.975 100.293 106.686 100.506 106.367 100.506H106.352ZM67.3803 98.9845H105.804L118.992 59.4352H55.8349L67.3803 98.9845Z" fill="#1F1F1F" stroke="black" stroke-width="0.25" stroke-miterlimit="10"/>
</g>
<defs>
<clipPath id="clip0_2632_5038">
<rect width="81" height="81" fill="white" transform="translate(40 41)"/>
</clipPath>
</defs>
</svg>
