<svg width="136" height="213" viewBox="0 0 136 213" fill="none" xmlns="http://www.w3.org/2000/svg">
<path d="M12.3557 152.792V140.112H20.9929V141.83H14.4131V145.535H20.0258V147.262H14.4131V151.073H20.9929V152.792H12.3557Z" fill="#1F1F1F"/>
<path d="M23.288 148.696V146.995H28.8249V148.696H23.288Z" fill="#1F1F1F"/>
<path d="M36.2253 152.899C34.7368 152.899 33.5991 152.427 32.7269 151.608C31.4185 150.379 31.3616 149.105 31.3616 146.452C31.3616 143.798 31.4185 142.525 32.7269 141.296C33.5991 140.477 34.7368 140.005 36.2253 140.005C38.7093 140.005 40.5676 141.385 41.0417 143.905H38.9464C38.6335 142.614 37.7138 141.723 36.2253 141.723C35.4479 141.723 34.7842 141.973 34.2628 142.462C33.4948 143.193 33.419 144.252 33.419 146.452C33.419 148.651 33.4948 149.711 34.2628 150.441C34.7842 150.931 35.4479 151.18 36.2253 151.18C37.7138 151.18 38.6335 150.29 38.9464 148.999H41.0417C40.5676 151.519 38.7093 152.899 36.2253 152.899Z" fill="#1F1F1F"/>
<path d="M47.0336 152.899C45.8675 152.899 44.9194 152.543 44.1893 151.857C43.2033 150.922 43.0327 149.693 43.0327 148.277C43.0327 146.853 43.2033 145.624 44.1988 144.68C44.9194 144.003 45.8675 143.647 47.0336 143.647C48.1903 143.647 49.1384 144.003 49.8684 144.68C50.8639 145.624 51.0346 146.853 51.0346 148.277C51.0346 149.693 50.8639 150.922 49.8684 151.857C49.1384 152.543 48.1903 152.899 47.0336 152.899ZM44.9668 148.277C44.9668 149.248 45.0237 150.192 45.6115 150.744C45.9812 151.091 46.4553 151.269 47.0336 151.269C47.612 151.269 48.086 151.091 48.4463 150.744C49.0436 150.192 49.1005 149.248 49.1005 148.277C49.1005 147.298 49.0436 146.363 48.4463 145.802C48.086 145.454 47.612 145.276 47.0336 145.276C46.4553 145.276 45.9812 145.454 45.6115 145.802C45.0237 146.363 44.9668 147.298 44.9668 148.277Z" fill="#1F1F1F"/>
<path d="M53.6629 152.792V143.754H55.5685V144.671C55.853 144.368 56.1753 144.154 56.5166 143.994C57.0191 143.754 57.5406 143.647 58.1379 143.647C59.3135 143.647 60.2521 144.092 60.8589 144.965C61.2002 144.555 61.5984 144.235 62.063 144.012C62.5844 143.771 63.1628 143.647 63.8265 143.647C64.8883 143.647 65.7321 143.95 66.3484 144.519C66.9931 145.134 67.3249 146.007 67.3249 146.986V152.792H65.3908V147.28C65.3908 145.873 64.5375 145.276 63.4472 145.276C62.3853 145.276 61.4657 145.882 61.4657 147.191V152.792H59.5316V147.28C59.5316 145.873 58.6783 145.276 57.5785 145.276C56.4882 145.276 55.597 145.882 55.597 147.28V152.792H53.6629Z" fill="#1F1F1F"/>
<path d="M70.2916 152.792V143.754H72.1972V144.671C72.4817 144.368 72.804 144.154 73.1453 143.994C73.6478 143.754 74.1693 143.647 74.7666 143.647C75.9422 143.647 76.8808 144.092 77.4876 144.965C77.8289 144.555 78.2271 144.235 78.6917 144.012C79.2131 143.771 79.7915 143.647 80.4551 143.647C81.517 143.647 82.3608 143.95 82.9771 144.519C83.6218 145.134 83.9536 146.007 83.9536 146.986V152.792H82.0195V147.28C82.0195 145.873 81.1662 145.276 80.0759 145.276C79.014 145.276 78.0944 145.882 78.0944 147.191V152.792H76.1603V147.28C76.1603 145.873 75.307 145.276 74.2072 145.276C73.1169 145.276 72.2257 145.882 72.2257 147.28V152.792H70.2916Z" fill="#1F1F1F"/>
<path d="M90.7316 152.899C89.3664 152.899 88.3898 152.552 87.6693 151.884C86.8918 151.145 86.4273 149.978 86.4273 148.277C86.4273 146.666 86.9013 145.437 87.7451 144.644C88.4467 143.985 89.3758 143.647 90.4946 143.647C91.6513 143.647 92.5709 143.976 93.2535 144.626C94.1163 145.437 94.5809 146.657 94.5809 148.42V148.812H88.3329C88.3329 149.649 88.5794 150.308 89.044 150.744C89.4612 151.136 90.0395 151.349 90.779 151.349C91.8598 151.349 92.4287 151.056 93.1113 150.414L94.3533 151.492C93.3673 152.409 92.4192 152.899 90.7316 152.899ZM88.3329 147.529H92.6562C92.6278 146.87 92.4856 146.202 91.9546 145.704C91.6133 145.383 91.1393 145.178 90.4946 145.178C89.8594 145.178 89.3758 145.383 89.0345 145.704C88.5131 146.202 88.3708 146.87 88.3329 147.529Z" fill="#1F1F1F"/>
<path d="M97.1604 152.792V143.754H99.0661V144.733C99.5591 144.101 100.545 143.647 101.616 143.647C102.565 143.647 103.219 143.861 103.901 144.502L102.46 145.873C102.015 145.463 101.664 145.276 101.01 145.276C99.9573 145.276 99.0945 146.06 99.0945 147.298V152.792H97.1604Z" fill="#1F1F1F"/>
<path d="M108.675 152.899C107.462 152.899 106.438 152.552 105.689 151.848C104.883 151.1 104.4 149.934 104.4 148.277C104.4 146.612 104.883 145.446 105.689 144.698C106.438 143.994 107.462 143.647 108.675 143.647C110.003 143.647 110.932 144.021 111.842 144.929L110.524 146.131C109.917 145.517 109.434 145.276 108.675 145.276C108.021 145.276 107.509 145.463 107.092 145.855C106.504 146.407 106.334 147.218 106.334 148.277C106.334 149.328 106.504 150.138 107.092 150.69C107.509 151.091 108.021 151.269 108.675 151.269C109.434 151.269 109.917 151.029 110.524 150.414L111.842 151.625C110.932 152.534 110.003 152.899 108.675 152.899Z" fill="#1F1F1F"/>
<path d="M117.619 152.899C116.254 152.899 115.277 152.552 114.557 151.884C113.779 151.145 113.315 149.978 113.315 148.277C113.315 146.666 113.789 145.437 114.632 144.644C115.334 143.985 116.263 143.647 117.382 143.647C118.539 143.647 119.458 143.976 120.141 144.626C121.004 145.437 121.468 146.657 121.468 148.42V148.812H115.22C115.22 149.649 115.467 150.308 115.931 150.744C116.349 151.136 116.927 151.349 117.666 151.349C118.747 151.349 119.316 151.056 119.999 150.414L121.241 151.492C120.255 152.409 119.307 152.899 117.619 152.899ZM115.22 147.529H119.544C119.515 146.87 119.373 146.202 118.842 145.704C118.501 145.383 118.027 145.178 117.382 145.178C116.747 145.178 116.263 145.383 115.922 145.704C115.4 146.202 115.258 146.87 115.22 147.529Z" fill="#1F1F1F"/>
<path d="M31.9201 174.458C29.9007 174.458 28.4406 174.013 27.1417 172.784L28.4975 171.51C29.4835 172.436 30.5928 172.739 31.958 172.739C32.982 172.739 33.7499 172.499 34.205 172.062C34.5558 171.742 34.7359 171.305 34.7359 170.78C34.7359 170.397 34.6601 170.103 34.5368 169.863C34.2809 169.4 33.7973 169.106 32.8966 168.972L31.1427 168.723C29.6447 168.509 28.5164 167.975 27.9665 166.933C27.72 166.461 27.5968 165.918 27.5968 165.277C27.5968 164.244 27.9571 163.38 28.6397 162.739C29.4361 162 30.6402 161.564 32.2045 161.564C33.9016 161.564 35.1436 161.991 36.3003 162.997L35.0014 164.226C34.2429 163.541 33.3991 163.247 32.1382 163.247C31.2185 163.247 30.5454 163.496 30.1282 163.879C29.7774 164.217 29.5878 164.671 29.5878 165.188C29.5878 165.517 29.6541 165.793 29.7679 166.007C30.0713 166.577 30.8013 166.853 31.5693 166.96L33.3043 167.209C34.8307 167.423 35.8262 167.948 36.3856 168.999C36.6321 169.48 36.7743 170.068 36.7743 170.736C36.7743 171.742 36.3951 172.579 35.7409 173.202C34.8687 174.013 33.5224 174.458 31.9201 174.458Z" fill="#1F1F1F"/>
<path d="M42.8487 174.458C41.6825 174.458 40.7344 174.102 40.0044 173.416C39.0184 172.481 38.8477 171.252 38.8477 169.836C38.8477 168.411 39.0184 167.183 40.0139 166.239C40.7344 165.562 41.6825 165.206 42.8487 165.206C44.0053 165.206 44.9534 165.562 45.6835 166.239C46.679 167.183 46.8496 168.411 46.8496 169.836C46.8496 171.252 46.679 172.481 45.6835 173.416C44.9534 174.102 44.0053 174.458 42.8487 174.458ZM40.7818 169.836C40.7818 170.807 40.8387 171.751 41.4265 172.303C41.7963 172.65 42.2703 172.828 42.8487 172.828C43.427 172.828 43.9011 172.65 44.2613 172.303C44.8586 171.751 44.9155 170.807 44.9155 169.836C44.9155 168.857 44.8586 167.922 44.2613 167.361C43.9011 167.013 43.427 166.835 42.8487 166.835C42.2703 166.835 41.7963 167.013 41.4265 167.361C40.8387 167.922 40.7818 168.857 40.7818 169.836Z" fill="#1F1F1F"/>
<path d="M52.0567 174.351C51.2035 174.351 50.5777 174.11 50.1321 173.692C49.6581 173.247 49.421 172.588 49.421 171.849V161.671H51.3552V171.742C51.3552 172.454 51.6206 172.801 52.4075 172.801H53.2608V174.351H52.0567Z" fill="#1F1F1F"/>
<path d="M58.618 174.458C57.6699 174.458 56.8545 174.191 56.2288 173.603C55.5272 172.944 55.2807 172.08 55.2807 171.092V165.313H57.2148V170.825C57.2148 172.232 58.0776 172.828 59.1679 172.828C60.2582 172.828 61.1494 172.223 61.1494 170.825V165.313H63.0835V174.351H61.1779V173.443C60.9029 173.728 60.5616 173.959 60.2298 174.119C59.7462 174.342 59.2153 174.458 58.618 174.458Z" fill="#1F1F1F"/>
<path d="M69.0254 174.351C68.1911 174.351 67.5559 174.093 67.1197 173.674C66.6362 173.229 66.3897 172.597 66.3897 171.858V166.871H65.2899V165.482H66.3897V162.739H68.3238V165.482H70.1916V166.871H68.3238V171.751C68.3238 172.427 68.6651 172.801 69.3762 172.801H70.1916V174.351H69.0254Z" fill="#1F1F1F"/>
<path d="M72.6433 174.351V165.491H74.5774V174.351H72.6433ZM72.5864 163.247V161.626H74.6438V163.247H72.5864Z" fill="#1F1F1F"/>
<path d="M81.2169 174.458C80.0507 174.458 79.1026 174.102 78.3726 173.416C77.3866 172.481 77.2159 171.252 77.2159 169.836C77.2159 168.411 77.3866 167.183 78.3821 166.239C79.1026 165.562 80.0507 165.206 81.2169 165.206C82.3736 165.206 83.3217 165.562 84.0517 166.239C85.0472 167.183 85.2178 168.411 85.2178 169.836C85.2178 171.252 85.0472 172.481 84.0517 173.416C83.3217 174.102 82.3736 174.458 81.2169 174.458ZM79.15 169.836C79.15 170.807 79.2069 171.751 79.7947 172.303C80.1645 172.65 80.6385 172.828 81.2169 172.828C81.7952 172.828 82.2693 172.65 82.6295 172.303C83.2268 171.751 83.2837 170.807 83.2837 169.836C83.2837 168.857 83.2268 167.922 82.6295 167.361C82.2693 167.013 81.7952 166.835 81.2169 166.835C80.6385 166.835 80.1645 167.013 79.7947 167.361C79.2069 167.922 79.15 168.857 79.15 169.836Z" fill="#1F1F1F"/>
<path d="M87.8461 174.351V165.313H89.7518V166.23C90.0268 165.936 90.3681 165.704 90.6999 165.544C91.1834 165.321 91.7144 165.206 92.3117 165.206C93.2598 165.206 94.0751 165.473 94.7009 166.061C95.4025 166.72 95.649 167.592 95.649 168.581V174.351H93.7148V168.839C93.7148 167.432 92.8616 166.835 91.7618 166.835C90.6715 166.835 89.7803 167.441 89.7803 168.839V174.351H87.8461Z" fill="#1F1F1F"/>
<path d="M101.724 174.458C100.159 174.458 98.8319 174.208 97.6942 173.158L98.9646 171.964C99.7326 172.704 100.785 172.899 101.714 172.899C103.174 172.899 103.828 172.427 103.828 171.635C103.828 171.029 103.468 170.673 102.548 170.593L101.003 170.468C99.2016 170.308 98.1587 169.569 98.1587 167.975C98.1587 166.203 99.7895 165.206 101.894 165.206C103.25 165.206 104.464 165.5 105.364 166.239L104.141 167.378C103.525 166.915 102.7 166.737 101.885 166.737C100.605 166.737 100.045 167.2 100.045 167.904C100.045 168.518 100.425 168.839 101.354 168.919L102.871 169.044C104.644 169.204 105.725 169.961 105.725 171.599C105.725 173.478 104.037 174.458 101.724 174.458Z" fill="#1F1F1F"/>
<g clip-path="url(#clip0_2744_6397)">
<path d="M47.7261 90.8135C47.4979 90.8135 47.2697 90.707 47.1176 90.5245C46.859 90.1898 46.9199 89.7183 47.2545 89.4597L91.8083 55.0974C92.143 54.8388 92.6145 54.8997 92.8731 55.2343C93.1317 55.569 93.0709 56.0405 92.7362 56.2991L48.1824 90.6614C48.0455 90.7678 47.8782 90.8135 47.7261 90.8135Z" fill="#D70A32" stroke="#D70A32" stroke-width="0.25" stroke-miterlimit="10"/>
<path d="M54.8145 97.5064C54.5863 97.5064 54.3582 97.3999 54.2061 97.2174C53.9475 96.8828 54.0083 96.4112 54.343 96.1526L100.676 60.4061C101.011 60.1475 101.483 60.2084 101.741 60.543C102 60.8777 101.939 61.3492 101.604 61.6078L55.2709 97.3543C55.134 97.4608 54.9666 97.5064 54.8145 97.5064Z" fill="#D70A32" stroke="#D70A32" stroke-width="0.25" stroke-miterlimit="10"/>
<path d="M70.5886 97.5065C70.3604 97.5065 70.1322 97.4 69.9801 97.2174C69.7215 96.8828 69.7824 96.4112 70.117 96.1527L95.2156 76.7887C95.5503 76.5301 96.0218 76.591 96.2804 76.9256C96.539 77.2603 96.4781 77.7318 96.1435 77.9904L71.0449 97.3543C70.908 97.4608 70.7407 97.5065 70.5886 97.5065Z" fill="#D70A32" stroke="#D70A32" stroke-width="0.25" stroke-miterlimit="10"/>
<path d="M41.9305 70.9476C41.7024 70.9476 41.4742 70.8411 41.3221 70.6586C41.0635 70.3239 41.1243 69.8524 41.459 69.5938L60.2601 55.0974C60.5948 54.8388 61.0663 54.8997 61.3249 55.2343C61.5835 55.569 61.5227 56.0405 61.188 56.2991L42.3869 70.7955C42.25 70.9019 42.0827 70.9476 41.9305 70.9476Z" fill="#D70A32" stroke="#D70A32" stroke-width="0.25" stroke-miterlimit="10"/>
<path d="M44.8207 80.8805C44.5925 80.8805 44.3643 80.774 44.2122 80.5915C43.9536 80.2569 44.0145 79.7853 44.3491 79.5267L76.019 55.0974C76.3536 54.8388 76.8252 54.8997 77.0838 55.2343C77.3424 55.569 77.2815 56.0405 76.9469 56.2991L45.2922 80.7132C45.1553 80.8197 44.988 80.8653 44.8359 80.8653L44.8207 80.8805Z" fill="#D70A32" stroke="#D70A32" stroke-width="0.25" stroke-miterlimit="10"/>
<path d="M87.7013 118.802C83.0923 118.802 79.3351 115.045 79.3351 110.436C79.3351 105.827 83.0923 102.07 87.7013 102.07C92.3103 102.07 96.0675 105.827 96.0675 110.436C96.0675 115.045 92.3103 118.802 87.7013 118.802ZM87.7013 103.591C83.9289 103.591 80.8562 106.664 80.8562 110.436C80.8562 114.208 83.9289 117.281 87.7013 117.281C91.4737 117.281 94.5464 114.208 94.5464 110.436C94.5464 106.664 91.4737 103.591 87.7013 103.591Z" fill="#1F1F1F" stroke="black" stroke-width="0.25" stroke-miterlimit="10"/>
<path d="M87.7013 114.239C85.6021 114.239 83.8984 112.535 83.8984 110.436C83.8984 108.337 85.6021 106.633 87.7013 106.633C89.8004 106.633 91.5041 108.337 91.5041 110.436C91.5041 112.535 89.8004 114.239 87.7013 114.239ZM87.7013 108.154C86.4387 108.154 85.4196 109.174 85.4196 110.436C85.4196 111.699 86.4387 112.718 87.7013 112.718C88.9638 112.718 89.9829 111.699 89.9829 110.436C89.9829 109.174 88.9638 108.154 87.7013 108.154Z" fill="#1F1F1F" stroke="black" stroke-width="0.25" stroke-miterlimit="10"/>
<path d="M45.1097 118.802C40.5007 118.802 36.7435 115.045 36.7435 110.436C36.7435 105.827 40.5007 102.07 45.1097 102.07C49.7187 102.07 53.4759 105.827 53.4759 110.436C53.4759 115.045 49.7187 118.802 45.1097 118.802ZM45.1097 103.591C41.3373 103.591 38.2647 106.664 38.2647 110.436C38.2647 114.208 41.3373 117.281 45.1097 117.281C48.8821 117.281 51.9548 114.208 51.9548 110.436C51.9548 106.664 48.8821 103.591 45.1097 103.591Z" fill="#1F1F1F" stroke="black" stroke-width="0.25" stroke-miterlimit="10"/>
<path d="M45.1097 114.239C43.0105 114.239 41.3069 112.535 41.3069 110.436C41.3069 108.337 43.0105 106.633 45.1097 106.633C47.2089 106.633 48.9125 108.337 48.9125 110.436C48.9125 112.535 47.2089 114.239 45.1097 114.239ZM45.1097 108.154C43.8472 108.154 42.828 109.174 42.828 110.436C42.828 111.699 43.8472 112.718 45.1097 112.718C46.3722 112.718 47.3914 111.699 47.3914 110.436C47.3914 109.174 46.3722 108.154 45.1097 108.154Z" fill="#1F1F1F" stroke="black" stroke-width="0.25" stroke-miterlimit="10"/>
<path d="M80.0956 111.197H52.7153C52.2894 111.197 51.9548 110.862 51.9548 110.436C51.9548 110.01 52.2894 109.676 52.7153 109.676H80.0956C80.5215 109.676 80.8562 110.01 80.8562 110.436C80.8562 110.862 80.5215 111.197 80.0956 111.197Z" fill="#1F1F1F" stroke="black" stroke-width="0.25" stroke-miterlimit="10"/>
<path d="M49.6731 97.5064C49.3385 97.5064 49.0342 97.2935 48.943 96.9588L32.241 39.7036H23.814C23.4033 39.7036 23.0534 39.369 23.0534 38.9431C23.0534 38.5171 23.4033 38.1825 23.814 38.1825H32.8038C33.1385 38.1825 33.4427 38.4107 33.534 38.7301L50.4033 96.5329C50.525 96.9436 50.2968 97.3543 49.8861 97.476C49.81 97.4912 49.7492 97.5064 49.6731 97.5064Z" fill="#1F1F1F" stroke="black" stroke-width="0.25" stroke-miterlimit="10"/>
<path d="M47.5283 103.986C47.4523 103.986 47.361 103.986 47.285 103.941C46.8895 103.804 46.6765 103.378 46.7982 102.982L48.9582 96.5025C49.0951 96.107 49.521 95.894 49.9165 96.0157C50.312 96.1526 50.525 96.5786 50.4033 96.974L48.2433 103.454C48.1368 103.773 47.8478 103.971 47.5283 103.971V103.986Z" fill="#1F1F1F" stroke="black" stroke-width="0.25" stroke-miterlimit="10"/>
<path d="M89.2224 97.5065H49.6731C49.3385 97.5065 49.0342 97.2783 48.943 96.9589L36.9565 55.8884C36.8957 55.6603 36.9413 55.4169 37.0782 55.2191C37.2151 55.0214 37.4433 54.9149 37.6866 54.9149H102.913C103.156 54.9149 103.384 55.0366 103.536 55.2344C103.673 55.4321 103.719 55.6907 103.643 55.9189L89.9525 96.9893C89.8461 97.2935 89.5571 97.5065 89.2376 97.5065H89.2224ZM50.2511 95.9853H88.6748L101.863 56.436H38.7058L50.2511 95.9853Z" fill="#1F1F1F" stroke="black" stroke-width="0.25" stroke-miterlimit="10"/>
</g>
<defs>
<clipPath id="clip0_2744_6397">
<rect width="81" height="81" fill="white" transform="translate(22.8708 38)"/>
</clipPath>
</defs>
</svg>
