<svg width="136" height="121" viewBox="0 0 136 121" fill="none" xmlns="http://www.w3.org/2000/svg">
<path d="M47.7261 90.8135C47.4979 90.8135 47.2697 90.707 47.1176 90.5245C46.859 90.1898 46.9199 89.7183 47.2545 89.4597L91.8083 55.0974C92.143 54.8388 92.6145 54.8997 92.8731 55.2343C93.1317 55.569 93.0709 56.0405 92.7362 56.2991L48.1824 90.6614C48.0455 90.7678 47.8782 90.8135 47.7261 90.8135Z" fill="#D70A32" stroke="#D70A32" stroke-width="0.25" stroke-miterlimit="10"/>
<path d="M54.8145 97.5064C54.5863 97.5064 54.3582 97.3999 54.2061 97.2174C53.9475 96.8828 54.0083 96.4112 54.343 96.1526L100.676 60.4061C101.011 60.1475 101.483 60.2084 101.741 60.543C102 60.8777 101.939 61.3492 101.604 61.6078L55.2709 97.3543C55.134 97.4608 54.9666 97.5064 54.8145 97.5064Z" fill="#D70A32" stroke="#D70A32" stroke-width="0.25" stroke-miterlimit="10"/>
<path d="M70.5886 97.5065C70.3604 97.5065 70.1322 97.4 69.9801 97.2174C69.7215 96.8828 69.7824 96.4112 70.117 96.1527L95.2156 76.7887C95.5503 76.5301 96.0218 76.591 96.2804 76.9256C96.539 77.2603 96.4781 77.7318 96.1435 77.9904L71.0449 97.3543C70.908 97.4608 70.7407 97.5065 70.5886 97.5065Z" fill="#D70A32" stroke="#D70A32" stroke-width="0.25" stroke-miterlimit="10"/>
<path d="M41.9305 70.9476C41.7024 70.9476 41.4742 70.8411 41.3221 70.6586C41.0635 70.3239 41.1243 69.8524 41.459 69.5938L60.2601 55.0974C60.5948 54.8388 61.0663 54.8997 61.3249 55.2343C61.5835 55.569 61.5227 56.0405 61.188 56.2991L42.3869 70.7955C42.25 70.9019 42.0827 70.9476 41.9305 70.9476Z" fill="#D70A32" stroke="#D70A32" stroke-width="0.25" stroke-miterlimit="10"/>
<path d="M44.8207 80.8805C44.5925 80.8805 44.3643 80.774 44.2122 80.5915C43.9536 80.2569 44.0145 79.7853 44.3491 79.5267L76.019 55.0974C76.3536 54.8388 76.8252 54.8997 77.0838 55.2343C77.3424 55.569 77.2815 56.0405 76.9469 56.2991L45.2922 80.7132C45.1553 80.8197 44.988 80.8653 44.8359 80.8653L44.8207 80.8805Z" fill="#D70A32" stroke="#D70A32" stroke-width="0.25" stroke-miterlimit="10"/>
<path d="M87.7013 118.802C83.0923 118.802 79.3351 115.045 79.3351 110.436C79.3351 105.827 83.0923 102.07 87.7013 102.07C92.3103 102.07 96.0675 105.827 96.0675 110.436C96.0675 115.045 92.3103 118.802 87.7013 118.802ZM87.7013 103.591C83.9289 103.591 80.8562 106.664 80.8562 110.436C80.8562 114.208 83.9289 117.281 87.7013 117.281C91.4737 117.281 94.5464 114.208 94.5464 110.436C94.5464 106.664 91.4737 103.591 87.7013 103.591Z" fill="#1F1F1F" stroke="black" stroke-width="0.25" stroke-miterlimit="10"/>
<path d="M87.7013 114.239C85.6021 114.239 83.8984 112.535 83.8984 110.436C83.8984 108.337 85.6021 106.633 87.7013 106.633C89.8004 106.633 91.5041 108.337 91.5041 110.436C91.5041 112.535 89.8004 114.239 87.7013 114.239ZM87.7013 108.154C86.4387 108.154 85.4196 109.174 85.4196 110.436C85.4196 111.699 86.4387 112.718 87.7013 112.718C88.9638 112.718 89.9829 111.699 89.9829 110.436C89.9829 109.174 88.9638 108.154 87.7013 108.154Z" fill="#1F1F1F" stroke="black" stroke-width="0.25" stroke-miterlimit="10"/>
<path d="M45.1097 118.802C40.5007 118.802 36.7435 115.045 36.7435 110.436C36.7435 105.827 40.5007 102.07 45.1097 102.07C49.7187 102.07 53.4759 105.827 53.4759 110.436C53.4759 115.045 49.7187 118.802 45.1097 118.802ZM45.1097 103.591C41.3373 103.591 38.2647 106.664 38.2647 110.436C38.2647 114.208 41.3373 117.281 45.1097 117.281C48.8821 117.281 51.9548 114.208 51.9548 110.436C51.9548 106.664 48.8821 103.591 45.1097 103.591Z" fill="#1F1F1F" stroke="black" stroke-width="0.25" stroke-miterlimit="10"/>
<path d="M45.1097 114.239C43.0105 114.239 41.3069 112.535 41.3069 110.436C41.3069 108.337 43.0105 106.633 45.1097 106.633C47.2089 106.633 48.9125 108.337 48.9125 110.436C48.9125 112.535 47.2089 114.239 45.1097 114.239ZM45.1097 108.154C43.8472 108.154 42.828 109.174 42.828 110.436C42.828 111.699 43.8472 112.718 45.1097 112.718C46.3722 112.718 47.3914 111.699 47.3914 110.436C47.3914 109.174 46.3722 108.154 45.1097 108.154Z" fill="#1F1F1F" stroke="black" stroke-width="0.25" stroke-miterlimit="10"/>
<path d="M80.0956 111.197H52.7153C52.2894 111.197 51.9548 110.862 51.9548 110.436C51.9548 110.01 52.2894 109.676 52.7153 109.676H80.0956C80.5215 109.676 80.8562 110.01 80.8562 110.436C80.8562 110.862 80.5215 111.197 80.0956 111.197Z" fill="#1F1F1F" stroke="black" stroke-width="0.25" stroke-miterlimit="10"/>
<path d="M49.6731 97.5064C49.3385 97.5064 49.0342 97.2935 48.943 96.9588L32.241 39.7036H23.814C23.4033 39.7036 23.0534 39.369 23.0534 38.9431C23.0534 38.5171 23.4033 38.1825 23.814 38.1825H32.8038C33.1385 38.1825 33.4427 38.4107 33.534 38.7301L50.4033 96.5329C50.525 96.9436 50.2968 97.3543 49.8861 97.476C49.81 97.4912 49.7492 97.5064 49.6731 97.5064Z" fill="#1F1F1F" stroke="black" stroke-width="0.25" stroke-miterlimit="10"/>
<path d="M47.5283 103.986C47.4523 103.986 47.361 103.986 47.285 103.941C46.8895 103.804 46.6765 103.378 46.7982 102.982L48.9582 96.5025C49.0951 96.107 49.521 95.894 49.9165 96.0157C50.312 96.1526 50.525 96.5786 50.4033 96.974L48.2433 103.454C48.1368 103.773 47.8478 103.971 47.5283 103.971V103.986Z" fill="#1F1F1F" stroke="black" stroke-width="0.25" stroke-miterlimit="10"/>
<path d="M89.2224 97.5065H49.6731C49.3385 97.5065 49.0342 97.2783 48.943 96.9589L36.9565 55.8884C36.8957 55.6603 36.9413 55.4169 37.0782 55.2191C37.2151 55.0214 37.4433 54.9149 37.6866 54.9149H102.913C103.156 54.9149 103.384 55.0366 103.536 55.2344C103.673 55.4321 103.719 55.6907 103.643 55.9189L89.9525 96.9893C89.8461 97.2935 89.5571 97.5065 89.2376 97.5065H89.2224ZM50.2511 95.9853H88.6748L101.863 56.436H38.7058L50.2511 95.9853Z" fill="#1F1F1F" stroke="black" stroke-width="0.25" stroke-miterlimit="10"/>
</svg>
