<svg width="169" height="212" viewBox="0 0 169 212" fill="none" xmlns="http://www.w3.org/2000/svg">
<rect width="169" height="212" fill="white"/>
<path d="M38.9912 164V150.472H47.6457V152.305H41.0527V156.257H46.6767V158.1H41.0527V162.166H47.6457V164H38.9912ZM52.7955 164C51.9405 164 51.3135 163.743 50.867 163.297C50.392 162.822 50.1545 162.119 50.1545 161.33V150.472H52.0925V161.216C52.0925 161.976 52.3585 162.347 53.147 162.347H54.002V164H52.7955ZM59.7639 164.114C58.3959 164.114 57.4174 163.743 56.6954 163.031C55.9164 162.242 55.4509 160.998 55.4509 159.183C55.4509 157.464 55.9259 156.153 56.7714 155.307C57.4744 154.604 58.4054 154.243 59.5264 154.243C60.6854 154.243 61.6069 154.595 62.2909 155.288C63.1554 156.153 63.6209 157.454 63.6209 159.335V159.753H57.3604C57.3604 160.646 57.6074 161.349 58.0729 161.815C58.4909 162.233 59.0704 162.461 59.8114 162.461C60.8944 162.461 61.4644 162.147 62.1484 161.463L63.3929 162.613C62.4049 163.591 61.4549 164.114 59.7639 164.114ZM57.3604 158.385H61.6924C61.6639 157.682 61.5214 156.97 60.9894 156.438C60.6474 156.096 60.1724 155.877 59.5264 155.877C58.8899 155.877 58.4054 156.096 58.0634 156.438C57.5409 156.97 57.3984 157.682 57.3604 158.385ZM70.0436 164.114C68.8276 164.114 67.8016 163.743 67.0511 162.993C66.2436 162.195 65.7591 160.95 65.7591 159.183C65.7591 157.407 66.2436 156.162 67.0511 155.364C67.8016 154.614 68.8276 154.243 70.0436 154.243C71.3736 154.243 72.3046 154.642 73.2166 155.611L71.8961 156.894C71.2881 156.238 70.8036 155.982 70.0436 155.982C69.3881 155.982 68.8751 156.181 68.4571 156.599C67.8681 157.188 67.6971 158.053 67.6971 159.183C67.6971 160.304 67.8681 161.169 68.4571 161.758C68.8751 162.185 69.3881 162.375 70.0436 162.375C70.8036 162.375 71.2881 162.119 71.8961 161.463L73.2166 162.755C72.3046 163.724 71.3736 164.114 70.0436 164.114ZM78.3334 164C77.4974 164 76.8609 163.724 76.4239 163.278C75.9394 162.803 75.6924 162.128 75.6924 161.34V156.02H74.5904V154.538H75.6924V151.612H77.6304V154.538H79.5019V156.02H77.6304V161.226C77.6304 161.948 77.9724 162.347 78.6849 162.347H79.5019V164H78.3334ZM81.9585 164V154.357H83.868V155.402C84.362 154.728 85.35 154.243 86.4235 154.243C87.3735 154.243 88.029 154.471 88.713 155.155L87.269 156.618C86.8225 156.181 86.471 155.982 85.8155 155.982C84.761 155.982 83.8965 156.818 83.8965 158.138V164H81.9585ZM93.2212 164.114C92.0527 164.114 91.1027 163.734 90.3712 163.002C89.3832 162.005 89.2122 160.694 89.2122 159.183C89.2122 157.663 89.3832 156.352 90.3807 155.345C91.1027 154.623 92.0527 154.243 93.2212 154.243C94.3802 154.243 95.3302 154.623 96.0617 155.345C97.0592 156.352 97.2302 157.663 97.2302 159.183C97.2302 160.694 97.0592 162.005 96.0617 163.002C95.3302 163.734 94.3802 164.114 93.2212 164.114ZM91.1502 159.183C91.1502 160.219 91.2072 161.226 91.7962 161.815C92.1667 162.185 92.6417 162.375 93.2212 162.375C93.8007 162.375 94.2757 162.185 94.6367 161.815C95.2352 161.226 95.2922 160.219 95.2922 159.183C95.2922 158.138 95.2352 157.141 94.6367 156.542C94.2757 156.172 93.8007 155.982 93.2212 155.982C92.6417 155.982 92.1667 156.172 91.7962 156.542C91.2072 157.141 91.1502 158.138 91.1502 159.183ZM99.8638 164V154.357H101.773V155.336C102.049 155.022 102.391 154.775 102.723 154.604C103.208 154.367 103.74 154.243 104.338 154.243C105.288 154.243 106.105 154.528 106.732 155.155C107.435 155.858 107.682 156.789 107.682 157.844V164H105.744V158.119C105.744 156.618 104.889 155.982 103.787 155.982C102.695 155.982 101.802 156.628 101.802 158.119V164H99.8638ZM110.663 164V154.547H112.601V164H110.663ZM110.606 152.153V150.424H112.667V152.153H110.606ZM119.529 164.114C118.313 164.114 117.287 163.743 116.536 162.993C115.729 162.195 115.244 160.95 115.244 159.183C115.244 157.407 115.729 156.162 116.536 155.364C117.287 154.614 118.313 154.243 119.529 154.243C120.859 154.243 121.79 154.642 122.702 155.611L121.381 156.894C120.773 156.238 120.289 155.982 119.529 155.982C118.873 155.982 118.36 156.181 117.942 156.599C117.353 157.188 117.182 158.053 117.182 159.183C117.182 160.304 117.353 161.169 117.942 161.758C118.36 162.185 118.873 162.375 119.529 162.375C120.289 162.375 120.773 162.119 121.381 161.463L122.702 162.755C121.79 163.724 120.859 164.114 119.529 164.114ZM127.908 164.114C126.34 164.114 125.01 163.848 123.87 162.727L125.143 161.454C125.913 162.242 126.967 162.451 127.898 162.451C129.361 162.451 130.017 161.948 130.017 161.102C130.017 160.456 129.656 160.076 128.734 159.991L127.186 159.858C125.381 159.687 124.336 158.898 124.336 157.198C124.336 155.307 125.97 154.243 128.079 154.243C129.437 154.243 130.653 154.557 131.556 155.345L130.33 156.561C129.713 156.067 128.886 155.877 128.069 155.877C126.787 155.877 126.226 156.371 126.226 157.122C126.226 157.777 126.606 158.119 127.537 158.205L129.057 158.338C130.834 158.509 131.917 159.316 131.917 161.064C131.917 163.069 130.226 164.114 127.908 164.114Z" fill="#1F1F1F"/>
<g clip-path="url(#clip0_2632_5039)">
<path d="M102.542 121.999H66.4576C65.8894 121.999 65.4214 121.531 65.4214 120.963V110.935C65.4214 110.366 65.8894 109.898 66.4576 109.898H102.559C103.127 109.898 103.595 110.366 103.595 110.935V120.963C103.595 121.531 103.127 121.999 102.559 121.999H102.542ZM67.4939 119.91H101.506V111.971H67.4939V119.91Z" fill="#1F1F1F"/>
<path d="M124.604 111.972H44.379C41.9555 111.972 40 110 40 107.593V37.379C40 34.9722 41.9722 33 44.379 33H124.604C127.028 33 128.983 34.9722 128.983 37.379V107.576C128.983 110 127.011 111.955 124.604 111.955V111.972ZM44.379 35.0892C43.1087 35.0892 42.0725 36.1254 42.0725 37.3957V107.593C42.0725 108.863 43.1087 109.899 44.379 109.899H124.604C125.875 109.899 126.911 108.863 126.911 107.593V37.379C126.911 36.1087 125.875 35.0725 124.604 35.0725H44.379V35.0892Z" fill="#1F1F1F"/>
<path d="M127.947 101.944H41.0362C40.468 101.944 40 101.476 40 100.907C40 100.339 40.468 99.8711 41.0362 99.8711H127.947C128.515 99.8711 128.983 100.339 128.983 100.907C128.983 101.476 128.515 101.944 127.947 101.944Z" fill="#1F1F1F"/>
<path d="M111.233 122H57.7499C57.1816 122 56.7136 121.532 56.7136 120.964C56.7136 120.396 57.1816 119.928 57.7499 119.928H111.233C111.802 119.928 112.27 120.396 112.27 120.964C112.27 121.532 111.802 122 111.233 122Z" fill="#1F1F1F"/>
<path d="M99.5339 86.9021H69.4494C67.0259 86.9021 65.0704 84.9299 65.0704 82.5232V52.4219C65.0704 49.9985 67.0426 48.043 69.4494 48.043H99.5339C101.957 48.043 103.913 50.0152 103.913 52.4219V82.5064C103.913 84.9299 101.941 86.8854 99.5339 86.8854V86.9021ZM69.4494 50.1322C68.1792 50.1322 67.1429 51.1684 67.1429 52.4386V82.5232C67.1429 83.7934 68.1792 84.8296 69.4494 84.8296H99.5339C100.804 84.8296 101.84 83.7934 101.84 82.5232V52.4219C101.84 51.1517 100.804 50.1155 99.5339 50.1155H69.4494V50.1322Z" fill="#D70A32"/>
<path d="M94.5198 78.5448H81.1489C80.8648 78.5448 80.5974 78.4278 80.4135 78.244L73.7281 71.5586C73.5275 71.358 73.4272 71.0906 73.4272 70.8232V57.4523C73.4272 56.884 73.8952 56.416 74.4635 56.416H94.5198C95.0881 56.416 95.5561 56.884 95.5561 57.4523V77.5086C95.5561 78.0769 95.0881 78.5448 94.5198 78.5448ZM81.5835 76.4556H93.4836V58.4885H75.5164V70.3886L81.5835 76.4556Z" fill="#D70A32"/>
<path d="M107.891 61.8303H102.877C102.308 61.8303 101.84 61.3623 101.84 60.7941C101.84 60.2258 102.308 59.7578 102.877 59.7578H107.891C108.459 59.7578 108.927 60.2258 108.927 60.7941C108.927 61.3623 108.459 61.8303 107.891 61.8303Z" fill="#D70A32"/>
<path d="M107.891 55.1448H102.877C102.308 55.1448 101.84 54.6768 101.84 54.1085C101.84 53.5402 102.308 53.0723 102.877 53.0723H107.891C108.459 53.0723 108.927 53.5402 108.927 54.1085C108.927 54.6768 108.459 55.1448 107.891 55.1448Z" fill="#D70A32"/>
<path d="M107.891 68.5158H102.877C102.308 68.5158 101.84 68.0479 101.84 67.4796C101.84 66.9113 102.308 66.4434 102.877 66.4434H107.891C108.459 66.4434 108.927 66.9113 108.927 67.4796C108.927 68.0479 108.459 68.5158 107.891 68.5158Z" fill="#D70A32"/>
<path d="M107.891 75.2014H102.877C102.308 75.2014 101.84 74.7334 101.84 74.1651C101.84 73.5969 102.308 73.1289 102.877 73.1289H107.891C108.459 73.1289 108.927 73.5969 108.927 74.1651C108.927 74.7334 108.459 75.2014 107.891 75.2014Z" fill="#D70A32"/>
<path d="M107.891 81.8869H102.877C102.308 81.8869 101.84 81.419 101.84 80.8507C101.84 80.2824 102.308 79.8145 102.877 79.8145H107.891C108.459 79.8145 108.927 80.2824 108.927 80.8507C108.927 81.419 108.459 81.8869 107.891 81.8869Z" fill="#D70A32"/>
<path d="M66.1067 61.8303H61.0926C60.5244 61.8303 60.0564 61.3623 60.0564 60.7941C60.0564 60.2258 60.5244 59.7578 61.0926 59.7578H66.1067C66.675 59.7578 67.143 60.2258 67.143 60.7941C67.143 61.3623 66.675 61.8303 66.1067 61.8303Z" fill="#D70A32"/>
<path d="M66.1067 55.1448H61.0926C60.5244 55.1448 60.0564 54.6768 60.0564 54.1085C60.0564 53.5402 60.5244 53.0723 61.0926 53.0723H66.1067C66.675 53.0723 67.143 53.5402 67.143 54.1085C67.143 54.6768 66.675 55.1448 66.1067 55.1448Z" fill="#D70A32"/>
<path d="M66.1067 68.5158H61.0926C60.5244 68.5158 60.0564 68.0479 60.0564 67.4796C60.0564 66.9113 60.5244 66.4434 61.0926 66.4434H66.1067C66.675 66.4434 67.143 66.9113 67.143 67.4796C67.143 68.0479 66.675 68.5158 66.1067 68.5158Z" fill="#D70A32"/>
<path d="M66.1067 75.2014H61.0926C60.5244 75.2014 60.0564 74.7334 60.0564 74.1651C60.0564 73.5969 60.5244 73.1289 61.0926 73.1289H66.1067C66.675 73.1289 67.143 73.5969 67.143 74.1651C67.143 74.7334 66.675 75.2014 66.1067 75.2014Z" fill="#D70A32"/>
<path d="M66.1067 81.8869H61.0926C60.5244 81.8869 60.0564 81.419 60.0564 80.8507C60.0564 80.2824 60.5244 79.8145 61.0926 79.8145H66.1067C66.675 79.8145 67.143 80.2824 67.143 80.8507C67.143 81.419 66.675 81.8869 66.1067 81.8869Z" fill="#D70A32"/>
<path d="M91.1771 91.9147C90.6089 91.9147 90.1409 91.4467 90.1409 90.8785V85.8644C90.1409 85.2961 90.6089 84.8281 91.1771 84.8281C91.7454 84.8281 92.2134 85.2961 92.2134 85.8644V90.8785C92.2134 91.4467 91.7454 91.9147 91.1771 91.9147Z" fill="#D70A32"/>
<path d="M97.8625 91.9147C97.2943 91.9147 96.8263 91.4467 96.8263 90.8785V85.8644C96.8263 85.2961 97.2943 84.8281 97.8625 84.8281C98.4308 84.8281 98.8988 85.2961 98.8988 85.8644V90.8785C98.8988 91.4467 98.4308 91.9147 97.8625 91.9147Z" fill="#D70A32"/>
<path d="M84.4917 91.9147C83.9234 91.9147 83.4554 91.4467 83.4554 90.8785V85.8644C83.4554 85.2961 83.9234 84.8281 84.4917 84.8281C85.06 84.8281 85.5279 85.2961 85.5279 85.8644V90.8785C85.5279 91.4467 85.06 91.9147 84.4917 91.9147Z" fill="#D70A32"/>
<path d="M77.8061 91.9147C77.2379 91.9147 76.7699 91.4467 76.7699 90.8785V85.8644C76.7699 85.2961 77.2379 84.8281 77.8061 84.8281C78.3744 84.8281 78.8424 85.2961 78.8424 85.8644V90.8785C78.8424 91.4467 78.3744 91.9147 77.8061 91.9147Z" fill="#D70A32"/>
<path d="M71.1207 91.9147C70.5525 91.9147 70.0845 91.4467 70.0845 90.8785V85.8644C70.0845 85.2961 70.5525 84.8281 71.1207 84.8281C71.689 84.8281 72.157 85.2961 72.157 85.8644V90.8785C72.157 91.4467 71.689 91.9147 71.1207 91.9147Z" fill="#D70A32"/>
<path d="M91.1771 50.1315C90.6089 50.1315 90.1409 49.6635 90.1409 49.0953V44.0812C90.1409 43.5129 90.6089 43.0449 91.1771 43.0449C91.7454 43.0449 92.2134 43.5129 92.2134 44.0812V49.0953C92.2134 49.6635 91.7454 50.1315 91.1771 50.1315Z" fill="#D70A32"/>
<path d="M97.8625 50.1315C97.2943 50.1315 96.8263 49.6635 96.8263 49.0953V44.0812C96.8263 43.5129 97.2943 43.0449 97.8625 43.0449C98.4308 43.0449 98.8988 43.5129 98.8988 44.0812V49.0953C98.8988 49.6635 98.4308 50.1315 97.8625 50.1315Z" fill="#D70A32"/>
<path d="M84.4917 50.1315C83.9234 50.1315 83.4554 49.6635 83.4554 49.0953V44.0812C83.4554 43.5129 83.9234 43.0449 84.4917 43.0449C85.06 43.0449 85.5279 43.5129 85.5279 44.0812V49.0953C85.5279 49.6635 85.06 50.1315 84.4917 50.1315Z" fill="#D70A32"/>
<path d="M77.8061 50.1315C77.2379 50.1315 76.7699 49.6635 76.7699 49.0953V44.0812C76.7699 43.5129 77.2379 43.0449 77.8061 43.0449C78.3744 43.0449 78.8424 43.5129 78.8424 44.0812V49.0953C78.8424 49.6635 78.3744 50.1315 77.8061 50.1315Z" fill="#D70A32"/>
<path d="M71.1207 50.1315C70.5525 50.1315 70.0845 49.6635 70.0845 49.0953V44.0812C70.0845 43.5129 70.5525 43.0449 71.1207 43.0449C71.689 43.0449 72.157 43.5129 72.157 44.0812V49.0953C72.157 49.6635 71.689 50.1315 71.1207 50.1315Z" fill="#D70A32"/>
</g>
<defs>
<clipPath id="clip0_2632_5039">
<rect width="89" height="89" fill="white" transform="translate(40 33)"/>
</clipPath>
</defs>
</svg>
