<svg width="136" height="213" viewBox="0 0 136 213" fill="none" xmlns="http://www.w3.org/2000/svg">
<path d="M21.2758 153.792V141.112H29.913V142.83H23.3332V146.535H28.9459V148.262H23.3332V152.073H29.913V153.792H21.2758Z" fill="#1F1F1F"/>
<path d="M35.0524 153.792C34.1991 153.792 33.5733 153.552 33.1277 153.133C32.6537 152.688 32.4167 152.029 32.4167 151.29V141.112H34.3508V151.183C34.3508 151.895 34.6163 152.243 35.4032 152.243H36.2565V153.792H35.0524Z" fill="#1F1F1F"/>
<path d="M42.0068 153.899C40.6415 153.899 39.665 153.552 38.9445 152.884C38.167 152.145 37.7025 150.978 37.7025 149.277C37.7025 147.666 38.1765 146.437 39.0203 145.644C39.7219 144.985 40.651 144.647 41.7698 144.647C42.9265 144.647 43.8461 144.976 44.5287 145.626C45.3915 146.437 45.8561 147.657 45.8561 149.42V149.812H39.6081C39.6081 150.649 39.8546 151.308 40.3192 151.744C40.7364 152.136 41.3147 152.349 42.0542 152.349C43.135 152.349 43.7039 152.056 44.3865 151.414L45.6285 152.492C44.6425 153.409 43.6944 153.899 42.0068 153.899ZM39.6081 148.529H43.9314C43.903 147.87 43.7608 147.203 43.2298 146.704C42.8885 146.383 42.4145 146.178 41.7698 146.178C41.1346 146.178 40.651 146.383 40.3097 146.704C39.7883 147.203 39.646 147.87 39.6081 148.529Z" fill="#1F1F1F"/>
<path d="M52.2659 153.899C51.0524 153.899 50.0284 153.552 49.2794 152.848C48.4736 152.1 47.99 150.934 47.99 149.277C47.99 147.612 48.4736 146.446 49.2794 145.698C50.0284 144.994 51.0524 144.647 52.2659 144.647C53.5933 144.647 54.5224 145.021 55.4326 145.929L54.1147 147.131C53.5079 146.517 53.0244 146.276 52.2659 146.276C51.6117 146.276 51.0998 146.463 50.6826 146.855C50.0948 147.407 49.9241 148.218 49.9241 149.277C49.9241 150.328 50.0948 151.138 50.6826 151.691C51.0998 152.091 51.6117 152.269 52.2659 152.269C53.0244 152.269 53.5079 152.029 54.1147 151.414L55.4326 152.626C54.5224 153.534 53.5933 153.899 52.2659 153.899Z" fill="#1F1F1F"/>
<path d="M60.5391 153.792C59.7048 153.792 59.0695 153.534 58.6334 153.115C58.1499 152.67 57.9034 152.038 57.9034 151.299V146.312H56.8036V144.923H57.9034V142.18H59.8375V144.923H61.7053V146.312H59.8375V151.192C59.8375 151.869 60.1788 152.243 60.8899 152.243H61.7053V153.792H60.5391Z" fill="#1F1F1F"/>
<path d="M64.157 153.792V144.754H66.0626V145.733C66.5556 145.101 67.5417 144.647 68.613 144.647C69.5611 144.647 70.2153 144.861 70.8979 145.502L69.4568 146.873C69.0112 146.463 68.6604 146.276 68.0062 146.276C66.9538 146.276 66.0911 147.06 66.0911 148.298V153.792H64.157Z" fill="#1F1F1F"/>
<path d="M75.3971 153.899C74.2309 153.899 73.2828 153.543 72.5528 152.857C71.5668 151.922 71.3961 150.693 71.3961 149.277C71.3961 147.853 71.5668 146.624 72.5623 145.68C73.2828 145.003 74.2309 144.647 75.3971 144.647C76.5538 144.647 77.5018 145.003 78.2319 145.68C79.2274 146.624 79.398 147.853 79.398 149.277C79.398 150.693 79.2274 151.922 78.2319 152.857C77.5018 153.543 76.5538 153.899 75.3971 153.899ZM73.3302 149.277C73.3302 150.248 73.3871 151.192 73.9749 151.744C74.3447 152.091 74.8187 152.269 75.3971 152.269C75.9754 152.269 76.4495 152.091 76.8097 151.744C77.407 151.192 77.4639 150.248 77.4639 149.277C77.4639 148.298 77.407 147.363 76.8097 146.802C76.4495 146.455 75.9754 146.276 75.3971 146.276C74.8187 146.276 74.3447 146.455 73.9749 146.802C73.3871 147.363 73.3302 148.298 73.3302 149.277Z" fill="#1F1F1F"/>
<path d="M82.0263 153.792V144.754H83.932V145.671C84.207 145.377 84.5483 145.146 84.8801 144.985C85.3636 144.763 85.8946 144.647 86.4919 144.647C87.44 144.647 88.2553 144.914 88.8811 145.502C89.5827 146.161 89.8292 147.033 89.8292 148.022V153.792H87.895V148.28C87.895 146.873 87.0418 146.276 85.942 146.276C84.8517 146.276 83.9604 146.882 83.9604 148.28V153.792H82.0263Z" fill="#1F1F1F"/>
<path d="M92.8035 153.792V144.932H94.7376V153.792H92.8035ZM92.7466 142.688V141.067H94.804V142.688H92.7466Z" fill="#1F1F1F"/>
<path d="M101.652 153.899C100.438 153.899 99.4145 153.552 98.6655 152.848C97.8597 152.1 97.3761 150.934 97.3761 149.277C97.3761 147.612 97.8597 146.446 98.6655 145.698C99.4145 144.994 100.438 144.647 101.652 144.647C102.979 144.647 103.909 145.021 104.819 145.929L103.501 147.131C102.894 146.517 102.411 146.276 101.652 146.276C100.998 146.276 100.486 146.463 100.069 146.855C99.4809 147.407 99.3102 148.218 99.3102 149.277C99.3102 150.328 99.4809 151.138 100.069 151.691C100.486 152.091 100.998 152.269 101.652 152.269C102.411 152.269 102.894 152.029 103.501 151.414L104.819 152.626C103.909 153.534 102.979 153.899 101.652 153.899Z" fill="#1F1F1F"/>
<path d="M110.014 153.899C108.45 153.899 107.122 153.65 105.985 152.599L107.255 151.406C108.023 152.145 109.075 152.341 110.005 152.341C111.465 152.341 112.119 151.869 112.119 151.076C112.119 150.471 111.759 150.114 110.839 150.034L109.294 149.91C107.492 149.749 106.449 149.01 106.449 147.416C106.449 145.644 108.08 144.647 110.185 144.647C111.541 144.647 112.754 144.941 113.655 145.68L112.432 146.82C111.815 146.357 110.991 146.178 110.175 146.178C108.895 146.178 108.336 146.642 108.336 147.345C108.336 147.959 108.715 148.28 109.644 148.36L111.161 148.485C112.934 148.645 114.015 149.402 114.015 151.04C114.015 152.919 112.327 153.899 110.014 153.899Z" fill="#1F1F1F"/>
<g clip-path="url(#clip0_2744_6398)">
<path d="M86.4132 120H50.3285C49.7602 120 49.2922 119.532 49.2922 118.964V108.936C49.2922 108.367 49.7602 107.899 50.3285 107.899H86.4299C86.9982 107.899 87.4661 108.367 87.4661 108.936V118.964C87.4661 119.532 86.9982 120 86.4299 120H86.4132ZM51.3647 117.911H85.3769V109.972H51.3647V117.911Z" fill="#1F1F1F"/>
<path d="M108.475 109.972H28.2498C25.8263 109.972 23.8708 108 23.8708 105.593V35.379C23.8708 32.9722 25.8431 31 28.2498 31H108.475C110.899 31 112.854 32.9722 112.854 35.379V105.576C112.854 108 110.882 109.955 108.475 109.955V109.972ZM28.2498 33.0892C26.9796 33.0892 25.9433 34.1254 25.9433 35.3957V105.593C25.9433 106.863 26.9796 107.899 28.2498 107.899H108.475C109.745 107.899 110.782 106.863 110.782 105.593V35.379C110.782 34.1087 109.745 33.0725 108.475 33.0725H28.2498V33.0892Z" fill="#1F1F1F"/>
<path d="M111.818 99.9437H24.9071C24.3388 99.9437 23.8708 99.4757 23.8708 98.9075C23.8708 98.3392 24.3388 97.8712 24.9071 97.8712H111.818C112.386 97.8712 112.854 98.3392 112.854 98.9075C112.854 99.4757 112.386 99.9437 111.818 99.9437Z" fill="#1F1F1F"/>
<path d="M95.1043 120H41.6207C41.0525 120 40.5845 119.532 40.5845 118.964C40.5845 118.395 41.0525 117.927 41.6207 117.927H95.1043C95.6725 117.927 96.1405 118.395 96.1405 118.964C96.1405 119.532 95.6725 120 95.1043 120Z" fill="#1F1F1F"/>
<path d="M83.4048 84.9014H53.3203C50.8968 84.9014 48.9413 82.9292 48.9413 80.5224V50.4212C48.9413 47.9977 50.9135 46.0422 53.3203 46.0422H83.4048C85.8282 46.0422 87.7837 48.0144 87.7837 50.4212V80.5057C87.7837 82.9292 85.8115 84.8847 83.4048 84.8847V84.9014ZM53.3203 48.1314C52.05 48.1314 51.0138 49.1677 51.0138 50.4379V80.5224C51.0138 81.7927 52.05 82.8289 53.3203 82.8289H83.4048C84.675 82.8289 85.7112 81.7927 85.7112 80.5224V50.4212C85.7112 49.151 84.675 48.1147 83.4048 48.1147H53.3203V48.1314Z" fill="#D70A32"/>
<path d="M78.3907 76.5446H65.0198C64.7357 76.5446 64.4682 76.4276 64.2844 76.2438L57.5989 69.5583C57.3984 69.3577 57.2981 69.0903 57.2981 68.8229V55.452C57.2981 54.8838 57.7661 54.4158 58.3343 54.4158H78.3907C78.9589 54.4158 79.4269 54.8838 79.4269 55.452V75.5084C79.4269 76.0766 78.9589 76.5446 78.3907 76.5446ZM65.4543 74.4554H77.3544V56.4883H59.3873V68.3884L65.4543 74.4554Z" fill="#D70A32"/>
<path d="M91.7615 59.831H86.7474C86.1792 59.831 85.7112 59.3631 85.7112 58.7948C85.7112 58.2265 86.1792 57.7585 86.7474 57.7585H91.7615C92.3298 57.7585 92.7978 58.2265 92.7978 58.7948C92.7978 59.3631 92.3298 59.831 91.7615 59.831Z" fill="#D70A32"/>
<path d="M91.7615 53.1455H86.7474C86.1792 53.1455 85.7112 52.6775 85.7112 52.1092C85.7112 51.541 86.1792 51.073 86.7474 51.073H91.7615C92.3298 51.073 92.7978 51.541 92.7978 52.1092C92.7978 52.6775 92.3298 53.1455 91.7615 53.1455Z" fill="#D70A32"/>
<path d="M91.7615 66.5165H86.7474C86.1792 66.5165 85.7112 66.0485 85.7112 65.4802C85.7112 64.9119 86.1792 64.444 86.7474 64.444H91.7615C92.3298 64.444 92.7978 64.9119 92.7978 65.4802C92.7978 66.0485 92.3298 66.5165 91.7615 66.5165Z" fill="#D70A32"/>
<path d="M91.7615 73.2019H86.7474C86.1792 73.2019 85.7112 72.7339 85.7112 72.1656C85.7112 71.5974 86.1792 71.1294 86.7474 71.1294H91.7615C92.3298 71.1294 92.7978 71.5974 92.7978 72.1656C92.7978 72.7339 92.3298 73.2019 91.7615 73.2019Z" fill="#D70A32"/>
<path d="M91.7615 79.8873H86.7474C86.1792 79.8873 85.7112 79.4193 85.7112 78.8511C85.7112 78.2828 86.1792 77.8148 86.7474 77.8148H91.7615C92.3298 77.8148 92.7978 78.2828 92.7978 78.8511C92.7978 79.4193 92.3298 79.8873 91.7615 79.8873Z" fill="#D70A32"/>
<path d="M49.9775 59.831H44.9634C44.3952 59.831 43.9272 59.3631 43.9272 58.7948C43.9272 58.2265 44.3952 57.7585 44.9634 57.7585H49.9775C50.5458 57.7585 51.0138 58.2265 51.0138 58.7948C51.0138 59.3631 50.5458 59.831 49.9775 59.831Z" fill="#D70A32"/>
<path d="M49.9775 53.1455H44.9634C44.3952 53.1455 43.9272 52.6775 43.9272 52.1092C43.9272 51.541 44.3952 51.073 44.9634 51.073H49.9775C50.5458 51.073 51.0138 51.541 51.0138 52.1092C51.0138 52.6775 50.5458 53.1455 49.9775 53.1455Z" fill="#D70A32"/>
<path d="M49.9775 66.5165H44.9634C44.3952 66.5165 43.9272 66.0485 43.9272 65.4802C43.9272 64.9119 44.3952 64.444 44.9634 64.444H49.9775C50.5458 64.444 51.0138 64.9119 51.0138 65.4802C51.0138 66.0485 50.5458 66.5165 49.9775 66.5165Z" fill="#D70A32"/>
<path d="M49.9775 73.2019H44.9634C44.3952 73.2019 43.9272 72.7339 43.9272 72.1656C43.9272 71.5974 44.3952 71.1294 44.9634 71.1294H49.9775C50.5458 71.1294 51.0138 71.5974 51.0138 72.1656C51.0138 72.7339 50.5458 73.2019 49.9775 73.2019Z" fill="#D70A32"/>
<path d="M49.9775 79.8873H44.9634C44.3952 79.8873 43.9272 79.4193 43.9272 78.8511C43.9272 78.2828 44.3952 77.8148 44.9634 77.8148H49.9775C50.5458 77.8148 51.0138 78.2828 51.0138 78.8511C51.0138 79.4193 50.5458 79.8873 49.9775 79.8873Z" fill="#D70A32"/>
<path d="M75.048 89.9156C74.4797 89.9156 74.0117 89.4476 74.0117 88.8793V83.8652C74.0117 83.297 74.4797 82.829 75.048 82.829C75.6162 82.829 76.0842 83.297 76.0842 83.8652V88.8793C76.0842 89.4476 75.6162 89.9156 75.048 89.9156Z" fill="#D70A32"/>
<path d="M81.7334 89.9156C81.1651 89.9156 80.6971 89.4476 80.6971 88.8793V83.8652C80.6971 83.297 81.1651 82.829 81.7334 82.829C82.3016 82.829 82.7696 83.297 82.7696 83.8652V88.8793C82.7696 89.4476 82.3016 89.9156 81.7334 89.9156Z" fill="#D70A32"/>
<path d="M68.3625 89.9156C67.7943 89.9156 67.3263 89.4476 67.3263 88.8793V83.8652C67.3263 83.297 67.7943 82.829 68.3625 82.829C68.9308 82.829 69.3988 83.297 69.3988 83.8652V88.8793C69.3988 89.4476 68.9308 89.9156 68.3625 89.9156Z" fill="#D70A32"/>
<path d="M61.677 89.9156C61.1087 89.9156 60.6407 89.4476 60.6407 88.8793V83.8652C60.6407 83.297 61.1087 82.829 61.677 82.829C62.2453 82.829 62.7132 83.297 62.7132 83.8652V88.8793C62.7132 89.4476 62.2453 89.9156 61.677 89.9156Z" fill="#D70A32"/>
<path d="M54.9916 89.9156C54.4234 89.9156 53.9554 89.4476 53.9554 88.8793V83.8652C53.9554 83.297 54.4234 82.829 54.9916 82.829C55.5599 82.829 56.0279 83.297 56.0279 83.8652V88.8793C56.0279 89.4476 55.5599 89.9156 54.9916 89.9156Z" fill="#D70A32"/>
<path d="M75.048 48.1315C74.4797 48.1315 74.0117 47.6635 74.0117 47.0953V42.0812C74.0117 41.5129 74.4797 41.0449 75.048 41.0449C75.6162 41.0449 76.0842 41.5129 76.0842 42.0812V47.0953C76.0842 47.6635 75.6162 48.1315 75.048 48.1315Z" fill="#D70A32"/>
<path d="M81.7334 48.1315C81.1651 48.1315 80.6971 47.6635 80.6971 47.0953V42.0812C80.6971 41.5129 81.1651 41.0449 81.7334 41.0449C82.3016 41.0449 82.7696 41.5129 82.7696 42.0812V47.0953C82.7696 47.6635 82.3016 48.1315 81.7334 48.1315Z" fill="#D70A32"/>
<path d="M68.3625 48.1315C67.7943 48.1315 67.3263 47.6635 67.3263 47.0953V42.0812C67.3263 41.5129 67.7943 41.0449 68.3625 41.0449C68.9308 41.0449 69.3988 41.5129 69.3988 42.0812V47.0953C69.3988 47.6635 68.9308 48.1315 68.3625 48.1315Z" fill="#D70A32"/>
<path d="M61.677 48.1315C61.1087 48.1315 60.6407 47.6635 60.6407 47.0953V42.0812C60.6407 41.5129 61.1087 41.0449 61.677 41.0449C62.2453 41.0449 62.7132 41.5129 62.7132 42.0812V47.0953C62.7132 47.6635 62.2453 48.1315 61.677 48.1315Z" fill="#D70A32"/>
<path d="M54.9916 48.1315C54.4234 48.1315 53.9554 47.6635 53.9554 47.0953V42.0812C53.9554 41.5129 54.4234 41.0449 54.9916 41.0449C55.5599 41.0449 56.0279 41.5129 56.0279 42.0812V47.0953C56.0279 47.6635 55.5599 48.1315 54.9916 48.1315Z" fill="#D70A32"/>
</g>
<defs>
<clipPath id="clip0_2744_6398">
<rect width="89" height="89" fill="white" transform="translate(23.8708 31)"/>
</clipPath>
</defs>
</svg>
