<svg width="136" height="92" viewBox="0 0 136 92" fill="none" xmlns="http://www.w3.org/2000/svg">
<path d="M21.2758 32.792V20.1117H29.913V21.8303H23.3332V25.5347H28.9459V27.2622H23.3332V31.0734H29.913V32.792H21.2758Z" fill="#1F1F1F"/>
<path d="M35.0524 32.792C34.1991 32.792 33.5733 32.5516 33.1277 32.1331C32.6537 31.6879 32.4167 31.0289 32.4167 30.2898V20.1117H34.3508V30.1829C34.3508 30.8953 34.6163 31.2426 35.4032 31.2426H36.2565V32.792H35.0524Z" fill="#1F1F1F"/>
<path d="M42.0068 32.8989C40.6415 32.8989 39.665 32.5516 38.9445 31.8838C38.167 31.1447 37.7025 29.9781 37.7025 28.2773C37.7025 26.6656 38.1765 25.4367 39.0203 24.6442C39.7219 23.9852 40.651 23.6469 41.7698 23.6469C42.9265 23.6469 43.8461 23.9763 44.5287 24.6264C45.3915 25.4367 45.8561 26.6567 45.8561 28.4198V28.8116H39.6081C39.6081 29.6487 39.8546 30.3076 40.3192 30.7439C40.7364 31.1358 41.3147 31.3495 42.0542 31.3495C43.135 31.3495 43.7039 31.0556 44.3865 30.4145L45.6285 31.4919C44.6425 32.4091 43.6944 32.8989 42.0068 32.8989ZM39.6081 27.5293H43.9314C43.903 26.8704 43.7608 26.2025 43.2298 25.7039C42.8885 25.3833 42.4145 25.1785 41.7698 25.1785C41.1346 25.1785 40.651 25.3833 40.3097 25.7039C39.7883 26.2025 39.646 26.8704 39.6081 27.5293Z" fill="#1F1F1F"/>
<path d="M52.2659 32.8989C51.0524 32.8989 50.0284 32.5516 49.2794 31.8481C48.4736 31.1001 47.99 29.9336 47.99 28.2773C47.99 26.6121 48.4736 25.4456 49.2794 24.6976C50.0284 23.9941 51.0524 23.6469 52.2659 23.6469C53.5933 23.6469 54.5224 24.0209 55.4326 24.9291L54.1147 26.1313C53.5079 25.5169 53.0244 25.2764 52.2659 25.2764C51.6117 25.2764 51.0998 25.4634 50.6826 25.8552C50.0948 26.4073 49.9241 27.2177 49.9241 28.2773C49.9241 29.3281 50.0948 30.1384 50.6826 30.6905C51.0998 31.0912 51.6117 31.2693 52.2659 31.2693C53.0244 31.2693 53.5079 31.0289 54.1147 30.4145L55.4326 31.6255C54.5224 32.5338 53.5933 32.8989 52.2659 32.8989Z" fill="#1F1F1F"/>
<path d="M60.5391 32.792C59.7048 32.792 59.0695 32.5338 58.6334 32.1153C58.1499 31.67 57.9034 31.0378 57.9034 30.2987V25.312H56.8036V23.9229H57.9034V21.1802H59.8375V23.9229H61.7053V25.312H59.8375V30.1919C59.8375 30.8686 60.1788 31.2426 60.8899 31.2426H61.7053V32.792H60.5391Z" fill="#1F1F1F"/>
<path d="M64.157 32.792V23.7537H66.0626V24.7332C66.5556 24.101 67.5417 23.6469 68.613 23.6469C69.5611 23.6469 70.2153 23.8606 70.8979 24.5017L69.4568 25.873C69.0112 25.4634 68.6604 25.2764 68.0062 25.2764C66.9538 25.2764 66.0911 26.06 66.0911 27.2978V32.792H64.157Z" fill="#1F1F1F"/>
<path d="M75.3971 32.8989C74.2309 32.8989 73.2828 32.5427 72.5528 31.857C71.5668 30.922 71.3961 29.6932 71.3961 28.2773C71.3961 26.8526 71.5668 25.6237 72.5623 24.6798C73.2828 24.003 74.2309 23.6469 75.3971 23.6469C76.5538 23.6469 77.5018 24.003 78.2319 24.6798C79.2274 25.6237 79.398 26.8526 79.398 28.2773C79.398 29.6932 79.2274 30.922 78.2319 31.857C77.5018 32.5427 76.5538 32.8989 75.3971 32.8989ZM73.3302 28.2773C73.3302 29.2479 73.3871 30.1919 73.9749 30.7439C74.3447 31.0912 74.8187 31.2693 75.3971 31.2693C75.9754 31.2693 76.4495 31.0912 76.8097 30.7439C77.407 30.1919 77.4639 29.2479 77.4639 28.2773C77.4639 27.2978 77.407 26.3628 76.8097 25.8018C76.4495 25.4545 75.9754 25.2764 75.3971 25.2764C74.8187 25.2764 74.3447 25.4545 73.9749 25.8018C73.3871 26.3628 73.3302 27.2978 73.3302 28.2773Z" fill="#1F1F1F"/>
<path d="M82.0263 32.792V23.7537H83.932V24.6709C84.207 24.377 84.5483 24.1455 84.8801 23.9852C85.3636 23.7626 85.8946 23.6469 86.4919 23.6469C87.44 23.6469 88.2553 23.914 88.8811 24.5017C89.5827 25.1607 89.8292 26.0333 89.8292 27.0218V32.792H87.895V27.28C87.895 25.873 87.0418 25.2764 85.942 25.2764C84.8517 25.2764 83.9604 25.8819 83.9604 27.28V32.792H82.0263Z" fill="#1F1F1F"/>
<path d="M92.8035 32.792V23.9318H94.7376V32.792H92.8035ZM92.7466 21.6878V20.0671H94.804V21.6878H92.7466Z" fill="#1F1F1F"/>
<path d="M101.652 32.8989C100.438 32.8989 99.4145 32.5516 98.6655 31.8481C97.8597 31.1001 97.3761 29.9336 97.3761 28.2773C97.3761 26.6121 97.8597 25.4456 98.6655 24.6976C99.4145 23.9941 100.438 23.6469 101.652 23.6469C102.979 23.6469 103.909 24.0209 104.819 24.9291L103.501 26.1313C102.894 25.5169 102.411 25.2764 101.652 25.2764C100.998 25.2764 100.486 25.4634 100.069 25.8552C99.4809 26.4073 99.3102 27.2177 99.3102 28.2773C99.3102 29.3281 99.4809 30.1384 100.069 30.6905C100.486 31.0912 100.998 31.2693 101.652 31.2693C102.411 31.2693 102.894 31.0289 103.501 30.4145L104.819 31.6255C103.909 32.5338 102.979 32.8989 101.652 32.8989Z" fill="#1F1F1F"/>
<path d="M110.014 32.8989C108.45 32.8989 107.122 32.6496 105.985 31.5988L107.255 30.4056C108.023 31.1447 109.075 31.3406 110.005 31.3406C111.465 31.3406 112.119 30.8686 112.119 30.0761C112.119 29.4706 111.759 29.1144 110.839 29.0342L109.294 28.9096C107.492 28.7493 106.449 28.0102 106.449 26.4162C106.449 24.6442 108.08 23.6469 110.185 23.6469C111.541 23.6469 112.754 23.9407 113.655 24.6798L112.432 25.8196C111.815 25.3566 110.991 25.1785 110.175 25.1785C108.895 25.1785 108.336 25.6415 108.336 26.345C108.336 26.9594 108.715 27.28 109.644 27.3601L111.161 27.4848C112.934 27.6451 114.015 28.402 114.015 30.0405C114.015 31.9194 112.327 32.8989 110.014 32.8989Z" fill="#1F1F1F"/>
</svg>
