<svg width="136" height="92" viewBox="0 0 136 92" fill="none" xmlns="http://www.w3.org/2000/svg">
<path d="M44.8574 31.7921V19.1117H53.4946V20.8303H46.9148V24.7039H52.5275V26.4225H46.9148V31.7921H44.8574Z" fill="#1F1F1F"/>
<path d="M58.7032 31.8989C57.537 31.8989 56.5889 31.5427 55.8589 30.8571C54.8729 29.9221 54.7022 28.6932 54.7022 27.2774C54.7022 25.8526 54.8729 24.6237 55.8684 23.6798C56.5889 23.0031 57.537 22.6469 58.7032 22.6469C59.8598 22.6469 60.8079 23.0031 61.538 23.6798C62.5335 24.6237 62.7041 25.8526 62.7041 27.2774C62.7041 28.6932 62.5335 29.9221 61.538 30.8571C60.8079 31.5427 59.8598 31.8989 58.7032 31.8989ZM56.6363 27.2774C56.6363 28.248 56.6932 29.1919 57.281 29.744C57.6508 30.0913 58.1248 30.2694 58.7032 30.2694C59.2815 30.2694 59.7555 30.0913 60.1158 29.744C60.7131 29.1919 60.77 28.248 60.77 27.2774C60.77 26.2978 60.7131 25.3628 60.1158 24.8018C59.7555 24.4546 59.2815 24.2765 58.7032 24.2765C58.1248 24.2765 57.6508 24.4546 57.281 24.8018C56.6932 25.3628 56.6363 26.2978 56.6363 27.2774Z" fill="#1F1F1F"/>
<path d="M68.8878 31.8989C67.7216 31.8989 66.7735 31.5427 66.0435 30.8571C65.0575 29.9221 64.8868 28.6932 64.8868 27.2774C64.8868 25.8526 65.0575 24.6237 66.053 23.6798C66.7735 23.0031 67.7216 22.6469 68.8878 22.6469C70.0445 22.6469 70.9925 23.0031 71.7226 23.6798C72.7181 24.6237 72.8887 25.8526 72.8887 27.2774C72.8887 28.6932 72.7181 29.9221 71.7226 30.8571C70.9925 31.5427 70.0445 31.8989 68.8878 31.8989ZM66.8209 27.2774C66.8209 28.248 66.8778 29.1919 67.4656 29.744C67.8354 30.0913 68.3094 30.2694 68.8878 30.2694C69.4661 30.2694 69.9402 30.0913 70.3004 29.744C70.8977 29.1919 70.9546 28.248 70.9546 27.2774C70.9546 26.2978 70.8977 25.3628 70.3004 24.8018C69.9402 24.4546 69.4661 24.2765 68.8878 24.2765C68.3094 24.2765 67.8354 24.4546 67.4656 24.8018C66.8778 25.3628 66.8209 26.2978 66.8209 27.2774Z" fill="#1F1F1F"/>
<path d="M78.4846 31.8989C77.4891 31.8989 76.6832 31.5873 76.1617 31.0975C75.2136 30.207 75.0714 28.7645 75.0714 27.2774C75.0714 25.7814 75.2136 24.3388 76.1617 23.4483C76.6832 22.9586 77.4796 22.6469 78.4846 22.6469C79.5085 22.6469 80.2954 22.8873 80.997 23.6798V19.1117H82.9311V31.7921H81.0349V30.8304C80.3049 31.6407 79.537 31.8989 78.4846 31.8989ZM77.0055 27.2774C77.0055 28.0966 77.0624 28.8535 77.3563 29.4056C77.6692 29.9844 78.2096 30.2694 78.9965 30.2694C79.5938 30.2694 80.011 30.1091 80.3144 29.833C80.8643 29.3166 80.997 28.4528 80.997 27.3041V27.2506C80.997 26.1019 80.8643 25.2382 80.3144 24.7217C80.011 24.4367 79.5938 24.2765 78.9965 24.2765C78.2096 24.2765 77.6692 24.5614 77.3563 25.1491C77.0624 25.6923 77.0055 26.4492 77.0055 27.2774Z" fill="#1F1F1F"/>
</svg>
