<svg width="136" height="213" viewBox="0 0 136 213" fill="none" xmlns="http://www.w3.org/2000/svg">
<path d="M44.8574 152.792V140.112H53.4946V141.83H46.9148V145.704H52.5275V147.423H46.9148V152.792H44.8574Z" fill="#1F1F1F"/>
<path d="M58.7032 152.899C57.537 152.899 56.5889 152.543 55.8589 151.857C54.8729 150.922 54.7022 149.693 54.7022 148.277C54.7022 146.853 54.8729 145.624 55.8684 144.68C56.5889 144.003 57.537 143.647 58.7032 143.647C59.8598 143.647 60.8079 144.003 61.538 144.68C62.5335 145.624 62.7041 146.853 62.7041 148.277C62.7041 149.693 62.5335 150.922 61.538 151.857C60.8079 152.543 59.8598 152.899 58.7032 152.899ZM56.6363 148.277C56.6363 149.248 56.6932 150.192 57.281 150.744C57.6508 151.091 58.1248 151.269 58.7032 151.269C59.2815 151.269 59.7555 151.091 60.1158 150.744C60.7131 150.192 60.77 149.248 60.77 148.277C60.77 147.298 60.7131 146.363 60.1158 145.802C59.7555 145.455 59.2815 145.276 58.7032 145.276C58.1248 145.276 57.6508 145.455 57.281 145.802C56.6932 146.363 56.6363 147.298 56.6363 148.277Z" fill="#1F1F1F"/>
<path d="M68.8878 152.899C67.7216 152.899 66.7735 152.543 66.0435 151.857C65.0575 150.922 64.8868 149.693 64.8868 148.277C64.8868 146.853 65.0575 145.624 66.053 144.68C66.7735 144.003 67.7216 143.647 68.8878 143.647C70.0445 143.647 70.9925 144.003 71.7226 144.68C72.7181 145.624 72.8887 146.853 72.8887 148.277C72.8887 149.693 72.7181 150.922 71.7226 151.857C70.9925 152.543 70.0445 152.899 68.8878 152.899ZM66.8209 148.277C66.8209 149.248 66.8778 150.192 67.4656 150.744C67.8354 151.091 68.3094 151.269 68.8878 151.269C69.4661 151.269 69.9402 151.091 70.3004 150.744C70.8977 150.192 70.9546 149.248 70.9546 148.277C70.9546 147.298 70.8977 146.363 70.3004 145.802C69.9402 145.455 69.4661 145.276 68.8878 145.276C68.3094 145.276 67.8354 145.455 67.4656 145.802C66.8778 146.363 66.8209 147.298 66.8209 148.277Z" fill="#1F1F1F"/>
<path d="M78.4846 152.899C77.4891 152.899 76.6832 152.587 76.1617 152.098C75.2136 151.207 75.0714 149.764 75.0714 148.277C75.0714 146.781 75.2136 145.339 76.1617 144.448C76.6832 143.959 77.4796 143.647 78.4846 143.647C79.5085 143.647 80.2954 143.887 80.997 144.68V140.112H82.9311V152.792H81.0349V151.83C80.3049 152.641 79.537 152.899 78.4846 152.899ZM77.0055 148.277C77.0055 149.097 77.0624 149.854 77.3563 150.406C77.6692 150.984 78.2096 151.269 78.9965 151.269C79.5938 151.269 80.011 151.109 80.3144 150.833C80.8643 150.317 80.997 149.453 80.997 148.304V148.251C80.997 147.102 80.8643 146.238 80.3144 145.722C80.011 145.437 79.5938 145.276 78.9965 145.276C78.2096 145.276 77.6692 145.561 77.3563 146.149C77.0624 146.692 77.0055 147.449 77.0055 148.277Z" fill="#1F1F1F"/>
<g clip-path="url(#clip0_2744_6399)">
<path d="M38.1885 85.3769C38.1885 85.3769 38.0283 85.3769 37.9482 85.345C37.4518 85.2174 37.1635 84.7068 37.2916 84.2122C39.1494 77.2876 48.7906 76.2505 55.0525 77.7184C60.85 79.0905 65.8148 77.0163 67.7366 74.272C68.0249 73.8572 68.6014 73.7455 69.0178 74.0327C69.4342 74.3199 69.5463 74.8943 69.258 75.3091C66.5675 79.1703 60.5618 80.8935 54.6361 79.5053C49.271 78.2449 40.6228 79.0107 39.1013 84.6908C38.9892 85.1057 38.6209 85.3769 38.2045 85.3769H38.1885Z" fill="#D70A32"/>
<path d="M100.28 85.0419C98.6621 85.0419 97.1246 84.7866 95.6993 84.276L47.6375 69.262C43.7939 68.3366 41.1994 65.0817 41.0232 60.9812C40.767 55.0937 45.4434 47.1799 59.3447 42.5847C67.2722 39.9681 75.8564 39.3139 83.5437 40.7339C90.5103 42.0263 95.9715 44.9302 98.1656 48.5042C100.007 51.5038 99.4469 54.6948 96.5961 57.487C88.06 65.8157 88.3002 73.9369 91.1029 78.3566C93.9696 82.8719 99.607 84.4036 105.469 82.2497C105.949 82.0742 106.478 82.3135 106.654 82.7922C106.83 83.2708 106.59 83.7973 106.109 83.9728C104.123 84.7068 102.153 85.0578 100.28 85.0578V85.0419ZM75.3279 41.8508C70.203 41.8508 64.934 42.6964 59.9372 44.3558C54.1077 46.2864 49.4472 49.0466 46.4844 52.3334C44.0501 55.0458 42.7689 58.0933 42.897 60.9174C43.0411 64.2361 45.043 66.7571 48.118 67.491C48.134 67.491 48.166 67.491 48.182 67.507L90.5904 80.7499C90.2221 80.3031 89.8697 79.8404 89.5494 79.3298C86.3784 74.3358 85.978 65.2732 95.3149 56.1627C97.5571 53.9768 97.9895 51.7271 96.5961 49.4615C94.7063 46.3661 89.5815 43.7176 83.2074 42.5528C80.661 42.0901 78.0185 41.8508 75.3279 41.8508Z" fill="#262626"/>
<path d="M65.8789 88.9829C56.1256 88.9829 46.8047 87.866 39.6139 85.8397C37.4198 85.2174 35.482 84.5313 33.8324 83.7974C32.327 83.1113 31.3981 81.6753 31.3981 80.0319C31.3981 78.3885 32.327 76.9366 33.8324 76.2665C35.482 75.5325 37.4198 74.8305 39.6139 74.2242C45.2993 72.6287 52.298 71.5916 59.8892 71.2246C60.4017 71.2086 60.8341 71.5916 60.8501 72.1021C60.8821 72.6127 60.4818 73.0435 59.9693 73.0595C52.5222 73.4105 45.6516 74.4316 40.1104 75.9952C38.0124 76.5856 36.1546 77.2398 34.5851 77.9418C33.7363 78.3247 33.2398 79.1065 33.2398 80.0319C33.2398 80.9574 33.7523 81.7392 34.5851 82.1221C36.1386 82.8241 37.9964 83.4783 40.1104 84.0686C47.1411 86.0471 56.2858 87.1321 65.8629 87.1321C75.44 87.1321 84.5847 86.0471 91.6154 84.0686C93.329 83.59 94.6583 83.1432 95.9235 82.6327C96.404 82.4412 96.9325 82.6646 97.1247 83.1432C97.3168 83.6219 97.0926 84.1484 96.6122 84.3399C95.2829 84.8824 93.8896 85.3451 92.1119 85.8397C84.921 87.866 75.6002 88.9829 65.8469 88.9829H65.8789Z" fill="#262626"/>
<path d="M65.8789 93.913C54.8123 93.913 44.4024 92.5568 36.5549 90.0678C28.3872 87.483 23.8708 83.925 23.8708 80.0319C23.8708 77.1759 26.2731 74.4954 30.8055 72.2457C34.9854 70.1874 40.847 68.5281 47.7496 67.4591C48.2461 67.3793 48.7265 67.7303 48.8066 68.2249C48.8867 68.7355 48.5343 69.1982 48.0379 69.278C34.6811 71.3362 25.7126 75.6442 25.7126 80.0159C25.7126 85.8237 41.84 92.0462 65.8628 92.0462C89.8857 92.0462 106.013 85.8237 106.013 80.0159C106.013 76.2026 99.3027 72.4212 88.4764 70.1396C87.9799 70.0279 87.6596 69.5492 87.7557 69.0387C87.8518 68.5281 88.3483 68.2249 88.8607 68.3207C100.936 70.8735 107.855 75.1336 107.855 80C107.855 83.8931 103.355 87.4671 95.1708 90.0359C87.3233 92.5089 76.9134 93.8811 65.8468 93.8811L65.8789 93.913Z" fill="#262626"/>
<path d="M75.7762 83.7973C75.7762 83.7973 75.6481 83.7973 75.568 83.7814C73.4861 83.3187 72.1728 82.4092 71.4201 81.7072C69.5783 83.4463 65.9429 83.7654 65.4624 83.8133C64.9499 83.8452 64.5015 83.4782 64.4695 82.9676C64.4374 82.4571 64.8058 82.0103 65.3183 81.9784C67.0159 81.8508 69.9467 81.1647 70.5232 79.8723C70.6674 79.5532 70.9717 79.3458 71.324 79.3298C71.6763 79.3298 71.9966 79.4894 72.1728 79.7925C72.2048 79.8404 73.1337 81.3562 75.9684 81.9944C76.4649 82.1061 76.7852 82.6007 76.6731 83.0953C76.577 83.5261 76.1926 83.8133 75.7762 83.8133V83.7973Z" fill="#D70A32"/>
<path d="M65.8788 120C57.9513 120 50.3761 119.107 44.5785 117.495C40.3025 116.298 35.0655 114.16 34.3128 110.762V110.73L30.1968 87.1002C30.1168 86.6056 30.4531 86.1269 30.9496 86.0312C31.446 85.9514 31.9265 86.2864 32.0226 86.7811L36.1385 110.379C36.5709 112.278 39.9181 114.272 45.091 115.708C50.7284 117.288 58.1114 118.149 65.8788 118.149C73.6462 118.149 81.0293 117.288 86.6666 115.708C91.8396 114.256 95.1867 112.262 95.6192 110.379L99.7351 86.7811C99.8151 86.2864 100.296 85.9354 100.808 86.0312C101.305 86.1109 101.657 86.5896 101.561 87.1002L97.4449 110.73V110.762C96.6922 114.16 91.4552 116.298 87.1791 117.495C81.3816 119.107 73.8224 120 65.8788 120Z" fill="#262626"/>
</g>
<defs>
<clipPath id="clip0_2744_6399">
<rect width="84" height="80" fill="white" transform="translate(23.8708 40)"/>
</clipPath>
</defs>
</svg>
