<svg width="136" height="213" viewBox="0 0 136 213" fill="none" xmlns="http://www.w3.org/2000/svg">
<path d="M54.4516 152.792V140.112H56.5089V151.073H63.0034V152.792H54.4516Z" fill="#1F1F1F"/>
<path d="M67.7101 152.89C66.5345 152.89 65.7381 152.641 65.1502 152.08C64.6477 151.617 64.3918 150.895 64.3918 150.147C64.3918 149.453 64.6288 148.838 65.1218 148.375C65.7191 147.814 66.525 147.529 67.7006 147.529H70.2605V146.888C70.2605 146.354 70.1372 145.953 69.8338 145.668C69.502 145.348 68.9616 145.196 68.2031 145.196C67.1318 145.196 66.5819 145.472 66.0414 146.114L64.7805 144.974C65.6812 143.976 66.6387 143.647 68.2221 143.647C69.6632 143.647 70.7061 143.967 71.3697 144.591C71.9196 145.107 72.1946 145.829 72.1946 146.764V152.792H70.2984V151.964C70.014 152.24 69.7295 152.445 69.4167 152.587C68.9616 152.801 68.4306 152.89 67.7101 152.89ZM66.269 150.112C66.269 150.949 66.8189 151.385 68.0704 151.385C68.8004 151.385 69.3977 151.278 69.8433 150.86C70.1657 150.548 70.2605 150.076 70.2605 149.551V148.812H68.004C67.3403 148.812 66.9042 148.936 66.6103 149.221C66.3733 149.444 66.269 149.738 66.269 150.112Z" fill="#1F1F1F"/>
<path d="M79.5954 152.899C78.543 152.899 77.775 152.641 77.045 151.83V152.792H75.1488V140.112H77.0829V144.68C77.794 143.887 78.5714 143.647 79.6048 143.647C80.6003 143.647 81.3967 143.959 81.9277 144.448C82.8663 145.339 83.018 146.781 83.018 148.277C83.018 149.764 82.8663 151.207 81.9277 152.098C81.3967 152.587 80.5909 152.899 79.5954 152.899ZM77.0829 148.304C77.0829 149.453 77.2251 150.317 77.775 150.833C78.0689 151.109 78.4861 151.269 79.0834 151.269C79.8703 151.269 80.4202 150.984 80.7236 150.406C81.0175 149.854 81.0839 149.097 81.0839 148.277C81.0839 147.449 81.0175 146.692 80.7236 146.149C80.4202 145.561 79.8703 145.276 79.0834 145.276C78.4861 145.276 78.0689 145.437 77.775 145.722C77.2251 146.238 77.0829 147.102 77.0829 148.251V148.304Z" fill="#1F1F1F"/>
<path d="M19.4158 174.351L24.3648 161.671H26.005L30.9541 174.351H28.7829L27.8538 171.804H22.5255L21.5869 174.351H19.4158ZM23.1228 170.166H27.247L25.1897 164.547L23.1228 170.166Z" fill="#1F1F1F"/>
<path d="M35.8101 174.458C34.862 174.458 34.0467 174.191 33.4209 173.603C32.7193 172.944 32.4728 172.08 32.4728 171.092V165.313H34.4069V170.825C34.4069 172.232 35.2697 172.828 36.36 172.828C37.4503 172.828 38.3415 172.223 38.3415 170.825V165.313H40.2756V174.351H38.37V173.443C38.095 173.728 37.7537 173.959 37.4219 174.119C36.9383 174.342 36.4074 174.458 35.8101 174.458Z" fill="#1F1F1F"/>
<path d="M46.2175 174.351C45.3832 174.351 44.748 174.093 44.3119 173.674C43.8283 173.229 43.5818 172.597 43.5818 171.858V166.871H42.482V165.482H43.5818V162.739H45.5159V165.482H47.3837V166.871H45.5159V171.751C45.5159 172.428 45.8572 172.802 46.5683 172.802H47.3837V174.351H46.2175Z" fill="#1F1F1F"/>
<path d="M53.2982 174.458C52.132 174.458 51.1839 174.102 50.4539 173.416C49.4679 172.481 49.2972 171.252 49.2972 169.836C49.2972 168.411 49.4679 167.183 50.4634 166.239C51.1839 165.562 52.132 165.206 53.2982 165.206C54.4548 165.206 55.4029 165.562 56.133 166.239C57.1285 167.183 57.2991 168.411 57.2991 169.836C57.2991 171.252 57.1285 172.481 56.133 173.416C55.4029 174.102 54.4548 174.458 53.2982 174.458ZM51.2313 169.836C51.2313 170.807 51.2882 171.751 51.876 172.303C52.2458 172.65 52.7198 172.828 53.2982 172.828C53.8765 172.828 54.3506 172.65 54.7108 172.303C55.3081 171.751 55.365 170.807 55.365 169.836C55.365 168.857 55.3081 167.922 54.7108 167.361C54.3506 167.013 53.8765 166.835 53.2982 166.835C52.7198 166.835 52.2458 167.013 51.876 167.361C51.2882 167.922 51.2313 168.857 51.2313 169.836Z" fill="#1F1F1F"/>
<path d="M59.9274 174.351V165.313H61.8331V166.23C62.1175 165.927 62.4399 165.713 62.7812 165.553C63.2837 165.313 63.8051 165.206 64.4024 165.206C65.5781 165.206 66.5167 165.651 67.1235 166.524C67.4648 166.114 67.863 165.793 68.3275 165.571C68.849 165.33 69.4273 165.206 70.091 165.206C71.1529 165.206 71.9967 165.509 72.6129 166.078C73.2576 166.693 73.5895 167.566 73.5895 168.545V174.351H71.6554V168.839C71.6554 167.432 70.8021 166.835 69.7118 166.835C68.6499 166.835 67.7302 167.441 67.7302 168.75V174.351H65.7961V168.839C65.7961 167.432 64.9428 166.835 63.8431 166.835C62.7527 166.835 61.8615 167.441 61.8615 168.839V174.351H59.9274Z" fill="#1F1F1F"/>
<path d="M79.1539 174.449C77.9783 174.449 77.1819 174.2 76.594 173.639C76.0915 173.176 75.8356 172.454 75.8356 171.706C75.8356 171.012 76.0726 170.397 76.5656 169.934C77.1629 169.373 77.9688 169.088 79.1444 169.088H81.7043V168.447C81.7043 167.913 81.581 167.512 81.2776 167.227C80.9458 166.907 80.4054 166.755 79.6469 166.755C78.5756 166.755 78.0257 167.031 77.4852 167.672L76.2243 166.533C77.125 165.535 78.0825 165.206 79.6659 165.206C81.107 165.206 82.1499 165.526 82.8135 166.15C83.3634 166.666 83.6384 167.387 83.6384 168.322V174.351H81.7422V173.523C81.4578 173.799 81.1733 174.004 80.8605 174.146C80.4054 174.36 79.8744 174.449 79.1539 174.449ZM77.7128 171.671C77.7128 172.508 78.2627 172.944 79.5142 172.944C80.2442 172.944 80.8415 172.837 81.2871 172.419C81.6095 172.107 81.7043 171.635 81.7043 171.11V170.371H79.4478C78.7841 170.371 78.348 170.495 78.0541 170.78C77.8171 171.003 77.7128 171.297 77.7128 171.671Z" fill="#1F1F1F"/>
<path d="M89.4558 174.351C88.6215 174.351 87.9863 174.093 87.5502 173.674C87.0666 173.229 86.8201 172.597 86.8201 171.858V166.871H85.7203V165.482H86.8201V162.739H88.7542V165.482H90.622V166.871H88.7542V171.751C88.7542 172.428 89.0956 172.802 89.8066 172.802H90.622V174.351H89.4558Z" fill="#1F1F1F"/>
<path d="M93.0737 174.351V165.491H95.0078V174.351H93.0737ZM93.0168 163.247V161.626H95.0742V163.247H93.0168Z" fill="#1F1F1F"/>
<path d="M101.647 174.458C100.481 174.458 99.533 174.102 98.803 173.416C97.817 172.481 97.6463 171.252 97.6463 169.836C97.6463 168.411 97.817 167.183 98.8125 166.239C99.533 165.562 100.481 165.206 101.647 165.206C102.804 165.206 103.752 165.562 104.482 166.239C105.478 167.183 105.648 168.411 105.648 169.836C105.648 171.252 105.478 172.481 104.482 173.416C103.752 174.102 102.804 174.458 101.647 174.458ZM99.5805 169.836C99.5805 170.807 99.6373 171.751 100.225 172.303C100.595 172.65 101.069 172.828 101.647 172.828C102.226 172.828 102.7 172.65 103.06 172.303C103.657 171.751 103.714 170.807 103.714 169.836C103.714 168.857 103.657 167.922 103.06 167.361C102.7 167.013 102.226 166.835 101.647 166.835C101.069 166.835 100.595 167.013 100.225 167.361C99.6373 167.922 99.5805 168.857 99.5805 169.836Z" fill="#1F1F1F"/>
<path d="M108.277 174.351V165.313H110.182V166.23C110.457 165.936 110.798 165.704 111.13 165.544C111.614 165.322 112.145 165.206 112.742 165.206C113.69 165.206 114.506 165.473 115.131 166.061C115.833 166.72 116.079 167.592 116.079 168.581V174.351H114.145V168.839C114.145 167.432 113.292 166.835 112.192 166.835C111.102 166.835 110.211 167.441 110.211 168.839V174.351H108.277Z" fill="#1F1F1F"/>
<g clip-path="url(#clip0_2744_6400)">
<path d="M73.583 84.3349H28.5635C27.9963 84.3349 27.5293 83.894 27.5293 83.3588C27.5293 82.8235 27.9963 82.3827 28.5635 82.3827H73.5664C74.1335 82.3827 74.6005 82.8235 74.6005 83.3588C74.6005 83.894 74.1335 84.3349 73.5664 84.3349H73.583Z" fill="#D70A32"/>
<path d="M105.292 108.737H71.9317C69.5131 108.737 67.5615 106.879 67.5615 104.612C67.5615 104.077 68.0286 103.636 68.5957 103.636C69.1628 103.636 69.6299 104.077 69.6299 104.612C69.6299 105.809 70.664 106.785 71.9317 106.785H105.292C106.56 106.785 107.594 105.809 107.594 104.612V52.0613H69.6465V63.6798C69.6465 64.2151 69.1795 64.6559 68.6124 64.6559C68.0452 64.6559 67.5782 64.2151 67.5782 63.6798V51.0852C67.5782 50.5499 68.0452 50.1091 68.6124 50.1091H108.645C109.212 50.1091 109.679 50.5499 109.679 51.0852V104.612C109.679 106.895 107.711 108.737 105.309 108.737H105.292Z" fill="#1F1F1F"/>
<path d="M110.296 52.0613H66.9276C66.3605 52.0613 65.8934 51.6205 65.8934 51.0852C65.8934 50.5499 66.3605 50.1091 66.9276 50.1091H110.296C110.863 50.1091 111.33 50.5499 111.33 51.0852C111.33 51.6205 110.863 52.0613 110.296 52.0613Z" fill="#1F1F1F"/>
<path d="M101.956 60.72H98.6199C98.0527 60.72 97.5857 60.2792 97.5857 59.7439C97.5857 59.2086 98.0527 58.7678 98.6199 58.7678H101.956C102.523 58.7678 102.99 59.2086 102.99 59.7439C102.99 60.2792 102.523 60.72 101.956 60.72Z" fill="#1F1F1F"/>
<path d="M101.956 68.5917H98.6199C98.0527 68.5917 97.5857 68.1509 97.5857 67.6156C97.5857 67.0803 98.0527 66.6395 98.6199 66.6395H101.956C102.523 66.6395 102.99 67.0803 102.99 67.6156C102.99 68.1509 102.523 68.5917 101.956 68.5917Z" fill="#1F1F1F"/>
<path d="M108.628 76.4633H76.2851C75.718 76.4633 75.251 76.0225 75.251 75.4872C75.251 74.9519 75.718 74.5111 76.2851 74.5111H108.628C109.195 74.5111 109.662 74.9519 109.662 75.4872C109.662 76.0225 109.195 76.4633 108.628 76.4633Z" fill="#1F1F1F"/>
<path d="M101.956 84.3349H98.6199C98.0527 84.3349 97.5857 83.894 97.5857 83.3588C97.5857 82.8235 98.0527 82.3827 98.6199 82.3827H101.956C102.523 82.3827 102.99 82.8235 102.99 83.3588C102.99 83.894 102.523 84.3349 101.956 84.3349Z" fill="#1F1F1F"/>
<path d="M101.956 92.2064H98.6199C98.0527 92.2064 97.5857 91.7656 97.5857 91.2304C97.5857 90.6951 98.0527 90.2543 98.6199 90.2543H101.956C102.523 90.2543 102.99 90.6951 102.99 91.2304C102.99 91.7656 102.523 92.2064 101.956 92.2064Z" fill="#1F1F1F"/>
<path d="M101.956 100.078H98.6199C98.0527 100.078 97.5857 99.6373 97.5857 99.1021C97.5857 98.5668 98.0527 98.126 98.6199 98.126H101.956C102.523 98.126 102.99 98.5668 102.99 99.1021C102.99 99.6373 102.523 100.078 101.956 100.078Z" fill="#1F1F1F"/>
<path d="M48.6128 108.737C47.612 108.737 46.6112 108.69 45.5937 108.579C33.3338 107.289 23.676 97.9213 22.6085 86.3028C21.6744 75.9752 27.4457 66.4191 37.337 61.948C38.4713 61.4285 39.1885 60.4052 39.1885 59.2559V38.4749C39.1885 37.9396 39.6556 37.4988 40.2227 37.4988H56.9028C57.4699 37.4988 57.9369 37.9396 57.9369 38.4749V59.2717C57.9369 60.4209 58.6375 61.4442 59.7717 61.948C68.7957 66.0098 74.617 74.7158 74.617 84.1302C74.617 91.1202 71.4478 97.7953 65.9267 102.471C61.0895 106.564 55.0179 108.737 48.5961 108.737H48.6128ZM41.2735 39.4667V59.2717C41.2735 61.1766 40.1059 62.8926 38.2377 63.727C29.1471 67.8517 23.8261 76.6364 24.6935 86.1453C25.6609 96.835 34.5514 105.447 45.8272 106.627C52.7661 107.367 59.4048 105.352 64.5589 101.007C69.6297 96.7091 72.5487 90.5692 72.5487 84.146C72.5487 75.4872 67.1944 67.4739 58.8877 63.7427C57.0195 62.9083 55.8686 61.1923 55.8686 59.2874V39.4667H41.2735Z" fill="#1F1F1F"/>
<path d="M58.5876 39.4669H38.5715C38.0044 39.4669 37.5374 39.0261 37.5374 38.4909C37.5374 37.9556 38.0044 37.5148 38.5715 37.5148H58.5876C59.1548 37.5148 59.6218 37.9556 59.6218 38.4909C59.6218 39.0261 59.1548 39.4669 58.5876 39.4669Z" fill="#1F1F1F"/>
<path d="M63.5916 92.0018C64.5128 92.0018 65.2596 91.2969 65.2596 90.4275C65.2596 89.558 64.5128 88.8531 63.5916 88.8531C62.6704 88.8531 61.9236 89.558 61.9236 90.4275C61.9236 91.2969 62.6704 92.0018 63.5916 92.0018Z" fill="#D70A32"/>
<path d="M53.5835 99.8735C54.5048 99.8735 55.2515 99.1687 55.2515 98.2992C55.2515 97.4297 54.5048 96.7249 53.5835 96.7249C52.6623 96.7249 51.9155 97.4297 51.9155 98.2992C51.9155 99.1687 52.6623 99.8735 53.5835 99.8735Z" fill="#D70A32"/>
<path d="M35.2355 93.5761C36.1567 93.5761 36.9035 92.8713 36.9035 92.0018C36.9035 91.1323 36.1567 90.4275 35.2355 90.4275C34.3143 90.4275 33.5675 91.1323 33.5675 92.0018C33.5675 92.8713 34.3143 93.5761 35.2355 93.5761Z" fill="#D70A32"/>
</g>
<defs>
<clipPath id="clip0_2744_6400">
<rect width="88.8215" height="71.2381" fill="white" transform="translate(22.5085 37.4988)"/>
</clipPath>
</defs>
</svg>
