<svg width="136" height="92" viewBox="0 0 136 92" fill="none" xmlns="http://www.w3.org/2000/svg">
<path d="M54.4516 31.792V19.1116H56.5089V30.0733H63.0034V31.792H54.4516Z" fill="#1F1F1F"/>
<path d="M67.7101 31.8899C66.5345 31.8899 65.7381 31.6406 65.1502 31.0796C64.6477 30.6165 64.3918 29.8952 64.3918 29.1472C64.3918 28.4527 64.6288 27.8382 65.1218 27.3752C65.7191 26.8142 66.525 26.5292 67.7006 26.5292H70.2605V25.8881C70.2605 25.3538 70.1372 24.9531 69.8338 24.6681C69.502 24.3476 68.9616 24.1962 68.2031 24.1962C67.1318 24.1962 66.5819 24.4722 66.0414 25.1134L64.7805 23.9736C65.6812 22.9762 66.6387 22.6468 68.2221 22.6468C69.6632 22.6468 70.7061 22.9673 71.3697 23.5907C71.9196 24.1071 72.1946 24.8284 72.1946 25.7634V31.792H70.2984V30.9638C70.014 31.2399 69.7295 31.4447 69.4167 31.5871C68.9616 31.8009 68.4306 31.8899 67.7101 31.8899ZM66.269 29.1116C66.269 29.9487 66.8189 30.385 68.0704 30.385C68.8004 30.385 69.3977 30.2781 69.8433 29.8596C70.1657 29.548 70.2605 29.076 70.2605 28.5506V27.8115H68.004C67.3403 27.8115 66.9042 27.9362 66.6103 28.2211C66.3733 28.4438 66.269 28.7376 66.269 29.1116Z" fill="#1F1F1F"/>
<path d="M79.5954 31.8988C78.543 31.8988 77.775 31.6406 77.045 30.8302V31.792H75.1488V19.1116H77.0829V23.6797C77.794 22.8872 78.5714 22.6468 79.6048 22.6468C80.6003 22.6468 81.3967 22.9584 81.9277 23.4482C82.8663 24.3387 83.018 25.7812 83.018 27.2772C83.018 28.7643 82.8663 30.2069 81.9277 31.0974C81.3967 31.5871 80.5909 31.8988 79.5954 31.8988ZM77.0829 27.304C77.0829 28.4527 77.2251 29.3164 77.775 29.8329C78.0689 30.109 78.4861 30.2692 79.0834 30.2692C79.8703 30.2692 80.4202 29.9843 80.7236 29.4055C81.0175 28.8534 81.0839 28.0965 81.0839 27.2772C81.0839 26.4491 81.0175 25.6922 80.7236 25.149C80.4202 24.5613 79.8703 24.2763 79.0834 24.2763C78.4861 24.2763 78.0689 24.4366 77.775 24.7216C77.2251 25.238 77.0829 26.1018 77.0829 27.2505V27.304Z" fill="#1F1F1F"/>
<path d="M19.4158 53.3509L24.3648 40.6705H26.005L30.9541 53.3509H28.7829L27.8538 50.8041H22.5255L21.5869 53.3509H19.4158ZM23.1228 49.1656H27.247L25.1897 43.5467L23.1228 49.1656Z" fill="#1F1F1F"/>
<path d="M35.8101 53.4577C34.862 53.4577 34.0467 53.1906 33.4209 52.6029C32.7193 51.9439 32.4728 51.0801 32.4728 50.0917V44.3125H34.4069V49.8246C34.4069 51.2315 35.2697 51.8281 36.36 51.8281C37.4503 51.8281 38.3415 51.2226 38.3415 49.8246V44.3125H40.2756V53.3509H38.37V52.4426C38.095 52.7275 37.7537 52.959 37.4219 53.1193C36.9383 53.3419 36.4074 53.4577 35.8101 53.4577Z" fill="#1F1F1F"/>
<path d="M46.2175 53.3509C45.3832 53.3509 44.748 53.0926 44.3119 52.6741C43.8283 52.2289 43.5818 51.5966 43.5818 50.8575V45.8709H42.482V44.4817H43.5818V41.739H45.5159V44.4817H47.3837V45.8709H45.5159V50.7507C45.5159 51.4274 45.8572 51.8014 46.5683 51.8014H47.3837V53.3509H46.2175Z" fill="#1F1F1F"/>
<path d="M53.2982 53.4577C52.132 53.4577 51.1839 53.1015 50.4539 52.4158C49.4679 51.4808 49.2972 50.252 49.2972 48.8361C49.2972 47.4114 49.4679 46.1825 50.4634 45.2386C51.1839 44.5618 52.132 44.2057 53.2982 44.2057C54.4548 44.2057 55.4029 44.5618 56.133 45.2386C57.1285 46.1825 57.2991 47.4114 57.2991 48.8361C57.2991 50.252 57.1285 51.4808 56.133 52.4158C55.4029 53.1015 54.4548 53.4577 53.2982 53.4577ZM51.2313 48.8361C51.2313 49.8068 51.2882 50.7507 51.876 51.3028C52.2458 51.65 52.7198 51.8281 53.2982 51.8281C53.8765 51.8281 54.3506 51.65 54.7108 51.3028C55.3081 50.7507 55.365 49.8068 55.365 48.8361C55.365 47.8566 55.3081 46.9216 54.7108 46.3606C54.3506 46.0133 53.8765 45.8352 53.2982 45.8352C52.7198 45.8352 52.2458 46.0133 51.876 46.3606C51.2882 46.9216 51.2313 47.8566 51.2313 48.8361Z" fill="#1F1F1F"/>
<path d="M59.9274 53.3509V44.3125H61.8331V45.2297C62.1175 44.9269 62.4399 44.7132 62.7812 44.5529C63.2837 44.3125 63.8051 44.2057 64.4024 44.2057C65.5781 44.2057 66.5167 44.6509 67.1235 45.5236C67.4648 45.1139 67.863 44.7934 68.3275 44.5708C68.849 44.3303 69.4273 44.2057 70.091 44.2057C71.1529 44.2057 71.9967 44.5084 72.6129 45.0783C73.2576 45.6928 73.5895 46.5654 73.5895 47.5449V53.3509H71.6554V47.8388C71.6554 46.4319 70.8021 45.8352 69.7118 45.8352C68.6499 45.8352 67.7302 46.4408 67.7302 47.7498V53.3509H65.7961V47.8388C65.7961 46.4319 64.9428 45.8352 63.8431 45.8352C62.7527 45.8352 61.8615 46.4408 61.8615 47.8388V53.3509H59.9274Z" fill="#1F1F1F"/>
<path d="M79.1539 53.4488C77.9783 53.4488 77.1819 53.1995 76.594 52.6385C76.0915 52.1754 75.8356 51.4541 75.8356 50.7061C75.8356 50.0116 76.0726 49.3971 76.5656 48.9341C77.1629 48.3731 77.9688 48.0881 79.1444 48.0881H81.7043V47.447C81.7043 46.9127 81.581 46.512 81.2776 46.227C80.9458 45.9065 80.4054 45.7551 79.6469 45.7551C78.5756 45.7551 78.0257 46.0311 77.4852 46.6723L76.2243 45.5325C77.125 44.5351 78.0825 44.2057 79.6659 44.2057C81.107 44.2057 82.1499 44.5262 82.8135 45.1496C83.3634 45.666 83.6384 46.3873 83.6384 47.3223V53.3509H81.7422V52.5227C81.4578 52.7988 81.1733 53.0036 80.8605 53.146C80.4054 53.3598 79.8744 53.4488 79.1539 53.4488ZM77.7128 50.6705C77.7128 51.5076 78.2627 51.9439 79.5142 51.9439C80.2442 51.9439 80.8415 51.837 81.2871 51.4185C81.6095 51.1068 81.7043 50.6349 81.7043 50.1095V49.3704H79.4478C78.7841 49.3704 78.348 49.4951 78.0541 49.78C77.8171 50.0027 77.7128 50.2965 77.7128 50.6705Z" fill="#1F1F1F"/>
<path d="M89.4558 53.3509C88.6215 53.3509 87.9863 53.0926 87.5502 52.6741C87.0666 52.2289 86.8201 51.5966 86.8201 50.8575V45.8709H85.7203V44.4817H86.8201V41.739H88.7542V44.4817H90.622V45.8709H88.7542V50.7507C88.7542 51.4274 89.0956 51.8014 89.8066 51.8014H90.622V53.3509H89.4558Z" fill="#1F1F1F"/>
<path d="M93.0737 53.3509V44.4906H95.0078V53.3509H93.0737ZM93.0168 42.2466V40.6259H95.0742V42.2466H93.0168Z" fill="#1F1F1F"/>
<path d="M101.647 53.4577C100.481 53.4577 99.533 53.1015 98.803 52.4158C97.817 51.4808 97.6463 50.252 97.6463 48.8361C97.6463 47.4114 97.817 46.1825 98.8125 45.2386C99.533 44.5618 100.481 44.2057 101.647 44.2057C102.804 44.2057 103.752 44.5618 104.482 45.2386C105.478 46.1825 105.648 47.4114 105.648 48.8361C105.648 50.252 105.478 51.4808 104.482 52.4158C103.752 53.1015 102.804 53.4577 101.647 53.4577ZM99.5805 48.8361C99.5805 49.8068 99.6373 50.7507 100.225 51.3028C100.595 51.65 101.069 51.8281 101.647 51.8281C102.226 51.8281 102.7 51.65 103.06 51.3028C103.657 50.7507 103.714 49.8068 103.714 48.8361C103.714 47.8566 103.657 46.9216 103.06 46.3606C102.7 46.0133 102.226 45.8352 101.647 45.8352C101.069 45.8352 100.595 46.0133 100.225 46.3606C99.6373 46.9216 99.5805 47.8566 99.5805 48.8361Z" fill="#1F1F1F"/>
<path d="M108.277 53.3509V44.3125H110.182V45.2297C110.457 44.9359 110.798 44.7043 111.13 44.544C111.614 44.3214 112.145 44.2057 112.742 44.2057C113.69 44.2057 114.506 44.4728 115.131 45.0605C115.833 45.7195 116.079 46.5921 116.079 47.5806V53.3509H114.145V47.8388C114.145 46.4319 113.292 45.8352 112.192 45.8352C111.102 45.8352 110.211 46.4408 110.211 47.8388V53.3509H108.277Z" fill="#1F1F1F"/>
</svg>
