<svg width="136" height="121" viewBox="0 0 136 121" fill="none" xmlns="http://www.w3.org/2000/svg">
<path d="M33.3041 115C32.8205 115 32.4223 114.599 32.4223 114.113V47.4571H28.7527C28.2691 47.4571 27.8708 47.0563 27.8708 46.5697V40.8874C27.8708 40.4008 28.2691 40 28.7527 40H104.989C105.473 40 105.871 40.4008 105.871 40.8874V46.5697C105.871 47.0563 105.473 47.4571 104.989 47.4571H101.305V114.113C101.305 114.599 100.907 115 100.423 115H33.3041ZM34.1859 113.225H99.5415V47.4571H34.1859V113.225ZM29.6345 45.6823H104.107V41.7748H29.6345V45.6823Z" fill="#1F1F1F"/>
<path d="M63.0306 66.1355C62.5471 66.1355 62.1488 65.7348 62.1488 65.2481V52.7959C62.1488 52.3092 62.5471 51.9084 63.0306 51.9084H70.7254C71.209 51.9084 71.6072 52.3092 71.6072 52.7959C71.6072 53.2825 71.209 53.6833 70.7254 53.6833H63.9125V58.1346H70.7254C71.209 58.1346 71.6072 58.5354 71.6072 59.022C71.6072 59.5086 71.209 59.9094 70.7254 59.9094H63.9125V64.3607H70.7254C71.209 64.3607 71.6072 64.7615 71.6072 65.2481C71.6072 65.7348 71.209 66.1355 70.7254 66.1355H63.0306Z" fill="#D70A32"/>
<path d="M55.8905 83.5544C55.4069 83.5544 55.0087 83.1537 55.0087 82.667V72.9199C55.0087 72.4332 55.4069 72.0325 55.8905 72.0325H61.9211C62.4047 72.0325 62.803 72.4332 62.803 72.9199C62.803 73.4065 62.4047 73.8073 61.9211 73.8073H56.7723V76.9132H61.0962C61.5798 76.9132 61.978 77.314 61.978 77.8006C61.978 78.2872 61.5798 78.688 61.0962 78.688H56.7723V82.6813C56.7723 83.168 56.3741 83.5687 55.8905 83.5687V83.5544Z" fill="#D70A32"/>
<path d="M71.8347 83.5544C71.3511 83.5544 70.9529 83.1537 70.9529 82.667V72.9199C70.9529 72.4332 71.3511 72.0325 71.8347 72.0325H75.4332C77.2538 72.0325 78.733 73.521 78.733 75.3531C78.733 77.1851 77.2538 78.6737 75.4332 78.6737H72.7166V82.667C72.7166 83.1537 72.3183 83.5544 71.8347 83.5544ZM72.7166 76.8989H75.4332C76.2866 76.8989 76.9693 76.1975 76.9693 75.3531C76.9693 74.5086 76.2724 73.8073 75.4332 73.8073H72.7166V76.9132V76.8989Z" fill="#D70A32"/>
<path d="M53.4727 108.946C52.9891 108.946 52.5908 108.545 52.5908 108.058C52.5908 107.572 52.9891 107.171 53.4727 107.171H56.488C56.9716 107.171 57.3698 107.572 57.3698 108.058C57.3698 108.545 56.9716 108.946 56.488 108.946H53.4727Z" fill="#D70A32"/>
<path d="M65.3632 108.946C64.8796 108.946 64.4813 108.545 64.4813 108.058C64.4813 107.572 64.8796 107.171 65.3632 107.171H68.3785C68.8621 107.171 69.2603 107.572 69.2603 108.058C69.2603 108.545 68.8621 108.946 68.3785 108.946H65.3632Z" fill="#D70A32"/>
<path d="M77.2538 108.946C76.7702 108.946 76.3719 108.545 76.3719 108.058C76.3719 107.572 76.7702 107.171 77.2538 107.171H80.2691C80.7527 107.171 81.1509 107.572 81.1509 108.058C81.1509 108.545 80.7527 108.946 80.2691 108.946H77.2538Z" fill="#D70A32"/>
<path d="M89.1444 108.946C88.6608 108.946 88.2626 108.545 88.2626 108.058C88.2626 107.572 88.6608 107.171 89.1444 107.171H92.1597C92.6433 107.171 93.0416 107.572 93.0416 108.058C93.0416 108.545 92.6433 108.946 92.1597 108.946H89.1444Z" fill="#D70A32"/>
<path d="M41.5962 108.946C41.1126 108.946 40.7144 108.545 40.7144 108.058C40.7144 107.572 41.1126 107.171 41.5962 107.171H44.6115C45.0951 107.171 45.4933 107.572 45.4933 108.058C45.4933 108.545 45.0951 108.946 44.6115 108.946H41.5962Z" fill="#D70A32"/>
<path d="M66.8708 99.7281C64.4813 99.7281 62.5327 97.7672 62.5327 95.3626C62.5327 92.9581 64.4813 90.9972 66.8708 90.9972C69.2603 90.9972 71.2089 92.9581 71.2089 95.3626C71.2089 97.7672 69.2603 99.7281 66.8708 99.7281ZM66.8708 92.772C65.4485 92.772 64.2964 93.9314 64.2964 95.3626C64.2964 96.7939 65.4485 97.9533 66.8708 97.9533C68.2931 97.9533 69.4452 96.7939 69.4452 95.3626C69.4452 93.9314 68.2931 92.772 66.8708 92.772Z" fill="#D70A32"/>
<path d="M76.0732 99.7281C75.9879 99.7281 75.9026 99.7138 75.7746 99.6708C75.4048 99.5277 75.1914 99.2128 75.1914 98.8407C75.1914 98.5974 75.291 98.3683 75.4759 98.2109L80.8665 92.7863H76.1301C75.6465 92.7863 75.2483 92.3855 75.2483 91.8989C75.2483 91.4122 75.6465 91.0115 76.1301 91.0115H82.9857C83.0995 91.0115 83.2133 91.0401 83.3271 91.083C83.5404 91.1689 83.7111 91.3407 83.7964 91.5554C83.8818 91.7701 83.8818 92.0134 83.7964 92.2281C83.7538 92.3426 83.6827 92.4428 83.6115 92.5143L78.2067 97.9533H82.9288C83.4124 97.9533 83.8107 98.354 83.8107 98.8407C83.8107 99.3273 83.4124 99.7281 82.9288 99.7281H76.0732Z" fill="#D70A32"/>
<path d="M54.3545 99.7281C53.8709 99.7281 53.4726 99.3273 53.4726 98.8407V92.772H50.756C50.2724 92.772 49.8741 92.3712 49.8741 91.8846C49.8741 91.398 50.2724 90.9972 50.756 90.9972H57.9529C58.4365 90.9972 58.8348 91.398 58.8348 91.8846C58.8348 92.3712 58.4365 92.772 57.9529 92.772H55.2363V98.8407C55.2363 99.3273 54.838 99.7281 54.3545 99.7281Z" fill="#D70A32"/>
</svg>
