<svg width="136" height="92" viewBox="0 0 136 92" fill="none" xmlns="http://www.w3.org/2000/svg">
<path d="M41.4751 31.8989C39.9865 31.8989 38.8488 31.4269 37.9766 30.6077C36.6682 29.3788 36.6113 28.1054 36.6113 25.4518C36.6113 22.7982 36.6682 21.5248 37.9766 20.296C38.8488 19.4767 39.9865 19.0048 41.4751 19.0048C42.9541 19.0048 44.0918 19.4767 44.964 20.296C46.2724 21.5248 46.3293 22.7982 46.3293 25.4518C46.3293 28.1054 46.2724 29.3788 44.964 30.6077C44.0918 31.4269 42.9541 31.8989 41.4751 31.8989ZM38.6687 25.4518C38.6687 27.6424 38.7445 28.711 39.5125 29.4411C40.034 29.9309 40.6976 30.1802 41.4751 30.1802C42.243 30.1802 42.9067 29.9309 43.4281 29.4411C44.2056 28.711 44.2719 27.6513 44.2719 25.4518C44.2719 23.2523 44.2056 22.1927 43.4281 21.4625C42.9067 20.9727 42.243 20.7234 41.4751 20.7234C40.6976 20.7234 40.034 20.9727 39.5125 21.4625C38.7445 22.1927 38.6687 23.2523 38.6687 25.4518Z" fill="#1F1F1F"/>
<path d="M49.1354 35.434V22.7537H51.0316V23.7154C51.7616 22.905 52.5295 22.6468 53.5819 22.6468C54.5774 22.6468 55.3833 22.9585 55.9142 23.4482C56.8529 24.3387 57.0046 25.7813 57.0046 27.2773C57.0046 28.7644 56.8529 30.207 55.9142 31.0974C55.3833 31.5872 54.5869 31.8989 53.5914 31.8989C52.558 31.8989 51.7806 31.6584 51.0695 30.8748V35.434H49.1354ZM51.0695 27.304C51.0695 28.4527 51.2117 29.3165 51.7616 29.833C52.0555 30.109 52.4727 30.2693 53.07 30.2693C53.8569 30.2693 54.4068 29.9843 54.7102 29.4055C55.0041 28.8534 55.0704 28.0965 55.0704 27.2773C55.0704 26.4491 55.0041 25.6922 54.7102 25.149C54.4068 24.5613 53.8569 24.2764 53.07 24.2764C52.4727 24.2764 52.0555 24.4367 51.7616 24.7216C51.2117 25.2381 51.0695 26.1019 51.0695 27.2506V27.304Z" fill="#1F1F1F"/>
<path d="M62.4795 31.792C61.6452 31.792 61.01 31.5338 60.5738 31.1152C60.0903 30.67 59.8438 30.0378 59.8438 29.2987V24.312H58.744V22.9229H59.8438V20.1802H61.7779V22.9229H63.6457V24.312H61.7779V29.1918C61.7779 29.8686 62.1192 30.2426 62.8303 30.2426H63.6457V31.792H62.4795Z" fill="#1F1F1F"/>
<path d="M66.0974 31.792V22.9318H68.0315V31.792H66.0974ZM66.0405 20.6878V19.0671H68.0979V20.6878H66.0405Z" fill="#1F1F1F"/>
<path d="M74.9459 31.8989C73.7324 31.8989 72.7084 31.5516 71.9594 30.8481C71.1535 30.1001 70.67 28.9336 70.67 27.2773C70.67 25.6121 71.1535 24.4456 71.9594 23.6976C72.7084 22.9941 73.7324 22.6468 74.9459 22.6468C76.2732 22.6468 77.2024 23.0208 78.1126 23.9291L76.7947 25.1312C76.1879 24.5168 75.7044 24.2764 74.9459 24.2764C74.2917 24.2764 73.7798 24.4634 73.3626 24.8552C72.7748 25.4073 72.6041 26.2176 72.6041 27.2773C72.6041 28.328 72.7748 29.1384 73.3626 29.6905C73.7798 30.0912 74.2917 30.2693 74.9459 30.2693C75.7044 30.2693 76.1879 30.0289 76.7947 29.4144L78.1126 30.6255C77.2024 31.5338 76.2732 31.8989 74.9459 31.8989Z" fill="#1F1F1F"/>
<path d="M82.861 31.89C81.6854 31.89 80.889 31.6406 80.3012 31.0796C79.7987 30.6166 79.5427 29.8953 79.5427 29.1473C79.5427 28.4527 79.7797 27.8383 80.2727 27.3752C80.87 26.8142 81.6759 26.5293 82.8515 26.5293H85.4114V25.8881C85.4114 25.3539 85.2882 24.9531 84.9848 24.6682C84.6529 24.3476 84.1125 24.1962 83.354 24.1962C82.2827 24.1962 81.7328 24.4723 81.1924 25.1134L79.9314 23.9736C80.8321 22.9763 81.7897 22.6468 83.373 22.6468C84.8141 22.6468 85.857 22.9674 86.5207 23.5907C87.0706 24.1072 87.3455 24.8285 87.3455 25.7635V31.792H85.4493V30.9639C85.1649 31.2399 84.8805 31.4447 84.5676 31.5872C84.1125 31.8009 83.5816 31.89 82.861 31.89ZM81.4199 29.1117C81.4199 29.9487 81.9698 30.385 83.2213 30.385C83.9513 30.385 84.5486 30.2782 84.9942 29.8597C85.3166 29.548 85.4114 29.076 85.4114 28.5507V27.8116H83.1549C82.4913 27.8116 82.0551 27.9362 81.7612 28.2212C81.5242 28.4438 81.4199 28.7377 81.4199 29.1117Z" fill="#1F1F1F"/>
<path d="M92.8785 31.792C92.0253 31.792 91.3995 31.5516 90.9539 31.133C90.4799 30.6878 90.2428 30.0289 90.2428 29.2898V19.1116H92.1769V29.1829C92.1769 29.8953 92.4424 30.2426 93.2293 30.2426H94.0826V31.792H92.8785Z" fill="#1F1F1F"/>
</svg>
