<svg width="169" height="212" viewBox="0 0 169 212" fill="none" xmlns="http://www.w3.org/2000/svg">
<rect width="169" height="212" fill="white"/>
<path d="M26.2163 164V150.472H31.3558C33.9873 150.472 35.6783 152.21 35.6783 154.576C35.6783 156.932 33.9873 158.67 31.3558 158.67H28.2778V164H26.2163ZM28.2778 156.837H31.2228C32.6668 156.837 33.6168 156.01 33.6168 154.576C33.6168 153.132 32.6668 152.305 31.2228 152.305H28.2778V156.837ZM41.571 164.114C40.203 164.114 39.2245 163.743 38.5025 163.031C37.7235 162.242 37.258 160.998 37.258 159.183C37.258 157.464 37.733 156.153 38.5785 155.307C39.2815 154.604 40.2125 154.243 41.3335 154.243C42.4925 154.243 43.414 154.595 44.098 155.288C44.9625 156.153 45.428 157.454 45.428 159.335V159.753H39.1675C39.1675 160.646 39.4145 161.349 39.88 161.815C40.298 162.233 40.8775 162.461 41.6185 162.461C42.7015 162.461 43.2715 162.147 43.9555 161.463L45.2 162.613C44.212 163.591 43.262 164.114 41.571 164.114ZM39.1675 158.385H43.4995C43.471 157.682 43.3285 156.97 42.7965 156.438C42.4545 156.096 41.9795 155.877 41.3335 155.877C40.697 155.877 40.2125 156.096 39.8705 156.438C39.348 156.97 39.2055 157.682 39.1675 158.385ZM48.0127 164V154.357H49.9222V155.402C50.4162 154.728 51.4042 154.243 52.4777 154.243C53.4277 154.243 54.0832 154.471 54.7672 155.155L53.3232 156.618C52.8767 156.181 52.5252 155.982 51.8697 155.982C50.8152 155.982 49.9507 156.818 49.9507 158.138V164H48.0127ZM59.1905 164.114C57.623 164.114 56.293 163.848 55.153 162.727L56.426 161.454C57.1955 162.242 58.25 162.451 59.181 162.451C60.644 162.451 61.2995 161.948 61.2995 161.102C61.2995 160.456 60.9385 160.076 60.017 159.991L58.4685 159.858C56.6635 159.687 55.6185 158.898 55.6185 157.198C55.6185 155.307 57.2525 154.243 59.3615 154.243C60.72 154.243 61.936 154.557 62.8385 155.345L61.613 156.561C60.9955 156.067 60.169 155.877 59.352 155.877C58.0695 155.877 57.509 156.371 57.509 157.122C57.509 157.777 57.889 158.119 58.82 158.205L60.34 158.338C62.1165 158.509 63.1995 159.316 63.1995 161.064C63.1995 163.069 61.5085 164.114 59.1905 164.114ZM69.1094 164.114C67.9409 164.114 66.9909 163.734 66.2594 163.002C65.2714 162.005 65.1004 160.694 65.1004 159.183C65.1004 157.663 65.2714 156.352 66.2689 155.345C66.9909 154.623 67.9409 154.243 69.1094 154.243C70.2684 154.243 71.2184 154.623 71.9499 155.345C72.9474 156.352 73.1184 157.663 73.1184 159.183C73.1184 160.694 72.9474 162.005 71.9499 163.002C71.2184 163.734 70.2684 164.114 69.1094 164.114ZM67.0384 159.183C67.0384 160.219 67.0954 161.226 67.6844 161.815C68.0549 162.185 68.5299 162.375 69.1094 162.375C69.6889 162.375 70.1639 162.185 70.5249 161.815C71.1234 161.226 71.1804 160.219 71.1804 159.183C71.1804 158.138 71.1234 157.141 70.5249 156.542C70.1639 156.172 69.6889 155.982 69.1094 155.982C68.5299 155.982 68.0549 156.172 67.6844 156.542C67.0954 157.141 67.0384 158.138 67.0384 159.183ZM75.752 164V154.357H77.6615V155.336C77.937 155.022 78.279 154.775 78.6115 154.604C79.096 154.367 79.628 154.243 80.2265 154.243C81.1765 154.243 81.9935 154.528 82.6205 155.155C83.3235 155.858 83.5705 156.789 83.5705 157.844V164H81.6325V158.119C81.6325 156.618 80.7775 155.982 79.6755 155.982C78.583 155.982 77.69 156.628 77.69 158.119V164H75.752ZM89.1538 164.105C87.9758 164.105 87.1778 163.838 86.5888 163.24C86.0853 162.746 85.8288 161.976 85.8288 161.178C85.8288 160.437 86.0663 159.782 86.5603 159.288C87.1588 158.689 87.9663 158.385 89.1443 158.385H91.7093V157.701C91.7093 157.131 91.5858 156.704 91.2818 156.4C90.9493 156.058 90.4078 155.896 89.6478 155.896C88.5743 155.896 88.0233 156.191 87.4818 156.875L86.2183 155.659C87.1208 154.595 88.0803 154.243 89.6668 154.243C91.1108 154.243 92.1558 154.585 92.8208 155.25C93.3718 155.801 93.6473 156.571 93.6473 157.568V164H91.7473V163.116C91.4623 163.411 91.1773 163.629 90.8638 163.781C90.4078 164.01 89.8758 164.105 89.1538 164.105ZM87.7098 161.14C87.7098 162.033 88.2608 162.499 89.5148 162.499C90.2463 162.499 90.8448 162.385 91.2913 161.938C91.6143 161.606 91.7093 161.102 91.7093 160.542V159.753H89.4483C88.7833 159.753 88.3463 159.886 88.0518 160.19C87.8143 160.428 87.7098 160.741 87.7098 161.14ZM99.1915 164C98.3365 164 97.7095 163.743 97.263 163.297C96.788 162.822 96.5505 162.119 96.5505 161.33V150.472H98.4885V161.216C98.4885 161.976 98.7545 162.347 99.543 162.347H100.398V164H99.1915ZM111.698 164.114C110.207 164.114 109.067 163.61 108.193 162.736C106.882 161.425 106.825 160.067 106.825 157.236C106.825 154.405 106.882 153.047 108.193 151.735C109.067 150.861 110.207 150.358 111.698 150.358C114.187 150.358 116.049 151.83 116.524 154.519H114.425C114.111 153.141 113.19 152.191 111.698 152.191C110.919 152.191 110.254 152.457 109.732 152.98C108.962 153.759 108.886 154.889 108.886 157.236C108.886 159.582 108.962 160.713 109.732 161.492C110.254 162.014 110.919 162.28 111.698 162.28C113.19 162.28 114.111 161.33 114.425 159.953H116.524C116.049 162.641 114.187 164.114 111.698 164.114ZM121.625 164.105C120.447 164.105 119.649 163.838 119.06 163.24C118.556 162.746 118.3 161.976 118.3 161.178C118.3 160.437 118.537 159.782 119.031 159.288C119.63 158.689 120.437 158.385 121.615 158.385H124.18V157.701C124.18 157.131 124.057 156.704 123.753 156.4C123.42 156.058 122.879 155.896 122.119 155.896C121.045 155.896 120.494 156.191 119.953 156.875L118.689 155.659C119.592 154.595 120.551 154.243 122.138 154.243C123.582 154.243 124.627 154.585 125.292 155.25C125.843 155.801 126.118 156.571 126.118 157.568V164H124.218V163.116C123.933 163.411 123.648 163.629 123.335 163.781C122.879 164.01 122.347 164.105 121.625 164.105ZM120.181 161.14C120.181 162.033 120.732 162.499 121.986 162.499C122.717 162.499 123.316 162.385 123.762 161.938C124.085 161.606 124.18 161.102 124.18 160.542V159.753H121.919C121.254 159.753 120.817 159.886 120.523 160.19C120.285 160.428 120.181 160.741 120.181 161.14ZM129.078 164V154.357H130.988V155.402C131.482 154.728 132.47 154.243 133.543 154.243C134.493 154.243 135.149 154.471 135.833 155.155L134.389 156.618C133.942 156.181 133.591 155.982 132.935 155.982C131.881 155.982 131.016 156.818 131.016 158.138V164H129.078ZM140.597 164.114C139.229 164.114 138.251 163.743 137.529 163.031C136.75 162.242 136.284 160.998 136.284 159.183C136.284 157.464 136.759 156.153 137.605 155.307C138.308 154.604 139.239 154.243 140.36 154.243C141.519 154.243 142.44 154.595 143.124 155.288C143.989 156.153 144.454 157.454 144.454 159.335V159.753H138.194C138.194 160.646 138.441 161.349 138.906 161.815C139.324 162.233 139.904 162.461 140.645 162.461C141.728 162.461 142.298 162.147 142.982 161.463L144.226 162.613C143.238 163.591 142.288 164.114 140.597 164.114ZM138.194 158.385H142.526C142.497 157.682 142.355 156.97 141.823 156.438C141.481 156.096 141.006 155.877 140.36 155.877C139.723 155.877 139.239 156.096 138.897 156.438C138.374 156.97 138.232 157.682 138.194 158.385Z" fill="#1F1F1F"/>
<g clip-path="url(#clip0_2632_5043)">
<path d="M77.746 84.1903C77.56 84.0041 77.3926 83.818 77.2066 83.6132C66.1023 82.4032 56.3745 75.4041 51.6687 65.2217C50.0877 64.4027 48.6183 63.3603 47.3162 62.0758C46.8698 61.6477 46.8698 60.9403 47.3162 60.4936C47.744 60.0468 48.4509 60.0468 48.8973 60.4936C50.3853 61.9455 52.1151 63.081 53.9937 63.8442L63.2565 54.5554C65.5443 52.2658 68.5948 51 71.8312 51H85.0558C85.6697 51 86.1719 51.5026 86.1719 52.1169C86.1719 52.7312 85.6697 53.2338 85.0558 53.2338H71.8312C69.19 53.2338 66.6976 54.2576 64.8189 56.1377L56.3745 64.5888C57.5277 64.8494 58.7367 64.9984 59.9457 64.9984C64.1865 64.9984 68.1484 63.7698 71.1244 61.536C71.515 61.2382 72.0544 61.2382 72.4636 61.536C76.9648 64.9053 84.3118 64.9053 88.8131 61.536C89.2037 61.2382 89.7431 61.2382 90.1523 61.536C93.1283 63.7698 97.1087 64.9984 101.35 64.9984C102.577 64.9984 103.768 64.8681 104.939 64.5888L96.4949 56.1377C94.6163 54.2576 92.1425 53.2338 89.4827 53.2338C88.8689 53.2338 88.3667 52.7312 88.3667 52.1169C88.3667 51.5026 88.8689 51 89.4827 51C92.7191 51 95.7695 52.2658 98.0573 54.5554L107.32 63.8256C109.199 63.0624 110.929 61.9269 112.417 60.475C112.863 60.0468 113.551 60.0468 113.998 60.475C114.425 60.9217 114.425 61.6291 113.998 62.0572C112.696 63.3416 111.226 64.3841 109.645 65.2031C106.967 71.0109 102.67 75.8322 97.1831 79.1642C96.6623 79.4807 95.9741 79.3132 95.6579 78.792C95.3417 78.2707 95.5091 77.582 96.0299 77.2655C100.42 74.6036 104.009 70.8993 106.502 66.4689C104.846 66.9529 103.117 67.2135 101.35 67.2135C96.9413 67.2135 92.7563 66.0036 89.4827 63.7884C87.0275 65.4079 83.9212 66.2828 80.6476 66.2828C77.374 66.2828 74.2678 65.4079 71.8126 63.7884C68.539 66.0036 64.3725 67.2135 59.9643 67.2135C58.1973 67.2135 56.4675 66.9715 54.8121 66.4875C59.1831 74.2313 66.865 79.6482 75.6256 81.156" fill="#D70A32"/>
<path d="M75.6256 81.1381C74.026 77.6944 74.2492 73.7108 75.979 71.961C78.2854 69.6528 84.4978 70.0064 88.1993 73.7108L96.5879 82.1061C97.4621 81.2312 98.8757 81.2312 99.7313 82.1061L103.489 85.8663C103.916 86.2944 103.916 87.0018 103.489 87.4485C103.061 87.8767 102.354 87.8767 101.908 87.4485L98.1503 83.6883L87.6785 94.1685L97.3505 103.848L107.822 93.3681L104.865 90.4083C104.437 89.9802 104.437 89.2728 104.865 88.826C105.293 88.3979 106 88.3979 106.446 88.826L121.996 104.388C122.628 105.021 122.981 105.859 122.981 106.752C122.981 107.646 122.628 108.483 121.996 109.116L113.105 118.014C112.454 118.666 111.598 118.982 110.743 118.982C109.887 118.982 109.031 118.666 108.38 118.014L86.1161 95.7321C85.6883 95.304 85.4651 94.7456 85.4651 94.1499C85.4651 93.5542 85.6883 92.9958 86.1161 92.5676L77.7274 84.1723C77.5414 83.9862 77.374 83.8 77.188 83.5953M102.112 108.576L109.98 116.45C110.408 116.879 111.115 116.879 111.561 116.45L120.452 107.553C120.656 107.348 120.787 107.069 120.787 106.771C120.787 106.473 120.675 106.194 120.452 105.989L112.584 98.1148L102.112 108.595V108.576ZM98.9501 105.412L100.531 106.994L111.003 96.514L109.422 94.9317L98.9501 105.412ZM80.3314 72.7242C79.1038 72.7242 78.0994 73.022 77.5786 73.5433C76.2022 74.9208 76.444 79.742 79.327 82.6087L87.7157 91.004L95.0255 83.6883L86.6369 75.2931C84.8512 73.506 82.3216 72.7242 80.3314 72.7242Z" fill="#1F1F1F"/>
</g>
<defs>
<clipPath id="clip0_2632_5043">
<rect width="76" height="68" fill="white" transform="translate(47 51)"/>
</clipPath>
</defs>
</svg>
