<svg width="136" height="213" viewBox="0 0 136 213" fill="none" xmlns="http://www.w3.org/2000/svg">
<path d="M10.0727 136.005V123.325H15.2019C17.8281 123.325 19.5157 124.954 19.5157 127.171C19.5157 129.38 17.8281 131.009 15.2019 131.009H12.1301V136.005H10.0727ZM12.1301 129.291H15.0692C16.5103 129.291 17.4584 128.516 17.4584 127.171C17.4584 125.818 16.5103 125.043 15.0692 125.043H12.1301V129.291Z" fill="#1F1F1F"/>
<path d="M25.3966 136.112C24.0313 136.112 23.0548 135.765 22.3342 135.097C21.5568 134.358 21.0922 133.191 21.0922 131.49C21.0922 129.879 21.5663 128.65 22.4101 127.857C23.1117 127.198 24.0408 126.86 25.1595 126.86C26.3162 126.86 27.2359 127.189 27.9185 127.839C28.7813 128.65 29.2458 129.87 29.2458 131.633V132.025H22.9979C22.9979 132.862 23.2444 133.521 23.709 133.957C24.1261 134.349 24.7045 134.562 25.444 134.562C26.5248 134.562 27.0937 134.269 27.7763 133.627L29.0183 134.705C28.0323 135.622 27.0842 136.112 25.3966 136.112ZM22.9979 130.742H27.3212C27.2928 130.083 27.1505 129.415 26.6196 128.917C26.2783 128.596 25.8043 128.391 25.1595 128.391C24.5243 128.391 24.0408 128.596 23.6995 128.917C23.178 129.415 23.0358 130.083 22.9979 130.742Z" fill="#1F1F1F"/>
<path d="M31.8254 136.005V126.967H33.7311V127.946C34.2241 127.314 35.2101 126.86 36.2814 126.86C37.2295 126.86 37.8837 127.074 38.5664 127.715L37.1252 129.086C36.6796 128.676 36.3288 128.489 35.6747 128.489C34.6223 128.489 33.7595 129.273 33.7595 130.511V136.005H31.8254Z" fill="#1F1F1F"/>
<path d="M42.9808 136.112C41.4164 136.112 40.0891 135.863 38.9514 134.812L40.2218 133.619C40.9898 134.358 42.0422 134.554 42.9713 134.554C44.4314 134.554 45.0855 134.082 45.0855 133.289C45.0855 132.684 44.7253 132.327 43.8056 132.247L42.2602 132.123C40.4588 131.962 39.4159 131.223 39.4159 129.629C39.4159 127.857 41.0467 126.86 43.1514 126.86C44.5072 126.86 45.7208 127.154 46.6215 127.893L45.3984 129.033C44.7821 128.57 43.9573 128.391 43.1419 128.391C41.862 128.391 41.3026 128.854 41.3026 129.558C41.3026 130.172 41.6819 130.493 42.611 130.573L44.128 130.698C45.9009 130.858 46.9817 131.615 46.9817 133.253C46.9817 135.132 45.2941 136.112 42.9808 136.112Z" fill="#1F1F1F"/>
<path d="M52.8798 136.112C51.7136 136.112 50.7655 135.756 50.0355 135.07C49.0495 134.135 48.8788 132.906 48.8788 131.49C48.8788 130.066 49.0495 128.837 50.045 127.893C50.7655 127.216 51.7136 126.86 52.8798 126.86C54.0364 126.86 54.9845 127.216 55.7146 127.893C56.7101 128.837 56.8807 130.066 56.8807 131.49C56.8807 132.906 56.7101 134.135 55.7146 135.07C54.9845 135.756 54.0364 136.112 52.8798 136.112ZM50.8129 131.49C50.8129 132.461 50.8698 133.405 51.4576 133.957C51.8274 134.304 52.3014 134.482 52.8798 134.482C53.4581 134.482 53.9322 134.304 54.2924 133.957C54.8897 133.405 54.9466 132.461 54.9466 131.49C54.9466 130.511 54.8897 129.576 54.2924 129.015C53.9322 128.667 53.4581 128.489 52.8798 128.489C52.3014 128.489 51.8274 128.667 51.4576 129.015C50.8698 129.576 50.8129 130.511 50.8129 131.49Z" fill="#1F1F1F"/>
<path d="M59.509 136.005V126.967H61.4147V127.884C61.6896 127.59 62.031 127.358 62.3628 127.198C62.8463 126.976 63.3773 126.86 63.9746 126.86C64.9226 126.86 65.738 127.127 66.3638 127.715C67.0653 128.374 67.3118 129.246 67.3118 130.235V136.005H65.3777V130.493C65.3777 129.086 64.5244 128.489 63.4247 128.489C62.3343 128.489 61.4431 129.095 61.4431 130.493V136.005H59.509Z" fill="#1F1F1F"/>
<path d="M72.884 136.103C71.7083 136.103 70.9119 135.854 70.3241 135.293C69.8216 134.83 69.5656 134.108 69.5656 133.36C69.5656 132.666 69.8027 132.051 70.2957 131.588C70.893 131.027 71.6989 130.742 72.8745 130.742H75.4344V130.101C75.4344 129.567 75.3111 129.166 75.0077 128.881C74.6759 128.561 74.1355 128.409 73.377 128.409C72.3056 128.409 71.7557 128.685 71.2153 129.326L69.9544 128.187C70.8551 127.189 71.8126 126.86 73.3959 126.86C74.8371 126.86 75.88 127.18 76.5436 127.804C77.0935 128.32 77.3685 129.041 77.3685 129.976V136.005H75.4723V135.177C75.1878 135.453 74.9034 135.658 74.5905 135.8C74.1355 136.014 73.6045 136.103 72.884 136.103ZM71.4429 133.325C71.4429 134.162 71.9928 134.598 73.2443 134.598C73.9743 134.598 74.5716 134.491 75.0172 134.073C75.3395 133.761 75.4344 133.289 75.4344 132.764V132.025H73.1779C72.5142 132.025 72.0781 132.149 71.7842 132.434C71.5472 132.657 71.4429 132.951 71.4429 133.325Z" fill="#1F1F1F"/>
<path d="M82.9015 136.005C82.0482 136.005 81.4225 135.765 80.9769 135.346C80.5028 134.901 80.2658 134.242 80.2658 133.503V123.325H82.1999V133.396C82.1999 134.108 82.4654 134.456 83.2523 134.456H84.1056V136.005H82.9015Z" fill="#1F1F1F"/>
<path d="M95.3833 136.112C93.8948 136.112 92.7571 135.64 91.8848 134.821C90.5765 133.592 90.5196 132.318 90.5196 129.665C90.5196 127.011 90.5765 125.738 91.8848 124.509C92.7571 123.69 93.8948 123.218 95.3833 123.218C97.8673 123.218 99.7256 124.598 100.2 127.118H98.1043C97.7915 125.827 96.8718 124.936 95.3833 124.936C94.6059 124.936 93.9422 125.186 93.4208 125.675C92.6528 126.406 92.5769 127.465 92.5769 129.665C92.5769 131.864 92.6528 132.924 93.4208 133.654C93.9422 134.144 94.6059 134.393 95.3833 134.393C96.8718 134.393 97.7915 133.503 98.1043 132.212H100.2C99.7256 134.732 97.8673 136.112 95.3833 136.112Z" fill="#1F1F1F"/>
<path d="M105.29 136.103C104.114 136.103 103.318 135.854 102.73 135.293C102.227 134.83 101.971 134.108 101.971 133.36C101.971 132.666 102.208 132.051 102.701 131.588C103.299 131.027 104.104 130.742 105.28 130.742H107.84V130.101C107.84 129.567 107.717 129.166 107.413 128.881C107.081 128.561 106.541 128.409 105.783 128.409C104.711 128.409 104.161 128.685 103.621 129.326L102.36 128.187C103.261 127.189 104.218 126.86 105.802 126.86C107.243 126.86 108.286 127.18 108.949 127.804C109.499 128.32 109.774 129.041 109.774 129.976V136.005H107.878V135.177C107.593 135.453 107.309 135.658 106.996 135.8C106.541 136.014 106.01 136.103 105.29 136.103ZM103.848 133.325C103.848 134.162 104.398 134.598 105.65 134.598C106.38 134.598 106.977 134.491 107.423 134.073C107.745 133.761 107.84 133.289 107.84 132.764V132.025H105.583C104.92 132.025 104.484 132.149 104.19 132.434C103.953 132.657 103.848 132.951 103.848 133.325Z" fill="#1F1F1F"/>
<path d="M112.728 136.005V126.967H114.634V127.946C115.127 127.314 116.113 126.86 117.184 126.86C118.132 126.86 118.787 127.074 119.469 127.715L118.028 129.086C117.583 128.676 117.232 128.489 116.578 128.489C115.525 128.489 114.662 129.273 114.662 130.511V136.005H112.728Z" fill="#1F1F1F"/>
<path d="M124.224 136.112C122.859 136.112 121.883 135.765 121.162 135.097C120.385 134.358 119.92 133.191 119.92 131.49C119.92 129.879 120.394 128.65 121.238 127.857C121.939 127.198 122.869 126.86 123.987 126.86C125.144 126.86 126.064 127.189 126.746 127.839C127.609 128.65 128.074 129.87 128.074 131.633V132.025H121.826C121.826 132.862 122.072 133.521 122.537 133.957C122.954 134.349 123.532 134.562 124.272 134.562C125.353 134.562 125.921 134.269 126.604 133.627L127.846 134.705C126.86 135.622 125.912 136.112 124.224 136.112ZM121.826 130.742H126.149C126.121 130.083 125.978 129.415 125.447 128.917C125.106 128.596 124.632 128.391 123.987 128.391C123.352 128.391 122.869 128.596 122.527 128.917C122.006 129.415 121.864 130.083 121.826 130.742Z" fill="#1F1F1F"/>
<g clip-path="url(#clip0_2744_6405)">
<path d="M61.6168 79.1903C61.4308 79.0041 61.2634 78.818 61.0774 78.6132C49.9732 77.4032 40.2453 70.4041 35.5395 60.2217C33.9585 59.4027 32.4891 58.3603 31.1871 57.0758C30.7406 56.6477 30.7406 55.9403 31.1871 55.4936C31.6149 55.0468 32.3217 55.0468 32.7681 55.4936C34.2561 56.9455 35.9859 58.081 37.8645 58.8442L47.1273 49.5554C49.4151 47.2658 52.4656 46 55.702 46H68.9267C69.5405 46 70.0427 46.5026 70.0427 47.1169C70.0427 47.7312 69.5405 48.2338 68.9267 48.2338H55.702C53.0608 48.2338 50.5684 49.2576 48.6897 51.1377L40.2453 59.5888C41.3985 59.8494 42.6075 59.9984 43.8165 59.9984C48.0573 59.9984 52.0192 58.7698 54.9952 56.536C55.3858 56.2382 55.9252 56.2382 56.3344 56.536C60.8356 59.9053 68.1826 59.9053 72.6839 56.536C73.0745 56.2382 73.6139 56.2382 74.0231 56.536C76.9991 58.7698 80.9795 59.9984 85.2203 59.9984C86.4479 59.9984 87.6384 59.8681 88.8102 59.5888L80.3657 51.1377C78.4871 49.2576 76.0133 48.2338 73.3535 48.2338C72.7397 48.2338 72.2375 47.7312 72.2375 47.1169C72.2375 46.5026 72.7397 46 73.3535 46C76.5899 46 79.6403 47.2658 81.9281 49.5554L91.191 58.8256C93.0696 58.0624 94.7994 56.9269 96.2874 55.475C96.7338 55.0468 97.422 55.0468 97.8684 55.475C98.2962 55.9217 98.2962 56.6291 97.8684 57.0572C96.5664 58.3416 95.097 59.3841 93.516 60.2031C90.8376 66.0109 86.5409 70.8322 81.0539 74.1642C80.5331 74.4807 79.8449 74.3132 79.5287 73.792C79.2125 73.2707 79.3799 72.582 79.9007 72.2655C84.2903 69.6036 87.8802 65.8993 90.3726 61.4689C88.7172 61.9529 86.9873 62.2135 85.2203 62.2135C80.8121 62.2135 76.6271 61.0036 73.3535 58.7884C70.8983 60.4079 67.792 61.2828 64.5184 61.2828C61.2448 61.2828 58.1386 60.4079 55.6834 58.7884C52.4098 61.0036 48.2433 62.2135 43.8351 62.2135C42.0681 62.2135 40.3383 61.9715 38.6829 61.4875C43.0539 69.2313 50.7358 74.6482 59.4964 76.156" fill="#D70A32"/>
<path d="M59.4964 76.1374C57.8968 72.6937 58.12 68.7101 59.8498 66.9603C62.1562 64.6521 68.3687 65.0058 72.0701 68.7101L80.4587 77.1054C81.3329 76.2305 82.7465 76.2305 83.6021 77.1054L87.3594 80.8656C87.7872 81.2938 87.7872 82.0011 87.3594 82.4479C86.9315 82.876 86.2247 82.876 85.7783 82.4479L82.0211 78.6877L71.5493 89.1678L81.2213 98.8475L91.6932 88.3674L88.7358 85.4076C88.308 84.9795 88.308 84.2721 88.7358 83.8254C89.1636 83.3972 89.8704 83.3972 90.3168 83.8254L105.866 99.3874C106.499 100.02 106.852 100.858 106.852 101.751C106.852 102.645 106.499 103.483 105.866 104.116L96.9756 113.013C96.3246 113.665 95.469 113.981 94.6134 113.981C93.7578 113.981 92.9022 113.665 92.2512 113.013L69.9869 90.7315C69.5591 90.3033 69.3359 89.7449 69.3359 89.1492C69.3359 88.5535 69.5591 87.9951 69.9869 87.567L61.5982 79.1717C61.4122 78.9855 61.2448 78.7994 61.0588 78.5946M85.9829 103.576L93.8508 111.45C94.2786 111.878 94.9854 111.878 95.4318 111.45L104.323 102.552C104.527 102.347 104.657 102.068 104.657 101.77C104.657 101.472 104.546 101.193 104.323 100.988L96.4548 93.1142L85.9829 103.594V103.576ZM82.8209 100.411L84.4019 101.993L94.8738 91.5133L93.2928 89.931L82.8209 100.411ZM64.2022 67.7235C62.9746 67.7235 61.9702 68.0214 61.4494 68.5426C60.073 69.9201 60.3148 74.7413 63.1978 77.608L71.5865 86.0033L78.8963 78.6877L70.5077 70.2924C68.7221 68.5054 66.1924 67.7235 64.2022 67.7235Z" fill="#1F1F1F"/>
</g>
<defs>
<clipPath id="clip0_2744_6405">
<rect width="76" height="68" fill="white" transform="translate(30.8708 46)"/>
</clipPath>
</defs>
</svg>
