<svg width="136" height="92" viewBox="0 0 136 92" fill="none" xmlns="http://www.w3.org/2000/svg">
<path d="M29.2475 15.005V2.32463H34.3767C37.0029 2.32463 38.6905 3.9542 38.6905 6.17149C38.6905 8.37987 37.0029 10.0094 34.3767 10.0094H31.3048V15.005H29.2475ZM31.3048 8.29082H34.2439C35.685 8.29082 36.6331 7.51611 36.6331 6.17149C36.6331 4.81796 35.685 4.04325 34.2439 4.04325H31.3048V8.29082Z" fill="#1F1F1F"/>
<path d="M40.9452 15.005V2.32463H42.8793V6.88387C43.1637 6.59001 43.4861 6.35849 43.8179 6.1982C44.3014 5.97558 44.8324 5.85982 45.4107 5.85982C46.3588 5.85982 47.1742 6.12696 47.7999 6.71468C48.5015 7.37363 48.748 8.2463 48.748 9.23473V15.005H46.8139V9.49296C46.8139 8.08601 45.9606 7.48939 44.8608 7.48939C43.7705 7.48939 42.8793 8.09492 42.8793 9.49296V15.005H40.9452Z" fill="#1F1F1F"/>
<path d="M54.3201 15.103C53.1445 15.103 52.3481 14.8536 51.7603 14.2926C51.2578 13.8296 51.0018 13.1083 51.0018 12.3603C51.0018 11.6657 51.2388 11.0513 51.7318 10.5883C52.3291 10.0273 53.135 9.7423 54.3107 9.7423H56.8705V9.10115C56.8705 8.56687 56.7473 8.16615 56.4439 7.8812C56.112 7.56063 55.5716 7.40925 54.8132 7.40925C53.7418 7.40925 53.1919 7.6853 52.6515 8.32644L51.3905 7.18663C52.2912 6.1893 53.2488 5.85982 54.8321 5.85982C56.2732 5.85982 57.3161 6.18039 57.9798 6.80373C58.5297 7.3202 58.8046 8.04149 58.8046 8.97649V15.005H56.9084V14.1769C56.624 14.4529 56.3396 14.6577 56.0267 14.8002C55.5716 15.0139 55.0407 15.103 54.3201 15.103ZM52.879 12.3247C52.879 13.1617 53.4289 13.5981 54.6804 13.5981C55.4105 13.5981 56.0078 13.4912 56.4534 13.0727C56.7757 12.761 56.8705 12.2891 56.8705 11.7637V11.0246H54.6141C53.9504 11.0246 53.5143 11.1492 53.2204 11.4342C52.9833 11.6568 52.879 11.9507 52.879 12.3247Z" fill="#1F1F1F"/>
<path d="M61.7588 15.005V5.96668H63.6645V6.9462C64.1575 6.31396 65.1435 5.85982 66.2149 5.85982C67.163 5.85982 67.8172 6.07354 68.4998 6.71468L67.0587 8.08601C66.6131 7.67639 66.2623 7.48939 65.6081 7.48939C64.5557 7.48939 63.6929 8.27301 63.6929 9.51077V15.005H61.7588Z" fill="#1F1F1F"/>
<path d="M70.0917 15.005V5.96668H71.9974V6.88387C72.2818 6.58111 72.6042 6.36739 72.9455 6.20711C73.448 5.96668 73.9694 5.85982 74.5667 5.85982C75.7423 5.85982 76.681 6.30506 77.2877 7.17773C77.6291 6.76811 78.0273 6.44754 78.4918 6.22492C79.0133 5.98449 79.5916 5.85982 80.2553 5.85982C81.3171 5.85982 82.1609 6.16258 82.7772 6.73249C83.4219 7.34692 83.7537 8.21958 83.7537 9.19911V15.005H81.8196V9.49296C81.8196 8.08601 80.9663 7.48939 79.876 7.48939C78.8142 7.48939 77.8945 8.09492 77.8945 9.40392V15.005H75.9604V9.49296C75.9604 8.08601 75.1071 7.48939 74.0073 7.48939C72.917 7.48939 72.0258 8.09492 72.0258 9.49296V15.005H70.0917Z" fill="#1F1F1F"/>
<path d="M89.3182 15.103C88.1425 15.103 87.3461 14.8536 86.7583 14.2926C86.2558 13.8296 85.9998 13.1083 85.9998 12.3603C85.9998 11.6657 86.2369 11.0513 86.7299 10.5883C87.3272 10.0273 88.1331 9.7423 89.3087 9.7423H91.8686V9.10115C91.8686 8.56687 91.7453 8.16615 91.4419 7.8812C91.1101 7.56063 90.5697 7.40925 89.8112 7.40925C88.7398 7.40925 88.1899 7.6853 87.6495 8.32644L86.3886 7.18663C87.2893 6.1893 88.2468 5.85982 89.8301 5.85982C91.2713 5.85982 92.3142 6.18039 92.9778 6.80373C93.5277 7.3202 93.8027 8.04149 93.8027 8.97649V15.005H91.9065V14.1769C91.622 14.4529 91.3376 14.6577 91.0247 14.8002C90.5697 15.0139 90.0387 15.103 89.3182 15.103ZM87.8771 12.3247C87.8771 13.1617 88.427 13.5981 89.6785 13.5981C90.4085 13.5981 91.0058 13.4912 91.4514 13.0727C91.7737 12.761 91.8686 12.2891 91.8686 11.7637V11.0246H89.6121C88.9484 11.0246 88.5123 11.1492 88.2184 11.4342C87.9814 11.6568 87.8771 11.9507 87.8771 12.3247Z" fill="#1F1F1F"/>
<path d="M105.436 15.1119C102.64 15.1119 101.075 13.6426 101.075 11.3452C101.075 9.61763 102.355 8.6203 103.739 7.75654C103.142 7.08868 102.346 6.1982 102.346 5.03168C102.346 3.40211 103.644 2.21777 105.645 2.21777C107.551 2.21777 108.859 3.42882 108.859 5.04949C108.859 6.12696 108.214 6.77701 107.228 7.41815L106.422 7.93463L109.267 11.1314C109.769 10.4725 109.959 9.72449 109.978 8.56687H111.864C111.798 10.1875 111.409 11.4787 110.499 12.485L112.746 15.005H110.262L109.162 13.7672C108.556 14.2659 107.437 15.1119 105.436 15.1119ZM102.99 11.3095C102.99 12.5651 104.024 13.4556 105.427 13.4556C106.328 13.4556 107.115 13.2063 108.006 12.4761L104.811 8.90525C103.739 9.57311 102.99 10.1786 102.99 11.3095ZM104.308 5.04058C104.308 5.53035 104.593 5.96668 105.361 6.78592L105.749 6.54549C106.479 6.08244 106.982 5.68173 106.982 5.05839C106.982 4.3282 106.441 3.79392 105.645 3.79392C104.811 3.79392 104.308 4.3193 104.308 5.04058Z" fill="#1F1F1F"/>
<path d="M25.4421 36.5639V23.8835H27.4995V29.2976H32.9605V23.8835H35.0179V36.5639H32.9605V31.0251H27.4995V36.5639H25.4421Z" fill="#1F1F1F"/>
<path d="M42.1363 36.6708C40.7711 36.6708 39.7945 36.3235 39.074 35.6556C38.2965 34.9165 37.832 33.75 37.832 32.0492C37.832 30.4374 38.306 29.2086 39.1498 28.4161C39.8514 27.7571 40.7805 27.4187 41.8993 27.4187C43.056 27.4187 43.9756 27.7482 44.6582 28.3982C45.521 29.2086 45.9856 30.4285 45.9856 32.1917V32.5835H39.7376C39.7376 33.4205 39.9841 34.0795 40.4487 34.5158C40.8659 34.9076 41.4442 35.1213 42.1837 35.1213C43.2645 35.1213 43.8334 34.8275 44.516 34.1863L45.758 35.2638C44.772 36.181 43.8239 36.6708 42.1363 36.6708ZM39.7376 31.3012H44.0609C44.0325 30.6422 43.8903 29.9744 43.3594 29.4757C43.018 29.1551 42.544 28.9503 41.8993 28.9503C41.2641 28.9503 40.7805 29.1551 40.4392 29.4757C39.9178 29.9744 39.7756 30.6422 39.7376 31.3012Z" fill="#1F1F1F"/>
<path d="M51.1629 36.6619C49.9873 36.6619 49.1909 36.4125 48.6031 35.8515C48.1006 35.3885 47.8446 34.6672 47.8446 33.9192C47.8446 33.2246 48.0816 32.6102 48.5746 32.1471C49.1719 31.5861 49.9778 31.3012 51.1534 31.3012H53.7133V30.66C53.7133 30.1258 53.59 29.7251 53.2866 29.4401C52.9548 29.1195 52.4144 28.9681 51.6559 28.9681C50.5846 28.9681 50.0347 29.2442 49.4943 29.8853L48.2333 28.7455C49.134 27.7482 50.0916 27.4187 51.6749 27.4187C53.116 27.4187 54.1589 27.7393 54.8226 28.3626C55.3725 28.8791 55.6474 29.6004 55.6474 30.5354V36.5639H53.7512V35.7358C53.4668 36.0118 53.1824 36.2166 52.8695 36.3591C52.4144 36.5728 51.8835 36.6619 51.1629 36.6619ZM49.7218 33.8836C49.7218 34.7206 50.2717 35.157 51.5232 35.157C52.2532 35.157 52.8505 35.0501 53.2961 34.6316C53.6185 34.3199 53.7133 33.848 53.7133 33.3226V32.5835H51.4568C50.7932 32.5835 50.357 32.7081 50.0631 32.9931C49.8261 33.2157 49.7218 33.5096 49.7218 33.8836Z" fill="#1F1F1F"/>
<path d="M61.1804 36.5639C60.3271 36.5639 59.7014 36.3235 59.2558 35.905C58.7817 35.4597 58.5447 34.8008 58.5447 34.0617V23.8835H60.4788V33.9548C60.4788 34.6672 60.7443 35.0145 61.5312 35.0145H62.3845V36.5639H61.1804Z" fill="#1F1F1F"/>
<path d="M67.0016 36.5639C66.1673 36.5639 65.532 36.3057 65.0959 35.8871C64.6124 35.4419 64.3659 34.8097 64.3659 34.0706V29.0839H63.2661V27.6948H64.3659V24.9521H66.3V27.6948H68.1677V29.0839H66.3V33.9637C66.3 34.6405 66.6413 35.0145 67.3524 35.0145H68.1677V36.5639H67.0016Z" fill="#1F1F1F"/>
<path d="M70.6194 36.5639V23.8835H72.5536V28.4428C72.838 28.1489 73.1603 27.9174 73.4922 27.7571C73.9757 27.5345 74.5066 27.4187 75.085 27.4187C76.0331 27.4187 76.8484 27.6859 77.4742 28.2736C78.1758 28.9325 78.4223 29.8052 78.4223 30.7936V36.5639H76.4882V31.0519C76.4882 29.6449 75.6349 29.0483 74.5351 29.0483C73.4448 29.0483 72.5536 29.6538 72.5536 31.0519V36.5639H70.6194Z" fill="#1F1F1F"/>
<path d="M85.2269 36.6708C84.0134 36.6708 82.9894 36.3235 82.2404 35.62C81.4345 34.872 80.951 33.7055 80.951 32.0492C80.951 30.384 81.4345 29.2175 82.2404 28.4695C82.9894 27.766 84.0134 27.4187 85.2269 27.4187C86.5543 27.4187 87.4834 27.7927 88.3936 28.701L87.0757 29.9031C86.4689 29.2887 85.9854 29.0483 85.2269 29.0483C84.5727 29.0483 84.0608 29.2353 83.6436 29.6271C83.0558 30.1792 82.8851 30.9895 82.8851 32.0492C82.8851 33.1 83.0558 33.9103 83.6436 34.4624C84.0608 34.8631 84.5727 35.0412 85.2269 35.0412C85.9854 35.0412 86.4689 34.8008 87.0757 34.1863L88.3936 35.3974C87.4834 36.3057 86.5543 36.6708 85.2269 36.6708Z" fill="#1F1F1F"/>
<path d="M93.142 36.6619C91.9664 36.6619 91.17 36.4125 90.5822 35.8515C90.0797 35.3885 89.8237 34.6672 89.8237 33.9192C89.8237 33.2246 90.0607 32.6102 90.5537 32.1471C91.151 31.5861 91.9569 31.3012 93.1326 31.3012H95.6924V30.66C95.6924 30.1258 95.5692 29.7251 95.2658 29.4401C94.9339 29.1195 94.3935 28.9681 93.635 28.9681C92.5637 28.9681 92.0138 29.2442 91.4734 29.8853L90.2124 28.7455C91.1131 27.7482 92.0707 27.4187 93.654 27.4187C95.0951 27.4187 96.138 27.7393 96.8017 28.3626C97.3516 28.8791 97.6265 29.6004 97.6265 30.5354V36.5639H95.7303V35.7358C95.4459 36.0118 95.1615 36.2166 94.8486 36.3591C94.3935 36.5728 93.8626 36.6619 93.142 36.6619ZM91.7009 33.8836C91.7009 34.7206 92.2508 35.157 93.5023 35.157C94.2323 35.157 94.8296 35.0501 95.2752 34.6316C95.5976 34.3199 95.6924 33.848 95.6924 33.3226V32.5835H93.4359C92.7723 32.5835 92.3362 32.7081 92.0422 32.9931C91.8052 33.2157 91.7009 33.5096 91.7009 33.8836Z" fill="#1F1F1F"/>
<path d="M100.581 36.5639V27.5256H102.486V28.5051C102.979 27.8729 103.965 27.4187 105.037 27.4187C105.985 27.4187 106.639 27.6324 107.322 28.2736L105.881 29.6449C105.435 29.2353 105.084 29.0483 104.43 29.0483C103.378 29.0483 102.515 29.8319 102.515 31.0697V36.5639H100.581Z" fill="#1F1F1F"/>
<path d="M112.077 36.6708C110.712 36.6708 109.735 36.3235 109.014 35.6556C108.237 34.9165 107.772 33.75 107.772 32.0492C107.772 30.4374 108.247 29.2086 109.09 28.4161C109.792 27.7571 110.721 27.4187 111.84 27.4187C112.996 27.4187 113.916 27.7482 114.599 28.3982C115.462 29.2086 115.926 30.4285 115.926 32.1917V32.5835H109.678C109.678 33.4205 109.925 34.0795 110.389 34.5158C110.806 34.9076 111.385 35.1213 112.124 35.1213C113.205 35.1213 113.774 34.8275 114.457 34.1863L115.699 35.2638C114.713 36.181 113.764 36.6708 112.077 36.6708ZM109.678 31.3012H114.001C113.973 30.6422 113.831 29.9744 113.3 29.4757C112.959 29.1551 112.485 28.9503 111.84 28.9503C111.205 28.9503 110.721 29.1551 110.38 29.4757C109.858 29.9744 109.716 30.6422 109.678 31.3012Z" fill="#1F1F1F"/>
</svg>
