<svg width="169" height="212" viewBox="0 0 169 212" fill="none" xmlns="http://www.w3.org/2000/svg">
<rect width="169" height="212" fill="white"/>
<path d="M43.8155 164V150.472H48.955C51.5865 150.472 53.2775 152.21 53.2775 154.576C53.2775 156.932 51.5865 158.67 48.955 158.67H45.877V164H43.8155ZM45.877 156.837H48.822C50.266 156.837 51.216 156.01 51.216 154.576C51.216 153.132 50.266 152.305 48.822 152.305H45.877V156.837ZM55.5367 164V150.472H57.4747V155.336C57.7597 155.022 58.0827 154.775 58.4152 154.604C58.8997 154.367 59.4317 154.243 60.0112 154.243C60.9612 154.243 61.7782 154.528 62.4052 155.155C63.1082 155.858 63.3552 156.789 63.3552 157.844V164H61.4172V158.119C61.4172 156.618 60.5622 155.982 59.4602 155.982C58.3677 155.982 57.4747 156.628 57.4747 158.119V164H55.5367ZM68.9385 164.105C67.7605 164.105 66.9625 163.838 66.3735 163.24C65.87 162.746 65.6135 161.976 65.6135 161.178C65.6135 160.437 65.851 159.782 66.345 159.288C66.9435 158.689 67.751 158.385 68.929 158.385H71.494V157.701C71.494 157.131 71.3705 156.704 71.0665 156.4C70.734 156.058 70.1925 155.896 69.4325 155.896C68.359 155.896 67.808 156.191 67.2665 156.875L66.003 155.659C66.9055 154.595 67.865 154.243 69.4515 154.243C70.8955 154.243 71.9405 154.585 72.6055 155.25C73.1565 155.801 73.432 156.571 73.432 157.568V164H71.532V163.116C71.247 163.411 70.962 163.629 70.6485 163.781C70.1925 164.01 69.6605 164.105 68.9385 164.105ZM67.4945 161.14C67.4945 162.033 68.0455 162.499 69.2995 162.499C70.031 162.499 70.6295 162.385 71.076 161.938C71.399 161.606 71.494 161.102 71.494 160.542V159.753H69.233C68.568 159.753 68.131 159.886 67.8365 160.19C67.599 160.428 67.4945 160.741 67.4945 161.14ZM76.3921 164V154.357H78.3016V155.402C78.7956 154.728 79.7836 154.243 80.8571 154.243C81.8071 154.243 82.4626 154.471 83.1466 155.155L81.7026 156.618C81.2561 156.181 80.9046 155.982 80.2491 155.982C79.1946 155.982 78.3301 156.818 78.3301 158.138V164H76.3921ZM84.7418 164V154.357H86.6513V155.336C86.9363 155.013 87.2593 154.785 87.6013 154.614C88.1048 154.357 88.6273 154.243 89.2258 154.243C90.4038 154.243 91.3443 154.718 91.9523 155.649C92.2943 155.212 92.6933 154.87 93.1588 154.633C93.6813 154.376 94.2608 154.243 94.9258 154.243C95.9898 154.243 96.8353 154.566 97.4528 155.174C98.0988 155.83 98.4313 156.761 98.4313 157.806V164H96.4933V158.119C96.4933 156.618 95.6383 155.982 94.5458 155.982C93.4818 155.982 92.5603 156.628 92.5603 158.024V164H90.6223V158.119C90.6223 156.618 89.7673 155.982 88.6653 155.982C87.5728 155.982 86.6798 156.628 86.6798 158.119V164H84.7418ZM104.007 164.105C102.829 164.105 102.031 163.838 101.442 163.24C100.938 162.746 100.682 161.976 100.682 161.178C100.682 160.437 100.919 159.782 101.413 159.288C102.012 158.689 102.819 158.385 103.997 158.385H106.562V157.701C106.562 157.131 106.439 156.704 106.135 156.4C105.802 156.058 105.261 155.896 104.501 155.896C103.427 155.896 102.876 156.191 102.335 156.875L101.071 155.659C101.974 154.595 102.933 154.243 104.52 154.243C105.964 154.243 107.009 154.585 107.674 155.25C108.225 155.801 108.5 156.571 108.5 157.568V164H106.6V163.116C106.315 163.411 106.03 163.629 105.717 163.781C105.261 164.01 104.729 164.105 104.007 164.105ZM102.563 161.14C102.563 162.033 103.114 162.499 104.368 162.499C105.099 162.499 105.698 162.385 106.144 161.938C106.467 161.606 106.562 161.102 106.562 160.542V159.753H104.301C103.636 159.753 103.199 159.886 102.905 160.19C102.667 160.428 102.563 160.741 102.563 161.14ZM120.157 164.114C117.355 164.114 115.787 162.546 115.787 160.095C115.787 158.252 117.07 157.188 118.457 156.267C117.858 155.554 117.06 154.604 117.06 153.36C117.06 151.621 118.362 150.358 120.366 150.358C122.276 150.358 123.587 151.65 123.587 153.379C123.587 154.528 122.941 155.222 121.953 155.906L121.145 156.457L123.995 159.867C124.499 159.164 124.689 158.366 124.708 157.131H126.598C126.532 158.86 126.142 160.238 125.23 161.311L127.482 164H124.993L123.891 162.679C123.283 163.211 122.162 164.114 120.157 164.114ZM117.706 160.057C117.706 161.397 118.742 162.347 120.148 162.347C121.05 162.347 121.839 162.081 122.732 161.302L119.53 157.492C118.457 158.205 117.706 158.851 117.706 160.057ZM119.027 153.369C119.027 153.892 119.312 154.357 120.081 155.231L120.471 154.975C121.202 154.481 121.706 154.053 121.706 153.388C121.706 152.609 121.164 152.039 120.366 152.039C119.53 152.039 119.027 152.6 119.027 153.369ZM40.0025 187V173.472H42.064V179.248H47.536V173.472H49.5975V187H47.536V181.091H42.064V187H40.0025ZM56.7302 187.114C55.3622 187.114 54.3837 186.743 53.6617 186.031C52.8827 185.242 52.4172 183.998 52.4172 182.183C52.4172 180.464 52.8922 179.153 53.7377 178.307C54.4407 177.604 55.3717 177.243 56.4927 177.243C57.6517 177.243 58.5732 177.595 59.2572 178.288C60.1217 179.153 60.5872 180.454 60.5872 182.335V182.753H54.3267C54.3267 183.646 54.5737 184.349 55.0392 184.815C55.4572 185.233 56.0367 185.461 56.7777 185.461C57.8607 185.461 58.4307 185.147 59.1147 184.463L60.3592 185.613C59.3712 186.591 58.4212 187.114 56.7302 187.114ZM54.3267 181.385H58.6587C58.6302 180.682 58.4877 179.97 57.9557 179.438C57.6137 179.096 57.1387 178.877 56.4927 178.877C55.8562 178.877 55.3717 179.096 55.0297 179.438C54.5072 179.97 54.3647 180.682 54.3267 181.385ZM65.7749 187.105C64.5969 187.105 63.7989 186.838 63.2099 186.24C62.7064 185.746 62.4499 184.976 62.4499 184.178C62.4499 183.437 62.6874 182.782 63.1814 182.288C63.7799 181.689 64.5874 181.385 65.7654 181.385H68.3304V180.701C68.3304 180.131 68.2069 179.704 67.9029 179.4C67.5704 179.058 67.0289 178.896 66.2689 178.896C65.1954 178.896 64.6444 179.191 64.1029 179.875L62.8394 178.659C63.7419 177.595 64.7014 177.243 66.2879 177.243C67.7319 177.243 68.7769 177.585 69.4419 178.25C69.9929 178.801 70.2684 179.571 70.2684 180.568V187H68.3684V186.116C68.0834 186.411 67.7984 186.629 67.4849 186.781C67.0289 187.01 66.4969 187.105 65.7749 187.105ZM64.3309 184.14C64.3309 185.033 64.8819 185.499 66.1359 185.499C66.8674 185.499 67.4659 185.385 67.9124 184.938C68.2354 184.606 68.3304 184.102 68.3304 183.542V182.753H66.0694C65.4044 182.753 64.9674 182.886 64.6729 183.19C64.4354 183.428 64.3309 183.741 64.3309 184.14ZM75.8126 187C74.9576 187 74.3306 186.743 73.8841 186.297C73.4091 185.822 73.1716 185.119 73.1716 184.33V173.472H75.1096V184.216C75.1096 184.976 75.3756 185.347 76.1641 185.347H77.0191V187H75.8126ZM81.6454 187C80.8094 187 80.1729 186.724 79.7359 186.278C79.2514 185.803 79.0044 185.128 79.0044 184.34V179.02H77.9024V177.538H79.0044V174.612H80.9424V177.538H82.8139V179.02H80.9424V184.226C80.9424 184.948 81.2844 185.347 81.9969 185.347H82.8139V187H81.6454ZM85.2706 187V173.472H87.2086V178.336C87.4936 178.022 87.8166 177.775 88.1491 177.604C88.6336 177.367 89.1656 177.243 89.7451 177.243C90.6951 177.243 91.5121 177.528 92.1391 178.155C92.8421 178.858 93.0891 179.789 93.0891 180.844V187H91.1511V181.119C91.1511 179.618 90.2961 178.982 89.1941 178.982C88.1016 178.982 87.2086 179.628 87.2086 181.119V187H85.2706ZM99.9074 187.114C98.6914 187.114 97.6654 186.743 96.9149 185.993C96.1074 185.195 95.6229 183.95 95.6229 182.183C95.6229 180.407 96.1074 179.162 96.9149 178.364C97.6654 177.614 98.6914 177.243 99.9074 177.243C101.237 177.243 102.168 177.642 103.08 178.611L101.76 179.894C101.152 179.238 100.667 178.982 99.9074 178.982C99.2519 178.982 98.7389 179.181 98.3209 179.599C97.7319 180.188 97.5609 181.053 97.5609 182.183C97.5609 183.304 97.7319 184.169 98.3209 184.758C98.7389 185.185 99.2519 185.375 99.9074 185.375C100.667 185.375 101.152 185.119 101.76 184.463L103.08 185.755C102.168 186.724 101.237 187.114 99.9074 187.114ZM107.838 187.105C106.66 187.105 105.862 186.838 105.273 186.24C104.77 185.746 104.513 184.976 104.513 184.178C104.513 183.437 104.751 182.782 105.245 182.288C105.843 181.689 106.651 181.385 107.829 181.385H110.394V180.701C110.394 180.131 110.27 179.704 109.966 179.4C109.634 179.058 109.092 178.896 108.332 178.896C107.259 178.896 106.708 179.191 106.166 179.875L104.903 178.659C105.805 177.595 106.765 177.243 108.351 177.243C109.795 177.243 110.84 177.585 111.505 178.25C112.056 178.801 112.332 179.571 112.332 180.568V187H110.432V186.116C110.147 186.411 109.862 186.629 109.548 186.781C109.092 187.01 108.56 187.105 107.838 187.105ZM106.394 184.14C106.394 185.033 106.945 185.499 108.199 185.499C108.931 185.499 109.529 185.385 109.976 184.938C110.299 184.606 110.394 184.102 110.394 183.542V182.753H108.133C107.468 182.753 107.031 182.886 106.736 183.19C106.499 183.428 106.394 183.741 106.394 184.14ZM115.292 187V177.357H117.202V178.402C117.696 177.728 118.684 177.243 119.757 177.243C120.707 177.243 121.363 177.471 122.047 178.155L120.603 179.618C120.156 179.181 119.805 178.982 119.149 178.982C118.095 178.982 117.23 179.818 117.23 181.138V187H115.292ZM126.811 187.114C125.443 187.114 124.465 186.743 123.743 186.031C122.964 185.242 122.498 183.998 122.498 182.183C122.498 180.464 122.973 179.153 123.819 178.307C124.522 177.604 125.453 177.243 126.574 177.243C127.733 177.243 128.654 177.595 129.338 178.288C130.203 179.153 130.668 180.454 130.668 182.335V182.753H124.408C124.408 183.646 124.655 184.349 125.12 184.815C125.538 185.233 126.118 185.461 126.859 185.461C127.942 185.461 128.512 185.147 129.196 184.463L130.44 185.613C129.452 186.591 128.502 187.114 126.811 187.114ZM124.408 181.385H128.74C128.711 180.682 128.569 179.97 128.037 179.438C127.695 179.096 127.22 178.877 126.574 178.877C125.937 178.877 125.453 179.096 125.111 179.438C124.588 179.97 124.446 180.682 124.408 181.385Z" fill="#1F1F1F"/>
<g clip-path="url(#clip0_2632_5044)">
<path d="M83.9999 124C83.4386 124 82.9895 123.551 82.9895 122.99V119.678L82.8024 119.565C81.2494 118.593 79.5654 117.526 78.5924 115.842C78.0872 115.037 77.8066 114.177 77.713 113.185C77.6194 112.249 77.7691 111.351 78.1808 110.472C79.0789 108.657 81.1184 107.403 82.7837 106.505L82.9895 106.393V89.1227L82.3908 89.4407C77.2452 92.1726 74.5321 94.3243 74.8876 97.8233C75.0935 99.8441 76.2535 101.453 78.6673 103.025C78.8918 103.175 79.0602 103.399 79.0976 103.661C79.1538 103.923 79.0976 104.204 78.9479 104.428C78.7608 104.709 78.4427 104.896 78.0872 104.896C77.8814 104.896 77.6943 104.84 77.5259 104.728C75.6735 103.511 73.1849 101.509 72.8294 98.0291C72.3055 92.7526 77.002 89.8898 82.7276 86.9522L82.9521 86.8399V57.8378L82.6153 57.7817C80.4074 57.4262 78.424 56.1726 77.1517 54.3576C76.9084 54.0021 76.1974 52.973 76.1974 52.973C73.8772 49.5676 70.6964 44.9085 67.7587 44.9085C65.0456 44.9085 61.3409 46.6861 57.4303 48.5572C52.6777 50.8399 47.3263 53.4033 42.0498 53.7027L41.4323 53.7401L41.713 54.2827C42.3679 55.5925 43.5467 57.3139 45.3991 58.0437C45.9978 58.2869 46.6527 58.4179 47.345 58.4179C48.7858 58.4179 50.3949 57.8753 52.1538 56.8274C52.3222 56.7339 52.4905 56.6778 52.6777 56.6778C52.7712 56.6778 52.8648 56.6778 52.9583 56.7152C53.239 56.79 53.4635 56.9958 53.5758 57.2391C53.7442 57.5572 55.2598 60.3451 58.0477 61.131C58.5342 61.262 59.0207 61.3368 59.5259 61.3368C60.8731 61.3368 62.3325 60.8503 63.8481 59.9148C64.0165 59.8212 64.2036 59.7651 64.3908 59.7651C64.7463 59.7651 65.0644 59.9522 65.2515 60.2516C65.4012 60.4761 65.4386 60.7568 65.3824 61.0187C65.3263 61.2807 65.1579 61.5052 64.9334 61.6549C63.081 62.815 61.266 63.395 59.5446 63.395C58.8336 63.395 58.1413 63.3015 57.4677 63.1143C55.0727 62.4408 53.4448 60.7006 52.5093 59.3721L52.3034 59.0915L52.0041 59.2412C50.3575 60.0457 48.8045 60.4761 47.345 60.4761C46.3908 60.4761 45.4739 60.3077 44.6132 59.9522C40.5155 58.2495 39.0935 53.1414 39.0373 52.9356C38.9438 52.6175 39.0373 52.2807 39.2431 52.0187C39.449 51.7755 39.7109 51.6445 40.029 51.6445C40.4219 51.6632 40.74 51.6819 41.0768 51.6819C46.2411 51.6819 51.7421 49.0437 56.607 46.7048C60.9105 44.6279 64.634 42.8503 67.8149 42.8503C71.819 42.8503 75.2057 47.8087 77.9188 51.7942C78.2369 52.2807 78.555 52.7297 78.8544 53.1601C79.7151 54.395 81.0061 55.2744 82.4843 55.6486L82.9895 55.7796V49.6424L82.6527 49.5863C78.8731 48.9314 76.1413 45.6757 76.1413 41.8586C76.1413 37.5177 79.6589 34 83.9999 34C88.3409 34 91.8585 37.5177 91.8585 41.8586C91.8585 45.6757 89.1267 48.9314 85.3471 49.5863L85.0103 49.6424V55.7796L85.5155 55.6486C86.9937 55.2744 88.2847 54.395 89.1454 53.1601C89.4448 52.7297 89.7629 52.262 90.081 51.7942C92.7941 47.8087 96.1808 42.8503 100.185 42.8503C103.347 42.8503 107.089 44.6466 111.393 46.7048C116.295 49.0624 121.759 51.6819 126.867 51.6819C127.204 51.6819 127.559 51.6819 127.896 51.6445C128.251 51.6445 128.551 51.7755 128.757 52.0187C128.962 52.2807 129.037 52.6175 128.962 52.9356C128.906 53.1601 127.466 58.2495 123.33 59.9335C122.47 60.289 121.553 60.4574 120.599 60.4574C119.139 60.4574 117.586 60.0457 115.94 59.2225L115.64 59.0728L115.434 59.3534C114.48 60.6819 112.852 62.4033 110.476 63.0956C109.802 63.2827 109.11 63.3763 108.399 63.395C106.678 63.395 104.863 62.815 103.01 61.6549C102.543 61.3555 102.393 60.738 102.692 60.2516C102.879 59.9522 103.197 59.7838 103.553 59.7838C103.74 59.7838 103.927 59.8399 104.096 59.9335C105.611 60.8877 107.071 61.3555 108.418 61.3555C108.923 61.3555 109.428 61.2807 109.896 61.1497C112.834 60.3264 114.349 57.2765 114.368 57.2578C114.499 57.0146 114.723 56.8274 114.985 56.7339C115.079 56.6965 115.172 56.6965 115.285 56.6965C115.472 56.6965 115.64 56.7526 115.809 56.8462C117.567 57.894 119.177 58.4366 120.617 58.4366C121.31 58.4366 121.965 58.3056 122.563 58.0624C124.397 57.3326 125.576 55.6112 126.249 54.3015L126.53 53.7588L125.913 53.7214C120.655 53.422 115.285 50.8586 110.551 48.5759C106.622 46.6861 102.917 44.9085 100.204 44.9085C97.266 44.9085 94.1039 49.5676 91.7837 52.973C91.7837 52.973 91.0727 54.0021 90.8294 54.3576C89.5571 56.1726 87.5737 57.4075 85.3658 57.7817L85.029 57.8378V85.8108L85.6091 85.4927C90.7359 82.7983 95.7878 79.6923 96.3679 73.8545C96.6486 71.0665 96.1808 68.5593 94.9833 66.183L94.871 65.9771H94.6465C94.3284 65.9584 94.029 65.8836 93.7483 65.7526C93.1683 65.4906 92.5696 65.0042 91.896 64.237C89.8565 61.8981 90.4739 60.4948 91.3533 59.7277C91.8211 59.3347 92.3076 59.1289 92.8128 59.1289C93.6922 59.1289 94.6652 59.7277 95.6943 60.9064C96.3866 61.6923 96.7795 62.3098 96.9666 62.9085C97.1725 63.5634 97.1163 64.2183 96.7608 64.7796L96.6486 64.9667L96.7421 65.1726C98.1641 67.9231 98.7068 70.8233 98.3887 74.0416C97.6777 81.0208 92.0082 84.4823 85.2348 87.9626L85.0103 88.0748V105.383L85.5903 105.102C86.844 104.484 88.1725 103.811 89.3138 103.044C91.7276 101.453 92.9064 99.8441 93.1122 97.8233C93.3367 95.4657 92.1953 93.6133 89.3138 91.6299C89.0893 91.4803 88.9396 91.237 88.8835 90.9751C88.8273 90.7131 88.8835 90.4324 89.0519 90.2079C89.239 89.9272 89.5571 89.7588 89.8939 89.7588C90.0997 89.7588 90.3055 89.815 90.4739 89.9459C92.6818 91.4428 95.5446 93.9127 95.1517 98.0104C94.8897 100.63 93.3554 102.819 90.4552 104.728C89.0332 105.682 87.4427 106.449 85.8897 107.216L85.029 107.647V117.283L85.6652 116.815C86.3388 116.328 87.1621 115.674 87.686 114.813C88.0228 114.252 88.2286 113.653 88.3034 112.979C88.3596 112.418 88.266 111.894 88.0228 111.37C87.9105 111.127 87.8918 110.846 87.9666 110.603C88.0602 110.341 88.2473 110.135 88.4906 110.023C88.6402 109.948 88.7899 109.911 88.9396 109.911C89.3325 109.911 89.6881 110.135 89.8565 110.491C90.2681 111.351 90.4365 112.268 90.3429 113.222C90.2307 114.195 89.95 115.056 89.4448 115.879C88.4531 117.545 86.8066 118.593 85.3471 119.528L85.16 119.64L85.0477 119.921V123.008C85.0477 123.57 84.5987 124.019 84.0373 124.019L83.9999 124ZM82.372 109.087C81.1558 109.873 80.3887 110.603 80.0145 111.351C79.7712 111.875 79.6777 112.399 79.7338 112.961C79.8086 113.634 79.9957 114.214 80.3325 114.775C80.8565 115.655 81.6797 116.328 82.3533 116.796L82.9895 117.264V108.694L82.372 109.087ZM91.7088 60.738L92.4947 61.6362L92.8502 61.3742L92.8876 61.3181L93.1683 61.0374L92.8689 60.8129L92.3263 60.2141L91.7276 60.7568L91.7088 60.738ZM83.9999 36.0395C80.7816 36.0395 78.1808 38.659 78.1808 41.8586C78.1808 45.0582 80.8003 47.6778 83.9999 47.6778C87.1995 47.6778 89.819 45.0582 89.819 41.8586C89.819 38.659 87.1995 36.0395 83.9999 36.0395Z" fill="#1F1F1F"/>
<path d="M78.0498 85.1746C77.8627 85.1746 77.6756 85.1185 77.5072 85.025C74.3824 83.0416 70.1724 79.7484 69.6111 74.0416C69.293 70.842 69.8169 67.9418 71.2577 65.1726L71.3512 64.9667L71.239 64.7796C70.9022 64.2183 70.8273 63.5634 71.0519 62.9085C71.239 62.3098 71.6319 61.6923 72.3242 60.9065C73.3533 59.7277 74.3263 59.1289 75.2244 59.1289C75.7296 59.1289 76.2161 59.3347 76.6839 59.7277C77.9375 60.8316 77.7504 62.3846 76.1413 64.237C75.4677 65.0042 74.8876 65.4907 74.2889 65.7526C74.0082 65.8836 73.7088 65.9584 73.372 65.9584H73.1475L73.0352 66.183C71.819 68.578 71.3699 71.0852 71.6506 73.8545C72.0248 77.578 74.1766 80.4969 78.6111 83.3223C79.0789 83.6216 79.2286 84.2578 78.9292 84.7256C78.7421 85.025 78.424 85.1934 78.0685 85.1934L78.0498 85.1746Z" fill="#D70A32"/>
</g>
<defs>
<clipPath id="clip0_2632_5044">
<rect width="90" height="90" fill="white" transform="translate(39 34)"/>
</clipPath>
</defs>
</svg>
