<svg width="136" height="213" viewBox="0 0 136 213" fill="none" xmlns="http://www.w3.org/2000/svg">
<path d="M29.2475 136.005V123.325H34.3767C37.0029 123.325 38.6905 124.954 38.6905 127.171C38.6905 129.38 37.0029 131.009 34.3767 131.009H31.3048V136.005H29.2475ZM31.3048 129.291H34.2439C35.685 129.291 36.6331 128.516 36.6331 127.171C36.6331 125.818 35.685 125.043 34.2439 125.043H31.3048V129.291Z" fill="#1F1F1F"/>
<path d="M40.9452 136.005V123.325H42.8793V127.884C43.1637 127.59 43.4861 127.358 43.8179 127.198C44.3014 126.976 44.8324 126.86 45.4107 126.86C46.3588 126.86 47.1742 127.127 47.7999 127.715C48.5015 128.374 48.748 129.246 48.748 130.235V136.005H46.8139V130.493C46.8139 129.086 45.9606 128.489 44.8608 128.489C43.7705 128.489 42.8793 129.095 42.8793 130.493V136.005H40.9452Z" fill="#1F1F1F"/>
<path d="M54.3201 136.103C53.1445 136.103 52.3481 135.854 51.7603 135.293C51.2578 134.83 51.0018 134.108 51.0018 133.36C51.0018 132.666 51.2388 132.051 51.7318 131.588C52.3291 131.027 53.135 130.742 54.3107 130.742H56.8705V130.101C56.8705 129.567 56.7473 129.166 56.4439 128.881C56.112 128.561 55.5716 128.409 54.8132 128.409C53.7418 128.409 53.1919 128.685 52.6515 129.326L51.3905 128.187C52.2912 127.189 53.2488 126.86 54.8321 126.86C56.2732 126.86 57.3161 127.18 57.9798 127.804C58.5297 128.32 58.8046 129.041 58.8046 129.976V136.005H56.9084V135.177C56.624 135.453 56.3396 135.658 56.0267 135.8C55.5716 136.014 55.0407 136.103 54.3201 136.103ZM52.879 133.325C52.879 134.162 53.4289 134.598 54.6804 134.598C55.4105 134.598 56.0078 134.491 56.4534 134.073C56.7757 133.761 56.8705 133.289 56.8705 132.764V132.025H54.6141C53.9504 132.025 53.5143 132.149 53.2204 132.434C52.9833 132.657 52.879 132.951 52.879 133.325Z" fill="#1F1F1F"/>
<path d="M61.7588 136.005V126.967H63.6645V127.946C64.1575 127.314 65.1435 126.86 66.2149 126.86C67.163 126.86 67.8172 127.074 68.4998 127.715L67.0587 129.086C66.6131 128.676 66.2623 128.489 65.6081 128.489C64.5557 128.489 63.6929 129.273 63.6929 130.511V136.005H61.7588Z" fill="#1F1F1F"/>
<path d="M70.0917 136.005V126.967H71.9974V127.884C72.2818 127.581 72.6042 127.367 72.9455 127.207C73.448 126.967 73.9694 126.86 74.5667 126.86C75.7423 126.86 76.681 127.305 77.2877 128.178C77.6291 127.768 78.0273 127.448 78.4918 127.225C79.0133 126.984 79.5916 126.86 80.2553 126.86C81.3171 126.86 82.1609 127.163 82.7772 127.732C83.4219 128.347 83.7537 129.22 83.7537 130.199V136.005H81.8196V130.493C81.8196 129.086 80.9663 128.489 79.876 128.489C78.8142 128.489 77.8945 129.095 77.8945 130.404V136.005H75.9604V130.493C75.9604 129.086 75.1071 128.489 74.0073 128.489C72.917 128.489 72.0258 129.095 72.0258 130.493V136.005H70.0917Z" fill="#1F1F1F"/>
<path d="M89.3182 136.103C88.1425 136.103 87.3461 135.854 86.7583 135.293C86.2558 134.83 85.9998 134.108 85.9998 133.36C85.9998 132.666 86.2369 132.051 86.7299 131.588C87.3272 131.027 88.1331 130.742 89.3087 130.742H91.8686V130.101C91.8686 129.567 91.7453 129.166 91.4419 128.881C91.1101 128.561 90.5697 128.409 89.8112 128.409C88.7398 128.409 88.1899 128.685 87.6495 129.326L86.3886 128.187C87.2893 127.189 88.2468 126.86 89.8301 126.86C91.2713 126.86 92.3142 127.18 92.9778 127.804C93.5277 128.32 93.8027 129.041 93.8027 129.976V136.005H91.9065V135.177C91.622 135.453 91.3376 135.658 91.0247 135.8C90.5697 136.014 90.0387 136.103 89.3182 136.103ZM87.8771 133.325C87.8771 134.162 88.427 134.598 89.6785 134.598C90.4085 134.598 91.0058 134.491 91.4514 134.073C91.7737 133.761 91.8686 133.289 91.8686 132.764V132.025H89.6121C88.9484 132.025 88.5123 132.149 88.2184 132.434C87.9814 132.657 87.8771 132.951 87.8771 133.325Z" fill="#1F1F1F"/>
<path d="M105.436 136.112C102.64 136.112 101.075 134.643 101.075 132.345C101.075 130.618 102.355 129.62 103.739 128.757C103.142 128.089 102.346 127.198 102.346 126.032C102.346 124.402 103.644 123.218 105.645 123.218C107.551 123.218 108.859 124.429 108.859 126.049C108.859 127.127 108.214 127.777 107.228 128.418L106.422 128.935L109.267 132.131C109.769 131.472 109.959 130.724 109.978 129.567H111.864C111.798 131.188 111.409 132.479 110.499 133.485L112.746 136.005H110.262L109.162 134.767C108.556 135.266 107.437 136.112 105.436 136.112ZM102.99 132.31C102.99 133.565 104.024 134.456 105.427 134.456C106.328 134.456 107.115 134.206 108.006 133.476L104.811 129.905C103.739 130.573 102.99 131.179 102.99 132.31ZM104.308 126.041C104.308 126.53 104.593 126.967 105.361 127.786L105.749 127.545C106.479 127.082 106.982 126.682 106.982 126.058C106.982 125.328 106.441 124.794 105.645 124.794C104.811 124.794 104.308 125.319 104.308 126.041Z" fill="#1F1F1F"/>
<path d="M25.4421 157.564V144.884H27.4995V150.298H32.9605V144.884H35.0179V157.564H32.9605V152.025H27.4995V157.564H25.4421Z" fill="#1F1F1F"/>
<path d="M42.1363 157.671C40.7711 157.671 39.7945 157.323 39.074 156.656C38.2965 155.917 37.832 154.75 37.832 153.049C37.832 151.437 38.306 150.209 39.1498 149.416C39.8514 148.757 40.7805 148.419 41.8993 148.419C43.056 148.419 43.9756 148.748 44.6582 149.398C45.521 150.209 45.9856 151.429 45.9856 153.192V153.583H39.7376C39.7376 154.421 39.9841 155.079 40.4487 155.516C40.8659 155.908 41.4442 156.121 42.1837 156.121C43.2645 156.121 43.8334 155.827 44.516 155.186L45.758 156.264C44.772 157.181 43.8239 157.671 42.1363 157.671ZM39.7376 152.301H44.0609C44.0325 151.642 43.8903 150.974 43.3594 150.476C43.018 150.155 42.544 149.95 41.8993 149.95C41.2641 149.95 40.7805 150.155 40.4392 150.476C39.9178 150.974 39.7756 151.642 39.7376 152.301Z" fill="#1F1F1F"/>
<path d="M51.1629 157.662C49.9873 157.662 49.1909 157.413 48.6031 156.852C48.1006 156.388 47.8446 155.667 47.8446 154.919C47.8446 154.225 48.0816 153.61 48.5746 153.147C49.1719 152.586 49.9778 152.301 51.1534 152.301H53.7133V151.66C53.7133 151.126 53.59 150.725 53.2866 150.44C52.9548 150.12 52.4144 149.968 51.6559 149.968C50.5846 149.968 50.0347 150.244 49.4943 150.885L48.2333 149.746C49.134 148.748 50.0916 148.419 51.6749 148.419C53.116 148.419 54.1589 148.739 54.8226 149.363C55.3725 149.879 55.6474 150.6 55.6474 151.535V157.564H53.7512V156.736C53.4668 157.012 53.1824 157.217 52.8695 157.359C52.4144 157.573 51.8835 157.662 51.1629 157.662ZM49.7218 154.884C49.7218 155.721 50.2717 156.157 51.5232 156.157C52.2532 156.157 52.8505 156.05 53.2961 155.632C53.6185 155.32 53.7133 154.848 53.7133 154.323V153.583H51.4568C50.7932 153.583 50.357 153.708 50.0631 153.993C49.8261 154.216 49.7218 154.51 49.7218 154.884Z" fill="#1F1F1F"/>
<path d="M61.1804 157.564C60.3271 157.564 59.7014 157.323 59.2558 156.905C58.7817 156.46 58.5447 155.801 58.5447 155.062V144.884H60.4788V154.955C60.4788 155.667 60.7443 156.014 61.5312 156.014H62.3845V157.564H61.1804Z" fill="#1F1F1F"/>
<path d="M67.0016 157.564C66.1673 157.564 65.532 157.306 65.0959 156.887C64.6124 156.442 64.3659 155.81 64.3659 155.071V150.084H63.2661V148.695H64.3659V145.952H66.3V148.695H68.1677V150.084H66.3V154.964C66.3 155.64 66.6413 156.014 67.3524 156.014H68.1677V157.564H67.0016Z" fill="#1F1F1F"/>
<path d="M70.6194 157.564V144.884H72.5536V149.443C72.838 149.149 73.1603 148.917 73.4922 148.757C73.9757 148.534 74.5066 148.419 75.085 148.419C76.0331 148.419 76.8484 148.686 77.4742 149.274C78.1758 149.933 78.4223 150.805 78.4223 151.794V157.564H76.4882V152.052C76.4882 150.645 75.6349 150.048 74.5351 150.048C73.4448 150.048 72.5536 150.654 72.5536 152.052V157.564H70.6194Z" fill="#1F1F1F"/>
<path d="M85.2269 157.671C84.0134 157.671 82.9894 157.323 82.2404 156.62C81.4345 155.872 80.951 154.705 80.951 153.049C80.951 151.384 81.4345 150.217 82.2404 149.469C82.9894 148.766 84.0134 148.419 85.2269 148.419C86.5543 148.419 87.4834 148.793 88.3936 149.701L87.0757 150.903C86.4689 150.289 85.9854 150.048 85.2269 150.048C84.5727 150.048 84.0608 150.235 83.6436 150.627C83.0558 151.179 82.8851 151.99 82.8851 153.049C82.8851 154.1 83.0558 154.91 83.6436 155.462C84.0608 155.863 84.5727 156.041 85.2269 156.041C85.9854 156.041 86.4689 155.801 87.0757 155.186L88.3936 156.397C87.4834 157.306 86.5543 157.671 85.2269 157.671Z" fill="#1F1F1F"/>
<path d="M93.142 157.662C91.9664 157.662 91.17 157.413 90.5822 156.852C90.0797 156.388 89.8237 155.667 89.8237 154.919C89.8237 154.225 90.0607 153.61 90.5537 153.147C91.151 152.586 91.9569 152.301 93.1326 152.301H95.6924V151.66C95.6924 151.126 95.5692 150.725 95.2658 150.44C94.9339 150.12 94.3935 149.968 93.635 149.968C92.5637 149.968 92.0138 150.244 91.4734 150.885L90.2124 149.746C91.1131 148.748 92.0707 148.419 93.654 148.419C95.0951 148.419 96.138 148.739 96.8017 149.363C97.3516 149.879 97.6265 150.6 97.6265 151.535V157.564H95.7303V156.736C95.4459 157.012 95.1615 157.217 94.8486 157.359C94.3935 157.573 93.8626 157.662 93.142 157.662ZM91.7009 154.884C91.7009 155.721 92.2508 156.157 93.5023 156.157C94.2323 156.157 94.8296 156.05 95.2752 155.632C95.5976 155.32 95.6924 154.848 95.6924 154.323V153.583H93.4359C92.7723 153.583 92.3362 153.708 92.0422 153.993C91.8052 154.216 91.7009 154.51 91.7009 154.884Z" fill="#1F1F1F"/>
<path d="M100.581 157.564V148.526H102.486V149.505C102.979 148.873 103.965 148.419 105.037 148.419C105.985 148.419 106.639 148.632 107.322 149.274L105.881 150.645C105.435 150.235 105.084 150.048 104.43 150.048C103.378 150.048 102.515 150.832 102.515 152.07V157.564H100.581Z" fill="#1F1F1F"/>
<path d="M112.077 157.671C110.712 157.671 109.735 157.323 109.014 156.656C108.237 155.917 107.772 154.75 107.772 153.049C107.772 151.437 108.247 150.209 109.09 149.416C109.792 148.757 110.721 148.419 111.84 148.419C112.996 148.419 113.916 148.748 114.599 149.398C115.462 150.209 115.926 151.429 115.926 153.192V153.583H109.678C109.678 154.421 109.925 155.079 110.389 155.516C110.806 155.908 111.385 156.121 112.124 156.121C113.205 156.121 113.774 155.827 114.457 155.186L115.699 156.264C114.713 157.181 113.764 157.671 112.077 157.671ZM109.678 152.301H114.001C113.973 151.642 113.831 150.974 113.3 150.476C112.959 150.155 112.485 149.95 111.84 149.95C111.205 149.95 110.721 150.155 110.38 150.476C109.858 150.974 109.716 151.642 109.678 152.301Z" fill="#1F1F1F"/>
<g clip-path="url(#clip0_2744_6404)">
<path d="M69.8708 119C69.3095 119 68.8605 118.551 68.8605 117.99V114.678L68.6733 114.565C67.1203 113.593 65.4363 112.526 64.4634 110.842C63.9582 110.037 63.6775 109.177 63.5839 108.185C63.4904 107.249 63.6401 106.351 64.0517 105.472C64.9498 103.657 66.9893 102.403 68.6546 101.505L68.8605 101.393V84.1227L68.2617 84.4407C63.1162 87.1726 60.4031 89.3243 60.7586 92.8233C60.9644 94.8441 62.1245 96.4532 64.5382 98.025C64.7627 98.1746 64.9311 98.3992 64.9686 98.6611C65.0247 98.9231 64.9686 99.2037 64.8189 99.4283C64.6318 99.7089 64.3137 99.8961 63.9582 99.8961C63.7523 99.8961 63.5652 99.8399 63.3968 99.7277C61.5444 98.5114 59.0559 96.5094 58.7004 93.0291C58.1765 87.7526 62.8729 84.8898 68.5985 81.9522L68.823 81.8399V52.8378L68.4862 52.7817C66.2783 52.4262 64.295 51.1726 63.0226 49.3576C62.7794 49.0021 62.0684 47.973 62.0684 47.973C59.7482 44.5676 56.5673 39.9085 53.6297 39.9085C50.9166 39.9085 47.2118 41.6861 43.3012 43.5572C38.5486 45.8399 33.1972 48.4033 27.9207 48.7027L27.3033 48.7401L27.5839 49.2827C28.2388 50.5925 29.4176 52.3139 31.27 53.0437C31.8688 53.2869 32.5237 53.4179 33.216 53.4179C34.6567 53.4179 36.2659 52.8753 38.0247 51.8274C38.1931 51.7339 38.3615 51.6778 38.5486 51.6778C38.6422 51.6778 38.7357 51.6778 38.8293 51.7152C39.1099 51.79 39.3345 51.9958 39.4467 52.2391C39.6151 52.5572 41.1307 55.3451 43.9187 56.131C44.4051 56.262 44.8916 56.3368 45.3968 56.3368C46.744 56.3368 48.2035 55.8503 49.7191 54.9148C49.8875 54.8212 50.0746 54.7651 50.2617 54.7651C50.6172 54.7651 50.9353 54.9522 51.1224 55.2516C51.2721 55.4761 51.3095 55.7568 51.2534 56.0187C51.1972 56.2807 51.0288 56.5052 50.8043 56.6549C48.9519 57.815 47.137 58.395 45.4155 58.395C44.7045 58.395 44.0122 58.3015 43.3386 58.1143C40.9436 57.4408 39.3158 55.7006 38.3802 54.3721L38.1744 54.0915L37.875 54.2412C36.2284 55.0457 34.6754 55.4761 33.216 55.4761C32.2617 55.4761 31.3449 55.3077 30.4842 54.9522C26.3864 53.2495 24.9644 48.1414 24.9083 47.9356C24.8147 47.6175 24.9083 47.2807 25.1141 47.0187C25.3199 46.7755 25.5819 46.6445 25.9 46.6445C26.2929 46.6632 26.611 46.6819 26.9478 46.6819C32.112 46.6819 37.613 44.0437 42.4779 41.7048C46.7814 39.6279 50.5049 37.8503 53.6858 37.8503C57.69 37.8503 61.0767 42.8087 63.7898 46.7942C64.1079 47.2807 64.4259 47.7297 64.7253 48.1601C65.586 49.395 66.8771 50.2744 68.3553 50.6486L68.8605 50.7796V44.6424L68.5237 44.5863C64.744 43.9314 62.0122 40.6757 62.0122 36.8586C62.0122 32.5177 65.5299 29 69.8708 29C74.2118 29 77.7295 32.5177 77.7295 36.8586C77.7295 40.6757 74.9977 43.9314 71.218 44.5863L70.8812 44.6424V50.7796L71.3864 50.6486C72.8646 50.2744 74.1557 49.395 75.0164 48.1601C75.3158 47.7297 75.6338 47.262 75.9519 46.7942C78.665 42.8087 82.0517 37.8503 86.0559 37.8503C89.218 37.8503 92.9602 39.6466 97.2638 41.7048C102.166 44.0624 107.63 46.6819 112.738 46.6819C113.075 46.6819 113.43 46.6819 113.767 46.6445C114.122 46.6445 114.422 46.7755 114.628 47.0187C114.833 47.2807 114.908 47.6175 114.833 47.9356C114.777 48.1601 113.337 53.2495 109.201 54.9335C108.341 55.289 107.424 55.4574 106.47 55.4574C105.01 55.4574 103.457 55.0457 101.811 54.2225L101.511 54.0728L101.305 54.3534C100.351 55.6819 98.7232 57.4033 96.3469 58.0956C95.6733 58.2827 94.981 58.3763 94.27 58.395C92.5486 58.395 90.7336 57.815 88.8812 56.6549C88.4135 56.3555 88.2638 55.738 88.5632 55.2516C88.7503 54.9522 89.0684 54.7838 89.4239 54.7838C89.611 54.7838 89.7981 54.8399 89.9665 54.9335C91.4821 55.8877 92.9415 56.3555 94.2887 56.3555C94.7939 56.3555 95.2991 56.2807 95.7669 56.1497C98.7045 55.3264 100.22 52.2765 100.239 52.2578C100.37 52.0146 100.594 51.8274 100.856 51.7339C100.95 51.6965 101.043 51.6965 101.156 51.6965C101.343 51.6965 101.511 51.7526 101.68 51.8462C103.438 52.894 105.048 53.4366 106.488 53.4366C107.181 53.4366 107.836 53.3056 108.434 53.0624C110.268 52.3326 111.447 50.6112 112.12 49.3015L112.401 48.7588L111.784 48.7214C106.526 48.422 101.156 45.8586 96.4218 43.5759C92.4925 41.6861 88.7877 39.9085 86.0746 39.9085C83.137 39.9085 79.9748 44.5676 77.6546 47.973C77.6546 47.973 76.9436 49.0021 76.7004 49.3576C75.428 51.1726 73.4447 52.4075 71.2368 52.7817L70.9 52.8378V80.8108L71.48 80.4927C76.6068 77.7983 81.6588 74.6923 82.2388 68.8545C82.5195 66.0665 82.0517 63.5593 80.8542 61.183L80.7419 60.9771H80.5174C80.1993 60.9584 79.9 60.8836 79.6193 60.7526C79.0392 60.4906 78.4405 60.0042 77.7669 59.237C75.7274 56.8981 76.3449 55.4948 77.2243 54.7277C77.6921 54.3347 78.1785 54.1289 78.6837 54.1289C79.5632 54.1289 80.5361 54.7277 81.5652 55.9064C82.2575 56.6923 82.6505 57.3098 82.8376 57.9085C83.0434 58.5634 82.9873 59.2183 82.6318 59.7796L82.5195 59.9667L82.6131 60.1726C84.0351 62.9231 84.5777 65.8233 84.2596 69.0416C83.5486 76.0208 77.8792 79.4823 71.1058 82.9626L70.8812 83.0748V100.383L71.4613 100.102C72.7149 99.4844 74.0434 98.8108 75.1848 98.0437C77.5985 96.4532 78.7773 94.8441 78.9831 92.8233C79.2076 90.4657 78.0663 88.6133 75.1848 86.6299C74.9602 86.4803 74.8106 86.237 74.7544 85.9751C74.6983 85.7131 74.7544 85.4324 74.9228 85.2079C75.1099 84.9272 75.428 84.7588 75.7648 84.7588C75.9706 84.7588 76.1765 84.815 76.3449 84.9459C78.5528 86.4428 81.4155 88.9127 81.0226 93.0104C80.7607 95.6299 79.2264 97.8191 76.3261 99.7277C74.9041 100.682 73.3137 101.449 71.7607 102.216L70.9 102.647V112.283L71.5361 111.815C72.2097 111.328 73.033 110.674 73.5569 109.813C73.8937 109.252 74.0995 108.653 74.1744 107.979C74.2305 107.418 74.137 106.894 73.8937 106.37C73.7815 106.127 73.7627 105.846 73.8376 105.603C73.9311 105.341 74.1182 105.135 74.3615 105.023C74.5112 104.948 74.6609 104.911 74.8106 104.911C75.2035 104.911 75.559 105.135 75.7274 105.491C76.139 106.351 76.3074 107.268 76.2139 108.222C76.1016 109.195 75.8209 110.056 75.3158 110.879C74.3241 112.545 72.6775 113.593 71.218 114.528L71.0309 114.64L70.9187 114.921V118.008C70.9187 118.57 70.4696 119.019 69.9083 119.019L69.8708 119ZM68.243 104.087C67.0268 104.873 66.2596 105.603 65.8854 106.351C65.6422 106.875 65.5486 107.399 65.6047 107.961C65.6796 108.634 65.8667 109.214 66.2035 109.775C66.7274 110.655 67.5507 111.328 68.2243 111.796L68.8605 112.264V103.694L68.243 104.087ZM77.5798 55.738L78.3656 56.6362L78.7212 56.3742L78.7586 56.3181L79.0392 56.0374L78.7399 55.8129L78.1972 55.2141L77.5985 55.7568L77.5798 55.738ZM69.8708 31.0395C66.6526 31.0395 64.0517 33.659 64.0517 36.8586C64.0517 40.0582 66.6713 42.6778 69.8708 42.6778C73.0704 42.6778 75.69 40.0582 75.69 36.8586C75.69 33.659 73.0704 31.0395 69.8708 31.0395Z" fill="#1F1F1F"/>
<path d="M63.9208 80.1746C63.7336 80.1746 63.5465 80.1185 63.3781 80.025C60.2534 78.0416 56.0434 74.7484 55.4821 69.0416C55.164 65.842 55.6879 62.9418 57.1287 60.1726L57.2222 59.9667L57.1099 59.7796C56.7731 59.2183 56.6983 58.5634 56.9228 57.9085C57.1099 57.3098 57.5029 56.6923 58.1952 55.9065C59.2243 54.7277 60.1973 54.1289 61.0954 54.1289C61.6006 54.1289 62.0871 54.3347 62.5548 54.7277C63.8085 55.8316 63.6214 57.3846 62.0122 59.237C61.3386 60.0042 60.7586 60.4907 60.1598 60.7526C59.8792 60.8836 59.5798 60.9584 59.243 60.9584H59.0185L58.9062 61.183C57.69 63.578 57.2409 66.0852 57.5216 68.8545C57.8958 72.578 60.0476 75.4969 64.4821 78.3223C64.9499 78.6216 65.0995 79.2578 64.8002 79.7256C64.6131 80.025 64.295 80.1934 63.9395 80.1934L63.9208 80.1746Z" fill="#D70A32"/>
</g>
<defs>
<clipPath id="clip0_2744_6404">
<rect width="90" height="90" fill="white" transform="translate(24.8708 29)"/>
</clipPath>
</defs>
</svg>
