<svg width="136" height="213" viewBox="0 0 136 213" fill="none" xmlns="http://www.w3.org/2000/svg">
<path d="M34.4837 136.005V125.043H30.7766V123.325H40.2576V125.043H36.541V136.005H34.4837Z" fill="#1F1F1F"/>
<path d="M42.3542 136.005V127.145H44.2883V136.005H42.3542ZM42.2973 124.901V123.28H44.3547V124.901H42.2973Z" fill="#1F1F1F"/>
<path d="M50.4727 136.112C48.9083 136.112 47.581 135.863 46.4433 134.812L47.7137 133.619C48.4817 134.358 49.5341 134.554 50.4632 134.554C51.9233 134.554 52.5775 134.082 52.5775 133.289C52.5775 132.684 52.2172 132.327 51.2975 132.247L49.7521 132.123C47.9508 131.962 46.9079 131.223 46.9079 129.629C46.9079 127.857 48.5386 126.86 50.6433 126.86C51.9991 126.86 53.2127 127.154 54.1134 127.893L52.8903 129.033C52.2741 128.57 51.4492 128.391 50.6339 128.391C49.3539 128.391 48.7946 128.854 48.7946 129.558C48.7946 130.172 49.1738 130.493 50.1029 130.573L51.6199 130.698C53.3928 130.858 54.4736 131.615 54.4736 133.253C54.4736 135.132 52.786 136.112 50.4727 136.112Z" fill="#1F1F1F"/>
<path d="M59.8981 136.112C58.3337 136.112 57.0064 135.863 55.8687 134.812L57.1391 133.619C57.9071 134.358 58.9595 134.554 59.8886 134.554C61.3487 134.554 62.0029 134.082 62.0029 133.289C62.0029 132.684 61.6426 132.327 60.7229 132.247L59.1775 132.123C57.3762 131.962 56.3332 131.223 56.3332 129.629C56.3332 127.857 57.964 126.86 60.0687 126.86C61.4245 126.86 62.6381 127.154 63.5388 127.893L62.3157 129.033C61.6995 128.57 60.8746 128.391 60.0593 128.391C58.7793 128.391 58.22 128.854 58.22 129.558C58.22 130.172 58.5992 130.493 59.5283 130.573L61.0453 130.698C62.8182 130.858 63.899 131.615 63.899 133.253C63.899 135.132 62.2114 136.112 59.8981 136.112Z" fill="#1F1F1F"/>
<path d="M69.4747 136.112C68.5266 136.112 67.7113 135.845 67.0855 135.257C66.3839 134.598 66.1374 133.734 66.1374 132.746V126.967H68.0716V132.479C68.0716 133.886 68.9343 134.482 70.0246 134.482C71.1149 134.482 72.0061 133.877 72.0061 132.479V126.967H73.9403V136.005H72.0346V135.097C71.7596 135.382 71.4183 135.613 71.0865 135.773C70.603 135.996 70.072 136.112 69.4747 136.112Z" fill="#1F1F1F"/>
<path d="M80.8302 136.112C79.465 136.112 78.4884 135.765 77.7679 135.097C76.9905 134.358 76.5259 133.191 76.5259 131.49C76.5259 129.879 76.9999 128.65 77.8437 127.857C78.5453 127.198 79.4745 126.86 80.5932 126.86C81.7499 126.86 82.6695 127.189 83.3522 127.839C84.2149 128.65 84.6795 129.87 84.6795 131.633V132.025H78.4316C78.4316 132.862 78.6781 133.521 79.1426 133.957C79.5598 134.349 80.1381 134.562 80.8776 134.562C81.9585 134.562 82.5273 134.269 83.21 133.627L84.452 134.705C83.4659 135.622 82.5178 136.112 80.8302 136.112ZM78.4316 130.742H82.7549C82.7264 130.083 82.5842 129.415 82.0533 128.917C81.712 128.596 81.2379 128.391 80.5932 128.391C79.958 128.391 79.4745 128.596 79.1332 128.917C78.6117 129.415 78.4695 130.083 78.4316 130.742Z" fill="#1F1F1F"/>
<path d="M95.9386 136.112C93.1417 136.112 91.5773 134.643 91.5773 132.345C91.5773 130.618 92.8573 129.62 94.2415 128.757C93.6442 128.089 92.8478 127.198 92.8478 126.032C92.8478 124.402 94.1467 123.218 96.1472 123.218C98.0528 123.218 99.3612 124.429 99.3612 126.049C99.3612 127.127 98.7165 127.777 97.7305 128.418L96.9246 128.935L99.7689 132.131C100.271 131.472 100.461 130.724 100.48 129.567H102.367C102.3 131.188 101.912 132.479 101.001 133.485L103.248 136.005H100.764L99.6646 134.767C99.0578 135.266 97.9391 136.112 95.9386 136.112ZM93.4925 132.31C93.4925 133.565 94.5259 134.456 95.9291 134.456C96.8298 134.456 97.6167 134.206 98.5079 133.476L95.3128 129.905C94.2415 130.573 93.4925 131.179 93.4925 132.31ZM94.8103 126.041C94.8103 126.53 95.0948 126.967 95.8627 127.786L96.2514 127.545C96.9815 127.082 97.484 126.682 97.484 126.058C97.484 125.328 96.9436 124.794 96.1472 124.794C95.3128 124.794 94.8103 125.319 94.8103 126.041Z" fill="#1F1F1F"/>
<path d="M34.4155 157.564V144.884H36.4729V150.298H41.9339V144.884H43.9913V157.564H41.9339V152.025H36.4729V157.564H34.4155Z" fill="#1F1F1F"/>
<path d="M46.8148 161.259V159.63H47.3078C48.1327 159.63 48.4171 159.398 48.692 158.659L49.2704 157.128L45.9046 148.526H47.962L50.2469 154.875L52.5034 148.526H54.5608L50.2564 159.532C49.7729 160.761 48.9386 161.259 47.5259 161.259H46.8148Z" fill="#1F1F1F"/>
<path d="M59.2332 161.313C57.7826 161.313 56.9009 161.001 55.8865 160.128L57.119 158.98C57.7258 159.514 58.2283 159.772 59.1763 159.772C59.9253 159.772 60.4563 159.559 60.8166 159.22C61.2622 158.802 61.4707 158.196 61.4707 157.475V156.326C60.7407 157.136 59.9443 157.35 58.9867 157.35C57.9912 157.35 57.2043 157.039 56.6829 156.549C55.7537 155.676 55.6115 154.421 55.6115 152.889C55.6115 151.357 55.7537 150.093 56.6829 149.22C57.2043 148.73 58.0007 148.419 58.9962 148.419C60.0391 148.419 60.7786 148.677 61.5087 149.487V148.526H63.4049V157.51C63.4049 158.615 63.0161 159.567 62.2956 160.244C61.5371 160.957 60.5321 161.313 59.2332 161.313ZM57.5456 152.889C57.5456 153.592 57.593 154.323 57.8869 154.866C58.1903 155.445 58.7497 155.721 59.5082 155.721C60.0865 155.721 60.5037 155.56 60.8071 155.284C61.3664 154.759 61.4707 153.842 61.4707 152.916V152.853C61.4707 151.927 61.3664 151.01 60.8071 150.494C60.5037 150.209 60.0865 150.048 59.5082 150.048C58.7497 150.048 58.1903 150.324 57.8869 150.903C57.593 151.446 57.5456 152.177 57.5456 152.889Z" fill="#1F1F1F"/>
<path d="M66.4825 157.564V148.704H68.4166V157.564H66.4825ZM66.4256 146.46V144.839H68.4829V146.46H66.4256Z" fill="#1F1F1F"/>
<path d="M75.312 157.671C73.9468 157.671 72.9702 157.323 72.2497 156.656C71.4722 155.917 71.0077 154.75 71.0077 153.049C71.0077 151.437 71.4817 150.209 72.3255 149.416C73.0271 148.757 73.9563 148.419 75.075 148.419C76.2317 148.419 77.1513 148.748 77.834 149.398C78.6967 150.209 79.1613 151.429 79.1613 153.192V153.583H72.9134C72.9134 154.421 73.1599 155.079 73.6244 155.516C74.0416 155.908 74.6199 156.121 75.3594 156.121C76.4403 156.121 77.0091 155.827 77.6918 155.186L78.9338 156.264C77.9477 157.181 76.9996 157.671 75.312 157.671ZM72.9134 152.301H77.2367C77.2082 151.642 77.066 150.974 76.5351 150.476C76.1938 150.155 75.7197 149.95 75.075 149.95C74.4398 149.95 73.9563 150.155 73.6149 150.476C73.0935 150.974 72.9513 151.642 72.9134 152.301Z" fill="#1F1F1F"/>
<path d="M81.7409 157.564V148.526H83.6465V149.443C83.9215 149.149 84.2628 148.917 84.5946 148.757C85.0781 148.534 85.6091 148.419 86.2064 148.419C87.1545 148.419 87.9698 148.686 88.5956 149.274C89.2972 149.933 89.5437 150.805 89.5437 151.794V157.564H87.6096V152.052C87.6096 150.645 86.7563 150.048 85.6565 150.048C84.5662 150.048 83.675 150.654 83.675 152.052V157.564H81.7409Z" fill="#1F1F1F"/>
<path d="M96.3294 157.671C94.9641 157.671 93.9876 157.323 93.267 156.656C92.4896 155.917 92.025 154.75 92.025 153.049C92.025 151.437 92.4991 150.209 93.3429 149.416C94.0445 148.757 94.9736 148.419 96.0923 148.419C97.249 148.419 98.1687 148.748 98.8513 149.398C99.7141 150.209 100.179 151.429 100.179 153.192V153.583H93.9307C93.9307 154.421 94.1772 155.079 94.6418 155.516C95.0589 155.908 95.6373 156.121 96.3768 156.121C97.4576 156.121 98.0265 155.827 98.7091 155.186L99.9511 156.264C98.9651 157.181 98.017 157.671 96.3294 157.671ZM93.9307 152.301H98.254C98.2256 151.642 98.0833 150.974 97.5524 150.476C97.2111 150.155 96.737 149.95 96.0923 149.95C95.4571 149.95 94.9736 150.155 94.6323 150.476C94.1108 150.974 93.9686 151.642 93.9307 152.301Z" fill="#1F1F1F"/>
<g clip-path="url(#clip0_2744_6403)">
<path d="M85.8223 87.6822H48.0738C47.5018 87.6822 47.0252 87.2065 47.0252 86.6357C47.0252 86.0649 47.5018 85.5892 48.0738 85.5892H85.8032C86.3752 85.5892 86.8518 86.0649 86.8518 86.6357C86.8518 87.2065 86.3752 87.6822 85.8032 87.6822H85.8223Z" fill="#D70A32"/>
<path d="M85.8223 119H48.0738C47.5018 119 47.0252 118.524 47.0252 117.954V76.133C47.0252 75.8095 47.1777 75.4861 47.4446 75.2958C65.2322 62.2625 61.6289 48.8488 61.4764 48.278C61.3811 47.9545 61.4573 47.6311 61.648 47.3647C61.8386 47.0983 62.1627 46.9461 62.4869 46.9461H77.1096C77.5672 46.9461 77.9676 47.2505 78.1201 47.6881L86.8137 75.8285C86.8518 75.9237 86.8518 76.0378 86.8518 76.133V117.954C86.8518 118.524 86.3752 119 85.8032 119H85.8223ZM49.1223 116.907H84.7547V76.2852L76.328 49.02H63.7642C64.3743 52.9966 64.6412 65.0404 49.1223 76.6467V116.907Z" fill="#1F1F1F"/>
<path d="M69.0071 42.4939H62.7156C62.1437 42.4939 61.6671 42.0182 61.6671 41.4474C61.6671 36.177 54.594 35.3589 50.3616 35.3399C48.5313 35.3399 47.0252 33.9129 47.0252 32.1624V27.1774C47.0252 25.427 48.5123 24 50.3425 24H70.5894C75.4891 24 80.3125 25.2367 84.545 27.558L85.1741 27.9005C86.2036 28.4713 86.8518 29.5368 86.8518 30.6784V34.7691C86.8518 35.7775 86.3371 36.7478 85.4791 37.3567C80.751 40.6673 74.8981 42.4939 68.988 42.4939H69.0071ZM63.6879 40.401H69.0071C74.4977 40.401 79.9122 38.7076 84.2971 35.6253C84.6022 35.416 84.7737 35.0925 84.7737 34.7691V30.6784C84.7737 30.2978 84.545 29.9363 84.1827 29.746L83.5536 29.4036C79.6262 27.2536 75.165 26.0929 70.6085 26.0929H50.3616C49.6943 26.0929 49.1414 26.5686 49.1414 27.1774V32.1815C49.1414 32.7713 49.6943 33.266 50.3806 33.266C58.2926 33.304 63.0779 35.8916 63.6879 40.42V40.401Z" fill="#1F1F1F"/>
<path d="M45.9194 52.8634C45.5763 52.8634 45.214 52.6921 45.0234 52.3687C44.7183 51.874 44.8709 51.2271 45.3665 50.9227C57.1296 43.6735 57.0343 35.6252 57.0343 35.5491C57.0343 34.9783 57.4728 34.4836 58.0447 34.4646C58.6357 34.4075 59.1123 34.8832 59.1314 35.454C59.1314 35.8345 59.3602 44.758 46.4723 52.6921C46.3007 52.8063 46.1101 52.8443 45.9194 52.8443V52.8634Z" fill="#1F1F1F"/>
<path d="M63.421 103.436C63.2685 103.436 63.116 103.398 62.9825 103.341C62.4487 103.094 62.2199 102.485 62.4678 101.952L65.9757 94.3605C68.416 89.0711 69.6552 83.4773 69.6552 77.7312V47.9736C69.6552 47.4028 70.1319 46.9271 70.7038 46.9271C71.2758 46.9271 71.7524 47.4028 71.7524 47.9736V77.7312C71.7524 83.8007 70.456 89.68 67.8822 95.2358L64.3743 102.827C64.2027 103.208 63.8214 103.436 63.421 103.436Z" fill="#1F1F1F"/>
</g>
<defs>
<clipPath id="clip0_2744_6403">
<rect width="42" height="95" fill="white" transform="translate(44.8708 24)"/>
</clipPath>
</defs>
</svg>
