<svg width="169" height="212" viewBox="0 0 169 212" fill="none" xmlns="http://www.w3.org/2000/svg">
<rect width="169" height="212" fill="white"/>
<path d="M52.456 164V152.305H48.7415V150.472H58.2415V152.305H54.5175V164H52.456ZM60.3423 164V154.547H62.2803V164H60.3423ZM60.2853 152.153V150.424H62.3468V152.153H60.2853ZM68.4772 164.114C66.9097 164.114 65.5797 163.848 64.4397 162.727L65.7127 161.454C66.4822 162.242 67.5367 162.451 68.4677 162.451C69.9307 162.451 70.5862 161.948 70.5862 161.102C70.5862 160.456 70.2252 160.076 69.3037 159.991L67.7552 159.858C65.9502 159.687 64.9052 158.898 64.9052 157.198C64.9052 155.307 66.5392 154.243 68.6482 154.243C70.0067 154.243 71.2227 154.557 72.1252 155.345L70.8997 156.561C70.2822 156.067 69.4557 155.877 68.6387 155.877C67.3562 155.877 66.7957 156.371 66.7957 157.122C66.7957 157.777 67.1757 158.119 68.1067 158.205L69.6267 158.338C71.4032 158.509 72.4862 159.316 72.4862 161.064C72.4862 163.069 70.7952 164.114 68.4772 164.114ZM77.9215 164.114C76.354 164.114 75.024 163.848 73.884 162.727L75.157 161.454C75.9265 162.242 76.981 162.451 77.912 162.451C79.375 162.451 80.0305 161.948 80.0305 161.102C80.0305 160.456 79.6695 160.076 78.748 159.991L77.1995 159.858C75.3945 159.687 74.3495 158.898 74.3495 157.198C74.3495 155.307 75.9835 154.243 78.0925 154.243C79.451 154.243 80.667 154.557 81.5695 155.345L80.344 156.561C79.7265 156.067 78.9 155.877 78.083 155.877C76.8005 155.877 76.24 156.371 76.24 157.122C76.24 157.777 76.62 158.119 77.551 158.205L79.071 158.338C80.8475 158.509 81.9305 159.316 81.9305 161.064C81.9305 163.069 80.2395 164.114 77.9215 164.114ZM87.5174 164.114C86.5674 164.114 85.7504 163.829 85.1234 163.202C84.4204 162.499 84.1734 161.577 84.1734 160.523V154.357H86.1114V160.238C86.1114 161.739 86.9759 162.375 88.0684 162.375C89.1609 162.375 90.0539 161.729 90.0539 160.238V154.357H91.9919V164H90.0824V163.031C89.8069 163.335 89.4649 163.582 89.1324 163.753C88.6479 163.99 88.1159 164.114 87.5174 164.114ZM98.8957 164.114C97.5277 164.114 96.5492 163.743 95.8272 163.031C95.0482 162.242 94.5827 160.998 94.5827 159.183C94.5827 157.464 95.0577 156.153 95.9032 155.307C96.6062 154.604 97.5372 154.243 98.6582 154.243C99.8172 154.243 100.739 154.595 101.423 155.288C102.287 156.153 102.753 157.454 102.753 159.335V159.753H96.4922C96.4922 160.646 96.7392 161.349 97.2047 161.815C97.6227 162.233 98.2022 162.461 98.9432 162.461C100.026 162.461 100.596 162.147 101.28 161.463L102.525 162.613C101.537 163.591 100.587 164.114 98.8957 164.114ZM96.4922 158.385H100.824C100.796 157.682 100.653 156.97 100.121 156.438C99.7792 156.096 99.3042 155.877 98.6582 155.877C98.0217 155.877 97.5372 156.096 97.1952 156.438C96.6727 156.97 96.5302 157.682 96.4922 158.385ZM114.034 164.114C111.232 164.114 109.664 162.546 109.664 160.095C109.664 158.252 110.947 157.188 112.334 156.267C111.735 155.554 110.937 154.604 110.937 153.36C110.937 151.621 112.239 150.358 114.243 150.358C116.153 150.358 117.464 151.65 117.464 153.379C117.464 154.528 116.818 155.222 115.83 155.906L115.022 156.457L117.872 159.867C118.376 159.164 118.566 158.366 118.585 157.131H120.475C120.409 158.86 120.019 160.238 119.107 161.311L121.359 164H118.87L117.768 162.679C117.16 163.211 116.039 164.114 114.034 164.114ZM111.583 160.057C111.583 161.397 112.619 162.347 114.025 162.347C114.927 162.347 115.716 162.081 116.609 161.302L113.407 157.492C112.334 158.205 111.583 158.851 111.583 160.057ZM112.904 153.369C112.904 153.892 113.189 154.357 113.958 155.231L114.348 154.975C115.079 154.481 115.583 154.053 115.583 153.388C115.583 152.609 115.041 152.039 114.243 152.039C113.407 152.039 112.904 152.6 112.904 153.369ZM52.3877 187V173.472H54.4492V179.248H59.9212V173.472H61.9827V187H59.9212V181.091H54.4492V187H52.3877ZM64.8119 190.943V189.204H65.3059C66.1324 189.204 66.4174 188.957 66.6929 188.169L67.2724 186.534L63.8999 177.357H65.9614L68.2509 184.131L70.5119 177.357H72.5734L68.2604 189.1C67.7759 190.411 66.9399 190.943 65.5244 190.943H64.8119ZM77.2553 191C75.8018 191 74.9183 190.667 73.9018 189.736L75.1368 188.511C75.7448 189.081 76.2483 189.356 77.1983 189.356C77.9488 189.356 78.4808 189.128 78.8418 188.767C79.2883 188.321 79.4973 187.675 79.4973 186.905V185.679C78.7658 186.544 77.9678 186.772 77.0083 186.772C76.0108 186.772 75.2223 186.439 74.6998 185.917C73.7688 184.986 73.6263 183.646 73.6263 182.012C73.6263 180.378 73.7688 179.029 74.6998 178.098C75.2223 177.576 76.0203 177.243 77.0178 177.243C78.0628 177.243 78.8038 177.519 79.5353 178.383V177.357H81.4353V186.943C81.4353 188.121 81.0458 189.138 80.3238 189.86C79.5638 190.62 78.5568 191 77.2553 191ZM75.5643 182.012C75.5643 182.763 75.6118 183.542 75.9063 184.121C76.2103 184.739 76.7708 185.033 77.5308 185.033C78.1103 185.033 78.5283 184.862 78.8323 184.568C79.3928 184.007 79.4973 183.029 79.4973 182.041V181.974C79.4973 180.986 79.3928 180.008 78.8323 179.457C78.5283 179.153 78.1103 178.982 77.5308 178.982C76.7708 178.982 76.2103 179.276 75.9063 179.894C75.6118 180.473 75.5643 181.252 75.5643 182.012ZM84.5191 187V177.547H86.4571V187H84.5191ZM84.4621 175.153V173.424H86.5236V175.153H84.4621ZM93.3664 187.114C91.9984 187.114 91.0199 186.743 90.2979 186.031C89.5189 185.242 89.0534 183.998 89.0534 182.183C89.0534 180.464 89.5284 179.153 90.3739 178.307C91.0769 177.604 92.0079 177.243 93.1289 177.243C94.2879 177.243 95.2094 177.595 95.8934 178.288C96.7579 179.153 97.2234 180.454 97.2234 182.335V182.753H90.9629C90.9629 183.646 91.2099 184.349 91.6754 184.815C92.0934 185.233 92.6729 185.461 93.4139 185.461C94.4969 185.461 95.0669 185.147 95.7509 184.463L96.9954 185.613C96.0074 186.591 95.0574 187.114 93.3664 187.114ZM90.9629 181.385H95.2949C95.2664 180.682 95.1239 179.97 94.5919 179.438C94.2499 179.096 93.7749 178.877 93.1289 178.877C92.4924 178.877 92.0079 179.096 91.6659 179.438C91.1434 179.97 91.0009 180.682 90.9629 181.385ZM99.8082 187V177.357H101.718V178.336C101.993 178.022 102.335 177.775 102.668 177.604C103.152 177.367 103.684 177.243 104.283 177.243C105.233 177.243 106.05 177.528 106.677 178.155C107.38 178.858 107.627 179.789 107.627 180.844V187H105.689V181.119C105.689 179.618 104.834 178.982 103.732 178.982C102.639 178.982 101.746 179.628 101.746 181.119V187H99.8082ZM114.426 187.114C113.058 187.114 112.079 186.743 111.357 186.031C110.578 185.242 110.113 183.998 110.113 182.183C110.113 180.464 110.588 179.153 111.433 178.307C112.136 177.604 113.067 177.243 114.188 177.243C115.347 177.243 116.269 177.595 116.953 178.288C117.817 179.153 118.283 180.454 118.283 182.335V182.753H112.022C112.022 183.646 112.269 184.349 112.735 184.815C113.153 185.233 113.732 185.461 114.473 185.461C115.556 185.461 116.126 185.147 116.81 184.463L118.055 185.613C117.067 186.591 116.117 187.114 114.426 187.114ZM112.022 181.385H116.354C116.326 180.682 116.183 179.97 115.651 179.438C115.309 179.096 114.834 178.877 114.188 178.877C113.552 178.877 113.067 179.096 112.725 179.438C112.203 179.97 112.06 180.682 112.022 181.385Z" fill="#1F1F1F"/>
<g clip-path="url(#clip0_2632_5045)">
<path d="M102.951 92.6828H65.2029C64.6309 92.6828 64.1543 92.2071 64.1543 91.6363C64.1543 91.0655 64.6309 90.5898 65.2029 90.5898H102.932C103.504 90.5898 103.981 91.0655 103.981 91.6363C103.981 92.2071 103.504 92.6828 102.932 92.6828H102.951Z" fill="#D70A32"/>
<path d="M102.951 123.999H65.2029C64.6309 123.999 64.1543 123.524 64.1543 122.953V81.1322C64.1543 80.8087 64.3068 80.4853 64.5737 80.295C82.3613 67.2618 78.758 53.848 78.6055 53.2772C78.5102 52.9537 78.5864 52.6303 78.7771 52.3639C78.9677 52.0975 79.2918 51.9453 79.6159 51.9453H94.2387C94.6963 51.9453 95.0967 52.2497 95.2492 52.6874L103.943 80.8277C103.981 80.9229 103.981 81.037 103.981 81.1322V122.953C103.981 123.524 103.504 123.999 102.932 123.999H102.951ZM66.2514 121.906H101.884V81.2844L93.4571 54.0192H80.8933C81.5034 57.9958 81.7703 70.0396 66.2514 81.6459V121.906Z" fill="#1F1F1F"/>
<path d="M86.1361 47.4939H79.8447C79.2728 47.4939 78.7961 47.0182 78.7961 46.4474C78.7961 41.177 71.7231 40.3589 67.4907 40.3399C65.6604 40.3399 64.1543 38.9129 64.1543 37.1624V32.1774C64.1543 30.427 65.6414 29 67.4716 29H87.7185C92.6182 29 97.4416 30.2367 101.674 32.558L102.303 32.9005C103.333 33.4713 103.981 34.5368 103.981 35.6784V39.7691C103.981 40.7775 103.466 41.7478 102.608 42.3567C97.8801 45.6673 92.0272 47.4939 86.1171 47.4939H86.1361ZM80.817 45.401H86.1361C91.6268 45.401 97.0413 43.7076 101.426 40.6253C101.731 40.416 101.903 40.0925 101.903 39.7691V35.6784C101.903 35.2978 101.674 34.9363 101.312 34.746L100.683 34.4036C96.7553 32.2536 92.2941 31.0929 87.7376 31.0929H67.4907C66.8234 31.0929 66.2705 31.5686 66.2705 32.1774V37.1815C66.2705 37.7713 66.8234 38.266 67.5097 38.266C75.4217 38.304 80.207 40.8916 80.817 45.42V45.401Z" fill="#1F1F1F"/>
<path d="M63.0487 57.8644C62.7055 57.8644 62.3433 57.6931 62.1527 57.3697C61.8476 56.875 62.0001 56.2281 62.4958 55.9236C74.2589 48.6745 74.1635 40.6262 74.1635 40.5501C74.1635 39.9793 74.602 39.4846 75.174 39.4656C75.765 39.4085 76.2416 39.8842 76.2607 40.455C76.2607 40.8355 76.4895 49.759 63.6016 57.6931C63.43 57.8073 63.2394 57.8453 63.0487 57.8453V57.8644Z" fill="#1F1F1F"/>
<path d="M80.5502 108.437C80.3977 108.437 80.2452 108.399 80.1117 108.342C79.5779 108.094 79.3491 107.486 79.597 106.953L83.1049 99.3611C85.5452 94.0717 86.7845 88.4779 86.7845 82.7319V52.9742C86.7845 52.4034 87.2611 51.9277 87.833 51.9277C88.405 51.9277 88.8816 52.4034 88.8816 52.9742V82.7319C88.8816 88.8014 87.5852 94.6806 85.0114 100.236L81.5035 107.828C81.3319 108.209 80.9506 108.437 80.5502 108.437Z" fill="#1F1F1F"/>
</g>
<defs>
<clipPath id="clip0_2632_5045">
<rect width="42" height="95" fill="white" transform="translate(62 29)"/>
</clipPath>
</defs>
</svg>
