<svg width="136" height="92" viewBox="0 0 136 92" fill="none" xmlns="http://www.w3.org/2000/svg">
<path d="M34.4837 15.005V4.04325H30.7766V2.32463H40.2576V4.04325H36.541V15.005H34.4837Z" fill="#1F1F1F"/>
<path d="M42.3542 15.005V6.14477H44.2883V15.005H42.3542ZM42.2973 3.90077V2.28011H44.3547V3.90077H42.2973Z" fill="#1F1F1F"/>
<path d="M50.4727 15.1119C48.9083 15.1119 47.581 14.8625 46.4433 13.8118L47.7137 12.6185C48.4817 13.3576 49.5341 13.5535 50.4632 13.5535C51.9233 13.5535 52.5775 13.0816 52.5775 12.2891C52.5775 11.6835 52.2172 11.3273 51.2975 11.2472L49.7521 11.1225C47.9508 10.9623 46.9079 10.2232 46.9079 8.6292C46.9079 6.85715 48.5386 5.85982 50.6433 5.85982C51.9991 5.85982 53.2127 6.15368 54.1134 6.89277L52.8903 8.03258C52.2741 7.56954 51.4492 7.39144 50.6339 7.39144C49.3539 7.39144 48.7946 7.85449 48.7946 8.55796C48.7946 9.17239 49.1738 9.49296 50.1029 9.57311L51.6199 9.69777C53.3928 9.85806 54.4736 10.615 54.4736 12.2534C54.4736 14.1323 52.786 15.1119 50.4727 15.1119Z" fill="#1F1F1F"/>
<path d="M59.8981 15.1119C58.3337 15.1119 57.0064 14.8625 55.8687 13.8118L57.1391 12.6185C57.9071 13.3576 58.9595 13.5535 59.8886 13.5535C61.3487 13.5535 62.0029 13.0816 62.0029 12.2891C62.0029 11.6835 61.6426 11.3273 60.7229 11.2472L59.1775 11.1225C57.3762 10.9623 56.3332 10.2232 56.3332 8.6292C56.3332 6.85715 57.964 5.85982 60.0687 5.85982C61.4245 5.85982 62.6381 6.15368 63.5388 6.89277L62.3157 8.03258C61.6995 7.56954 60.8746 7.39144 60.0593 7.39144C58.7793 7.39144 58.22 7.85449 58.22 8.55796C58.22 9.17239 58.5992 9.49296 59.5283 9.57311L61.0453 9.69777C62.8182 9.85806 63.899 10.615 63.899 12.2534C63.899 14.1323 62.2114 15.1119 59.8981 15.1119Z" fill="#1F1F1F"/>
<path d="M69.4747 15.1119C68.5266 15.1119 67.7113 14.8447 67.0855 14.257C66.3839 13.5981 66.1374 12.7343 66.1374 11.7459V5.96668H68.0716V11.4787C68.0716 12.8857 68.9343 13.4823 70.0246 13.4823C71.1149 13.4823 72.0061 12.8768 72.0061 11.4787V5.96668H73.9403V15.005H72.0346V14.0967C71.7596 14.3817 71.4183 14.6132 71.0865 14.7735C70.603 14.9961 70.072 15.1119 69.4747 15.1119Z" fill="#1F1F1F"/>
<path d="M80.8302 15.1119C79.465 15.1119 78.4884 14.7646 77.7679 14.0967C76.9905 13.3576 76.5259 12.1911 76.5259 10.4903C76.5259 8.87854 76.9999 7.64968 77.8437 6.85716C78.5453 6.1982 79.4745 5.85982 80.5932 5.85982C81.7499 5.85982 82.6695 6.1893 83.3522 6.83935C84.2149 7.64968 84.6795 8.86963 84.6795 10.6328V11.0246H78.4316C78.4316 11.8616 78.6781 12.5206 79.1426 12.9569C79.5598 13.3487 80.1381 13.5624 80.8776 13.5624C81.9585 13.5624 82.5273 13.2686 83.21 12.6274L84.452 13.7049C83.4659 14.6221 82.5178 15.1119 80.8302 15.1119ZM78.4316 9.7423H82.7549C82.7264 9.08335 82.5842 8.41549 82.0533 7.91682C81.712 7.59625 81.2379 7.39144 80.5932 7.39144C79.958 7.39144 79.4745 7.59625 79.1332 7.91682C78.6117 8.41549 78.4695 9.08335 78.4316 9.7423Z" fill="#1F1F1F"/>
<path d="M95.9386 15.1119C93.1417 15.1119 91.5773 13.6426 91.5773 11.3452C91.5773 9.61763 92.8573 8.6203 94.2415 7.75654C93.6442 7.08868 92.8478 6.1982 92.8478 5.03168C92.8478 3.40211 94.1467 2.21777 96.1472 2.21777C98.0528 2.21777 99.3612 3.42882 99.3612 5.04949C99.3612 6.12696 98.7165 6.77701 97.7305 7.41815L96.9246 7.93463L99.7689 11.1314C100.271 10.4725 100.461 9.72449 100.48 8.56687H102.367C102.3 10.1875 101.912 11.4787 101.001 12.485L103.248 15.005H100.764L99.6646 13.7673C99.0578 14.2659 97.9391 15.1119 95.9386 15.1119ZM93.4925 11.3095C93.4925 12.5651 94.5259 13.4556 95.9291 13.4556C96.8298 13.4556 97.6167 13.2063 98.5079 12.4761L95.3128 8.90525C94.2415 9.57311 93.4925 10.1786 93.4925 11.3095ZM94.8103 5.04058C94.8103 5.53035 95.0948 5.96668 95.8627 6.78592L96.2514 6.54549C96.9815 6.08244 97.484 5.68173 97.484 5.05839C97.484 4.3282 96.9436 3.79392 96.1472 3.79392C95.3128 3.79392 94.8103 4.3193 94.8103 5.04058Z" fill="#1F1F1F"/>
<path d="M34.4155 36.5639V23.8835H36.4729V29.2976H41.9339V23.8835H43.9913V36.5639H41.9339V31.0251H36.4729V36.5639H34.4155Z" fill="#1F1F1F"/>
<path d="M46.8148 40.2594V38.6298H47.3078C48.1327 38.6298 48.4171 38.3983 48.692 37.6592L49.2704 36.1276L45.9046 27.5256H47.962L50.2469 33.8747L52.5034 27.5256H54.5608L50.2564 38.5319C49.7729 39.7607 48.9386 40.2594 47.5259 40.2594H46.8148Z" fill="#1F1F1F"/>
<path d="M59.2332 40.3128C57.7826 40.3128 56.9009 40.0011 55.8865 39.1285L57.119 37.9798C57.7258 38.5141 58.2283 38.7723 59.1763 38.7723C59.9253 38.7723 60.4563 38.5586 60.8166 38.2202C61.2622 37.8017 61.4707 37.1961 61.4707 36.4749V35.3261C60.7407 36.1365 59.9443 36.3502 58.9867 36.3502C57.9912 36.3502 57.2043 36.0385 56.6829 35.5488C55.7537 34.6761 55.6115 33.4205 55.6115 31.8889C55.6115 30.3573 55.7537 29.0928 56.6829 28.2201C57.2043 27.7304 58.0007 27.4187 58.9962 27.4187C60.0391 27.4187 60.7786 27.677 61.5087 28.4873V27.5256H63.4049V36.5105C63.4049 37.6147 63.0161 38.5675 62.2956 39.2442C61.5371 39.9566 60.5321 40.3128 59.2332 40.3128ZM57.5456 31.8889C57.5456 32.5924 57.593 33.3226 57.8869 33.8658C58.1903 34.4446 58.7497 34.7206 59.5082 34.7206C60.0865 34.7206 60.5037 34.5603 60.8071 34.2843C61.3664 33.7589 61.4707 32.8417 61.4707 31.9156V31.8533C61.4707 30.9272 61.3664 30.01 60.8071 29.4935C60.5037 29.2086 60.0865 29.0483 59.5082 29.0483C58.7497 29.0483 58.1903 29.3243 57.8869 29.9031C57.593 30.4463 57.5456 31.1765 57.5456 31.8889Z" fill="#1F1F1F"/>
<path d="M66.4825 36.5639V27.7037H68.4166V36.5639H66.4825ZM66.4256 25.4597V23.839H68.4829V25.4597H66.4256Z" fill="#1F1F1F"/>
<path d="M75.312 36.6708C73.9468 36.6708 72.9702 36.3235 72.2497 35.6556C71.4722 34.9165 71.0077 33.75 71.0077 32.0492C71.0077 30.4374 71.4817 29.2086 72.3255 28.4161C73.0271 27.7571 73.9563 27.4187 75.075 27.4187C76.2317 27.4187 77.1513 27.7482 77.834 28.3982C78.6967 29.2086 79.1613 30.4285 79.1613 32.1917V32.5835H72.9134C72.9134 33.4205 73.1599 34.0795 73.6244 34.5158C74.0416 34.9076 74.6199 35.1213 75.3594 35.1213C76.4403 35.1213 77.0091 34.8275 77.6918 34.1863L78.9338 35.2638C77.9477 36.181 76.9996 36.6708 75.312 36.6708ZM72.9134 31.3012H77.2367C77.2082 30.6422 77.066 29.9744 76.5351 29.4757C76.1938 29.1551 75.7197 28.9503 75.075 28.9503C74.4398 28.9503 73.9563 29.1551 73.6149 29.4757C73.0935 29.9744 72.9513 30.6422 72.9134 31.3012Z" fill="#1F1F1F"/>
<path d="M81.7409 36.5639V27.5256H83.6465V28.4428C83.9215 28.1489 84.2628 27.9174 84.5946 27.7571C85.0781 27.5345 85.6091 27.4187 86.2064 27.4187C87.1545 27.4187 87.9698 27.6859 88.5956 28.2736C89.2972 28.9325 89.5437 29.8052 89.5437 30.7936V36.5639H87.6096V31.0519C87.6096 29.6449 86.7563 29.0483 85.6565 29.0483C84.5662 29.0483 83.675 29.6538 83.675 31.0519V36.5639H81.7409Z" fill="#1F1F1F"/>
<path d="M96.3294 36.6708C94.9641 36.6708 93.9876 36.3235 93.267 35.6556C92.4896 34.9165 92.025 33.75 92.025 32.0492C92.025 30.4374 92.4991 29.2086 93.3429 28.4161C94.0445 27.7571 94.9736 27.4187 96.0923 27.4187C97.249 27.4187 98.1687 27.7482 98.8513 28.3982C99.7141 29.2086 100.179 30.4285 100.179 32.1917V32.5835H93.9307C93.9307 33.4205 94.1772 34.0795 94.6418 34.5158C95.0589 34.9076 95.6373 35.1213 96.3768 35.1213C97.4576 35.1213 98.0265 34.8275 98.7091 34.1863L99.9511 35.2638C98.9651 36.181 98.017 36.6708 96.3294 36.6708ZM93.9307 31.3012H98.254C98.2256 30.6422 98.0833 29.9744 97.5524 29.4757C97.2111 29.1551 96.737 28.9503 96.0923 28.9503C95.4571 28.9503 94.9736 29.1551 94.6323 29.4757C94.1108 29.9744 93.9686 30.6422 93.9307 31.3012Z" fill="#1F1F1F"/>
</svg>
