<svg width="136" height="92" viewBox="0 0 136 92" fill="none" xmlns="http://www.w3.org/2000/svg">
<path d="M36.7374 15.005V4.0432H33.0303V2.32458H42.5113V4.0432H38.7948V15.005H36.7374Z" fill="#1F1F1F"/>
<path d="M46.9226 15.1118C45.7564 15.1118 44.8083 14.7556 44.0783 14.07C43.0923 13.135 42.9216 11.9061 42.9216 10.4903C42.9216 9.06549 43.0923 7.83663 44.0878 6.89273C44.8083 6.21597 45.7564 5.85978 46.9226 5.85978C48.0793 5.85978 49.0274 6.21597 49.7574 6.89273C50.7529 7.83663 50.9236 9.06549 50.9236 10.4903C50.9236 11.9061 50.7529 13.135 49.7574 14.07C49.0274 14.7556 48.0793 15.1118 46.9226 15.1118ZM44.8557 10.4903C44.8557 11.4609 44.9126 12.4048 45.5004 12.9569C45.8702 13.3042 46.3443 13.4823 46.9226 13.4823C47.5009 13.4823 47.975 13.3042 48.3353 12.9569C48.9326 12.4048 48.9894 11.4609 48.9894 10.4903C48.9894 9.51073 48.9326 8.57573 48.3353 8.01473C47.975 7.66744 47.5009 7.48935 46.9226 7.48935C46.3443 7.48935 45.8702 7.66744 45.5004 8.01473C44.9126 8.57573 44.8557 9.51073 44.8557 10.4903Z" fill="#1F1F1F"/>
<path d="M57.9984 15.1118C56.946 15.1118 56.1781 14.8536 55.448 14.0433V15.005H53.5518V2.32458H55.486V6.89273C56.197 6.1002 56.9745 5.85978 58.0079 5.85978C59.0034 5.85978 59.7998 6.17144 60.3307 6.6612C61.2693 7.55168 61.421 8.99425 61.421 10.4903C61.421 11.9773 61.2693 13.4199 60.3307 14.3104C59.7998 14.8002 58.9939 15.1118 57.9984 15.1118ZM55.486 10.517C55.486 11.6657 55.6282 12.5294 56.1781 13.0459C56.472 13.322 56.8891 13.4823 57.4864 13.4823C58.2734 13.4823 58.8233 13.1973 59.1266 12.6185C59.4206 12.0664 59.4869 11.3095 59.4869 10.4903C59.4869 9.66211 59.4206 8.9052 59.1266 8.36201C58.8233 7.7743 58.2734 7.48935 57.4864 7.48935C56.8891 7.48935 56.472 7.64963 56.1781 7.93459C55.6282 8.45106 55.486 9.31482 55.486 10.4635V10.517Z" fill="#1F1F1F"/>
<path d="M66.6305 15.1029C65.4549 15.1029 64.6585 14.8536 64.0707 14.2926C63.5682 13.8295 63.3122 13.1083 63.3122 12.3603C63.3122 11.6657 63.5492 11.0513 64.0422 10.5882C64.6395 10.0272 65.4454 9.74225 66.621 9.74225H69.1809V9.10111C69.1809 8.56682 69.0576 8.16611 68.7543 7.88116C68.4224 7.56058 67.882 7.4092 67.1235 7.4092C66.0522 7.4092 65.5023 7.68525 64.9619 8.32639L63.7009 7.18659C64.6016 6.18925 65.5592 5.85978 67.1425 5.85978C68.5836 5.85978 69.6265 6.18035 70.2902 6.80368C70.8401 7.32016 71.115 8.04144 71.115 8.97644V15.005H69.2188V14.1768C68.9344 14.4529 68.65 14.6577 68.3371 14.8002C67.882 15.0139 67.3511 15.1029 66.6305 15.1029ZM65.1894 12.3246C65.1894 13.1617 65.7393 13.598 66.9908 13.598C67.7208 13.598 68.3181 13.4912 68.7637 13.0726C69.0861 12.761 69.1809 12.289 69.1809 11.7636V11.0245H66.9244C66.2608 11.0245 65.8246 11.1492 65.5307 11.4342C65.2937 11.6568 65.1894 11.9506 65.1894 12.3246Z" fill="#1F1F1F"/>
<path d="M77.8995 15.1118C76.686 15.1118 75.662 14.7645 74.913 14.0611C74.1071 13.3131 73.6236 12.1465 73.6236 10.4903C73.6236 8.82506 74.1071 7.65854 74.913 6.91054C75.662 6.20706 76.686 5.85978 77.8995 5.85978C79.2268 5.85978 80.156 6.23378 81.0662 7.14206L79.7483 8.3442C79.1415 7.72978 78.658 7.48935 77.8995 7.48935C77.2453 7.48935 76.7334 7.67635 76.3162 8.06816C75.7284 8.62025 75.5577 9.43058 75.5577 10.4903C75.5577 11.541 75.7284 12.3513 76.3162 12.9034C76.7334 13.3042 77.2453 13.4823 77.8995 13.4823C78.658 13.4823 79.1415 13.2418 79.7483 12.6274L81.0662 13.8384C80.156 14.7467 79.2268 15.1118 77.8995 15.1118Z" fill="#1F1F1F"/>
<path d="M86.862 15.1118C85.6484 15.1118 84.6245 14.7645 83.8755 14.0611C83.0696 13.3131 82.5861 12.1465 82.5861 10.4903C82.5861 8.82506 83.0696 7.65854 83.8755 6.91054C84.6245 6.20706 85.6484 5.85978 86.862 5.85978C88.1893 5.85978 89.1184 6.23378 90.0286 7.14206L88.7108 8.3442C88.104 7.72978 87.6205 7.48935 86.862 7.48935C86.2078 7.48935 85.6958 7.67635 85.2787 8.06816C84.6908 8.62025 84.5202 9.43058 84.5202 10.4903C84.5202 11.541 84.6908 12.3513 85.2787 12.9034C85.6958 13.3042 86.2078 13.4823 86.862 13.4823C87.6205 13.4823 88.104 13.2418 88.7108 12.6274L90.0286 13.8384C89.1184 14.7467 88.1893 15.1118 86.862 15.1118Z" fill="#1F1F1F"/>
<path d="M95.5495 15.1118C94.3833 15.1118 93.4352 14.7556 92.7052 14.07C91.7192 13.135 91.5485 11.9061 91.5485 10.4903C91.5485 9.06549 91.7192 7.83663 92.7147 6.89273C93.4352 6.21597 94.3833 5.85978 95.5495 5.85978C96.7062 5.85978 97.6543 6.21597 98.3843 6.89273C99.3798 7.83663 99.5504 9.06549 99.5504 10.4903C99.5504 11.9061 99.3798 13.135 98.3843 14.07C97.6543 14.7556 96.7062 15.1118 95.5495 15.1118ZM93.4826 10.4903C93.4826 11.4609 93.5395 12.4048 94.1273 12.9569C94.4971 13.3042 94.9712 13.4823 95.5495 13.4823C96.1278 13.4823 96.6019 13.3042 96.9621 12.9569C97.5594 12.4048 97.6163 11.4609 97.6163 10.4903C97.6163 9.51073 97.5594 8.57573 96.9621 8.01473C96.6019 7.66744 96.1278 7.48935 95.5495 7.48935C94.9712 7.48935 94.4971 7.66744 94.1273 8.01473C93.5395 8.57573 93.4826 9.51073 93.4826 10.4903Z" fill="#1F1F1F"/>
</svg>
