<svg width="169" height="212" viewBox="0 0 169 212" fill="none" xmlns="http://www.w3.org/2000/svg">
<rect width="169" height="212" fill="white"/>
<path d="M55.1 164V152.305H51.3855V150.472H60.8855V152.305H57.1615V164H55.1ZM65.3057 164.114C64.1372 164.114 63.1872 163.734 62.4557 163.002C61.4677 162.005 61.2967 160.694 61.2967 159.183C61.2967 157.663 61.4677 156.352 62.4652 155.345C63.1872 154.623 64.1372 154.243 65.3057 154.243C66.4647 154.243 67.4147 154.623 68.1462 155.345C69.1437 156.352 69.3147 157.663 69.3147 159.183C69.3147 160.694 69.1437 162.005 68.1462 163.002C67.4147 163.734 66.4647 164.114 65.3057 164.114ZM63.2347 159.183C63.2347 160.219 63.2917 161.226 63.8807 161.815C64.2512 162.185 64.7262 162.375 65.3057 162.375C65.8852 162.375 66.3602 162.185 66.7212 161.815C67.3197 161.226 67.3767 160.219 67.3767 159.183C67.3767 158.138 67.3197 157.141 66.7212 156.542C66.3602 156.172 65.8852 155.982 65.3057 155.982C64.7262 155.982 64.2512 156.172 63.8807 156.542C63.2917 157.141 63.2347 158.138 63.2347 159.183ZM76.4038 164.114C75.3493 164.114 74.5798 163.838 73.8483 162.974V164H71.9483V150.472H73.8863V155.345C74.5988 154.5 75.3778 154.243 76.4133 154.243C77.4108 154.243 78.2088 154.576 78.7408 155.098C79.6813 156.048 79.8333 157.587 79.8333 159.183C79.8333 160.77 79.6813 162.309 78.7408 163.259C78.2088 163.781 77.4013 164.114 76.4038 164.114ZM73.8863 159.212C73.8863 160.437 74.0288 161.359 74.5798 161.91C74.8743 162.204 75.2923 162.375 75.8908 162.375C76.6793 162.375 77.2303 162.071 77.5343 161.454C77.8288 160.865 77.8953 160.057 77.8953 159.183C77.8953 158.3 77.8288 157.492 77.5343 156.913C77.2303 156.286 76.6793 155.982 75.8908 155.982C75.2923 155.982 74.8743 156.153 74.5798 156.457C74.0288 157.008 73.8863 157.929 73.8863 159.155V159.212ZM85.0532 164.105C83.8752 164.105 83.0772 163.838 82.4882 163.24C81.9847 162.746 81.7282 161.976 81.7282 161.178C81.7282 160.437 81.9657 159.782 82.4597 159.288C83.0582 158.689 83.8657 158.385 85.0437 158.385H87.6087V157.701C87.6087 157.131 87.4852 156.704 87.1812 156.4C86.8487 156.058 86.3072 155.896 85.5472 155.896C84.4737 155.896 83.9227 156.191 83.3812 156.875L82.1177 155.659C83.0202 154.595 83.9797 154.243 85.5662 154.243C87.0102 154.243 88.0552 154.585 88.7202 155.25C89.2712 155.801 89.5467 156.571 89.5467 157.568V164H87.6467V163.116C87.3617 163.411 87.0767 163.629 86.7632 163.781C86.3072 164.01 85.7752 164.105 85.0532 164.105ZM83.6092 161.14C83.6092 162.033 84.1602 162.499 85.4142 162.499C86.1457 162.499 86.7442 162.385 87.1907 161.938C87.5137 161.606 87.6087 161.102 87.6087 160.542V159.753H85.3477C84.6827 159.753 84.2457 159.886 83.9512 160.19C83.7137 160.428 83.6092 160.741 83.6092 161.14ZM96.3449 164.114C95.1289 164.114 94.1029 163.743 93.3524 162.993C92.5449 162.195 92.0604 160.95 92.0604 159.183C92.0604 157.407 92.5449 156.162 93.3524 155.364C94.1029 154.614 95.1289 154.243 96.3449 154.243C97.6749 154.243 98.6059 154.642 99.5179 155.611L98.1974 156.894C97.5894 156.238 97.1049 155.982 96.3449 155.982C95.6894 155.982 95.1764 156.181 94.7584 156.599C94.1694 157.188 93.9984 158.053 93.9984 159.183C93.9984 160.304 94.1694 161.169 94.7584 161.758C95.1764 162.185 95.6894 162.375 96.3449 162.375C97.1049 162.375 97.5894 162.119 98.1974 161.463L99.5179 162.755C98.6059 163.724 97.6749 164.114 96.3449 164.114ZM105.325 164.114C104.109 164.114 103.083 163.743 102.333 162.993C101.525 162.195 101.041 160.95 101.041 159.183C101.041 157.407 101.525 156.162 102.333 155.364C103.083 154.614 104.109 154.243 105.325 154.243C106.655 154.243 107.586 154.642 108.498 155.611L107.178 156.894C106.57 156.238 106.085 155.982 105.325 155.982C104.67 155.982 104.157 156.181 103.739 156.599C103.15 157.188 102.979 158.053 102.979 159.183C102.979 160.304 103.15 161.169 103.739 161.758C104.157 162.185 104.67 162.375 105.325 162.375C106.085 162.375 106.57 162.119 107.178 161.463L108.498 162.755C107.586 163.724 106.655 164.114 105.325 164.114ZM114.03 164.114C112.862 164.114 111.912 163.734 111.18 163.002C110.192 162.005 110.021 160.694 110.021 159.183C110.021 157.663 110.192 156.352 111.19 155.345C111.912 154.623 112.862 154.243 114.03 154.243C115.189 154.243 116.139 154.623 116.871 155.345C117.868 156.352 118.039 157.663 118.039 159.183C118.039 160.694 117.868 162.005 116.871 163.002C116.139 163.734 115.189 164.114 114.03 164.114ZM111.959 159.183C111.959 160.219 112.016 161.226 112.605 161.815C112.976 162.185 113.451 162.375 114.03 162.375C114.61 162.375 115.085 162.185 115.446 161.815C116.044 161.226 116.101 160.219 116.101 159.183C116.101 158.138 116.044 157.141 115.446 156.542C115.085 156.172 114.61 155.982 114.03 155.982C113.451 155.982 112.976 156.172 112.605 156.542C112.016 157.141 111.959 158.138 111.959 159.183Z" fill="#1F1F1F"/>
<g clip-path="url(#clip0_2632_5046)">
<path d="M66.9817 123.775C66.5929 123.468 66.552 122.896 66.8794 122.507L71.6266 116.845L71.381 116.559C60.3519 103.23 63.5031 89.1861 63.6463 88.5933C63.7282 88.2867 63.9328 88.0414 64.2397 87.9596C64.5467 87.8574 64.8536 87.9187 65.0992 88.1231L67.5342 90.1469L67.5751 89.2066C67.8615 80.6207 74.2867 69.6226 74.5527 69.1525C74.7164 68.8867 75.0029 68.7232 75.3098 68.7232C75.5144 68.7232 75.719 68.7845 75.8827 68.9276C75.9646 68.9889 76.026 69.0707 76.0669 69.1525L77.5402 71.5442L77.929 70.9514C82.0419 64.7369 87.1574 60.3213 87.3825 60.1373C87.5871 59.9738 87.8531 59.892 88.0987 59.9329C88.2624 59.9533 88.4056 60.0351 88.5284 60.1373C88.6102 60.1986 88.6716 60.2804 88.7125 60.3622L90.3086 62.9584L90.7178 62.5086C96.1812 56.4781 99.6394 56.0284 100.008 55.9875C100.253 55.967 100.478 56.0488 100.662 56.1919C100.847 56.335 100.949 56.5599 100.969 56.8052L101.194 59.3809L108.377 56.2532C108.643 56.1306 108.95 56.151 109.195 56.2941L109.236 56.335C109.502 56.5599 109.604 56.7643 109.625 56.9892L109.87 59.8307L121.227 57.9295C121.493 57.8886 121.739 57.95 121.943 58.1339C122.148 58.3179 122.271 58.5428 122.271 58.8085L122.414 70.3177L125.258 70.0724C125.504 70.0519 125.729 70.1337 125.913 70.2768C126.199 70.5834 126.281 70.8901 126.199 71.1763L124.378 78.8013L126.956 78.5765C127.202 78.556 127.427 78.6378 127.611 78.7809C127.795 78.924 127.898 79.1489 127.918 79.3942C127.959 79.7621 128.102 83.2374 123.13 89.6768L122.762 90.1674L125.606 91.2917C125.606 91.2917 125.77 91.3735 125.851 91.4348C125.974 91.537 126.077 91.6801 126.117 91.8232C126.199 92.0685 126.179 92.3343 126.036 92.5592C125.892 92.8045 122.434 98.6306 117.053 103.762L116.541 104.252L119.16 105.274C119.16 105.274 119.324 105.356 119.406 105.417C119.57 105.561 119.672 105.745 119.713 105.949C119.774 106.256 119.651 106.562 119.406 106.787C118.997 107.135 109.277 115.393 100.867 117.172L99.9463 117.376L102.381 119.4C102.627 119.605 102.729 119.911 102.688 120.218C102.647 120.525 102.443 120.79 102.156 120.913C101.604 121.158 88.3033 126.739 73.2431 118.235L72.9157 118.051L68.1685 123.714C67.8615 124.102 67.2886 124.143 66.8998 123.836L66.9817 123.775ZM65.0582 91.3735C64.7104 95.2984 64.7308 105.479 72.4246 115.046L72.7725 115.475L77.622 109.69L77.356 109.404C73.8774 105.54 74.1639 99.6118 74.1639 99.3461C74.1844 98.8554 74.6141 98.467 75.1052 98.5079C75.2893 98.5079 75.4735 98.5897 75.6372 98.7123C75.8623 98.8963 75.9646 99.1621 75.9646 99.4483C75.9646 99.4892 75.719 104.559 78.42 107.891L78.7679 108.32L86.298 99.3256L86.032 99.0394C82.5739 95.1962 82.8399 89.227 82.8399 88.9817C82.8603 88.4911 83.2901 88.1231 83.7811 88.1436C83.9653 88.1436 84.1495 88.2253 84.3132 88.348C84.5382 88.532 84.6406 88.7977 84.6406 89.0839C84.6406 89.1248 84.395 94.1946 87.096 97.5267L87.4439 97.956L94.974 88.9613L94.708 88.6751C91.2498 84.8319 91.5159 78.8627 91.5159 78.6174C91.5363 78.1267 91.966 77.7588 92.4571 77.7792C92.6617 77.7792 92.8254 77.861 92.9891 77.9836C93.2142 78.1676 93.3165 78.4334 93.3165 78.7196C93.3165 78.7605 93.071 83.8302 95.772 87.1623L96.1199 87.5916L103.65 78.5969L103.384 78.3107C99.9054 74.4471 100.192 68.5187 100.192 68.253C100.212 67.7624 100.642 67.374 101.133 67.4149C101.317 67.4149 101.501 67.4966 101.665 67.6193C101.89 67.8033 101.993 68.069 101.993 68.3552C101.993 68.3961 101.747 73.4863 104.448 76.798L104.796 77.2273L112.019 68.621C112.326 68.253 112.899 68.1917 113.288 68.5187C113.676 68.8458 113.717 69.3978 113.39 69.7862L106.167 78.3925L106.658 78.6582C110.423 80.7434 115.375 79.5986 115.416 79.5986C115.682 79.5373 115.968 79.5986 116.193 79.7826C116.337 79.9052 116.439 80.0688 116.5 80.2732C116.603 80.7434 116.316 81.234 115.825 81.3566C115.579 81.418 109.768 82.7467 105.348 79.987L105.021 79.7826L97.4908 88.7773L97.9819 89.043C101.747 91.1282 106.699 89.9834 106.74 89.9834C107.006 89.9221 107.292 89.9834 107.517 90.1674C107.661 90.29 107.763 90.4536 107.824 90.658C107.927 91.1282 107.64 91.6188 107.149 91.721C106.903 91.7823 101.072 93.0907 96.6723 90.3514L96.3449 90.1469L88.8148 99.1416L89.3059 99.4074C93.071 101.472 98.0228 100.348 98.0638 100.348C98.3298 100.286 98.6162 100.348 98.8413 100.532C98.9846 100.654 99.0869 100.818 99.1483 101.022C99.2506 101.493 98.9641 101.983 98.473 102.106C98.2275 102.167 92.3957 103.475 87.9964 100.736L87.669 100.532L80.1389 109.526L80.63 109.792C84.395 111.877 89.3469 110.733 89.3878 110.733C89.6538 110.671 89.9403 110.733 90.1653 110.917C90.3086 111.039 90.4109 111.203 90.4723 111.407C90.5746 111.877 90.2881 112.368 89.797 112.491C89.5515 112.552 83.7402 113.881 79.3204 111.121L78.993 110.917L74.1434 116.702L74.6345 116.968C85.4181 122.855 95.4446 121.076 99.271 120.054L100.11 119.829L97.143 117.356C96.8565 117.111 96.7542 116.702 96.877 116.354C97.0202 116.007 97.3476 115.761 97.7364 115.782C103.895 115.925 112.142 110.303 116.5 106.93L117.135 106.44L114.577 105.438C114.577 105.438 114.413 105.356 114.331 105.295C114.168 105.152 114.065 104.968 114.024 104.763C113.963 104.457 114.086 104.13 114.331 103.925C118.731 100.164 122.086 95.5029 123.703 93.0702L124.01 92.6L121.022 91.4348C121.022 91.4348 120.859 91.353 120.777 91.2917C120.634 91.1691 120.531 91.0055 120.49 90.8215C120.429 90.5353 120.49 90.2491 120.674 90.0243C124.153 85.8744 125.463 82.9103 125.954 81.1522L126.138 80.5185L123.376 80.7638C123.13 80.7638 122.905 80.7025 122.721 80.5594C122.434 80.2528 122.373 79.9461 122.434 79.6804L124.255 72.0553L121.677 72.2802C121.452 72.3006 121.207 72.2188 121.022 72.0757C120.818 71.8918 120.695 71.6465 120.695 71.4011L120.572 59.9738L109.298 61.8545C109.052 61.8954 108.806 61.834 108.602 61.6705C108.397 61.4865 108.274 61.2821 108.254 61.0368L108.029 58.461L100.847 61.5887C100.581 61.7114 100.274 61.6909 100.028 61.5478C100.028 61.5478 99.9872 61.5274 99.9872 61.507C99.7212 61.2821 99.6189 61.0777 99.5984 60.8528L99.3529 58.0931L98.7595 58.3793C97.102 59.1765 94.4215 60.9959 90.9429 65.1253C90.7588 65.3502 90.4723 65.4728 90.1858 65.4524C90.0017 65.4524 89.8175 65.3706 89.6743 65.2479C89.5924 65.1866 89.531 65.1048 89.4901 65.0231L87.8122 62.3042L87.403 62.6926C85.2749 64.696 81.2848 68.8254 78.3587 73.8134C78.195 74.0791 77.9085 74.2427 77.6016 74.2631C77.3969 74.2631 77.1719 74.2018 77.0082 74.0587C76.9263 73.9973 76.8649 73.9156 76.824 73.8338L75.3712 71.4829L75.0029 72.1984C72.4451 77.0842 68.3526 86.1811 69.5804 92.2116C69.6622 92.5796 69.4781 92.968 69.1507 93.152C68.8233 93.3564 68.414 93.3155 68.1276 93.0702L65.1605 90.5967L65.0787 91.4757L65.0582 91.3735Z" fill="#1F1F1F"/>
<path d="M65.4061 69.0507C65.222 68.9894 65.0173 69.0098 64.8332 69.0711C64.383 69.2551 64.1375 69.7662 64.3216 70.2364C64.4035 70.4612 66.3474 75.2857 70.4398 77.6161C70.6854 77.0233 70.9105 76.4713 71.156 75.9194C67.7184 73.8342 66.02 69.6435 65.9995 69.5822C65.8972 69.3165 65.6721 69.1325 65.4061 69.0507Z" fill="#D70A32"/>
<path d="M79.9956 52.0624C79.525 51.9193 79.0339 52.2055 78.8907 52.6757L75.8623 63.4898L75.3712 63.2444C71.5243 61.3229 69.6622 56.6006 69.6417 56.5597C69.5394 56.294 69.3143 56.11 69.0483 56.0282C68.8642 55.9669 68.6596 55.9874 68.4754 56.0487C68.0252 56.2327 67.7797 56.7437 67.9638 57.2139C68.0457 57.4388 70.2556 62.9787 75.0028 65.0638L75.3712 65.2274L74.0207 70.0518C74.2867 69.5612 74.4913 69.2341 74.5322 69.1523C74.6959 68.8866 74.9824 68.723 75.2893 68.723C75.4939 68.723 75.6986 68.7844 75.8623 68.9275C75.9441 68.9888 76.0055 69.0706 76.0464 69.1523L76.1078 69.2341L77.09 65.6976L77.4788 65.7589C79.1771 65.9837 80.8141 65.718 82.2669 65.3091C83.4128 64.0008 84.4973 62.856 85.3567 62.0179C83.863 62.9174 81.0597 64.287 78.1131 64.0417L77.5606 64.0008L80.589 53.1867C80.7118 52.7166 80.4458 52.2259 79.9752 52.0828L79.9956 52.0624Z" fill="#D70A32"/>
<path d="M61.7434 82.0722C61.5592 82.0109 61.3546 82.0313 61.1705 82.0926C60.7203 82.2766 60.4747 82.7877 60.6589 83.2374C60.7203 83.4009 61.7434 85.9154 63.8101 88.2049C63.9124 88.0823 64.0352 88.0005 64.1989 87.9392C64.5058 87.837 64.8127 87.8983 65.0583 88.1027L67.4933 90.1265L67.5342 89.1862C67.5342 89.1862 67.5342 89.0226 67.5342 88.9409C64.0556 86.8762 62.3368 82.6241 62.3163 82.5832C62.214 82.3175 61.989 82.1335 61.7229 82.0517L61.7434 82.0722Z" fill="#D70A32"/>
<path d="M69.3552 113.901C68.946 113.328 68.5981 112.736 68.2503 112.163C67.1044 112.204 65.938 112.184 64.7103 112.102L64.1578 112.061L65.5902 106.909C64.9354 105.254 64.4238 103.639 64.0555 102.105C60.4951 100.061 58.7353 95.7069 58.7149 95.666C58.6126 95.4003 58.3875 95.2163 58.1215 95.1345C57.9373 95.0732 57.7327 95.0936 57.5485 95.1549C57.0984 95.3389 56.8528 95.85 57.037 96.3202C57.1188 96.5655 59.3287 102.085 64.076 104.17L64.4443 104.334L62.4185 111.611L61.9274 111.366C50.9802 105.806 46.7649 96.545 45.4554 92.8245L45.1689 92.0068L48.893 93.0494C49.2613 93.1516 49.6501 93.0085 49.8752 92.7018C50.1003 92.3952 50.0798 91.9659 49.8752 91.6593C46.2738 86.6713 46.2534 76.6953 46.5603 71.1963L46.6012 70.3991L48.893 71.9322C48.893 71.9322 49.0567 72.0345 49.159 72.0549C49.3636 72.1162 49.5887 72.0958 49.7729 71.9936C50.0594 71.8709 50.2435 71.5847 50.2844 71.2781C50.8983 65.5337 52.8422 60.1165 53.9472 57.4181L54.1518 56.8865L56.8119 58.6855C56.8119 58.6855 56.9756 58.7877 57.0779 58.8081C57.262 58.8695 57.4462 58.849 57.6304 58.8081C57.8964 58.7059 58.101 58.4811 58.1828 58.2153C59.6357 53.0025 61.334 50.2427 62.5208 48.8526L62.9505 48.3416L64.3215 50.7538C64.4238 50.9582 64.608 51.1013 64.9354 51.1831C64.9354 51.1831 64.9763 51.1831 64.9968 51.1831C65.2832 51.224 65.5697 51.1013 65.7539 50.8969L71.0126 45.0912L72.2813 47.3399C72.4041 47.5443 72.5882 47.6874 72.8542 47.7692C73.0998 47.8305 73.3453 47.7692 73.55 47.6465L83.0444 41.2889L87.8735 51.6328C87.9758 51.8577 88.1804 52.0212 88.4464 52.1234C88.6715 52.1848 88.9171 52.1643 89.1217 52.0417L91.3725 50.7742L92.8663 58.4606C92.9277 58.7468 93.1118 58.9717 93.5006 59.1557C93.7462 59.217 93.9712 59.1966 94.1963 59.0739L94.8716 58.6855C96.2016 57.6634 97.3066 57.0296 98.1455 56.6412C98.0228 56.2733 97.9204 56.0484 97.8795 55.9871C97.7567 55.7827 97.5726 55.6191 97.3475 55.5578C97.1224 55.4965 96.8769 55.5169 96.6723 55.6396L94.4214 56.907L92.9277 49.2206C92.8663 48.9344 92.6821 48.7095 92.2933 48.5256C92.0683 48.4642 91.8227 48.4847 91.6181 48.6073L89.1217 50.0179L84.1903 39.5104C84.088 39.2651 83.8629 39.1016 83.6174 39.0198C83.3718 38.9585 83.1058 38.9993 82.8807 39.1424L73.3044 45.5409L71.8925 43.047C71.7902 42.8425 71.6061 42.6994 71.2582 42.6177C71.2582 42.6177 71.2173 42.6177 71.1968 42.6177C70.9103 42.5768 70.6239 42.6994 70.4397 42.9039L65.1809 48.7095L63.9123 46.4609C63.7895 46.2564 63.6053 46.0929 63.3802 46.0316C63.1552 45.9702 62.9096 45.9907 62.705 46.1133C62.3776 46.2973 59.431 48.1371 56.9347 55.8849L56.7505 56.4573L54.2336 54.7401C54.2336 54.7401 54.0699 54.6379 53.9676 54.6174C53.8039 54.5765 53.6402 54.5765 53.497 54.6174C53.2515 54.6788 53.0468 54.8627 52.9241 55.108C52.8013 55.3738 49.957 61.5066 48.7702 68.8454L48.6475 69.5609L46.3148 67.9868C46.3148 67.9868 46.1511 67.8846 46.0488 67.8642C45.8441 67.8029 45.6191 67.8233 45.4349 67.9051C45.1484 68.0277 44.9643 68.3139 44.9233 68.6206C44.862 69.1521 43.5524 81.8469 46.8263 89.7786L47.1742 90.6371L44.1253 89.7786C43.8184 89.6968 43.5114 89.7786 43.2864 89.983C43.0613 90.1874 42.959 90.494 43.0204 90.8007C43.1431 91.3935 46.0488 105.519 61.6 113.103L61.9479 113.267L59.9631 120.381C59.8403 120.851 60.1063 121.342 60.5769 121.485C61.0476 121.608 61.5386 121.342 61.6819 120.872L63.6667 113.758L64.035 113.799C65.8971 113.962 67.6568 113.962 69.3552 113.88V113.901Z" fill="#D70A32"/>
</g>
<defs>
<clipPath id="clip0_2632_5046">
<rect width="85" height="85" fill="white" transform="translate(43 39)"/>
</clipPath>
</defs>
</svg>
