<svg width="136" height="121" viewBox="0 0 136 121" fill="none" xmlns="http://www.w3.org/2000/svg">
<path d="M49.8525 118.775C49.4637 118.468 49.4228 117.896 49.7502 117.508L54.4974 111.845L54.2519 111.559C43.2228 98.2304 46.3739 84.1864 46.5172 83.5935C46.599 83.2869 46.8037 83.0416 47.1106 82.9598C47.4175 82.8576 47.7245 82.9189 47.97 83.1234L50.405 85.1472L50.4459 84.2068C50.7324 75.621 57.1575 64.6229 57.4235 64.1527C57.5872 63.887 57.8737 63.7234 58.1806 63.7234C58.3853 63.7234 58.5899 63.7847 58.7536 63.9278C58.8354 63.9892 58.8968 64.0709 58.9377 64.1527L60.411 66.5445L60.7998 65.9517C64.9127 59.7371 70.0283 55.3215 70.2533 55.1376C70.458 54.974 70.724 54.8922 70.9695 54.9331C71.1332 54.9536 71.2765 55.0353 71.3992 55.1376C71.4811 55.1989 71.5425 55.2807 71.5834 55.3624L73.1794 57.9586L73.5887 57.5089C79.0521 51.4783 82.5102 51.0286 82.8785 50.9877C83.1241 50.9673 83.3492 51.0491 83.5333 51.1922C83.7175 51.3352 83.8198 51.5601 83.8402 51.8054L84.0653 54.3812L91.2476 51.2535C91.5136 51.1308 91.8205 51.1513 92.066 51.2944L92.107 51.3352C92.373 51.5601 92.4753 51.7645 92.4958 51.9894L92.7413 54.8309L104.098 52.9298C104.364 52.8889 104.609 52.9502 104.814 53.1342C105.019 53.3182 105.141 53.543 105.141 53.8088L105.285 65.3179L108.129 65.0726C108.374 65.0522 108.6 65.134 108.784 65.277C109.07 65.5837 109.152 65.8903 109.07 66.1765L107.249 73.8016L109.827 73.5767C110.073 73.5563 110.298 73.638 110.482 73.7811C110.666 73.9242 110.769 74.1491 110.789 74.3944C110.83 74.7624 110.973 78.2376 106.001 84.677L105.632 85.1676L108.477 86.292C108.477 86.292 108.64 86.3737 108.722 86.4351C108.845 86.5373 108.947 86.6804 108.988 86.8235C109.07 87.0688 109.05 87.3345 108.906 87.5594C108.763 87.8047 105.305 93.6308 99.9235 98.7619L99.412 99.2525L102.031 100.275C102.031 100.275 102.195 100.356 102.277 100.418C102.44 100.561 102.543 100.745 102.584 100.949C102.645 101.256 102.522 101.563 102.277 101.787C101.867 102.135 92.1479 110.394 83.7379 112.172L82.8171 112.377L85.2521 114.4C85.4977 114.605 85.6 114.911 85.5591 115.218C85.5181 115.525 85.3135 115.791 85.0271 115.913C84.4746 116.158 71.1741 121.739 56.114 113.235L55.7866 113.051L51.0393 118.714C50.7324 119.102 50.1595 119.143 49.7707 118.836L49.8525 118.775ZM47.9291 86.3737C47.5812 90.2987 47.6017 100.479 55.2955 110.046L55.6433 110.475L60.4929 104.69L60.2269 104.404C56.7483 100.54 57.0348 94.6121 57.0348 94.3463C57.0552 93.8557 57.4849 93.4673 57.976 93.5082C58.1602 93.5082 58.3443 93.5899 58.508 93.7126C58.7331 93.8966 58.8354 94.1623 58.8354 94.4485C58.8354 94.4894 58.5899 99.5592 61.2909 102.891L61.6388 103.321L69.1688 94.3259L68.9028 94.0397C65.4447 90.1965 65.7107 84.2273 65.7107 83.982C65.7312 83.4913 66.1609 83.1234 66.652 83.1438C66.8362 83.1438 67.0203 83.2256 67.184 83.3482C67.4091 83.5322 67.5114 83.798 67.5114 84.0842C67.5114 84.1251 67.2659 89.1948 69.9669 92.5269L70.3147 92.9562L77.8448 83.9615L77.5788 83.6753C74.1207 79.8321 74.3867 73.8629 74.3867 73.6176C74.4072 73.127 74.8369 72.759 75.328 72.7795C75.5326 72.7795 75.6963 72.8612 75.86 72.9839C76.0851 73.1679 76.1874 73.4336 76.1874 73.7198C76.1874 73.7607 75.9418 78.8304 78.6428 82.1626L78.9907 82.5919L86.5208 73.5972L86.2548 73.311C82.7762 69.4473 83.0627 63.519 83.0627 63.2532C83.0831 62.7626 83.5128 62.3742 84.0039 62.4151C84.1881 62.4151 84.3723 62.4969 84.536 62.6195C84.761 62.8035 84.8634 63.0693 84.8634 63.3555C84.8634 63.3963 84.6178 68.4865 87.3188 71.7982L87.6667 72.2275L94.8898 63.6212C95.1968 63.2532 95.7697 63.1919 96.1585 63.519C96.5473 63.8461 96.5882 64.398 96.2608 64.7864L89.0376 73.3927L89.5287 73.6585C93.2938 75.7436 98.2456 74.5988 98.2866 74.5988C98.5526 74.5375 98.839 74.5988 99.0641 74.7828C99.2074 74.9055 99.3097 75.069 99.3711 75.2734C99.4734 75.7436 99.1869 76.2342 98.6958 76.3569C98.4503 76.4182 92.639 77.747 88.2192 74.9872L87.8918 74.7828L80.3617 83.7775L80.8528 84.0433C84.6178 86.1284 89.5697 84.9836 89.6106 84.9836C89.8766 84.9223 90.1631 84.9836 90.3882 85.1676C90.5314 85.2903 90.6337 85.4538 90.6951 85.6582C90.7974 86.1284 90.5109 86.619 90.0198 86.7213C89.7743 86.7826 83.9426 88.0909 79.5432 85.3516L79.2158 85.1472L71.6857 94.1419L72.1768 94.4076C75.9418 96.4723 80.8937 95.348 80.9346 95.348C81.2006 95.2867 81.4871 95.348 81.7122 95.532C81.8554 95.6546 81.9577 95.8182 82.0191 96.0226C82.1214 96.4928 81.835 96.9834 81.3439 97.1061C81.0983 97.1674 75.2666 98.4757 70.8672 95.7364L70.5398 95.532L63.0097 104.527L63.5008 104.792C67.2659 106.878 72.2177 105.733 72.2586 105.733C72.5246 105.671 72.8111 105.733 73.0362 105.917C73.1794 106.039 73.2817 106.203 73.3431 106.407C73.4454 106.878 73.159 107.368 72.6679 107.491C72.4223 107.552 66.6111 108.881 62.1912 106.121L61.8638 105.917L57.0143 111.702L57.5054 111.968C68.289 117.855 78.3155 116.077 82.1419 115.055L82.9808 114.83L80.0138 112.356C79.7273 112.111 79.625 111.702 79.7478 111.354C79.891 111.007 80.2184 110.762 80.6072 110.782C86.7663 110.925 95.0126 105.304 99.3711 101.93L100.005 101.44L97.4476 100.438C97.4476 100.438 97.2839 100.356 97.2021 100.295C97.0384 100.152 96.9361 99.968 96.8951 99.7636C96.8337 99.4569 96.9565 99.1299 97.2021 98.9254C101.601 95.164 104.957 90.5031 106.574 88.0705L106.881 87.6003L103.893 86.4351C103.893 86.4351 103.73 86.3533 103.648 86.292C103.504 86.1693 103.402 86.0058 103.361 85.8218C103.3 85.5356 103.361 85.2494 103.545 85.0245C107.024 80.8747 108.334 77.9105 108.825 76.1525L109.009 75.5187L106.246 75.7641C106.001 75.7641 105.776 75.7027 105.592 75.5596C105.305 75.253 105.244 74.9464 105.305 74.6806L107.126 67.0555L104.548 67.2804C104.323 67.3009 104.077 67.2191 103.893 67.076C103.689 66.892 103.566 66.6467 103.566 66.4014L103.443 54.974L92.1684 56.8547C91.9228 56.8956 91.6773 56.8343 91.4727 56.6707C91.268 56.4868 91.1453 56.2823 91.1248 56.037L90.8997 53.4613L83.7175 56.589C83.4515 56.7116 83.1445 56.6912 82.899 56.5481C82.899 56.5481 82.8581 56.5277 82.8581 56.5072C82.5921 56.2823 82.4897 56.0779 82.4693 55.853L82.2237 53.0933L81.6303 53.3795C79.9729 54.1768 77.2923 55.9961 73.8138 60.1255C73.6296 60.3504 73.3431 60.4731 73.0567 60.4526C72.8725 60.4526 72.6883 60.3708 72.5451 60.2482C72.4633 60.1869 72.4019 60.1051 72.3609 60.0233L70.683 57.3045L70.2738 57.6929C68.1457 59.6962 64.1556 63.8256 61.2295 68.8136C61.0658 69.0794 60.7793 69.2429 60.4724 69.2633C60.2678 69.2633 60.0427 69.202 59.879 69.0589C59.7972 68.9976 59.7358 68.9158 59.6948 68.834L58.242 66.4832L57.8737 67.1986C55.3159 72.0844 51.2235 81.1813 52.4512 87.2119C52.5331 87.5798 52.3489 87.9682 52.0215 88.1522C51.6941 88.3567 51.2849 88.3158 50.9984 88.0705L48.0314 85.5969L47.9495 86.4759L47.9291 86.3737Z" fill="#1F1F1F"/>
<path d="M48.277 64.0505C48.0928 63.9892 47.8882 64.0096 47.704 64.071C47.2539 64.2549 47.0083 64.766 47.1925 65.2362C47.2743 65.4611 49.2182 70.2855 53.3107 72.6159C53.5562 72.0231 53.7813 71.4712 54.0269 70.9192C50.5892 68.8341 48.8908 64.6434 48.8704 64.582C48.7681 64.3163 48.543 64.1323 48.277 64.0505Z" fill="#D70A32"/>
<path d="M62.8665 47.0628C62.3959 46.9197 61.9048 47.2059 61.7616 47.676L58.7332 58.4901L58.2421 58.2448C54.3952 56.3232 52.5331 51.601 52.5127 51.5601C52.4103 51.2944 52.1853 51.1104 51.9192 51.0286C51.7351 50.9673 51.5305 50.9877 51.3463 51.049C50.8961 51.233 50.6506 51.7441 50.8348 52.2143C50.9166 52.4391 53.1265 57.9791 57.8738 60.0642L58.2421 60.2277L56.8916 65.0522C57.1576 64.5616 57.3622 64.2345 57.4031 64.1527C57.5668 63.8869 57.8533 63.7234 58.1602 63.7234C58.3648 63.7234 58.5695 63.7847 58.7332 63.9278C58.815 63.9892 58.8764 64.0709 58.9173 64.1527L58.9787 64.2345L59.9609 60.6979L60.3497 60.7592C62.048 60.9841 63.685 60.7184 65.1378 60.3095C66.2837 59.0012 67.3682 57.8564 68.2276 57.0183C66.7339 57.9177 63.9306 59.2874 60.984 59.0421L60.4315 59.0012L63.4599 48.1871C63.5827 47.7169 63.3167 47.2263 62.8461 47.0832L62.8665 47.0628Z" fill="#D70A32"/>
<path d="M44.6143 77.0724C44.4301 77.011 44.2255 77.0315 44.0413 77.0928C43.5911 77.2768 43.3456 77.7879 43.5298 78.2376C43.5911 78.4011 44.6143 80.9156 46.6809 83.2051C46.7832 83.0825 46.906 83.0007 47.0697 82.9394C47.3767 82.8372 47.6836 82.8985 47.9291 83.1029L50.3641 85.1267L50.4051 84.1864C50.4051 84.1864 50.4051 84.0228 50.4051 83.9411C46.9265 81.8764 45.2077 77.6243 45.1872 77.5834C45.0849 77.3177 44.8598 77.1337 44.5938 77.0519L44.6143 77.0724Z" fill="#D70A32"/>
<path d="M52.2261 108.902C51.8168 108.329 51.469 107.736 51.1211 107.164C49.9752 107.205 48.8089 107.184 47.5811 107.103L47.0287 107.062L48.461 101.91C47.8062 100.254 47.2947 98.6394 46.9263 97.1063C43.3659 95.062 41.6062 90.7077 41.5857 90.6669C41.4834 90.4011 41.2583 90.2171 40.9923 90.1354C40.8081 90.074 40.6035 90.0945 40.4194 90.1558C39.9692 90.3398 39.7237 90.8508 39.9078 91.321C39.9897 91.5663 42.1996 97.0858 46.9468 99.1709L47.3151 99.3345L45.2894 106.612L44.7983 106.367C33.851 100.806 29.6358 91.5459 28.3262 87.8253L28.0397 87.0076L31.7639 88.0502C32.1322 88.1524 32.521 88.0093 32.746 87.7027C32.9711 87.3961 32.9507 86.9668 32.746 86.6601C29.1447 81.6722 29.1242 71.6962 29.4312 66.1972L29.4721 65.3999L31.7639 66.9331C31.7639 66.9331 31.9276 67.0353 32.0299 67.0558C32.2345 67.1171 32.4596 67.0966 32.6437 66.9944C32.9302 66.8718 33.1144 66.5856 33.1553 66.2789C33.7692 60.5346 35.7131 55.1173 36.818 52.4189L37.0226 51.8874L39.6827 53.6863C39.6827 53.6863 39.8464 53.7886 39.9487 53.809C40.1329 53.8703 40.3171 53.8499 40.5012 53.809C40.7672 53.7068 40.9718 53.4819 41.0537 53.2162C42.5065 48.0033 44.2049 45.2436 45.3917 43.8535L45.8214 43.3424L47.1924 45.7546C47.2947 45.9591 47.4788 46.1022 47.8062 46.1839C47.8062 46.1839 47.8471 46.1839 47.8676 46.1839C48.1541 46.2248 48.4406 46.1022 48.6247 45.8977L53.8835 40.0921L55.1522 42.3407C55.2749 42.5452 55.4591 42.6883 55.7251 42.77C55.9706 42.8314 56.2162 42.77 56.4208 42.6474L65.9153 36.2898L70.7444 46.6337C70.8467 46.8585 71.0513 47.0221 71.3173 47.1243C71.5424 47.1856 71.7879 47.1652 71.9926 47.0425L74.2434 45.7751L75.7371 53.4615C75.7985 53.7477 75.9827 53.9725 76.3715 54.1565C76.617 54.2178 76.8421 54.1974 77.0672 54.0748L77.7424 53.6863C79.0725 52.6642 80.1774 52.0305 81.0164 51.6421C80.8936 51.2741 80.7913 51.0493 80.7504 50.9879C80.6276 50.7835 80.4434 50.62 80.2184 50.5586C79.9933 50.4973 79.7477 50.5178 79.5431 50.6404L77.2923 51.9078L75.7985 44.2215C75.7371 43.9353 75.553 43.7104 75.1642 43.5264C74.9391 43.4651 74.6936 43.4855 74.4889 43.6082L71.9926 45.0187L67.0612 34.5113C66.9588 34.2659 66.7338 34.1024 66.4882 34.0206C66.2427 33.9593 65.9767 34.0002 65.7516 34.1433L56.1753 40.5418L54.7634 38.0478C54.6611 37.8434 54.4769 37.7003 54.129 37.6185C54.129 37.6185 54.0881 37.6185 54.0677 37.6185C53.7812 37.5776 53.4947 37.7003 53.3106 37.9047L48.0518 43.7104L46.7831 41.4617C46.6603 41.2573 46.4762 41.0938 46.2511 41.0324C46.026 40.9711 45.7805 40.9915 45.5758 41.1142C45.2484 41.2982 42.3019 43.138 39.8055 50.8857L39.6213 51.4581L37.1045 49.7409C37.1045 49.7409 36.9408 49.6387 36.8385 49.6183C36.6748 49.5774 36.5111 49.5774 36.3679 49.6183C36.1223 49.6796 35.9177 49.8636 35.7949 50.1089C35.6721 50.3747 32.8279 56.5074 31.6411 63.8463L31.5183 64.5618L29.1856 62.9877C29.1856 62.9877 29.0219 62.8855 28.9196 62.865C28.715 62.8037 28.4899 62.8241 28.3057 62.9059C28.0193 63.0286 27.8351 63.3148 27.7942 63.6214C27.7328 64.1529 26.4232 76.8477 29.6972 84.7794L30.045 85.638L26.9962 84.7794C26.6892 84.6976 26.3823 84.7794 26.1572 84.9838C25.9321 85.1883 25.8298 85.4949 25.8912 85.8015C26.014 86.3944 28.9196 100.52 44.4709 108.104L44.8187 108.268L42.8339 115.382C42.7111 115.852 42.9771 116.343 43.4478 116.486C43.9184 116.608 44.4095 116.343 44.5527 115.872L46.5376 108.758L46.9059 108.799C48.7679 108.963 50.5277 108.963 52.2261 108.881V108.902Z" fill="#D70A32"/>
</svg>
