<svg width="136" height="121" viewBox="0 0 136 121" fill="none" xmlns="http://www.w3.org/2000/svg">
<path d="M80.2432 102.468H50.2191C48.7178 102.468 47.5169 101.324 47.5169 99.9293V92.0933C47.5169 90.6828 48.7345 89.5544 50.2191 89.5544H80.2432C81.7444 89.5544 82.9454 90.6985 82.9454 92.0933V99.9293C82.9454 101.34 81.7278 102.468 80.2432 102.468ZM50.2191 91.4978C49.8688 91.4978 49.5852 91.7642 49.5852 92.0933V99.9293C49.5852 100.258 49.8688 100.525 50.2191 100.525H80.2432C80.5935 100.525 80.8771 100.258 80.8771 99.9293V92.0933C80.8771 91.7642 80.5935 91.4978 80.2432 91.4978H50.2191Z" fill="#D70A32"/>
<path d="M78.5752 91.4978H51.8871C51.5535 91.4978 51.2365 91.341 51.0364 91.0903C50.8362 90.8395 50.7862 90.5104 50.8863 90.2127L53.455 82.9565C54.0555 81.2796 55.7235 80.1512 57.6083 80.1512H72.8206C74.7054 80.1512 76.3734 81.2796 76.9739 82.9565L79.5427 90.2127C79.6427 90.5104 79.5927 90.8395 79.3925 91.0903C79.1924 91.341 78.8755 91.4978 78.5419 91.4978H78.5752ZM53.3382 89.5388H77.1407L75.0224 83.5677C74.7054 82.6901 73.8381 82.0946 72.8539 82.0946H57.6417C56.6576 82.0946 55.7735 82.6901 55.4733 83.5677L53.3549 89.5388H53.3382Z" fill="#D70A32"/>
<path d="M78.5752 108.737C78.0081 108.737 77.541 108.298 77.541 107.765V101.496C77.541 100.964 78.0081 100.525 78.5752 100.525C79.1423 100.525 79.6094 100.964 79.6094 101.496V107.765C79.6094 108.298 79.1423 108.737 78.5752 108.737Z" fill="#D70A32"/>
<path d="M51.8871 108.737C51.3199 108.737 50.8529 108.298 50.8529 107.765V101.496C50.8529 100.964 51.3199 100.525 51.8871 100.525C52.4542 100.525 52.9212 100.964 52.9212 101.496V107.765C52.9212 108.298 52.4542 108.737 51.8871 108.737Z" fill="#D70A32"/>
<path d="M54.3891 97.5627C55.3103 97.5627 56.0571 96.8611 56.0571 95.9955C56.0571 95.13 55.3103 94.4283 54.3891 94.4283C53.4679 94.4283 52.7211 95.13 52.7211 95.9955C52.7211 96.8611 53.4679 97.5627 54.3891 97.5627Z" fill="#D70A32"/>
<path d="M76.0732 97.5627C76.9944 97.5627 77.7412 96.8611 77.7412 95.9955C77.7412 95.13 76.9944 94.4283 76.0732 94.4283C75.152 94.4283 74.4052 95.13 74.4052 95.9955C74.4052 96.8611 75.152 97.5627 76.0732 97.5627Z" fill="#D70A32"/>
<path d="M78.5752 91.4978C78.3751 91.4978 78.1749 91.4507 77.9914 91.341C77.5077 91.0433 77.3743 90.4321 77.7079 89.9776L81.0439 85.276C81.244 85.0095 81.561 84.8372 81.9112 84.8372H85.2473C85.8144 84.8372 86.2814 85.276 86.2814 85.8088C86.2814 86.3417 85.8144 86.7805 85.2473 86.7805H82.4617L79.4426 91.0433C79.2424 91.3254 78.9088 91.4821 78.5752 91.4821V91.4978Z" fill="#D70A32"/>
<path d="M51.9037 91.4977C51.5701 91.4977 51.2365 91.341 51.0364 91.0589L48.0173 86.7961H45.2317C44.6646 86.7961 44.1975 86.3573 44.1975 85.8245C44.1975 85.2916 44.6646 84.8528 45.2317 84.8528H48.5677C48.918 84.8528 49.2349 85.0095 49.4351 85.2916L52.7711 89.9932C53.088 90.4477 52.9546 91.0432 52.4875 91.3567C52.3041 91.4664 52.1039 91.5134 51.9037 91.5134V91.4977Z" fill="#D70A32"/>
<path d="M108.599 108.737H21.8629C21.2958 108.737 20.8287 108.298 20.8287 107.765C20.8287 107.232 21.2958 106.794 21.8629 106.794H108.599C109.167 106.794 109.634 107.232 109.634 107.765C109.634 108.298 109.167 108.737 108.599 108.737Z" fill="#262626"/>
<path d="M103.595 108.737H26.8669C26.2998 108.737 25.8327 108.298 25.8327 107.765V35.6584C25.8327 35.1256 26.2998 34.6868 26.8669 34.6868H103.595C104.162 34.6868 104.63 35.1256 104.63 35.6584V107.75C104.63 108.282 104.162 108.721 103.595 108.721V108.737ZM27.9178 106.778H102.561V36.6458H27.9178V106.778Z" fill="#262626"/>
<path d="M93.5873 108.737H36.875C36.3078 108.737 35.8408 108.298 35.8408 107.765V63.8836C35.8408 63.3508 36.3078 62.912 36.875 62.912H93.5873C94.1544 62.912 94.6215 63.3508 94.6215 63.8836V107.765C94.6215 108.298 94.1544 108.737 93.5873 108.737ZM37.9258 106.778H92.5531V64.8553H37.9258V106.778Z" fill="#262626"/>
<path d="M71.0692 55.4521H59.3931C58.826 55.4521 58.3589 55.0133 58.3589 54.4804V45.0773C58.3589 44.5444 58.826 44.1056 59.3931 44.1056H71.0692C71.6363 44.1056 72.1033 44.5444 72.1033 45.0773V54.4804C72.1033 55.0133 71.6363 55.4521 71.0692 55.4521ZM60.444 53.4931H70.035V46.0489H60.444V53.4931Z" fill="#262626"/>
<path d="M93.5873 55.4521H81.9112C81.3441 55.4521 80.8771 55.0133 80.8771 54.4804V45.0773C80.8771 44.5444 81.3441 44.1056 81.9112 44.1056H93.5873C94.1544 44.1056 94.6215 44.5444 94.6215 45.0773V54.4804C94.6215 55.0133 94.1544 55.4521 93.5873 55.4521ZM82.9621 53.4931H92.5531V46.0489H82.9621V53.4931Z" fill="#262626"/>
<path d="M48.551 55.4521H36.875C36.3078 55.4521 35.8408 55.0133 35.8408 54.4804V45.0773C35.8408 44.5444 36.3078 44.1056 36.875 44.1056H48.551C49.1182 44.1056 49.5852 44.5444 49.5852 45.0773V54.4804C49.5852 55.0133 49.1182 55.4521 48.551 55.4521ZM37.9258 53.4931H47.5169V46.0489H37.9258V53.4931Z" fill="#262626"/>
<path d="M105.263 36.646H25.1989C24.6318 36.646 24.1647 36.2071 24.1647 35.6743C24.1647 35.1415 24.6318 34.7026 25.1989 34.7026H105.263C105.83 34.7026 106.298 35.1415 106.298 35.6743C106.298 36.2071 105.83 36.646 105.263 36.646Z" fill="#262626"/>
</svg>
