<svg width="169" height="212" viewBox="0 0 169 212" fill="none" xmlns="http://www.w3.org/2000/svg">
<rect width="169" height="212" fill="white"/>
<path d="M47.3408 164V150.472H52.5943C53.9243 150.472 54.9978 150.88 55.7008 151.583C56.3373 152.22 56.6888 153.103 56.6888 154.177C56.6888 155.146 56.2993 155.925 55.7673 156.447C55.4918 156.732 55.1878 156.932 54.8648 157.055C55.2733 157.217 55.6533 157.464 55.9858 157.796C56.5178 158.328 56.8978 159.107 56.8978 160.181C56.8978 161.349 56.5178 162.261 55.8908 162.888C55.1593 163.62 54.0763 164 52.8128 164H47.3408ZM49.4023 162.166H52.6038C54.0288 162.166 54.8268 161.321 54.8268 160.095C54.8268 158.87 54.0288 158.034 52.6038 158.034H49.4023V162.166ZM49.4023 156.2H52.4423C53.7533 156.2 54.6273 155.526 54.6273 154.253C54.6273 152.98 53.7533 152.305 52.4423 152.305H49.4023V156.2ZM62.3145 164.105C61.1365 164.105 60.3385 163.838 59.7495 163.24C59.246 162.746 58.9895 161.976 58.9895 161.178C58.9895 160.437 59.227 159.782 59.721 159.288C60.3195 158.689 61.127 158.385 62.305 158.385H64.87V157.701C64.87 157.131 64.7465 156.704 64.4425 156.4C64.11 156.058 63.5685 155.896 62.8085 155.896C61.735 155.896 61.184 156.191 60.6425 156.875L59.379 155.659C60.2815 154.595 61.241 154.243 62.8275 154.243C64.2715 154.243 65.3165 154.585 65.9815 155.25C66.5325 155.801 66.808 156.571 66.808 157.568V164H64.908V163.116C64.623 163.411 64.338 163.629 64.0245 163.781C63.5685 164.01 63.0365 164.105 62.3145 164.105ZM60.8705 161.14C60.8705 162.033 61.4215 162.499 62.6755 162.499C63.407 162.499 64.0055 162.385 64.452 161.938C64.775 161.606 64.87 161.102 64.87 160.542V159.753H62.609C61.944 159.753 61.507 159.886 61.2125 160.19C60.975 160.428 60.8705 160.741 60.8705 161.14ZM72.6371 164C71.8011 164 71.1646 163.724 70.7276 163.278C70.2431 162.803 69.9961 162.128 69.9961 161.34V156.02H68.8941V154.538H69.9961V151.612H71.9341V154.538H73.8056V156.02H71.9341V161.226C71.9341 161.948 72.2761 162.347 72.9886 162.347H73.8056V164H72.6371ZM79.0199 164C78.1839 164 77.5474 163.724 77.1104 163.278C76.6259 162.803 76.3789 162.128 76.3789 161.34V156.02H75.2769V154.538H76.3789V151.612H78.3169V154.538H80.1884V156.02H78.3169V161.226C78.3169 161.948 78.6589 162.347 79.3714 162.347H80.1884V164H79.0199ZM86.3713 164.114C85.0033 164.114 84.0248 163.743 83.3028 163.031C82.5238 162.242 82.0583 160.998 82.0583 159.183C82.0583 157.464 82.5333 156.153 83.3788 155.307C84.0818 154.604 85.0128 154.243 86.1338 154.243C87.2928 154.243 88.2143 154.595 88.8983 155.288C89.7628 156.153 90.2283 157.454 90.2283 159.335V159.753H83.9678C83.9678 160.646 84.2148 161.349 84.6803 161.815C85.0983 162.233 85.6778 162.461 86.4188 162.461C87.5018 162.461 88.0718 162.147 88.7558 161.463L90.0003 162.613C89.0123 163.591 88.0623 164.114 86.3713 164.114ZM83.9678 158.385H88.2998C88.2713 157.682 88.1288 156.97 87.5968 156.438C87.2548 156.096 86.7798 155.877 86.1338 155.877C85.4973 155.877 85.0128 156.096 84.6708 156.438C84.1483 156.97 84.0058 157.682 83.9678 158.385ZM92.813 164V154.357H94.7225V155.402C95.2165 154.728 96.2045 154.243 97.278 154.243C98.228 154.243 98.8835 154.471 99.5675 155.155L98.1235 156.618C97.677 156.181 97.3255 155.982 96.67 155.982C95.6155 155.982 94.751 156.818 94.751 158.138V164H92.813ZM101.163 164V154.547H103.101V164H101.163ZM101.106 152.153V150.424H103.167V152.153H101.106ZM110.01 164.114C108.642 164.114 107.663 163.743 106.941 163.031C106.162 162.242 105.697 160.998 105.697 159.183C105.697 157.464 106.172 156.153 107.017 155.307C107.72 154.604 108.651 154.243 109.772 154.243C110.931 154.243 111.853 154.595 112.537 155.288C113.401 156.153 113.867 157.454 113.867 159.335V159.753H107.606C107.606 160.646 107.853 161.349 108.319 161.815C108.737 162.233 109.316 162.461 110.057 162.461C111.14 162.461 111.71 162.147 112.394 161.463L113.639 162.613C112.651 163.591 111.701 164.114 110.01 164.114ZM107.606 158.385H111.938C111.91 157.682 111.767 156.97 111.235 156.438C110.893 156.096 110.418 155.877 109.772 155.877C109.136 155.877 108.651 156.096 108.309 156.438C107.787 156.97 107.644 157.682 107.606 158.385ZM119.558 164.114C117.991 164.114 116.661 163.848 115.521 162.727L116.794 161.454C117.563 162.242 118.618 162.451 119.549 162.451C121.012 162.451 121.667 161.948 121.667 161.102C121.667 160.456 121.306 160.076 120.385 159.991L118.836 159.858C117.031 159.687 115.986 158.898 115.986 157.198C115.986 155.307 117.62 154.243 119.729 154.243C121.088 154.243 122.304 154.557 123.206 155.345L121.981 156.561C121.363 156.067 120.537 155.877 119.72 155.877C118.437 155.877 117.877 156.371 117.877 157.122C117.877 157.777 118.257 158.119 119.188 158.205L120.708 158.338C122.484 158.509 123.567 159.316 123.567 161.064C123.567 163.069 121.876 164.114 119.558 164.114Z" fill="#1F1F1F"/>
<g clip-path="url(#clip0_2632_5036)">
<path d="M96.8344 122.001H51.7076C50.2034 122.001 49 120.781 49 119.293V44.065C49 42.5608 50.2201 41.3574 51.7076 41.3574H95.163C96.6672 41.3574 97.8706 42.5775 97.8706 44.065V114.262C97.8706 114.83 97.4026 115.298 96.8344 115.298C96.2661 115.298 95.7981 114.83 95.7981 114.262V44.065C95.7981 43.714 95.514 43.4299 95.163 43.4299H51.7076C51.3566 43.4299 51.0725 43.714 51.0725 44.065V119.276C51.0725 119.627 51.3566 119.911 51.7076 119.911H96.8344C97.4193 119.911 97.8706 120.379 97.8706 120.948C97.8706 121.516 97.4026 121.984 96.8344 121.984V122.001Z" fill="#1F1F1F"/>
<path d="M85.1348 43.446H61.7357C61.1507 43.446 60.6995 42.978 60.6995 42.4098V35.7076C60.6995 34.2034 61.9196 33 63.4071 33H83.4634C84.9676 33 86.171 34.2201 86.171 35.7076V42.3931C86.171 42.9613 85.703 43.4293 85.1348 43.4293V43.446ZM62.7887 41.3568H84.0985V35.7076C84.0985 35.3566 83.8144 35.0725 83.4634 35.0725H63.4071C63.0561 35.0725 62.772 35.3566 62.772 35.7076V41.3568H62.7887Z" fill="#1F1F1F"/>
<path d="M73.4352 106.122C73.4352 106.122 73.3015 106.122 73.2514 106.105C72.7834 106.022 72.4324 105.637 72.399 105.153L70.995 87.1187L58.6938 90.8124C58.3094 90.9294 57.8748 90.8124 57.6074 90.4948C57.34 90.1773 57.2732 89.7427 57.457 89.3583L72.4993 57.8364C72.6998 57.4186 73.1678 57.1679 73.6358 57.2682C74.1038 57.3517 74.4548 57.7361 74.4882 58.2208L75.8921 76.2548L88.1933 72.5611C88.5945 72.4441 89.0123 72.5611 89.2797 72.8787C89.5472 73.1962 89.614 73.6308 89.4302 74.0152L74.3879 105.554C74.204 105.921 73.8364 106.155 73.4519 106.155L73.4352 106.122ZM71.9477 84.6952C72.1483 84.6952 72.3656 84.762 72.5327 84.879C72.8001 85.0629 72.9672 85.347 72.984 85.6646L74.1873 101.108L86.5387 75.2186L75.257 78.6114C74.9562 78.695 74.6219 78.6449 74.3712 78.4777C74.1038 78.2939 73.9366 78.0097 73.9199 77.6922L72.7165 62.2488L60.3652 88.1382L71.6469 84.7453C71.7471 84.7119 71.8474 84.6952 71.9477 84.6952Z" fill="#D70A32"/>
<path d="M121.905 122H96.8343C96.2494 122 95.7981 121.532 95.7981 120.964C95.7981 120.396 96.2661 119.928 96.8343 119.928H121.905C122.256 119.928 122.54 119.643 122.54 119.292V75.837C122.54 75.2688 123.008 74.8008 123.576 74.8008C124.144 74.8008 124.612 75.2688 124.612 75.837V119.292C124.612 120.797 123.392 122 121.905 122Z" fill="#1F1F1F"/>
<path d="M124.412 76.8735H122.74C116.64 76.8735 111.676 71.9095 111.676 65.8091V57.4523C111.676 56.884 112.144 56.416 112.712 56.416H134.44C135.025 56.416 135.476 56.884 135.476 57.4523V65.8091C135.476 71.9095 130.512 76.8735 124.412 76.8735ZM113.765 58.4885V65.8091C113.765 70.7563 117.793 74.801 122.757 74.801H124.429C129.376 74.801 133.42 70.773 133.42 65.8091V58.4885H113.782H113.765Z" fill="#1F1F1F"/>
<path d="M130.262 58.4888H116.891C116.306 58.4888 115.854 58.0208 115.854 57.4526V45.753C115.854 45.1848 116.322 44.7168 116.891 44.7168C117.459 44.7168 117.927 45.1848 117.927 45.753V56.4163H129.209V45.753C129.209 45.1848 129.677 44.7168 130.245 44.7168C130.813 44.7168 131.281 45.1848 131.281 45.753V57.4526C131.281 58.0208 130.813 58.4888 130.245 58.4888H130.262Z" fill="#1F1F1F"/>
<path d="M136.947 58.4885H110.205C109.62 58.4885 109.169 58.0205 109.169 57.4523C109.169 56.884 109.637 56.416 110.205 56.416H136.947C137.532 56.416 137.983 56.884 137.983 57.4523C137.983 58.0205 137.515 58.4885 136.947 58.4885Z" fill="#1F1F1F"/>
</g>
<defs>
<clipPath id="clip0_2632_5036">
<rect width="89" height="89" fill="white" transform="translate(49 33)"/>
</clipPath>
</defs>
</svg>
