<svg width="136" height="92" viewBox="0 0 136 92" fill="none" xmlns="http://www.w3.org/2000/svg">
<path d="M31.7678 31.792V19.1117H37.0108C38.3381 19.1117 39.4094 19.4946 40.111 20.1535C40.7462 20.7501 41.097 21.5783 41.097 22.5845C41.097 23.4928 40.7083 24.223 40.1774 24.7128C39.9024 24.9799 39.5991 25.1669 39.2767 25.2827C39.6844 25.434 40.0636 25.6656 40.3955 25.9772C40.9264 26.4759 41.3056 27.2061 41.3056 28.2123C41.3056 29.3076 40.9264 30.1625 40.3006 30.7502C39.5706 31.4359 38.4898 31.792 37.2288 31.792H31.7678ZM33.8252 30.0734H37.0202C38.4424 30.0734 39.2388 29.2809 39.2388 28.1322C39.2388 26.9835 38.4424 26.1999 37.0202 26.1999H33.8252V30.0734ZM33.8252 24.4812H36.8591C38.1674 24.4812 39.0397 23.849 39.0397 22.6558C39.0397 21.4625 38.1674 20.8303 36.8591 20.8303H33.8252V24.4812Z" fill="#1F1F1F"/>
<path d="M46.7114 31.89C45.5358 31.89 44.7394 31.6407 44.1515 31.0797C43.6491 30.6166 43.3931 29.8953 43.3931 29.1473C43.3931 28.4528 43.6301 27.8383 44.1231 27.3753C44.7204 26.8143 45.5263 26.5293 46.7019 26.5293H49.2618V25.8882C49.2618 25.3539 49.1385 24.9532 48.8351 24.6682C48.5033 24.3477 47.9629 24.1963 47.2044 24.1963C46.1331 24.1963 45.5832 24.4723 45.0427 25.1135L43.7818 23.9737C44.6825 22.9763 45.64 22.6469 47.2234 22.6469C48.6645 22.6469 49.7074 22.9674 50.371 23.5908C50.9209 24.1072 51.1959 24.8285 51.1959 25.7635V31.792H49.2997V30.9639C49.0153 31.2399 48.7308 31.4448 48.418 31.5872C47.9629 31.8009 47.4319 31.89 46.7114 31.89ZM45.2703 29.1117C45.2703 29.9488 45.8202 30.3851 47.0717 30.3851C47.8017 30.3851 48.399 30.2782 48.8446 29.8597C49.167 29.548 49.2618 29.0761 49.2618 28.5507V27.8116H47.0053C46.3416 27.8116 45.9055 27.9363 45.6116 28.2212C45.3746 28.4439 45.2703 28.7377 45.2703 29.1117Z" fill="#1F1F1F"/>
<path d="M57.0133 31.792C56.179 31.792 55.5438 31.5338 55.1077 31.1153C54.6241 30.67 54.3776 30.0378 54.3776 29.2987V24.312H53.2778V22.9229H54.3776V20.1802H56.3117V22.9229H58.1795V24.312H56.3117V29.1919C56.3117 29.8686 56.6531 30.2426 57.3641 30.2426H58.1795V31.792H57.0133Z" fill="#1F1F1F"/>
<path d="M63.3833 31.792C62.549 31.792 61.9138 31.5338 61.4777 31.1153C60.9942 30.67 60.7476 30.0378 60.7476 29.2987V24.312H59.6479V22.9229H60.7476V20.1802H62.6818V22.9229H64.5495V24.312H62.6818V29.1919C62.6818 29.8686 63.0231 30.2426 63.7341 30.2426H64.5495V31.792H63.3833Z" fill="#1F1F1F"/>
<path d="M70.72 31.8989C69.3547 31.8989 68.3782 31.5516 67.6576 30.8838C66.8802 30.1447 66.4156 28.9781 66.4156 27.2773C66.4156 25.6656 66.8897 24.4367 67.7335 23.6442C68.4351 22.9852 69.3642 22.6469 70.4829 22.6469C71.6396 22.6469 72.5593 22.9763 73.2419 23.6264C74.1047 24.4367 74.5692 25.6567 74.5692 27.4198V27.8116H68.3213C68.3213 28.6487 68.5678 29.3076 69.0324 29.7439C69.4495 30.1358 70.0279 30.3495 70.7674 30.3495C71.8482 30.3495 72.4171 30.0556 73.0997 29.4145L74.3417 30.4919C73.3557 31.4091 72.4076 31.8989 70.72 31.8989ZM68.3213 26.5293H72.6446C72.6162 25.8704 72.474 25.2025 71.943 24.7039C71.6017 24.3833 71.1277 24.1785 70.4829 24.1785C69.8477 24.1785 69.3642 24.3833 69.0229 24.7039C68.5014 25.2025 68.3592 25.8704 68.3213 26.5293Z" fill="#1F1F1F"/>
<path d="M77.1488 31.792V22.7537H79.0545V23.7332C79.5475 23.101 80.5335 22.6469 81.6048 22.6469C82.5529 22.6469 83.2071 22.8606 83.8898 23.5017L82.4486 24.873C82.003 24.4634 81.6522 24.2764 80.9981 24.2764C79.9457 24.2764 79.0829 25.06 79.0829 26.2978V31.792H77.1488Z" fill="#1F1F1F"/>
<path d="M85.4817 31.792V22.9318H87.4158V31.792H85.4817ZM85.4248 20.6878V19.0671H87.4821V20.6878H85.4248Z" fill="#1F1F1F"/>
<path d="M94.3112 31.8989C92.946 31.8989 91.9694 31.5516 91.2489 30.8838C90.4715 30.1447 90.0069 28.9781 90.0069 27.2773C90.0069 25.6656 90.4809 24.4367 91.3247 23.6442C92.0263 22.9852 92.9555 22.6469 94.0742 22.6469C95.2309 22.6469 96.1505 22.9763 96.8332 23.6264C97.6959 24.4367 98.1605 25.6567 98.1605 27.4198V27.8116H91.9126C91.9126 28.6487 92.1591 29.3076 92.6236 29.7439C93.0408 30.1358 93.6191 30.3495 94.3586 30.3495C95.4395 30.3495 96.0083 30.0556 96.691 29.4145L97.933 30.4919C96.9469 31.4091 95.9988 31.8989 94.3112 31.8989ZM91.9126 26.5293H96.2359C96.2074 25.8704 96.0652 25.2025 95.5343 24.7039C95.193 24.3833 94.7189 24.1785 94.0742 24.1785C93.439 24.1785 92.9555 24.3833 92.6141 24.7039C92.0927 25.2025 91.9505 25.8704 91.9126 26.5293Z" fill="#1F1F1F"/>
<path d="M103.84 31.8989C102.276 31.8989 100.949 31.6496 99.8109 30.5988L101.081 29.4056C101.849 30.1447 102.902 30.3406 103.831 30.3406C105.291 30.3406 105.945 29.8686 105.945 29.0761C105.945 28.4706 105.585 28.1144 104.665 28.0342L103.12 27.9096C101.318 27.7493 100.276 27.0102 100.276 25.4162C100.276 23.6442 101.906 22.6469 104.011 22.6469C105.367 22.6469 106.58 22.9407 107.481 23.6798L106.258 24.8196C105.642 24.3566 104.817 24.1785 104.002 24.1785C102.722 24.1785 102.162 24.6415 102.162 25.345C102.162 25.9594 102.541 26.28 103.471 26.3601L104.988 26.4848C106.76 26.6451 107.841 27.402 107.841 29.0405C107.841 30.9194 106.154 31.8989 103.84 31.8989Z" fill="#1F1F1F"/>
</svg>
