<svg width="136" height="92" viewBox="0 0 136 92" fill="none" xmlns="http://www.w3.org/2000/svg">
<path d="M12.3557 31.792V19.1116H20.9929V20.8302H14.4131V24.5346H20.0258V26.2621H14.4131V30.0734H20.9929V31.792H12.3557Z" fill="#1F1F1F"/>
<path d="M23.288 27.6958V25.995H28.8249V27.6958H23.288Z" fill="#1F1F1F"/>
<path d="M36.2253 31.8989C34.7368 31.8989 33.5991 31.4269 32.7269 30.6077C31.4185 29.3788 31.3616 28.1054 31.3616 25.4518C31.3616 22.7982 31.4185 21.5248 32.7269 20.296C33.5991 19.4767 34.7368 19.0048 36.2253 19.0048C38.7093 19.0048 40.5676 20.385 41.0417 22.905H38.9464C38.6335 21.6139 37.7138 20.7234 36.2253 20.7234C35.4479 20.7234 34.7842 20.9727 34.2628 21.4625C33.4948 22.1927 33.419 23.2523 33.419 25.4518C33.419 27.6513 33.4948 28.711 34.2628 29.4411C34.7842 29.9309 35.4479 30.1802 36.2253 30.1802C37.7138 30.1802 38.6335 29.2898 38.9464 27.9986H41.0417C40.5676 30.5186 38.7093 31.8989 36.2253 31.8989Z" fill="#1F1F1F"/>
<path d="M47.0336 31.8989C45.8675 31.8989 44.9194 31.5427 44.1893 30.857C43.2033 29.922 43.0327 28.6931 43.0327 27.2773C43.0327 25.8525 43.2033 24.6237 44.1988 23.6798C44.9194 23.003 45.8675 22.6468 47.0336 22.6468C48.1903 22.6468 49.1384 23.003 49.8684 23.6798C50.8639 24.6237 51.0346 25.8525 51.0346 27.2773C51.0346 28.6931 50.8639 29.922 49.8684 30.857C49.1384 31.5427 48.1903 31.8989 47.0336 31.8989ZM44.9668 27.2773C44.9668 28.2479 45.0237 29.1918 45.6115 29.7439C45.9812 30.0912 46.4553 30.2693 47.0336 30.2693C47.612 30.2693 48.086 30.0912 48.4463 29.7439C49.0436 29.1918 49.1005 28.2479 49.1005 27.2773C49.1005 26.2978 49.0436 25.3628 48.4463 24.8018C48.086 24.4545 47.612 24.2764 47.0336 24.2764C46.4553 24.2764 45.9812 24.4545 45.6115 24.8018C45.0237 25.3628 44.9668 26.2978 44.9668 27.2773Z" fill="#1F1F1F"/>
<path d="M53.6629 31.792V22.7537H55.5685V23.6709C55.853 23.3681 56.1753 23.1544 56.5166 22.9941C57.0191 22.7537 57.5406 22.6468 58.1379 22.6468C59.3135 22.6468 60.2521 23.092 60.8589 23.9647C61.2002 23.5551 61.5984 23.2345 62.063 23.0119C62.5844 22.7715 63.1628 22.6468 63.8265 22.6468C64.8883 22.6468 65.7321 22.9496 66.3484 23.5195C66.9931 24.1339 67.3249 25.0066 67.3249 25.9861V31.792H65.3908V26.28C65.3908 24.873 64.5375 24.2764 63.4472 24.2764C62.3853 24.2764 61.4657 24.8819 61.4657 26.1909V31.792H59.5316V26.28C59.5316 24.873 58.6783 24.2764 57.5785 24.2764C56.4882 24.2764 55.597 24.8819 55.597 26.28V31.792H53.6629Z" fill="#1F1F1F"/>
<path d="M70.2916 31.792V22.7537H72.1972V23.6709C72.4817 23.3681 72.804 23.1544 73.1453 22.9941C73.6478 22.7537 74.1693 22.6468 74.7666 22.6468C75.9422 22.6468 76.8808 23.092 77.4876 23.9647C77.8289 23.5551 78.2271 23.2345 78.6917 23.0119C79.2131 22.7715 79.7915 22.6468 80.4551 22.6468C81.517 22.6468 82.3608 22.9496 82.9771 23.5195C83.6218 24.1339 83.9536 25.0066 83.9536 25.9861V31.792H82.0195V26.28C82.0195 24.873 81.1662 24.2764 80.0759 24.2764C79.014 24.2764 78.0944 24.8819 78.0944 26.1909V31.792H76.1603V26.28C76.1603 24.873 75.307 24.2764 74.2072 24.2764C73.1169 24.2764 72.2257 24.8819 72.2257 26.28V31.792H70.2916Z" fill="#1F1F1F"/>
<path d="M90.7316 31.8989C89.3664 31.8989 88.3898 31.5516 87.6693 30.8837C86.8918 30.1446 86.4273 28.9781 86.4273 27.2773C86.4273 25.6655 86.9013 24.4367 87.7451 23.6441C88.4467 22.9852 89.3758 22.6468 90.4946 22.6468C91.6513 22.6468 92.5709 22.9763 93.2535 23.6263C94.1163 24.4367 94.5809 25.6566 94.5809 27.4198V27.8116H88.3329C88.3329 28.6486 88.5794 29.3076 89.044 29.7439C89.4612 30.1357 90.0395 30.3494 90.779 30.3494C91.8598 30.3494 92.4287 30.0556 93.1113 29.4144L94.3533 30.4919C93.3673 31.4091 92.4192 31.8989 90.7316 31.8989ZM88.3329 26.5293H92.6562C92.6278 25.8703 92.4856 25.2025 91.9546 24.7038C91.6133 24.3832 91.1393 24.1784 90.4946 24.1784C89.8594 24.1784 89.3758 24.3832 89.0345 24.7038C88.5131 25.2025 88.3708 25.8703 88.3329 26.5293Z" fill="#1F1F1F"/>
<path d="M97.1604 31.792V22.7537H99.0661V23.7332C99.5591 23.101 100.545 22.6468 101.616 22.6468C102.565 22.6468 103.219 22.8605 103.901 23.5017L102.46 24.873C102.015 24.4634 101.664 24.2764 101.01 24.2764C99.9573 24.2764 99.0945 25.06 99.0945 26.2978V31.792H97.1604Z" fill="#1F1F1F"/>
<path d="M108.675 31.8989C107.462 31.8989 106.438 31.5516 105.689 30.8481C104.883 30.1001 104.4 28.9336 104.4 27.2773C104.4 25.6121 104.883 24.4456 105.689 23.6976C106.438 22.9941 107.462 22.6468 108.675 22.6468C110.003 22.6468 110.932 23.0208 111.842 23.9291L110.524 25.1312C109.917 24.5168 109.434 24.2764 108.675 24.2764C108.021 24.2764 107.509 24.4634 107.092 24.8552C106.504 25.4073 106.334 26.2176 106.334 27.2773C106.334 28.328 106.504 29.1384 107.092 29.6905C107.509 30.0912 108.021 30.2693 108.675 30.2693C109.434 30.2693 109.917 30.0289 110.524 29.4144L111.842 30.6255C110.932 31.5338 110.003 31.8989 108.675 31.8989Z" fill="#1F1F1F"/>
<path d="M117.619 31.8989C116.254 31.8989 115.277 31.5516 114.557 30.8837C113.779 30.1446 113.315 28.9781 113.315 27.2773C113.315 25.6655 113.789 24.4367 114.632 23.6441C115.334 22.9852 116.263 22.6468 117.382 22.6468C118.539 22.6468 119.458 22.9763 120.141 23.6263C121.004 24.4367 121.468 25.6566 121.468 27.4198V27.8116H115.22C115.22 28.6486 115.467 29.3076 115.931 29.7439C116.349 30.1357 116.927 30.3494 117.666 30.3494C118.747 30.3494 119.316 30.0556 119.999 29.4144L121.241 30.4919C120.255 31.4091 119.307 31.8989 117.619 31.8989ZM115.22 26.5293H119.544C119.515 25.8703 119.373 25.2025 118.842 24.7038C118.501 24.3832 118.027 24.1784 117.382 24.1784C116.747 24.1784 116.263 24.3832 115.922 24.7038C115.4 25.2025 115.258 25.8703 115.22 26.5293Z" fill="#1F1F1F"/>
<path d="M31.9201 53.4578C29.9007 53.4578 28.4406 53.0125 27.1417 51.7837L28.4975 50.5103C29.4835 51.4364 30.5928 51.7391 31.958 51.7391C32.982 51.7391 33.7499 51.4987 34.205 51.0624C34.5558 50.7418 34.7359 50.3055 34.7359 49.7801C34.7359 49.3972 34.6601 49.1033 34.5368 48.8629C34.2809 48.3998 33.7973 48.106 32.8966 47.9724L31.1427 47.7231C29.6447 47.5094 28.5164 46.9751 27.9665 45.9332C27.72 45.4613 27.5968 44.9181 27.5968 44.2769C27.5968 43.244 27.9571 42.3802 28.6397 41.7391C29.4361 41 30.6402 40.5637 32.2045 40.5637C33.9016 40.5637 35.1436 40.9911 36.3003 41.9973L35.0014 43.2262C34.2429 42.5405 33.3991 42.2467 32.1382 42.2467C31.2185 42.2467 30.5454 42.496 30.1282 42.8789C29.7774 43.2173 29.5878 43.6714 29.5878 44.1879C29.5878 44.5174 29.6541 44.7934 29.7679 45.0071C30.0713 45.577 30.8013 45.8531 31.5693 45.9599L33.3043 46.2093C34.8307 46.423 35.8262 46.9484 36.3856 47.9991C36.6321 48.48 36.7743 49.0677 36.7743 49.7356C36.7743 50.7418 36.3951 51.5788 35.7409 52.2022C34.8687 53.0125 33.5224 53.4578 31.9201 53.4578Z" fill="#1F1F1F"/>
<path d="M42.8487 53.4578C41.6825 53.4578 40.7344 53.1016 40.0044 52.4159C39.0184 51.4809 38.8477 50.252 38.8477 48.8362C38.8477 47.4114 39.0184 46.1826 40.0139 45.2387C40.7344 44.5619 41.6825 44.2057 42.8487 44.2057C44.0053 44.2057 44.9534 44.5619 45.6835 45.2387C46.679 46.1826 46.8496 47.4114 46.8496 48.8362C46.8496 50.252 46.679 51.4809 45.6835 52.4159C44.9534 53.1016 44.0053 53.4578 42.8487 53.4578ZM40.7818 48.8362C40.7818 49.8068 40.8387 50.7507 41.4265 51.3028C41.7963 51.6501 42.2703 51.8282 42.8487 51.8282C43.427 51.8282 43.9011 51.6501 44.2613 51.3028C44.8586 50.7507 44.9155 49.8068 44.9155 48.8362C44.9155 47.8567 44.8586 46.9217 44.2613 46.3607C43.9011 46.0134 43.427 45.8353 42.8487 45.8353C42.2703 45.8353 41.7963 46.0134 41.4265 46.3607C40.8387 46.9217 40.7818 47.8567 40.7818 48.8362Z" fill="#1F1F1F"/>
<path d="M52.0567 53.3509C51.2035 53.3509 50.5777 53.1105 50.1321 52.6919C49.6581 52.2467 49.421 51.5878 49.421 50.8487V40.6705H51.3552V50.7418C51.3552 51.4542 51.6206 51.8015 52.4075 51.8015H53.2608V53.3509H52.0567Z" fill="#1F1F1F"/>
<path d="M58.618 53.4578C57.6699 53.4578 56.8545 53.1906 56.2288 52.6029C55.5272 51.9439 55.2807 51.0802 55.2807 50.0918V44.3126H57.2148V49.8246C57.2148 51.2316 58.0776 51.8282 59.1679 51.8282C60.2582 51.8282 61.1494 51.2227 61.1494 49.8246V44.3126H63.0835V53.3509H61.1779V52.4426C60.9029 52.7276 60.5616 52.9591 60.2298 53.1194C59.7462 53.342 59.2153 53.4578 58.618 53.4578Z" fill="#1F1F1F"/>
<path d="M69.0254 53.3509C68.1911 53.3509 67.5559 53.0927 67.1197 52.6741C66.6362 52.2289 66.3897 51.5967 66.3897 50.8576V45.8709H65.2899V44.4818H66.3897V41.7391H68.3238V44.4818H70.1916V45.8709H68.3238V50.7507C68.3238 51.4275 68.6651 51.8015 69.3762 51.8015H70.1916V53.3509H69.0254Z" fill="#1F1F1F"/>
<path d="M72.6433 53.3509V44.4907H74.5774V53.3509H72.6433ZM72.5864 42.2467V40.626H74.6438V42.2467H72.5864Z" fill="#1F1F1F"/>
<path d="M81.2169 53.4578C80.0507 53.4578 79.1026 53.1016 78.3726 52.4159C77.3866 51.4809 77.2159 50.252 77.2159 48.8362C77.2159 47.4114 77.3866 46.1826 78.3821 45.2387C79.1026 44.5619 80.0507 44.2057 81.2169 44.2057C82.3736 44.2057 83.3217 44.5619 84.0517 45.2387C85.0472 46.1826 85.2178 47.4114 85.2178 48.8362C85.2178 50.252 85.0472 51.4809 84.0517 52.4159C83.3217 53.1016 82.3736 53.4578 81.2169 53.4578ZM79.15 48.8362C79.15 49.8068 79.2069 50.7507 79.7947 51.3028C80.1645 51.6501 80.6385 51.8282 81.2169 51.8282C81.7952 51.8282 82.2693 51.6501 82.6295 51.3028C83.2268 50.7507 83.2837 49.8068 83.2837 48.8362C83.2837 47.8567 83.2268 46.9217 82.6295 46.3607C82.2693 46.0134 81.7952 45.8353 81.2169 45.8353C80.6385 45.8353 80.1645 46.0134 79.7947 46.3607C79.2069 46.9217 79.15 47.8567 79.15 48.8362Z" fill="#1F1F1F"/>
<path d="M87.8461 53.3509V44.3126H89.7518V45.2298C90.0268 44.9359 90.3681 44.7044 90.6999 44.5441C91.1834 44.3215 91.7144 44.2057 92.3117 44.2057C93.2598 44.2057 94.0751 44.4728 94.7009 45.0606C95.4025 45.7195 95.649 46.5922 95.649 47.5806V53.3509H93.7148V47.8388C93.7148 46.4319 92.8616 45.8353 91.7618 45.8353C90.6715 45.8353 89.7803 46.4408 89.7803 47.8388V53.3509H87.8461Z" fill="#1F1F1F"/>
<path d="M101.724 53.4578C100.159 53.4578 98.8319 53.2084 97.6942 52.1577L98.9646 50.9644C99.7326 51.7035 100.785 51.8994 101.714 51.8994C103.174 51.8994 103.828 51.4275 103.828 50.6349C103.828 50.0294 103.468 49.6732 102.548 49.5931L101.003 49.4684C99.2016 49.3081 98.1587 48.569 98.1587 46.9751C98.1587 45.203 99.7895 44.2057 101.894 44.2057C103.25 44.2057 104.464 44.4996 105.364 45.2387L104.141 46.3785C103.525 45.9154 102.7 45.7373 101.885 45.7373C100.605 45.7373 100.045 46.2004 100.045 46.9038C100.045 47.5183 100.425 47.8388 101.354 47.919L102.871 48.0437C104.644 48.2039 105.725 48.9608 105.725 50.5993C105.725 52.4782 104.037 53.4578 101.724 53.4578Z" fill="#1F1F1F"/>
</svg>
