<svg width="136" height="121" viewBox="0 0 136 121" fill="none" xmlns="http://www.w3.org/2000/svg">
<path d="M86.4132 120H50.3285C49.7602 120 49.2922 119.532 49.2922 118.964V108.936C49.2922 108.367 49.7602 107.899 50.3285 107.899H86.4299C86.9982 107.899 87.4661 108.367 87.4661 108.936V118.964C87.4661 119.532 86.9982 120 86.4299 120H86.4132ZM51.3647 117.911H85.3769V109.972H51.3647V117.911Z" fill="#1F1F1F"/>
<path d="M108.475 109.972H28.2498C25.8263 109.972 23.8708 108 23.8708 105.593V35.379C23.8708 32.9722 25.8431 31 28.2498 31H108.475C110.899 31 112.854 32.9722 112.854 35.379V105.576C112.854 108 110.882 109.955 108.475 109.955V109.972ZM28.2498 33.0892C26.9796 33.0892 25.9433 34.1254 25.9433 35.3957V105.593C25.9433 106.863 26.9796 107.899 28.2498 107.899H108.475C109.745 107.899 110.782 106.863 110.782 105.593V35.379C110.782 34.1087 109.745 33.0725 108.475 33.0725H28.2498V33.0892Z" fill="#1F1F1F"/>
<path d="M111.818 99.9437H24.9071C24.3388 99.9437 23.8708 99.4757 23.8708 98.9075C23.8708 98.3392 24.3388 97.8712 24.9071 97.8712H111.818C112.386 97.8712 112.854 98.3392 112.854 98.9075C112.854 99.4757 112.386 99.9437 111.818 99.9437Z" fill="#1F1F1F"/>
<path d="M95.1043 120H41.6207C41.0525 120 40.5845 119.532 40.5845 118.964C40.5845 118.395 41.0525 117.927 41.6207 117.927H95.1043C95.6725 117.927 96.1405 118.395 96.1405 118.964C96.1405 119.532 95.6725 120 95.1043 120Z" fill="#1F1F1F"/>
<path d="M83.4048 84.9014H53.3203C50.8968 84.9014 48.9413 82.9292 48.9413 80.5224V50.4212C48.9413 47.9977 50.9135 46.0422 53.3203 46.0422H83.4048C85.8282 46.0422 87.7837 48.0144 87.7837 50.4212V80.5057C87.7837 82.9292 85.8115 84.8847 83.4048 84.8847V84.9014ZM53.3203 48.1314C52.05 48.1314 51.0138 49.1677 51.0138 50.4379V80.5224C51.0138 81.7927 52.05 82.8289 53.3203 82.8289H83.4048C84.675 82.8289 85.7112 81.7927 85.7112 80.5224V50.4212C85.7112 49.151 84.675 48.1147 83.4048 48.1147H53.3203V48.1314Z" fill="#D70A32"/>
<path d="M78.3907 76.5446H65.0198C64.7357 76.5446 64.4682 76.4276 64.2844 76.2438L57.5989 69.5583C57.3984 69.3577 57.2981 69.0903 57.2981 68.8229V55.452C57.2981 54.8838 57.7661 54.4158 58.3343 54.4158H78.3907C78.9589 54.4158 79.4269 54.8838 79.4269 55.452V75.5084C79.4269 76.0766 78.9589 76.5446 78.3907 76.5446ZM65.4543 74.4554H77.3544V56.4883H59.3873V68.3884L65.4543 74.4554Z" fill="#D70A32"/>
<path d="M91.7615 59.831H86.7474C86.1792 59.831 85.7112 59.3631 85.7112 58.7948C85.7112 58.2265 86.1792 57.7585 86.7474 57.7585H91.7615C92.3298 57.7585 92.7978 58.2265 92.7978 58.7948C92.7978 59.3631 92.3298 59.831 91.7615 59.831Z" fill="#D70A32"/>
<path d="M91.7615 53.1455H86.7474C86.1792 53.1455 85.7112 52.6775 85.7112 52.1092C85.7112 51.541 86.1792 51.073 86.7474 51.073H91.7615C92.3298 51.073 92.7978 51.541 92.7978 52.1092C92.7978 52.6775 92.3298 53.1455 91.7615 53.1455Z" fill="#D70A32"/>
<path d="M91.7615 66.5165H86.7474C86.1792 66.5165 85.7112 66.0485 85.7112 65.4802C85.7112 64.9119 86.1792 64.444 86.7474 64.444H91.7615C92.3298 64.444 92.7978 64.9119 92.7978 65.4802C92.7978 66.0485 92.3298 66.5165 91.7615 66.5165Z" fill="#D70A32"/>
<path d="M91.7615 73.2019H86.7474C86.1792 73.2019 85.7112 72.7339 85.7112 72.1656C85.7112 71.5974 86.1792 71.1294 86.7474 71.1294H91.7615C92.3298 71.1294 92.7978 71.5974 92.7978 72.1656C92.7978 72.7339 92.3298 73.2019 91.7615 73.2019Z" fill="#D70A32"/>
<path d="M91.7615 79.8873H86.7474C86.1792 79.8873 85.7112 79.4193 85.7112 78.8511C85.7112 78.2828 86.1792 77.8148 86.7474 77.8148H91.7615C92.3298 77.8148 92.7978 78.2828 92.7978 78.8511C92.7978 79.4193 92.3298 79.8873 91.7615 79.8873Z" fill="#D70A32"/>
<path d="M49.9775 59.831H44.9634C44.3952 59.831 43.9272 59.3631 43.9272 58.7948C43.9272 58.2265 44.3952 57.7585 44.9634 57.7585H49.9775C50.5458 57.7585 51.0138 58.2265 51.0138 58.7948C51.0138 59.3631 50.5458 59.831 49.9775 59.831Z" fill="#D70A32"/>
<path d="M49.9775 53.1455H44.9634C44.3952 53.1455 43.9272 52.6775 43.9272 52.1092C43.9272 51.541 44.3952 51.073 44.9634 51.073H49.9775C50.5458 51.073 51.0138 51.541 51.0138 52.1092C51.0138 52.6775 50.5458 53.1455 49.9775 53.1455Z" fill="#D70A32"/>
<path d="M49.9775 66.5165H44.9634C44.3952 66.5165 43.9272 66.0485 43.9272 65.4802C43.9272 64.9119 44.3952 64.444 44.9634 64.444H49.9775C50.5458 64.444 51.0138 64.9119 51.0138 65.4802C51.0138 66.0485 50.5458 66.5165 49.9775 66.5165Z" fill="#D70A32"/>
<path d="M49.9775 73.2019H44.9634C44.3952 73.2019 43.9272 72.7339 43.9272 72.1656C43.9272 71.5974 44.3952 71.1294 44.9634 71.1294H49.9775C50.5458 71.1294 51.0138 71.5974 51.0138 72.1656C51.0138 72.7339 50.5458 73.2019 49.9775 73.2019Z" fill="#D70A32"/>
<path d="M49.9775 79.8873H44.9634C44.3952 79.8873 43.9272 79.4193 43.9272 78.8511C43.9272 78.2828 44.3952 77.8148 44.9634 77.8148H49.9775C50.5458 77.8148 51.0138 78.2828 51.0138 78.8511C51.0138 79.4193 50.5458 79.8873 49.9775 79.8873Z" fill="#D70A32"/>
<path d="M75.048 89.9154C74.4797 89.9154 74.0117 89.4475 74.0117 88.8792V83.8651C74.0117 83.2968 74.4797 82.8289 75.048 82.8289C75.6162 82.8289 76.0842 83.2968 76.0842 83.8651V88.8792C76.0842 89.4475 75.6162 89.9154 75.048 89.9154Z" fill="#D70A32"/>
<path d="M81.7334 89.9154C81.1651 89.9154 80.6971 89.4475 80.6971 88.8792V83.8651C80.6971 83.2968 81.1651 82.8289 81.7334 82.8289C82.3016 82.8289 82.7696 83.2968 82.7696 83.8651V88.8792C82.7696 89.4475 82.3016 89.9154 81.7334 89.9154Z" fill="#D70A32"/>
<path d="M68.3625 89.9154C67.7943 89.9154 67.3263 89.4475 67.3263 88.8792V83.8651C67.3263 83.2968 67.7943 82.8289 68.3625 82.8289C68.9308 82.8289 69.3988 83.2968 69.3988 83.8651V88.8792C69.3988 89.4475 68.9308 89.9154 68.3625 89.9154Z" fill="#D70A32"/>
<path d="M61.677 89.9154C61.1087 89.9154 60.6407 89.4475 60.6407 88.8792V83.8651C60.6407 83.2968 61.1087 82.8289 61.677 82.8289C62.2453 82.8289 62.7132 83.2968 62.7132 83.8651V88.8792C62.7132 89.4475 62.2453 89.9154 61.677 89.9154Z" fill="#D70A32"/>
<path d="M54.9916 89.9154C54.4234 89.9154 53.9554 89.4475 53.9554 88.8792V83.8651C53.9554 83.2968 54.4234 82.8289 54.9916 82.8289C55.5599 82.8289 56.0279 83.2968 56.0279 83.8651V88.8792C56.0279 89.4475 55.5599 89.9154 54.9916 89.9154Z" fill="#D70A32"/>
<path d="M75.048 48.1315C74.4797 48.1315 74.0117 47.6635 74.0117 47.0953V42.0812C74.0117 41.5129 74.4797 41.0449 75.048 41.0449C75.6162 41.0449 76.0842 41.5129 76.0842 42.0812V47.0953C76.0842 47.6635 75.6162 48.1315 75.048 48.1315Z" fill="#D70A32"/>
<path d="M81.7334 48.1315C81.1651 48.1315 80.6971 47.6635 80.6971 47.0953V42.0812C80.6971 41.5129 81.1651 41.0449 81.7334 41.0449C82.3016 41.0449 82.7696 41.5129 82.7696 42.0812V47.0953C82.7696 47.6635 82.3016 48.1315 81.7334 48.1315Z" fill="#D70A32"/>
<path d="M68.3625 48.1315C67.7943 48.1315 67.3263 47.6635 67.3263 47.0953V42.0812C67.3263 41.5129 67.7943 41.0449 68.3625 41.0449C68.9308 41.0449 69.3988 41.5129 69.3988 42.0812V47.0953C69.3988 47.6635 68.9308 48.1315 68.3625 48.1315Z" fill="#D70A32"/>
<path d="M61.677 48.1315C61.1087 48.1315 60.6407 47.6635 60.6407 47.0953V42.0812C60.6407 41.5129 61.1087 41.0449 61.677 41.0449C62.2453 41.0449 62.7132 41.5129 62.7132 42.0812V47.0953C62.7132 47.6635 62.2453 48.1315 61.677 48.1315Z" fill="#D70A32"/>
<path d="M54.9916 48.1315C54.4234 48.1315 53.9554 47.6635 53.9554 47.0953V42.0812C53.9554 41.5129 54.4234 41.0449 54.9916 41.0449C55.5599 41.0449 56.0279 41.5129 56.0279 42.0812V47.0953C56.0279 47.6635 55.5599 48.1315 54.9916 48.1315Z" fill="#D70A32"/>
</svg>
