<svg width="169" height="212" viewBox="0 0 169 212" fill="none" xmlns="http://www.w3.org/2000/svg">
<rect width="169" height="212" fill="white"/>
<path d="M66.0161 164V150.472H74.6706V152.305H68.0776V156.438H73.7016V158.271H68.0776V164H66.0161ZM79.8897 164.114C78.7212 164.114 77.7712 163.734 77.0397 163.002C76.0517 162.005 75.8807 160.694 75.8807 159.183C75.8807 157.663 76.0517 156.352 77.0492 155.345C77.7712 154.623 78.7212 154.243 79.8897 154.243C81.0487 154.243 81.9987 154.623 82.7302 155.345C83.7277 156.352 83.8987 157.663 83.8987 159.183C83.8987 160.694 83.7277 162.005 82.7302 163.002C81.9987 163.734 81.0487 164.114 79.8897 164.114ZM77.8187 159.183C77.8187 160.219 77.8757 161.226 78.4647 161.815C78.8352 162.185 79.3102 162.375 79.8897 162.375C80.4692 162.375 80.9442 162.185 81.3052 161.815C81.9037 161.226 81.9607 160.219 81.9607 159.183C81.9607 158.138 81.9037 157.141 81.3052 156.542C80.9442 156.172 80.4692 155.982 79.8897 155.982C79.3102 155.982 78.8352 156.172 78.4647 156.542C77.8757 157.141 77.8187 158.138 77.8187 159.183ZM90.0948 164.114C88.9263 164.114 87.9763 163.734 87.2448 163.002C86.2568 162.005 86.0858 160.694 86.0858 159.183C86.0858 157.663 86.2568 156.352 87.2543 155.345C87.9763 154.623 88.9263 154.243 90.0948 154.243C91.2538 154.243 92.2038 154.623 92.9353 155.345C93.9328 156.352 94.1038 157.663 94.1038 159.183C94.1038 160.694 93.9328 162.005 92.9353 163.002C92.2038 163.734 91.2538 164.114 90.0948 164.114ZM88.0238 159.183C88.0238 160.219 88.0808 161.226 88.6698 161.815C89.0403 162.185 89.5153 162.375 90.0948 162.375C90.6743 162.375 91.1493 162.185 91.5103 161.815C92.1088 161.226 92.1658 160.219 92.1658 159.183C92.1658 158.138 92.1088 157.141 91.5103 156.542C91.1493 156.172 90.6743 155.982 90.0948 155.982C89.5153 155.982 89.0403 156.172 88.6698 156.542C88.0808 157.141 88.0238 158.138 88.0238 159.183ZM99.7109 164.114C98.7134 164.114 97.9059 163.781 97.3834 163.259C96.4334 162.309 96.2909 160.77 96.2909 159.183C96.2909 157.587 96.4334 156.048 97.3834 155.098C97.9059 154.576 98.7039 154.243 99.7109 154.243C100.737 154.243 101.525 154.5 102.228 155.345V150.472H104.166V164H102.266V162.974C101.535 163.838 100.765 164.114 99.7109 164.114ZM98.2289 159.183C98.2289 160.057 98.2859 160.865 98.5804 161.454C98.8939 162.071 99.4354 162.375 100.224 162.375C100.822 162.375 101.24 162.204 101.544 161.91C102.095 161.359 102.228 160.437 102.228 159.212V159.155C102.228 157.929 102.095 157.008 101.544 156.457C101.24 156.153 100.822 155.982 100.224 155.982C99.4354 155.982 98.8939 156.286 98.5804 156.913C98.2859 157.492 98.2289 158.3 98.2289 159.183Z" fill="#1F1F1F"/>
<g clip-path="url(#clip0_2632_5040)">
<path d="M57.3176 88.3772C57.3176 88.3772 57.1575 88.3772 57.0774 88.3452C56.5809 88.2176 56.2926 87.707 56.4208 87.2124C58.2785 80.2878 67.9197 79.2507 74.1817 80.7186C79.9792 82.0908 84.9439 80.0166 86.8657 77.2722C87.154 76.8574 87.7306 76.7457 88.147 77.0329C88.5634 77.3201 88.6755 77.8945 88.3872 78.3093C85.6966 82.1705 79.6909 83.8937 73.7653 82.5056C68.4002 81.2451 59.7519 82.011 58.2305 87.6911C58.1184 88.1059 57.75 88.3772 57.3336 88.3772H57.3176Z" fill="#D70A32"/>
<path d="M119.409 88.0416C117.791 88.0416 116.254 87.7863 114.828 87.2758L66.7667 72.2618C62.923 71.3364 60.3285 68.0815 60.1524 63.981C59.8961 58.0935 64.5726 50.1796 78.4738 45.5845C86.4014 42.9678 94.9855 42.3136 102.673 43.7337C109.639 45.0261 115.101 47.9299 117.295 51.5039C119.137 54.5035 118.576 57.6946 115.725 60.4868C107.189 68.8154 107.429 76.9367 110.232 81.3563C113.099 85.8717 118.736 87.4034 124.598 85.2494C125.078 85.0739 125.607 85.3132 125.783 85.7919C125.959 86.2706 125.719 86.7971 125.238 86.9726C123.252 87.7065 121.283 88.0576 119.409 88.0576V88.0416ZM94.457 44.8505C89.3322 44.8505 84.0631 45.6962 79.0664 47.3555C73.2368 49.2861 68.5764 52.0464 65.6136 55.3332C63.1792 58.0456 61.898 61.0931 62.0262 63.9172C62.1703 67.2359 64.1722 69.7568 67.2471 70.4908C67.2631 70.4908 67.2952 70.4908 67.3112 70.5067L109.72 83.7496C109.351 83.3029 108.999 82.8402 108.679 82.3296C105.508 77.3356 105.107 68.273 114.444 59.1625C116.686 56.9766 117.119 54.7269 115.725 52.4612C113.835 49.3659 108.711 46.7173 102.337 45.5526C99.7901 45.0899 97.1476 44.8505 94.457 44.8505Z" fill="#262626"/>
<path d="M85.0081 91.9834C75.2548 91.9834 65.9339 90.8665 58.743 88.8402C56.549 88.2179 54.6111 87.5318 52.9615 86.7979C51.4561 86.1118 50.5272 84.6758 50.5272 83.0324C50.5272 81.389 51.4561 79.9371 52.9615 79.267C54.6111 78.533 56.549 77.831 58.743 77.2247C64.4285 75.6292 71.4271 74.5921 79.0184 74.2251C79.5308 74.2091 79.9633 74.5921 79.9793 75.1026C80.0113 75.6132 79.6109 76.044 79.0984 76.06C71.6513 76.411 64.7808 77.4321 59.2395 78.9957C57.1415 79.5861 55.2838 80.2402 53.7143 80.9423C52.8654 81.3252 52.369 82.107 52.369 83.0324C52.369 83.9578 52.8815 84.7397 53.7143 85.1226C55.2677 85.8246 57.1255 86.4788 59.2395 87.0691C66.2702 89.0476 75.4149 90.1326 84.992 90.1326C94.5692 90.1326 103.714 89.0476 110.745 87.0691C112.458 86.5905 113.787 86.1437 115.053 85.6331C115.533 85.4417 116.062 85.6651 116.254 86.1437C116.446 86.6224 116.222 87.1489 115.741 87.3404C114.412 87.8829 113.019 88.3456 111.241 88.8402C104.05 90.8665 94.7293 91.9834 84.976 91.9834H85.0081Z" fill="#262626"/>
<path d="M85.008 96.9125C73.9415 96.9125 63.5316 95.5563 55.6841 93.0673C47.5163 90.4825 43 86.9245 43 83.0314C43 80.1754 45.4023 77.4949 49.9346 75.2452C54.1146 73.1869 59.9762 71.5276 66.8787 70.4586C67.3752 70.3788 67.8557 70.7298 67.9357 71.2244C68.0158 71.735 67.6635 72.1977 67.167 72.2775C53.8103 74.3357 44.8418 78.6437 44.8418 83.0154C44.8418 88.8232 60.9691 95.0457 84.992 95.0457C109.015 95.0457 125.142 88.8232 125.142 83.0154C125.142 79.2021 118.432 75.4207 107.606 73.1391C107.109 73.0274 106.789 72.5487 106.885 72.0382C106.981 71.5276 107.477 71.2244 107.99 71.3202C120.065 73.873 126.984 78.1331 126.984 82.9995C126.984 86.8926 122.484 90.4666 114.3 93.0354C106.452 95.5084 96.0425 96.8806 84.976 96.8806L85.008 96.9125Z" fill="#262626"/>
<path d="M94.9054 86.7976C94.9054 86.7976 94.7773 86.7976 94.6972 86.7816C92.6152 86.3189 91.302 85.4095 90.5492 84.7074C88.7075 86.4466 85.072 86.7657 84.5916 86.8135C84.0791 86.8454 83.6306 86.4785 83.5986 85.9679C83.5666 85.4573 83.9349 85.0106 84.4474 84.9787C86.145 84.851 89.0758 84.1649 89.6524 82.8726C89.7965 82.5535 90.1008 82.346 90.4531 82.3301C90.8055 82.3301 91.1258 82.4896 91.302 82.7928C91.334 82.8406 92.2629 84.3564 95.0976 84.9946C95.594 85.1063 95.9143 85.6009 95.8022 86.0955C95.7061 86.5263 95.3218 86.8135 94.9054 86.8135V86.7976Z" fill="#D70A32"/>
<path d="M85.008 123C77.0804 123 69.5052 122.107 63.7077 120.495C59.4316 119.299 54.1946 117.161 53.4419 113.762V113.73L49.326 90.1004C49.2459 89.6058 49.5822 89.1271 50.0787 89.0314C50.5752 88.9516 51.0556 89.2867 51.1517 89.7813L55.2677 113.379C55.7001 115.278 59.0473 117.272 64.2202 118.708C69.8576 120.288 77.2406 121.149 85.008 121.149C92.7754 121.149 100.158 120.288 105.796 118.708C110.969 117.256 114.316 115.262 114.748 113.379L118.864 89.7813C118.944 89.2867 119.425 88.9357 119.937 89.0314C120.434 89.1112 120.786 89.5898 120.69 90.1004L116.574 113.73V113.762C115.821 117.161 110.584 119.299 106.308 120.495C100.511 122.107 92.9515 123 85.008 123Z" fill="#262626"/>
</g>
<defs>
<clipPath id="clip0_2632_5040">
<rect width="84" height="80" fill="white" transform="translate(43 43)"/>
</clipPath>
</defs>
</svg>
