<svg width="169" height="212" viewBox="0 0 169 212" fill="none" xmlns="http://www.w3.org/2000/svg">
<rect width="169" height="212" fill="white"/>
<path d="M71.0073 164V150.472H73.0688V162.166H79.5763V164H71.0073ZM84.2925 164.105C83.1145 164.105 82.3165 163.838 81.7275 163.24C81.224 162.746 80.9675 161.976 80.9675 161.178C80.9675 160.437 81.205 159.782 81.699 159.288C82.2975 158.689 83.105 158.385 84.283 158.385H86.848V157.701C86.848 157.131 86.7245 156.704 86.4205 156.4C86.088 156.058 85.5465 155.896 84.7865 155.896C83.713 155.896 83.162 156.191 82.6205 156.875L81.357 155.659C82.2595 154.595 83.219 154.243 84.8055 154.243C86.2495 154.243 87.2945 154.585 87.9595 155.25C88.5105 155.801 88.786 156.571 88.786 157.568V164H86.886V163.116C86.601 163.411 86.316 163.629 86.0025 163.781C85.5465 164.01 85.0145 164.105 84.2925 164.105ZM82.8485 161.14C82.8485 162.033 83.3995 162.499 84.6535 162.499C85.385 162.499 85.9835 162.385 86.43 161.938C86.753 161.606 86.848 161.102 86.848 160.542V159.753H84.587C83.922 159.753 83.485 159.886 83.1905 160.19C82.953 160.428 82.8485 160.741 82.8485 161.14ZM96.2016 164.114C95.1471 164.114 94.3776 163.838 93.6461 162.974V164H91.7461V150.472H93.6841V155.345C94.3966 154.5 95.1756 154.243 96.2111 154.243C97.2086 154.243 98.0066 154.576 98.5386 155.098C99.4791 156.048 99.6311 157.587 99.6311 159.183C99.6311 160.77 99.4791 162.309 98.5386 163.259C98.0066 163.781 97.1991 164.114 96.2016 164.114ZM93.6841 159.212C93.6841 160.437 93.8266 161.359 94.3776 161.91C94.6721 162.204 95.0901 162.375 95.6886 162.375C96.4771 162.375 97.0281 162.071 97.3321 161.454C97.6266 160.865 97.6931 160.057 97.6931 159.183C97.6931 158.3 97.6266 157.492 97.3321 156.913C97.0281 156.286 96.4771 155.982 95.6886 155.982C95.0901 155.982 94.6721 156.153 94.3776 156.457C93.8266 157.008 93.6841 157.929 93.6841 159.155V159.212ZM35.9011 187L40.8601 173.472H42.5036L47.4626 187H45.2871L44.3561 184.283H39.0171L38.0766 187H35.9011ZM39.6156 182.535H43.7481L41.6866 176.54L39.6156 182.535ZM52.3284 187.114C51.3784 187.114 50.5614 186.829 49.9344 186.202C49.2314 185.499 48.9844 184.577 48.9844 183.523V177.357H50.9224V183.238C50.9224 184.739 51.7869 185.375 52.8794 185.375C53.9719 185.375 54.8649 184.729 54.8649 183.238V177.357H56.8029V187H54.8934V186.031C54.6179 186.335 54.2759 186.582 53.9434 186.753C53.4589 186.99 52.9269 187.114 52.3284 187.114ZM62.7567 187C61.9207 187 61.2842 186.724 60.8472 186.278C60.3627 185.803 60.1157 185.128 60.1157 184.34V179.02H59.0137V177.538H60.1157V174.612H62.0537V177.538H63.9252V179.02H62.0537V184.226C62.0537 184.948 62.3957 185.347 63.1082 185.347H63.9252V187H62.7567ZM69.8516 187.114C68.6831 187.114 67.7331 186.734 67.0016 186.002C66.0136 185.005 65.8426 183.694 65.8426 182.183C65.8426 180.663 66.0136 179.352 67.0111 178.345C67.7331 177.623 68.6831 177.243 69.8516 177.243C71.0106 177.243 71.9606 177.623 72.6921 178.345C73.6896 179.352 73.8606 180.663 73.8606 182.183C73.8606 183.694 73.6896 185.005 72.6921 186.002C71.9606 186.734 71.0106 187.114 69.8516 187.114ZM67.7806 182.183C67.7806 183.219 67.8376 184.226 68.4266 184.815C68.7971 185.185 69.2721 185.375 69.8516 185.375C70.4311 185.375 70.9061 185.185 71.2671 184.815C71.8656 184.226 71.9226 183.219 71.9226 182.183C71.9226 181.138 71.8656 180.141 71.2671 179.542C70.9061 179.172 70.4311 178.982 69.8516 178.982C69.2721 178.982 68.7971 179.172 68.4266 179.542C67.8376 180.141 67.7806 181.138 67.7806 182.183ZM76.4942 187V177.357H78.4037V178.336C78.6887 178.013 79.0117 177.785 79.3537 177.614C79.8572 177.357 80.3797 177.243 80.9782 177.243C82.1562 177.243 83.0967 177.718 83.7047 178.649C84.0467 178.212 84.4457 177.87 84.9112 177.633C85.4337 177.376 86.0132 177.243 86.6782 177.243C87.7422 177.243 88.5877 177.566 89.2052 178.174C89.8512 178.83 90.1837 179.761 90.1837 180.806V187H88.2457V181.119C88.2457 179.618 87.3907 178.982 86.2982 178.982C85.2342 178.982 84.3127 179.628 84.3127 181.024V187H82.3747V181.119C82.3747 179.618 81.5197 178.982 80.4177 178.982C79.3252 178.982 78.4322 179.628 78.4322 181.119V187H76.4942ZM95.7593 187.105C94.5813 187.105 93.7833 186.838 93.1943 186.24C92.6908 185.746 92.4343 184.976 92.4343 184.178C92.4343 183.437 92.6718 182.782 93.1658 182.288C93.7643 181.689 94.5718 181.385 95.7498 181.385H98.3148V180.701C98.3148 180.131 98.1913 179.704 97.8873 179.4C97.5548 179.058 97.0133 178.896 96.2533 178.896C95.1798 178.896 94.6288 179.191 94.0873 179.875L92.8238 178.659C93.7263 177.595 94.6858 177.243 96.2723 177.243C97.7163 177.243 98.7613 177.585 99.4263 178.25C99.9773 178.801 100.253 179.571 100.253 180.568V187H98.3528V186.116C98.0678 186.411 97.7828 186.629 97.4693 186.781C97.0133 187.01 96.4813 187.105 95.7593 187.105ZM94.3153 184.14C94.3153 185.033 94.8663 185.499 96.1203 185.499C96.8518 185.499 97.4503 185.385 97.8968 184.938C98.2198 184.606 98.3148 184.102 98.3148 183.542V182.753H96.0538C95.3888 182.753 94.9518 182.886 94.6573 183.19C94.4198 183.428 94.3153 183.741 94.3153 184.14ZM106.082 187C105.246 187 104.609 186.724 104.172 186.278C103.688 185.803 103.441 185.128 103.441 184.34V179.02H102.339V177.538H103.441V174.612H105.379V177.538H107.25V179.02H105.379V184.226C105.379 184.948 105.721 185.347 106.433 185.347H107.25V187H106.082ZM109.707 187V177.547H111.645V187H109.707ZM109.65 175.153V173.424H111.712V175.153H109.65ZM118.298 187.114C117.129 187.114 116.179 186.734 115.448 186.002C114.46 185.005 114.289 183.694 114.289 182.183C114.289 180.663 114.46 179.352 115.457 178.345C116.179 177.623 117.129 177.243 118.298 177.243C119.457 177.243 120.407 177.623 121.138 178.345C122.136 179.352 122.307 180.663 122.307 182.183C122.307 183.694 122.136 185.005 121.138 186.002C120.407 186.734 119.457 187.114 118.298 187.114ZM116.227 182.183C116.227 183.219 116.284 184.226 116.873 184.815C117.243 185.185 117.718 185.375 118.298 185.375C118.877 185.375 119.352 185.185 119.713 184.815C120.312 184.226 120.369 183.219 120.369 182.183C120.369 181.138 120.312 180.141 119.713 179.542C119.352 179.172 118.877 178.982 118.298 178.982C117.718 178.982 117.243 179.172 116.873 179.542C116.284 180.141 116.227 181.138 116.227 182.183ZM124.94 187V177.357H126.85V178.336C127.125 178.022 127.467 177.775 127.8 177.604C128.284 177.367 128.816 177.243 129.415 177.243C130.365 177.243 131.182 177.528 131.809 178.155C132.512 178.858 132.759 179.789 132.759 180.844V187H130.821V181.119C130.821 179.618 129.966 178.982 128.864 178.982C127.771 178.982 126.878 179.628 126.878 181.119V187H124.94Z" fill="#1F1F1F"/>
<g clip-path="url(#clip0_2632_5041)">
<path d="M90.1771 90.9674H45.067C44.4987 90.9674 44.0308 90.4971 44.0308 89.9261C44.0308 89.355 44.4987 88.8848 45.067 88.8848H90.1603C90.7286 88.8848 91.1966 89.355 91.1966 89.9261C91.1966 90.4971 90.7286 90.9674 90.1603 90.9674H90.1771Z" fill="#D70A32"/>
<path d="M121.95 117H88.5224C86.0989 117 84.1434 115.018 84.1434 112.599C84.1434 112.028 84.6114 111.558 85.1797 111.558C85.7479 111.558 86.2159 112.028 86.2159 112.599C86.2159 113.876 87.2522 114.917 88.5224 114.917H121.95C123.22 114.917 124.256 113.876 124.256 112.599V56.5358H86.2326V68.9309C86.2326 69.502 85.7647 69.9722 85.1964 69.9722C84.6281 69.9722 84.1601 69.502 84.1601 68.9309V55.4945C84.1601 54.9234 84.6281 54.4531 85.1964 54.4531H125.309C125.877 54.4531 126.345 54.9234 126.345 55.4945V112.599C126.345 115.035 124.373 117 121.966 117H121.95Z" fill="#1F1F1F"/>
<path d="M126.964 56.5358H83.5084C82.9401 56.5358 82.4722 56.0655 82.4722 55.4945C82.4722 54.9234 82.9401 54.4531 83.5084 54.4531H126.964C127.532 54.4531 128 54.9234 128 55.4945C128 56.0655 127.532 56.5358 126.964 56.5358Z" fill="#1F1F1F"/>
<path d="M118.607 65.7741H115.264C114.696 65.7741 114.228 65.3038 114.228 64.7327C114.228 64.1617 114.696 63.6914 115.264 63.6914H118.607C119.175 63.6914 119.643 64.1617 119.643 64.7327C119.643 65.3038 119.175 65.7741 118.607 65.7741Z" fill="#1F1F1F"/>
<path d="M118.607 74.1705H115.264C114.696 74.1705 114.228 73.7003 114.228 73.1292C114.228 72.5582 114.696 72.0879 115.264 72.0879H118.607C119.175 72.0879 119.643 72.5582 119.643 73.1292C119.643 73.7003 119.175 74.1705 118.607 74.1705Z" fill="#1F1F1F"/>
<path d="M125.292 82.569H92.8846C92.3164 82.569 91.8484 82.0987 91.8484 81.5277C91.8484 80.9566 92.3164 80.4863 92.8846 80.4863H125.292C125.861 80.4863 126.329 80.9566 126.329 81.5277C126.329 82.0987 125.861 82.569 125.292 82.569Z" fill="#1F1F1F"/>
<path d="M118.607 90.9674H115.264C114.696 90.9674 114.228 90.4971 114.228 89.9261C114.228 89.355 114.696 88.8848 115.264 88.8848H118.607C119.175 88.8848 119.643 89.355 119.643 89.9261C119.643 90.4971 119.175 90.9674 118.607 90.9674Z" fill="#1F1F1F"/>
<path d="M118.607 99.3639H115.264C114.696 99.3639 114.228 98.8936 114.228 98.3226C114.228 97.7515 114.696 97.2812 115.264 97.2812H118.607C119.175 97.2812 119.643 97.7515 119.643 98.3226C119.643 98.8936 119.175 99.3639 118.607 99.3639Z" fill="#1F1F1F"/>
<path d="M118.607 107.762H115.264C114.696 107.762 114.228 107.292 114.228 106.721C114.228 106.15 114.696 105.68 115.264 105.68H118.607C119.175 105.68 119.643 106.15 119.643 106.721C119.643 107.292 119.175 107.762 118.607 107.762Z" fill="#1F1F1F"/>
<path d="M65.1567 117C64.1539 117 63.151 116.95 62.1315 116.832C49.847 115.455 40.1698 105.461 39.1001 93.0663C38.1642 82.0484 43.9471 71.8535 53.8583 67.0835C54.9948 66.5293 55.7135 65.4376 55.7135 64.2115V42.0413C55.7135 41.4703 56.1815 41 56.7497 41H73.4633C74.0316 41 74.4996 41.4703 74.4996 42.0413V64.2283C74.4996 65.4544 75.2016 66.5461 76.3381 67.0835C85.3801 71.4168 91.2132 80.7048 91.2132 90.7485C91.2132 98.2057 88.0376 105.327 82.5054 110.315C77.6585 114.682 71.5747 117 65.14 117H65.1567ZM57.8027 43.0994V64.2283C57.8027 66.2606 56.6327 68.0913 54.7608 68.9814C45.6519 73.3819 40.3202 82.7538 41.1893 92.8983C42.1587 104.303 51.0671 113.49 62.3655 114.749C69.3184 115.539 75.9704 113.389 81.1349 108.753C86.2158 104.168 89.1407 97.6179 89.1407 90.7653C89.1407 81.5277 83.7756 72.9788 75.4523 68.9982C73.5803 68.1081 72.4271 66.2773 72.4271 64.2451V43.0994H57.8027Z" fill="#1F1F1F"/>
<path d="M75.1515 43.1002H55.0952C54.5269 43.1002 54.059 42.63 54.059 42.0589C54.059 41.4879 54.5269 41.0176 55.0952 41.0176H75.1515C75.7198 41.0176 76.1878 41.4879 76.1878 42.0589C76.1878 42.63 75.7198 43.1002 75.1515 43.1002Z" fill="#1F1F1F"/>
<path d="M80.1656 99.1462C81.0887 99.1462 81.837 98.3943 81.837 97.4667C81.837 96.5391 81.0887 95.7871 80.1656 95.7871C79.2426 95.7871 78.4943 96.5391 78.4943 97.4667C78.4943 98.3943 79.2426 99.1462 80.1656 99.1462Z" fill="#D70A32"/>
<path d="M70.1374 107.545C71.0605 107.545 71.8088 106.793 71.8088 105.865C71.8088 104.938 71.0605 104.186 70.1374 104.186C69.2144 104.186 68.4661 104.938 68.4661 105.865C68.4661 106.793 69.2144 107.545 70.1374 107.545Z" fill="#D70A32"/>
<path d="M51.7525 100.826C52.6756 100.826 53.4239 100.074 53.4239 99.1464C53.4239 98.2188 52.6756 97.4668 51.7525 97.4668C50.8295 97.4668 50.0812 98.2188 50.0812 99.1464C50.0812 100.074 50.8295 100.826 51.7525 100.826Z" fill="#D70A32"/>
</g>
<defs>
<clipPath id="clip0_2632_5041">
<rect width="89" height="76" fill="white" transform="translate(39 41)"/>
</clipPath>
</defs>
</svg>
