<svg width="136" height="121" viewBox="0 0 136 121" fill="none" xmlns="http://www.w3.org/2000/svg">
<path d="M73.583 84.3349H28.5635C27.9963 84.3349 27.5293 83.894 27.5293 83.3588C27.5293 82.8235 27.9963 82.3827 28.5635 82.3827H73.5664C74.1335 82.3827 74.6005 82.8235 74.6005 83.3588C74.6005 83.894 74.1335 84.3349 73.5664 84.3349H73.583Z" fill="#D70A32"/>
<path d="M105.292 108.737H71.9317C69.5131 108.737 67.5615 106.879 67.5615 104.612C67.5615 104.077 68.0286 103.636 68.5957 103.636C69.1628 103.636 69.6299 104.077 69.6299 104.612C69.6299 105.809 70.664 106.785 71.9317 106.785H105.292C106.56 106.785 107.594 105.809 107.594 104.612V52.0613H69.6465V63.6798C69.6465 64.2151 69.1795 64.6559 68.6124 64.6559C68.0452 64.6559 67.5782 64.2151 67.5782 63.6798V51.0852C67.5782 50.5499 68.0452 50.1091 68.6124 50.1091H108.645C109.212 50.1091 109.679 50.5499 109.679 51.0852V104.612C109.679 106.895 107.711 108.737 105.309 108.737H105.292Z" fill="#1F1F1F"/>
<path d="M110.296 52.0613H66.9276C66.3605 52.0613 65.8934 51.6205 65.8934 51.0852C65.8934 50.5499 66.3605 50.1091 66.9276 50.1091H110.296C110.863 50.1091 111.33 50.5499 111.33 51.0852C111.33 51.6205 110.863 52.0613 110.296 52.0613Z" fill="#1F1F1F"/>
<path d="M101.956 60.72H98.6199C98.0527 60.72 97.5857 60.2792 97.5857 59.7439C97.5857 59.2086 98.0527 58.7678 98.6199 58.7678H101.956C102.523 58.7678 102.99 59.2086 102.99 59.7439C102.99 60.2792 102.523 60.72 101.956 60.72Z" fill="#1F1F1F"/>
<path d="M101.956 68.5917H98.6199C98.0527 68.5917 97.5857 68.1509 97.5857 67.6156C97.5857 67.0803 98.0527 66.6395 98.6199 66.6395H101.956C102.523 66.6395 102.99 67.0803 102.99 67.6156C102.99 68.1509 102.523 68.5917 101.956 68.5917Z" fill="#1F1F1F"/>
<path d="M108.628 76.4633H76.2851C75.718 76.4633 75.251 76.0225 75.251 75.4872C75.251 74.9519 75.718 74.5111 76.2851 74.5111H108.628C109.195 74.5111 109.662 74.9519 109.662 75.4872C109.662 76.0225 109.195 76.4633 108.628 76.4633Z" fill="#1F1F1F"/>
<path d="M101.956 84.3349H98.6199C98.0527 84.3349 97.5857 83.894 97.5857 83.3588C97.5857 82.8235 98.0527 82.3827 98.6199 82.3827H101.956C102.523 82.3827 102.99 82.8235 102.99 83.3588C102.99 83.894 102.523 84.3349 101.956 84.3349Z" fill="#1F1F1F"/>
<path d="M101.956 92.2064H98.6199C98.0527 92.2064 97.5857 91.7656 97.5857 91.2304C97.5857 90.6951 98.0527 90.2543 98.6199 90.2543H101.956C102.523 90.2543 102.99 90.6951 102.99 91.2304C102.99 91.7656 102.523 92.2064 101.956 92.2064Z" fill="#1F1F1F"/>
<path d="M101.956 100.078H98.6199C98.0527 100.078 97.5857 99.6373 97.5857 99.1021C97.5857 98.5668 98.0527 98.126 98.6199 98.126H101.956C102.523 98.126 102.99 98.5668 102.99 99.1021C102.99 99.6373 102.523 100.078 101.956 100.078Z" fill="#1F1F1F"/>
<path d="M48.6128 108.737C47.612 108.737 46.6112 108.69 45.5937 108.579C33.3338 107.289 23.676 97.9213 22.6085 86.3028C21.6744 75.9752 27.4457 66.4191 37.337 61.948C38.4713 61.4285 39.1885 60.4052 39.1885 59.2559V38.4749C39.1885 37.9396 39.6556 37.4988 40.2227 37.4988H56.9028C57.4699 37.4988 57.9369 37.9396 57.9369 38.4749V59.2717C57.9369 60.4209 58.6375 61.4442 59.7717 61.948C68.7957 66.0098 74.617 74.7158 74.617 84.1302C74.617 91.1202 71.4478 97.7953 65.9267 102.471C61.0895 106.564 55.0179 108.737 48.5961 108.737H48.6128ZM41.2735 39.4667V59.2717C41.2735 61.1766 40.1059 62.8926 38.2377 63.727C29.1471 67.8517 23.8261 76.6364 24.6935 86.1453C25.6609 96.835 34.5514 105.447 45.8272 106.627C52.7661 107.367 59.4048 105.352 64.5589 101.007C69.6297 96.7091 72.5487 90.5692 72.5487 84.146C72.5487 75.4872 67.1944 67.4739 58.8877 63.7427C57.0195 62.9083 55.8686 61.1923 55.8686 59.2874V39.4667H41.2735Z" fill="#1F1F1F"/>
<path d="M58.5876 39.4669H38.5715C38.0044 39.4669 37.5374 39.0261 37.5374 38.4909C37.5374 37.9556 38.0044 37.5148 38.5715 37.5148H58.5876C59.1548 37.5148 59.6218 37.9556 59.6218 38.4909C59.6218 39.0261 59.1548 39.4669 58.5876 39.4669Z" fill="#1F1F1F"/>
<path d="M63.5916 92.0018C64.5128 92.0018 65.2596 91.2969 65.2596 90.4275C65.2596 89.558 64.5128 88.8531 63.5916 88.8531C62.6704 88.8531 61.9236 89.558 61.9236 90.4275C61.9236 91.2969 62.6704 92.0018 63.5916 92.0018Z" fill="#D70A32"/>
<path d="M53.5835 99.8735C54.5048 99.8735 55.2515 99.1687 55.2515 98.2992C55.2515 97.4297 54.5048 96.7249 53.5835 96.7249C52.6623 96.7249 51.9155 97.4297 51.9155 98.2992C51.9155 99.1687 52.6623 99.8735 53.5835 99.8735Z" fill="#D70A32"/>
<path d="M35.2355 93.5761C36.1567 93.5761 36.9035 92.8713 36.9035 92.0018C36.9035 91.1323 36.1567 90.4275 35.2355 90.4275C34.3143 90.4275 33.5675 91.1323 33.5675 92.0018C33.5675 92.8713 34.3143 93.5761 35.2355 93.5761Z" fill="#D70A32"/>
</svg>
