<svg width="169" height="212" viewBox="0 0 169 212" fill="none" xmlns="http://www.w3.org/2000/svg">
<rect width="169" height="212" fill="white"/>
<path d="M61.3966 164.114C59.9051 164.114 58.7651 163.61 57.8911 162.736C56.5801 161.425 56.5231 160.067 56.5231 157.236C56.5231 154.405 56.5801 153.047 57.8911 151.735C58.7651 150.861 59.9051 150.358 61.3966 150.358C62.8786 150.358 64.0186 150.861 64.8926 151.735C66.2036 153.047 66.2606 154.405 66.2606 157.236C66.2606 160.067 66.2036 161.425 64.8926 162.736C64.0186 163.61 62.8786 164.114 61.3966 164.114ZM58.5846 157.236C58.5846 159.573 58.6606 160.713 59.4301 161.492C59.9526 162.014 60.6176 162.28 61.3966 162.28C62.1661 162.28 62.8311 162.014 63.3536 161.492C64.1326 160.713 64.1991 159.582 64.1991 157.236C64.1991 154.889 64.1326 153.759 63.3536 152.98C62.8311 152.457 62.1661 152.191 61.3966 152.191C60.6176 152.191 59.9526 152.457 59.4301 152.98C58.6606 153.759 58.5846 154.889 58.5846 157.236ZM69.0723 167.886V154.357H70.9723V155.383C71.7038 154.519 72.4733 154.243 73.5278 154.243C74.5253 154.243 75.3328 154.576 75.8648 155.098C76.8053 156.048 76.9573 157.587 76.9573 159.183C76.9573 160.77 76.8053 162.309 75.8648 163.259C75.3328 163.781 74.5348 164.114 73.5373 164.114C72.5018 164.114 71.7228 163.857 71.0103 163.021V167.886H69.0723ZM71.0103 159.212C71.0103 160.437 71.1528 161.359 71.7038 161.91C71.9983 162.204 72.4163 162.375 73.0148 162.375C73.8033 162.375 74.3543 162.071 74.6583 161.454C74.9528 160.865 75.0193 160.057 75.0193 159.183C75.0193 158.3 74.9528 157.492 74.6583 156.913C74.3543 156.286 73.8033 155.982 73.0148 155.982C72.4163 155.982 71.9983 156.153 71.7038 156.457C71.1528 157.008 71.0103 157.929 71.0103 159.155V159.212ZM82.4433 164C81.6073 164 80.9708 163.724 80.5338 163.278C80.0493 162.803 79.8023 162.128 79.8023 161.34V156.02H78.7003V154.538H79.8023V151.612H81.7403V154.538H83.6118V156.02H81.7403V161.226C81.7403 161.948 82.0823 162.347 82.7948 162.347H83.6118V164H82.4433ZM86.0684 164V154.547H88.0064V164H86.0684ZM86.0114 152.153V150.424H88.0729V152.153H86.0114ZM94.9347 164.114C93.7187 164.114 92.6927 163.743 91.9422 162.993C91.1347 162.195 90.6502 160.95 90.6502 159.183C90.6502 157.407 91.1347 156.162 91.9422 155.364C92.6927 154.614 93.7187 154.243 94.9347 154.243C96.2647 154.243 97.1957 154.642 98.1077 155.611L96.7872 156.894C96.1792 156.238 95.6947 155.982 94.9347 155.982C94.2792 155.982 93.7662 156.181 93.3482 156.599C92.7592 157.188 92.5882 158.053 92.5882 159.183C92.5882 160.304 92.7592 161.169 93.3482 161.758C93.7662 162.185 94.2792 162.375 94.9347 162.375C95.6947 162.375 96.1792 162.119 96.7872 161.463L98.1077 162.755C97.1957 163.724 96.2647 164.114 94.9347 164.114ZM102.866 164.105C101.688 164.105 100.89 163.838 100.301 163.24C99.7972 162.746 99.5407 161.976 99.5407 161.178C99.5407 160.437 99.7782 159.782 100.272 159.288C100.871 158.689 101.678 158.385 102.856 158.385H105.421V157.701C105.421 157.131 105.298 156.704 104.994 156.4C104.661 156.058 104.12 155.896 103.36 155.896C102.286 155.896 101.735 156.191 101.194 156.875L99.9302 155.659C100.833 154.595 101.792 154.243 103.379 154.243C104.823 154.243 105.868 154.585 106.533 155.25C107.084 155.801 107.359 156.571 107.359 157.568V164H105.459V163.116C105.174 163.411 104.889 163.629 104.576 163.781C104.12 164.01 103.588 164.105 102.866 164.105ZM101.422 161.14C101.422 162.033 101.973 162.499 103.227 162.499C103.958 162.499 104.557 162.385 105.003 161.938C105.326 161.606 105.421 161.102 105.421 160.542V159.753H103.16C102.495 159.753 102.058 159.886 101.764 160.19C101.526 160.428 101.422 160.741 101.422 161.14ZM112.903 164C112.048 164 111.421 163.743 110.975 163.297C110.5 162.822 110.262 162.119 110.262 161.33V150.472H112.2V161.216C112.2 161.976 112.466 162.347 113.255 162.347H114.11V164H112.903Z" fill="#1F1F1F"/>
<g clip-path="url(#clip0_2632_5042)">
<path d="M50.4333 118C49.9497 118 49.5514 117.599 49.5514 117.113V50.4571H45.8818C45.3982 50.4571 45 50.0563 45 49.5697V43.8874C45 43.4008 45.3982 43 45.8818 43H122.118C122.602 43 123 43.4008 123 43.8874V49.5697C123 50.0563 122.602 50.4571 122.118 50.4571H118.434V117.113C118.434 117.599 118.036 118 117.553 118H50.4333ZM51.3151 116.225H116.671V50.4571H51.3151V116.225ZM46.7637 48.6823H121.236V44.7748H46.7637V48.6823Z" fill="#1F1F1F"/>
<path d="M80.1598 69.1353C79.6762 69.1353 79.278 68.7345 79.278 68.2479V55.7956C79.278 55.309 79.6762 54.9082 80.1598 54.9082H87.8545C88.3381 54.9082 88.7364 55.309 88.7364 55.7956C88.7364 56.2822 88.3381 56.683 87.8545 56.683H81.0416V61.1343H87.8545C88.3381 61.1343 88.7364 61.5351 88.7364 62.0218C88.7364 62.5084 88.3381 62.9092 87.8545 62.9092H81.0416V67.3605H87.8545C88.3381 67.3605 88.7364 67.7613 88.7364 68.2479C88.7364 68.7345 88.3381 69.1353 87.8545 69.1353H80.1598Z" fill="#D70A32"/>
<path d="M73.0197 86.5552C72.5361 86.5552 72.1378 86.1544 72.1378 85.6677V75.9206C72.1378 75.434 72.5361 75.0332 73.0197 75.0332H79.0503C79.5339 75.0332 79.9321 75.434 79.9321 75.9206C79.9321 76.4073 79.5339 76.808 79.0503 76.808H73.9015V79.9139H78.2253C78.7089 79.9139 79.1072 80.3147 79.1072 80.8013C79.1072 81.288 78.7089 81.6887 78.2253 81.6887H73.9015V85.6821C73.9015 86.1687 73.5032 86.5695 73.0197 86.5695V86.5552Z" fill="#D70A32"/>
<path d="M88.9639 86.5552C88.4803 86.5552 88.082 86.1544 88.082 85.6677V75.9206C88.082 75.434 88.4803 75.0332 88.9639 75.0332H92.5623C94.3829 75.0332 95.8621 76.5218 95.8621 78.3538C95.8621 80.1859 94.3829 81.6744 92.5623 81.6744H89.8457V85.6677C89.8457 86.1544 89.4475 86.5552 88.9639 86.5552ZM89.8457 79.8996H92.5623C93.4157 79.8996 94.0984 79.1983 94.0984 78.3538C94.0984 77.5094 93.4015 76.808 92.5623 76.808H89.8457V79.9139V79.8996Z" fill="#D70A32"/>
<path d="M70.6018 111.945C70.1182 111.945 69.72 111.544 69.72 111.057C69.72 110.571 70.1182 110.17 70.6018 110.17H73.6171C74.1007 110.17 74.499 110.571 74.499 111.057C74.499 111.544 74.1007 111.945 73.6171 111.945H70.6018Z" fill="#D70A32"/>
<path d="M82.4923 111.945C82.0087 111.945 81.6105 111.544 81.6105 111.057C81.6105 110.571 82.0087 110.17 82.4923 110.17H85.5076C85.9912 110.17 86.3895 110.571 86.3895 111.057C86.3895 111.544 85.9912 111.945 85.5076 111.945H82.4923Z" fill="#D70A32"/>
<path d="M94.3829 111.945C93.8994 111.945 93.5011 111.544 93.5011 111.057C93.5011 110.571 93.8994 110.17 94.3829 110.17H97.3983C97.8818 110.17 98.2801 110.571 98.2801 111.057C98.2801 111.544 97.8818 111.945 97.3983 111.945H94.3829Z" fill="#D70A32"/>
<path d="M106.274 111.945C105.79 111.945 105.392 111.544 105.392 111.057C105.392 110.571 105.79 110.17 106.274 110.17H109.289C109.772 110.17 110.171 110.571 110.171 111.057C110.171 111.544 109.772 111.945 109.289 111.945H106.274Z" fill="#D70A32"/>
<path d="M58.7253 111.945C58.2418 111.945 57.8435 111.544 57.8435 111.057C57.8435 110.571 58.2418 110.17 58.7253 110.17H61.7407C62.2243 110.17 62.6225 110.571 62.6225 111.057C62.6225 111.544 62.2243 111.945 61.7407 111.945H58.7253Z" fill="#D70A32"/>
<path d="M83.9999 102.729C81.6104 102.729 79.6619 100.768 79.6619 98.3635C79.6619 95.9589 81.6104 93.998 83.9999 93.998C86.3894 93.998 88.338 95.9589 88.338 98.3635C88.338 100.768 86.3894 102.729 83.9999 102.729ZM83.9999 95.7729C82.5776 95.7729 81.4255 96.9322 81.4255 98.3635C81.4255 99.7948 82.5776 100.954 83.9999 100.954C85.4223 100.954 86.5743 99.7948 86.5743 98.3635C86.5743 96.9322 85.4223 95.7729 83.9999 95.7729Z" fill="#D70A32"/>
<path d="M93.2024 102.728C93.1171 102.728 93.0317 102.714 92.9037 102.671C92.5339 102.528 92.3206 102.213 92.3206 101.841C92.3206 101.598 92.4201 101.369 92.605 101.211L97.9956 95.7865H93.2593C92.7757 95.7865 92.3775 95.3858 92.3775 94.8991C92.3775 94.4125 92.7757 94.0117 93.2593 94.0117H100.115C100.229 94.0117 100.342 94.0403 100.456 94.0833C100.67 94.1692 100.84 94.3409 100.926 94.5556C101.011 94.7703 101.011 95.0136 100.926 95.2283C100.883 95.3428 100.812 95.443 100.741 95.5146L95.3359 100.954H100.058C100.542 100.954 100.94 101.354 100.94 101.841C100.94 102.328 100.542 102.728 100.058 102.728H93.2024Z" fill="#D70A32"/>
<path d="M71.4836 102.729C71 102.729 70.6018 102.328 70.6018 101.842V95.7729H67.8851C67.4015 95.7729 67.0033 95.3721 67.0033 94.8854C67.0033 94.3988 67.4015 93.998 67.8851 93.998H75.0821C75.5657 93.998 75.9639 94.3988 75.9639 94.8854C75.9639 95.3721 75.5657 95.7729 75.0821 95.7729H72.3654V101.842C72.3654 102.328 71.9672 102.729 71.4836 102.729Z" fill="#D70A32"/>
</g>
<defs>
<clipPath id="clip0_2632_5042">
<rect width="78" height="75" fill="white" transform="translate(45 43)"/>
</clipPath>
</defs>
</svg>
