<svg width="136" height="92" viewBox="0 0 136 92" fill="none" xmlns="http://www.w3.org/2000/svg">
<path d="M10.0727 15.005V2.32463H15.2019C17.8281 2.32463 19.5157 3.9542 19.5157 6.17149C19.5157 8.37987 17.8281 10.0094 15.2019 10.0094H12.1301V15.005H10.0727ZM12.1301 8.29082H15.0692C16.5103 8.29082 17.4584 7.51611 17.4584 6.17149C17.4584 4.81796 16.5103 4.04325 15.0692 4.04325H12.1301V8.29082Z" fill="#1F1F1F"/>
<path d="M25.3966 15.1119C24.0313 15.1119 23.0548 14.7646 22.3342 14.0967C21.5568 13.3576 21.0922 12.1911 21.0922 10.4903C21.0922 8.87854 21.5663 7.64968 22.4101 6.85716C23.1117 6.1982 24.0408 5.85982 25.1595 5.85982C26.3162 5.85982 27.2359 6.1893 27.9185 6.83935C28.7813 7.64968 29.2458 8.86963 29.2458 10.6328V11.0246H22.9979C22.9979 11.8616 23.2444 12.5206 23.709 12.9569C24.1261 13.3487 24.7045 13.5624 25.444 13.5624C26.5248 13.5624 27.0937 13.2686 27.7763 12.6274L29.0183 13.7049C28.0323 14.6221 27.0842 15.1119 25.3966 15.1119ZM22.9979 9.7423H27.3212C27.2928 9.08335 27.1505 8.41549 26.6196 7.91682C26.2783 7.59625 25.8043 7.39144 25.1595 7.39144C24.5243 7.39144 24.0408 7.59625 23.6995 7.91682C23.178 8.41549 23.0358 9.08335 22.9979 9.7423Z" fill="#1F1F1F"/>
<path d="M31.8254 15.005V5.96668H33.7311V6.9462C34.2241 6.31396 35.2101 5.85982 36.2814 5.85982C37.2295 5.85982 37.8837 6.07354 38.5664 6.71468L37.1252 8.08601C36.6796 7.67639 36.3288 7.48939 35.6747 7.48939C34.6223 7.48939 33.7595 8.27301 33.7595 9.51077V15.005H31.8254Z" fill="#1F1F1F"/>
<path d="M42.9808 15.1119C41.4164 15.1119 40.0891 14.8625 38.9514 13.8118L40.2218 12.6185C40.9898 13.3576 42.0422 13.5535 42.9713 13.5535C44.4314 13.5535 45.0855 13.0816 45.0855 12.2891C45.0855 11.6835 44.7253 11.3273 43.8056 11.2472L42.2602 11.1225C40.4588 10.9623 39.4159 10.2232 39.4159 8.6292C39.4159 6.85715 41.0467 5.85982 43.1514 5.85982C44.5072 5.85982 45.7208 6.15368 46.6215 6.89277L45.3984 8.03258C44.7821 7.56954 43.9573 7.39144 43.1419 7.39144C41.862 7.39144 41.3026 7.85449 41.3026 8.55796C41.3026 9.17239 41.6819 9.49296 42.611 9.57311L44.128 9.69777C45.9009 9.85806 46.9817 10.615 46.9817 12.2534C46.9817 14.1323 45.2941 15.1119 42.9808 15.1119Z" fill="#1F1F1F"/>
<path d="M52.8798 15.1119C51.7136 15.1119 50.7655 14.7557 50.0355 14.07C49.0495 13.135 48.8788 11.9062 48.8788 10.4903C48.8788 9.06554 49.0495 7.83668 50.045 6.89277C50.7655 6.21601 51.7136 5.85982 52.8798 5.85982C54.0364 5.85982 54.9845 6.21601 55.7146 6.89277C56.7101 7.83668 56.8807 9.06554 56.8807 10.4903C56.8807 11.9062 56.7101 13.135 55.7146 14.07C54.9845 14.7557 54.0364 15.1119 52.8798 15.1119ZM50.8129 10.4903C50.8129 11.4609 50.8698 12.4048 51.4576 12.9569C51.8274 13.3042 52.3014 13.4823 52.8798 13.4823C53.4581 13.4823 53.9322 13.3042 54.2924 12.9569C54.8897 12.4048 54.9466 11.4609 54.9466 10.4903C54.9466 9.51077 54.8897 8.57577 54.2924 8.01477C53.9322 7.66749 53.4581 7.48939 52.8798 7.48939C52.3014 7.48939 51.8274 7.66749 51.4576 8.01477C50.8698 8.57577 50.8129 9.51077 50.8129 10.4903Z" fill="#1F1F1F"/>
<path d="M59.509 15.005V5.96668H61.4147V6.88387C61.6896 6.59001 62.031 6.35849 62.3628 6.1982C62.8463 5.97558 63.3773 5.85982 63.9746 5.85982C64.9226 5.85982 65.738 6.12696 66.3638 6.71468C67.0653 7.37363 67.3118 8.2463 67.3118 9.23473V15.005H65.3777V9.49296C65.3777 8.08601 64.5244 7.48939 63.4247 7.48939C62.3343 7.48939 61.4431 8.09492 61.4431 9.49296V15.005H59.509Z" fill="#1F1F1F"/>
<path d="M72.884 15.103C71.7083 15.103 70.9119 14.8536 70.3241 14.2926C69.8216 13.8296 69.5656 13.1083 69.5656 12.3603C69.5656 11.6657 69.8027 11.0513 70.2957 10.5883C70.893 10.0273 71.6989 9.7423 72.8745 9.7423H75.4344V9.10115C75.4344 8.56687 75.3111 8.16616 75.0077 7.8812C74.6759 7.56063 74.1355 7.40925 73.377 7.40925C72.3056 7.40925 71.7557 7.6853 71.2153 8.32644L69.9544 7.18663C70.8551 6.1893 71.8126 5.85982 73.3959 5.85982C74.8371 5.85982 75.88 6.18039 76.5436 6.80373C77.0935 7.3202 77.3685 8.04149 77.3685 8.97649V15.005H75.4723V14.1769C75.1878 14.4529 74.9034 14.6577 74.5905 14.8002C74.1355 15.0139 73.6045 15.103 72.884 15.103ZM71.4429 12.3247C71.4429 13.1617 71.9928 13.5981 73.2443 13.5981C73.9743 13.5981 74.5716 13.4912 75.0172 13.0727C75.3395 12.761 75.4344 12.2891 75.4344 11.7637V11.0246H73.1779C72.5142 11.0246 72.0781 11.1493 71.7842 11.4342C71.5472 11.6568 71.4429 11.9507 71.4429 12.3247Z" fill="#1F1F1F"/>
<path d="M82.9015 15.005C82.0482 15.005 81.4225 14.7646 80.9769 14.3461C80.5028 13.9008 80.2658 13.2419 80.2658 12.5028V2.32463H82.1999V12.3959C82.1999 13.1083 82.4654 13.4556 83.2523 13.4556H84.1056V15.005H82.9015Z" fill="#1F1F1F"/>
<path d="M95.3833 15.1119C93.8948 15.1119 92.7571 14.6399 91.8848 13.8207C90.5765 12.5918 90.5196 11.3184 90.5196 8.66482C90.5196 6.0112 90.5765 4.73782 91.8848 3.50896C92.7571 2.68973 93.8948 2.21777 95.3833 2.21777C97.8673 2.21777 99.7256 3.59801 100.2 6.11806H98.1043C97.7915 4.82687 96.8718 3.93639 95.3833 3.93639C94.6059 3.93639 93.9422 4.18573 93.4208 4.67549C92.6528 5.40568 92.5769 6.46535 92.5769 8.66482C92.5769 10.8643 92.6528 11.924 93.4208 12.6542C93.9422 13.1439 94.6059 13.3933 95.3833 13.3933C96.8718 13.3933 97.7915 12.5028 98.1043 11.2116H100.2C99.7256 13.7316 97.8673 15.1119 95.3833 15.1119Z" fill="#1F1F1F"/>
<path d="M105.29 15.103C104.114 15.103 103.318 14.8536 102.73 14.2926C102.227 13.8296 101.971 13.1083 101.971 12.3603C101.971 11.6657 102.208 11.0513 102.701 10.5883C103.299 10.0273 104.104 9.7423 105.28 9.7423H107.84V9.10115C107.84 8.56687 107.717 8.16616 107.413 7.8812C107.081 7.56063 106.541 7.40925 105.783 7.40925C104.711 7.40925 104.161 7.6853 103.621 8.32644L102.36 7.18663C103.261 6.1893 104.218 5.85982 105.802 5.85982C107.243 5.85982 108.286 6.18039 108.949 6.80373C109.499 7.3202 109.774 8.04149 109.774 8.97649V15.005H107.878V14.1769C107.593 14.4529 107.309 14.6577 106.996 14.8002C106.541 15.0139 106.01 15.103 105.29 15.103ZM103.848 12.3247C103.848 13.1617 104.398 13.5981 105.65 13.5981C106.38 13.5981 106.977 13.4912 107.423 13.0727C107.745 12.761 107.84 12.2891 107.84 11.7637V11.0246H105.583C104.92 11.0246 104.484 11.1493 104.19 11.4342C103.953 11.6568 103.848 11.9507 103.848 12.3247Z" fill="#1F1F1F"/>
<path d="M112.728 15.005V5.96668H114.634V6.9462C115.127 6.31396 116.113 5.85982 117.184 5.85982C118.132 5.85982 118.787 6.07354 119.469 6.71468L118.028 8.08601C117.583 7.67639 117.232 7.48939 116.578 7.48939C115.525 7.48939 114.662 8.27301 114.662 9.51077V15.005H112.728Z" fill="#1F1F1F"/>
<path d="M124.224 15.1119C122.859 15.1119 121.883 14.7646 121.162 14.0967C120.385 13.3576 119.92 12.1911 119.92 10.4903C119.92 8.87854 120.394 7.64968 121.238 6.85716C121.939 6.1982 122.869 5.85982 123.987 5.85982C125.144 5.85982 126.064 6.1893 126.746 6.83935C127.609 7.64968 128.074 8.86963 128.074 10.6328V11.0246H121.826C121.826 11.8616 122.072 12.5206 122.537 12.9569C122.954 13.3487 123.532 13.5624 124.272 13.5624C125.353 13.5624 125.921 13.2686 126.604 12.6274L127.846 13.7049C126.86 14.6221 125.912 15.1119 124.224 15.1119ZM121.826 9.7423H126.149C126.121 9.08335 125.978 8.41549 125.447 7.91682C125.106 7.59625 124.632 7.39144 123.987 7.39144C123.352 7.39144 122.869 7.59625 122.527 7.91682C122.006 8.41549 121.864 9.08335 121.826 9.7423Z" fill="#1F1F1F"/>
</svg>
