<svg width="136" height="121" viewBox="0 0 136 121" fill="none" xmlns="http://www.w3.org/2000/svg">
<path d="M61.6168 79.1903C61.4308 79.0041 61.2634 78.818 61.0774 78.6132C49.9732 77.4032 40.2453 70.4041 35.5395 60.2217C33.9585 59.4027 32.4891 58.3603 31.1871 57.0758C30.7406 56.6477 30.7406 55.9403 31.1871 55.4936C31.6149 55.0468 32.3217 55.0468 32.7681 55.4936C34.2561 56.9455 35.9859 58.081 37.8645 58.8442L47.1273 49.5554C49.4151 47.2658 52.4656 46 55.702 46H68.9267C69.5405 46 70.0427 46.5026 70.0427 47.1169C70.0427 47.7312 69.5405 48.2338 68.9267 48.2338H55.702C53.0608 48.2338 50.5684 49.2576 48.6897 51.1377L40.2453 59.5888C41.3985 59.8494 42.6075 59.9984 43.8165 59.9984C48.0573 59.9984 52.0192 58.7698 54.9952 56.536C55.3858 56.2382 55.9252 56.2382 56.3344 56.536C60.8356 59.9053 68.1826 59.9053 72.6839 56.536C73.0745 56.2382 73.6139 56.2382 74.0231 56.536C76.9991 58.7698 80.9795 59.9984 85.2203 59.9984C86.4479 59.9984 87.6384 59.8681 88.8102 59.5888L80.3657 51.1377C78.4871 49.2576 76.0133 48.2338 73.3535 48.2338C72.7397 48.2338 72.2375 47.7312 72.2375 47.1169C72.2375 46.5026 72.7397 46 73.3535 46C76.5899 46 79.6403 47.2658 81.9281 49.5554L91.191 58.8256C93.0696 58.0624 94.7994 56.9269 96.2874 55.475C96.7338 55.0468 97.422 55.0468 97.8684 55.475C98.2962 55.9217 98.2962 56.6291 97.8684 57.0572C96.5664 58.3416 95.097 59.3841 93.516 60.2031C90.8376 66.0109 86.5409 70.8322 81.0539 74.1642C80.5331 74.4807 79.8449 74.3132 79.5287 73.792C79.2125 73.2707 79.3799 72.582 79.9007 72.2655C84.2903 69.6036 87.8802 65.8993 90.3726 61.4689C88.7172 61.9529 86.9873 62.2135 85.2203 62.2135C80.8121 62.2135 76.6271 61.0036 73.3535 58.7884C70.8983 60.4079 67.792 61.2828 64.5184 61.2828C61.2448 61.2828 58.1386 60.4079 55.6834 58.7884C52.4098 61.0036 48.2433 62.2135 43.8351 62.2135C42.0681 62.2135 40.3383 61.9715 38.6829 61.4875C43.0539 69.2313 50.7358 74.6482 59.4964 76.156" fill="#D70A32"/>
<path d="M59.4964 76.1374C57.8968 72.6937 58.12 68.7101 59.8498 66.9603C62.1562 64.6521 68.3687 65.0058 72.0701 68.7101L80.4587 77.1054C81.3329 76.2305 82.7465 76.2305 83.6021 77.1054L87.3594 80.8656C87.7872 81.2938 87.7872 82.0011 87.3594 82.4479C86.9315 82.876 86.2247 82.876 85.7783 82.4479L82.0211 78.6877L71.5493 89.1678L81.2213 98.8475L91.6932 88.3674L88.7358 85.4076C88.308 84.9795 88.308 84.2721 88.7358 83.8254C89.1636 83.3972 89.8704 83.3972 90.3168 83.8254L105.866 99.3874C106.499 100.02 106.852 100.858 106.852 101.751C106.852 102.645 106.499 103.483 105.866 104.116L96.9756 113.013C96.3246 113.665 95.469 113.981 94.6134 113.981C93.7578 113.981 92.9022 113.665 92.2512 113.013L69.9869 90.7315C69.5591 90.3033 69.3359 89.7449 69.3359 89.1492C69.3359 88.5535 69.5591 87.9951 69.9869 87.567L61.5982 79.1717C61.4122 78.9855 61.2448 78.7994 61.0588 78.5946M85.9829 103.576L93.8508 111.45C94.2786 111.878 94.9854 111.878 95.4318 111.45L104.323 102.552C104.527 102.347 104.657 102.068 104.657 101.77C104.657 101.472 104.546 101.193 104.323 100.988L96.4548 93.1142L85.9829 103.594V103.576ZM82.8209 100.411L84.4019 101.993L94.8738 91.5133L93.2928 89.931L82.8209 100.411ZM64.2022 67.7235C62.9746 67.7235 61.9702 68.0214 61.4494 68.5426C60.073 69.9201 60.3148 74.7413 63.1978 77.608L71.5865 86.0033L78.8963 78.6877L70.5077 70.2924C68.7221 68.5054 66.1924 67.7235 64.2022 67.7235Z" fill="#1F1F1F"/>
</svg>
