<svg width="136" height="121" viewBox="0 0 136 121" fill="none" xmlns="http://www.w3.org/2000/svg">
<path d="M69.8708 119C69.3095 119 68.8605 118.551 68.8605 117.99V114.678L68.6733 114.565C67.1203 113.593 65.4363 112.526 64.4634 110.842C63.9582 110.037 63.6775 109.177 63.5839 108.185C63.4904 107.249 63.6401 106.351 64.0517 105.472C64.9498 103.657 66.9893 102.403 68.6546 101.505L68.8605 101.393V84.1227L68.2617 84.4407C63.1162 87.1726 60.4031 89.3243 60.7586 92.8233C60.9644 94.8441 62.1245 96.4532 64.5382 98.025C64.7627 98.1746 64.9311 98.3992 64.9686 98.6611C65.0247 98.9231 64.9686 99.2037 64.8189 99.4283C64.6318 99.7089 64.3137 99.8961 63.9582 99.8961C63.7523 99.8961 63.5652 99.8399 63.3968 99.7277C61.5444 98.5114 59.0559 96.5094 58.7004 93.0291C58.1765 87.7526 62.8729 84.8898 68.5985 81.9522L68.823 81.8399V52.8378L68.4862 52.7817C66.2783 52.4262 64.295 51.1726 63.0226 49.3576C62.7794 49.0021 62.0684 47.973 62.0684 47.973C59.7482 44.5676 56.5673 39.9085 53.6297 39.9085C50.9166 39.9085 47.2118 41.6861 43.3012 43.5572C38.5486 45.8399 33.1972 48.4033 27.9207 48.7027L27.3033 48.7401L27.5839 49.2827C28.2388 50.5925 29.4176 52.3139 31.27 53.0437C31.8688 53.2869 32.5237 53.4179 33.216 53.4179C34.6567 53.4179 36.2659 52.8753 38.0247 51.8274C38.1931 51.7339 38.3615 51.6778 38.5486 51.6778C38.6422 51.6778 38.7357 51.6778 38.8293 51.7152C39.1099 51.79 39.3345 51.9958 39.4467 52.2391C39.6151 52.5572 41.1307 55.3451 43.9187 56.131C44.4051 56.262 44.8916 56.3368 45.3968 56.3368C46.744 56.3368 48.2035 55.8503 49.7191 54.9148C49.8875 54.8212 50.0746 54.7651 50.2617 54.7651C50.6172 54.7651 50.9353 54.9522 51.1224 55.2516C51.2721 55.4761 51.3095 55.7568 51.2534 56.0187C51.1972 56.2807 51.0288 56.5052 50.8043 56.6549C48.9519 57.815 47.137 58.395 45.4155 58.395C44.7045 58.395 44.0122 58.3015 43.3386 58.1143C40.9436 57.4408 39.3158 55.7006 38.3802 54.3721L38.1744 54.0915L37.875 54.2412C36.2284 55.0457 34.6754 55.4761 33.216 55.4761C32.2617 55.4761 31.3449 55.3077 30.4842 54.9522C26.3864 53.2495 24.9644 48.1414 24.9083 47.9356C24.8147 47.6175 24.9083 47.2807 25.1141 47.0187C25.3199 46.7755 25.5819 46.6445 25.9 46.6445C26.2929 46.6632 26.611 46.6819 26.9478 46.6819C32.112 46.6819 37.613 44.0437 42.4779 41.7048C46.7814 39.6279 50.5049 37.8503 53.6858 37.8503C57.69 37.8503 61.0767 42.8087 63.7898 46.7942C64.1079 47.2807 64.4259 47.7297 64.7253 48.1601C65.586 49.395 66.8771 50.2744 68.3553 50.6486L68.8605 50.7796V44.6424L68.5237 44.5863C64.744 43.9314 62.0122 40.6757 62.0122 36.8586C62.0122 32.5177 65.5299 29 69.8708 29C74.2118 29 77.7295 32.5177 77.7295 36.8586C77.7295 40.6757 74.9977 43.9314 71.218 44.5863L70.8812 44.6424V50.7796L71.3864 50.6486C72.8646 50.2744 74.1557 49.395 75.0164 48.1601C75.3158 47.7297 75.6338 47.262 75.9519 46.7942C78.665 42.8087 82.0517 37.8503 86.0559 37.8503C89.218 37.8503 92.9602 39.6466 97.2638 41.7048C102.166 44.0624 107.63 46.6819 112.738 46.6819C113.075 46.6819 113.43 46.6819 113.767 46.6445C114.122 46.6445 114.422 46.7755 114.628 47.0187C114.833 47.2807 114.908 47.6175 114.833 47.9356C114.777 48.1601 113.337 53.2495 109.201 54.9335C108.341 55.289 107.424 55.4574 106.47 55.4574C105.01 55.4574 103.457 55.0457 101.811 54.2225L101.511 54.0728L101.305 54.3534C100.351 55.6819 98.7232 57.4033 96.3469 58.0956C95.6733 58.2827 94.981 58.3763 94.27 58.395C92.5486 58.395 90.7336 57.815 88.8812 56.6549C88.4135 56.3555 88.2638 55.738 88.5632 55.2516C88.7503 54.9522 89.0684 54.7838 89.4239 54.7838C89.611 54.7838 89.7981 54.8399 89.9665 54.9335C91.4821 55.8877 92.9415 56.3555 94.2887 56.3555C94.7939 56.3555 95.2991 56.2807 95.7669 56.1497C98.7045 55.3264 100.22 52.2765 100.239 52.2578C100.37 52.0146 100.594 51.8274 100.856 51.7339C100.95 51.6965 101.043 51.6965 101.156 51.6965C101.343 51.6965 101.511 51.7526 101.68 51.8462C103.438 52.894 105.048 53.4366 106.488 53.4366C107.181 53.4366 107.836 53.3056 108.434 53.0624C110.268 52.3326 111.447 50.6112 112.12 49.3015L112.401 48.7588L111.784 48.7214C106.526 48.422 101.156 45.8586 96.4218 43.5759C92.4925 41.6861 88.7877 39.9085 86.0746 39.9085C83.137 39.9085 79.9748 44.5676 77.6546 47.973C77.6546 47.973 76.9436 49.0021 76.7004 49.3576C75.428 51.1726 73.4447 52.4075 71.2368 52.7817L70.9 52.8378V80.8108L71.48 80.4927C76.6068 77.7983 81.6588 74.6923 82.2388 68.8545C82.5195 66.0665 82.0517 63.5593 80.8542 61.183L80.7419 60.9771H80.5174C80.1993 60.9584 79.9 60.8836 79.6193 60.7526C79.0392 60.4906 78.4405 60.0042 77.7669 59.237C75.7274 56.8981 76.3449 55.4948 77.2243 54.7277C77.6921 54.3347 78.1785 54.1289 78.6837 54.1289C79.5632 54.1289 80.5361 54.7277 81.5652 55.9064C82.2575 56.6923 82.6505 57.3098 82.8376 57.9085C83.0434 58.5634 82.9873 59.2183 82.6318 59.7796L82.5195 59.9667L82.6131 60.1726C84.0351 62.9231 84.5777 65.8233 84.2596 69.0416C83.5486 76.0208 77.8792 79.4823 71.1058 82.9626L70.8812 83.0748V100.383L71.4613 100.102C72.7149 99.4844 74.0434 98.8108 75.1848 98.0437C77.5985 96.4532 78.7773 94.8441 78.9831 92.8233C79.2076 90.4657 78.0663 88.6133 75.1848 86.6299C74.9602 86.4803 74.8106 86.237 74.7544 85.9751C74.6983 85.7131 74.7544 85.4324 74.9228 85.2079C75.1099 84.9272 75.428 84.7588 75.7648 84.7588C75.9706 84.7588 76.1765 84.815 76.3449 84.9459C78.5528 86.4428 81.4155 88.9127 81.0226 93.0104C80.7607 95.6299 79.2264 97.8191 76.3261 99.7277C74.9041 100.682 73.3137 101.449 71.7607 102.216L70.9 102.647V112.283L71.5361 111.815C72.2097 111.328 73.033 110.674 73.5569 109.813C73.8937 109.252 74.0995 108.653 74.1744 107.979C74.2305 107.418 74.137 106.894 73.8937 106.37C73.7815 106.127 73.7627 105.846 73.8376 105.603C73.9311 105.341 74.1182 105.135 74.3615 105.023C74.5112 104.948 74.6609 104.911 74.8106 104.911C75.2035 104.911 75.559 105.135 75.7274 105.491C76.139 106.351 76.3074 107.268 76.2139 108.222C76.1016 109.195 75.8209 110.056 75.3158 110.879C74.3241 112.545 72.6775 113.593 71.218 114.528L71.0309 114.64L70.9187 114.921V118.008C70.9187 118.57 70.4696 119.019 69.9083 119.019L69.8708 119ZM68.243 104.087C67.0268 104.873 66.2596 105.603 65.8854 106.351C65.6422 106.875 65.5486 107.399 65.6047 107.961C65.6796 108.634 65.8667 109.214 66.2035 109.775C66.7274 110.655 67.5507 111.328 68.2243 111.796L68.8605 112.264V103.694L68.243 104.087ZM77.5798 55.738L78.3656 56.6362L78.7212 56.3742L78.7586 56.3181L79.0392 56.0374L78.7399 55.8129L78.1972 55.2141L77.5985 55.7568L77.5798 55.738ZM69.8708 31.0395C66.6526 31.0395 64.0517 33.659 64.0517 36.8586C64.0517 40.0582 66.6713 42.6778 69.8708 42.6778C73.0704 42.6778 75.69 40.0582 75.69 36.8586C75.69 33.659 73.0704 31.0395 69.8708 31.0395Z" fill="#1F1F1F"/>
<path d="M63.9208 80.1746C63.7336 80.1746 63.5465 80.1185 63.3781 80.025C60.2534 78.0416 56.0434 74.7484 55.4821 69.0416C55.164 65.842 55.6879 62.9418 57.1287 60.1726L57.2222 59.9667L57.1099 59.7796C56.7731 59.2183 56.6983 58.5634 56.9228 57.9085C57.1099 57.3098 57.5029 56.6923 58.1952 55.9065C59.2243 54.7277 60.1973 54.1289 61.0954 54.1289C61.6006 54.1289 62.0871 54.3347 62.5548 54.7277C63.8085 55.8316 63.6214 57.3846 62.0122 59.237C61.3386 60.0042 60.7586 60.4907 60.1598 60.7526C59.8792 60.8836 59.5798 60.9584 59.243 60.9584H59.0185L58.9062 61.183C57.69 63.578 57.2409 66.0852 57.5216 68.8545C57.8958 72.578 60.0476 75.4969 64.4821 78.3223C64.9499 78.6216 65.0995 79.2578 64.8002 79.7256C64.6131 80.025 64.295 80.1934 63.9395 80.1934L63.9208 80.1746Z" fill="#D70A32"/>
</svg>
