<svg width="136" height="121" viewBox="0 0 136 121" fill="none" xmlns="http://www.w3.org/2000/svg">
<path d="M85.8223 87.6822H48.0738C47.5018 87.6822 47.0252 87.2065 47.0252 86.6357C47.0252 86.0649 47.5018 85.5892 48.0738 85.5892H85.8032C86.3752 85.5892 86.8518 86.0649 86.8518 86.6357C86.8518 87.2065 86.3752 87.6822 85.8032 87.6822H85.8223Z" fill="#D70A32"/>
<path d="M85.8223 119H48.0738C47.5018 119 47.0252 118.524 47.0252 117.954V76.133C47.0252 75.8095 47.1777 75.4861 47.4446 75.2958C65.2322 62.2625 61.6289 48.8488 61.4764 48.278C61.3811 47.9545 61.4573 47.6311 61.648 47.3647C61.8386 47.0983 62.1627 46.9461 62.4869 46.9461H77.1096C77.5672 46.9461 77.9676 47.2505 78.1201 47.6881L86.8137 75.8285C86.8518 75.9237 86.8518 76.0378 86.8518 76.133V117.954C86.8518 118.524 86.3752 119 85.8032 119H85.8223ZM49.1223 116.907H84.7547V76.2852L76.328 49.02H63.7642C64.3743 52.9966 64.6412 65.0404 49.1223 76.6467V116.907Z" fill="#1F1F1F"/>
<path d="M69.0071 42.4939H62.7156C62.1437 42.4939 61.6671 42.0182 61.6671 41.4474C61.6671 36.177 54.594 35.3589 50.3616 35.3399C48.5313 35.3399 47.0252 33.9129 47.0252 32.1624V27.1774C47.0252 25.427 48.5123 24 50.3425 24H70.5894C75.4891 24 80.3125 25.2367 84.545 27.558L85.1741 27.9005C86.2036 28.4713 86.8518 29.5368 86.8518 30.6784V34.7691C86.8518 35.7775 86.3371 36.7478 85.4791 37.3567C80.751 40.6673 74.8981 42.4939 68.988 42.4939H69.0071ZM63.6879 40.401H69.0071C74.4977 40.401 79.9122 38.7076 84.2971 35.6253C84.6022 35.416 84.7737 35.0925 84.7737 34.7691V30.6784C84.7737 30.2978 84.545 29.9363 84.1827 29.746L83.5536 29.4036C79.6262 27.2536 75.165 26.0929 70.6085 26.0929H50.3616C49.6943 26.0929 49.1414 26.5686 49.1414 27.1774V32.1815C49.1414 32.7713 49.6943 33.266 50.3806 33.266C58.2926 33.304 63.0779 35.8916 63.6879 40.42V40.401Z" fill="#1F1F1F"/>
<path d="M45.9194 52.8634C45.5763 52.8634 45.214 52.6921 45.0234 52.3687C44.7183 51.874 44.8709 51.2271 45.3665 50.9227C57.1296 43.6735 57.0343 35.6252 57.0343 35.5491C57.0343 34.9783 57.4728 34.4836 58.0447 34.4646C58.6357 34.4075 59.1123 34.8832 59.1314 35.454C59.1314 35.8345 59.3602 44.758 46.4723 52.6921C46.3007 52.8063 46.1101 52.8443 45.9194 52.8443V52.8634Z" fill="#1F1F1F"/>
<path d="M63.421 103.436C63.2685 103.436 63.116 103.398 62.9825 103.341C62.4487 103.094 62.2199 102.485 62.4678 101.952L65.9757 94.3605C68.416 89.0711 69.6552 83.4773 69.6552 77.7312V47.9736C69.6552 47.4028 70.1319 46.9271 70.7038 46.9271C71.2758 46.9271 71.7524 47.4028 71.7524 47.9736V77.7312C71.7524 83.8007 70.456 89.68 67.8822 95.2358L64.3743 102.827C64.2027 103.208 63.8214 103.436 63.421 103.436Z" fill="#1F1F1F"/>
</svg>
