<svg width="155" height="61" viewBox="0 0 155 61" fill="none" xmlns="http://www.w3.org/2000/svg">
<g clip-path="url(#clip0_2826_6660)">
<path d="M147.484 10.884H0V40.8526C0 49.1842 8.09439 49.2852 8.42118 49.2852H155V19.6701C155 11.1113 147.559 10.884 147.484 10.884Z" fill="white"/>
<path d="M149.118 32.3444C150.827 29.6682 151.908 27.4717 153.265 23.1291C153.416 22.6494 154.824 17.9029 152.662 14.7975C150.827 12.1718 148.162 11.9446 146.378 11.9446H24.258C16.6966 15.31 10.3015 20.8544 5.88225 27.8756C4.17288 30.5518 3.09195 32.7484 1.73451 37.0909C1.58368 37.5706 0.226236 42.0646 2.28754 45.069C3.99691 47.5433 6.96318 48.1997 8.34576 48.1997H130.893C138.389 44.8292 144.726 39.3152 149.118 32.3444Z" fill="#D70A32"/>
<path d="M11.6388 59.3085C11.3623 59.1949 11.1512 58.9626 11.0607 58.6773C10.7565 59.0611 10.2914 59.2757 9.80377 59.258C8.92394 59.258 8.37091 58.8036 8.37091 57.9704C8.37091 57.1372 9.20046 56.4051 10.6082 56.4051H10.9098V56.1021C10.9098 55.5719 10.8344 55.2184 10.2311 55.2184C9.73841 55.2437 9.26582 55.4204 8.87367 55.7234L8.4966 55.1427C9.04963 54.7741 9.69316 54.5721 10.3568 54.562C11.0104 54.562 11.4629 54.7892 11.6388 55.2689C11.7243 55.5214 11.757 55.7865 11.7394 56.0516C11.7394 56.3798 11.7142 57.0615 11.7142 57.6927C11.7142 58.3239 11.7394 58.5511 12.0662 58.7531L11.6388 59.3085ZM10.6333 56.9353C10.03 56.9353 9.65294 57.0615 9.47698 57.2635C9.31358 57.4402 9.23063 57.6801 9.25074 57.9199C9.25074 58.3996 9.50211 58.6773 9.9546 58.6773C10.3442 58.6622 10.6987 58.4425 10.8847 58.0966V56.9605H10.6333V56.9353Z" fill="#73787D"/>
<path d="M17.4959 55.7738C17.3099 55.5744 17.0611 55.4506 16.7921 55.4203C16.2642 55.4203 16.0379 55.8748 16.0379 56.9352C16.0379 57.5159 16.1134 57.8693 16.2642 58.0713C16.3924 58.2304 16.5859 58.3238 16.7921 58.3238C17.0988 58.3061 17.3853 58.1698 17.5965 57.9451L17.6719 57.8946L18.1998 58.6015C18.0817 58.7303 17.9459 58.8388 17.7976 58.9297C17.4607 59.1216 17.0787 59.2175 16.6915 59.2074C15.4598 59.2074 14.7308 58.349 14.7308 56.8847C14.7308 55.8495 15.133 55.1426 15.6609 54.7892C15.9927 54.5796 16.3748 54.466 16.7669 54.4609C17.0711 54.4559 17.3728 54.5266 17.6468 54.6629C17.8026 54.7538 17.9459 54.8624 18.0741 54.9911L17.4959 55.7738Z" fill="#73787D"/>
<path d="M22.0962 55.1932C22.4481 55.6224 22.6241 56.1021 22.6241 56.8343C22.6241 57.5664 22.4481 58.1471 22.071 58.5763C21.699 59.0055 21.1535 59.2378 20.5879 59.2075C19.3562 59.2075 18.5517 58.2986 18.5517 56.8595C18.5517 55.4204 19.3562 54.4863 20.5879 54.4863C21.1736 54.4737 21.7292 54.7362 22.0962 55.1932ZM19.9846 55.8496C19.8111 56.5566 19.8212 57.2938 20.0097 57.9957C20.1178 58.2305 20.3541 58.3794 20.613 58.3744C21.1158 58.3744 21.342 57.9199 21.342 56.8343C21.342 56.2283 21.2666 55.8244 21.1158 55.6224C20.887 55.3422 20.4748 55.3018 20.1958 55.5315C20.0952 55.6148 20.0223 55.7259 19.9846 55.8496Z" fill="#73787D"/>
<path d="M27.0232 58.6268C26.5481 59.0383 25.9397 59.263 25.3138 59.2579C24.0318 59.2579 23.1771 58.349 23.1771 56.9099C23.1771 56.102 23.3531 55.5466 23.7301 55.1174C24.0821 54.7109 24.5999 54.4862 25.1378 54.5114C25.6205 54.4938 26.0881 54.6655 26.445 54.9911C26.8472 55.4203 27.0483 56.0263 27.0483 56.9604V57.2382H24.4843C24.4843 57.9451 24.8362 58.3238 25.4395 58.3238C25.8668 58.3187 26.2791 58.1572 26.5958 57.8693L27.0232 58.6268ZM25.8417 56.3797V56.3292C25.8618 56.0919 25.809 55.8546 25.6909 55.6476C25.5727 55.4734 25.3716 55.3774 25.163 55.3951C24.7105 55.3951 24.4591 55.7486 24.4591 56.3797H25.8417Z" fill="#73787D"/>
<path d="M30.6933 55.698C30.3565 55.4985 29.9769 55.3874 29.5873 55.3697C29.2353 55.3697 29.0091 55.5465 29.0091 55.8242C29.0091 56.1019 29.1599 56.1777 29.5621 56.2786L30.1152 56.4301C30.6682 56.5816 30.8442 56.7331 31.0201 56.9351C31.1885 57.1497 31.2765 57.4173 31.2715 57.6925C31.2715 58.6266 30.4922 59.2578 29.3359 59.2578C28.6999 59.2275 28.079 59.0457 27.526 58.7276L27.9533 57.8692C28.4008 58.1545 28.9085 58.3287 29.4364 58.3742C29.7406 58.4045 30.0096 58.1798 30.0397 57.8743C30.0397 57.8743 30.0397 57.8717 30.0397 57.8692C30.0397 57.5663 29.8135 57.3895 29.3359 57.3138L28.808 57.2128C28.4912 57.1497 28.2022 56.9906 27.9784 56.7583C27.8125 56.5235 27.7245 56.2408 27.7271 55.9504C27.7271 55.0668 28.4309 54.4861 29.4616 54.4861C30.0247 54.4937 30.5777 54.6401 31.0704 54.9153L30.6933 55.698Z" fill="#73787D"/>
<path d="M33.4836 53.3501C33.4836 53.754 33.1568 54.0823 32.7546 54.0823C32.3524 54.0823 32.0256 53.754 32.0256 53.3501C32.0256 52.9461 32.3524 52.6179 32.7546 52.6179C33.1568 52.6179 33.4836 52.9461 33.4836 53.3501ZM33.3328 54.4862V59.1317H32.1513V54.6882L33.3328 54.4862Z" fill="#73787D"/>
<path d="M35.0924 54.7638C35.4796 54.5845 35.8994 54.4911 36.3242 54.4861C37.0783 54.4861 37.6062 54.7638 37.7822 55.2688C37.8601 55.5313 37.8853 55.804 37.8576 56.0767V57.6672C37.8576 58.1469 37.933 58.3489 38.2849 58.6014L37.6565 59.3336C37.39 59.225 37.1688 59.0306 37.0281 58.7781L36.7515 59.0054C36.4826 59.1821 36.1658 59.2679 35.8466 59.2578C34.8411 59.2578 34.288 58.7529 34.288 57.844C34.288 56.9351 35.017 56.2786 36.4499 56.2786H36.7013V56.1019C36.7013 55.597 36.6007 55.4202 36.1734 55.4202C35.6983 55.4606 35.2458 55.6348 34.8662 55.9252L34.3634 55.0668C34.5972 54.9431 34.8411 54.8421 35.0924 54.7638ZM36.6258 57.1371C35.7963 57.1371 35.5198 57.2885 35.5198 57.8187C35.4921 58.1091 35.7058 58.3691 35.9949 58.3969C36.0125 58.3969 36.0301 58.3969 36.0477 58.3969C36.2915 58.3893 36.5203 58.2808 36.6761 58.0939V57.1093H36.6258V57.1345V57.1371Z" fill="#73787D"/>
<path d="M42.7092 59.2074C42.1587 59.2453 41.6283 58.9979 41.3015 58.551C40.9948 58.0789 40.8465 57.5234 40.8741 56.9604C40.8741 55.9505 41.2009 55.3951 41.6031 55.0164C42.2718 54.418 43.2849 54.4281 43.941 55.0416L43.5136 55.5971C43.3125 55.3774 43.031 55.2487 42.7343 55.2436C42.405 55.2386 42.1009 55.4254 41.9551 55.7233C41.7892 56.1576 41.7188 56.6221 41.754 57.0867C41.754 57.6926 41.8797 58.1218 42.1059 58.349C42.2718 58.5157 42.4981 58.6066 42.7343 58.6015C43.0863 58.5864 43.4156 58.4222 43.6393 58.1471L44.0415 58.652C43.6996 59.0231 43.212 59.2251 42.7092 59.2074Z" fill="#73787D"/>
<path d="M46.6559 59.2579C45.4744 59.2579 44.7454 58.349 44.7454 56.9099C44.7454 55.4708 45.4744 54.5872 46.6307 54.5872C47.7871 54.5872 48.5663 55.6223 48.5663 56.9604C48.5663 58.2985 47.8122 59.2579 46.6559 59.2579ZM46.6307 55.2183C45.9269 55.2183 45.6252 55.7233 45.6252 56.8342C45.6252 57.945 45.9771 58.6267 46.6559 58.6267C47.3346 58.6267 47.6614 58.147 47.6614 56.9857C47.6614 55.8243 47.2592 55.1931 46.6307 55.1931V55.2183Z" fill="#73787D"/>
<path d="M54.4486 59.1318V55.9506C54.4486 55.4457 54.2978 55.269 53.9207 55.269C53.5436 55.269 53.2168 55.5214 52.89 55.8749V59.1318H52.0856V55.9759C52.0856 55.4709 51.9348 55.2942 51.5326 55.2942C51.1455 55.327 50.786 55.5063 50.5271 55.7991V59.1318H49.7227V55.8749C49.7604 55.4987 49.7076 55.1175 49.5718 54.764L50.326 54.5873C50.4265 54.7741 50.4768 54.9811 50.4768 55.1932C50.7885 54.8271 51.2309 54.5999 51.7086 54.562C52.1711 54.5595 52.5884 54.8397 52.7643 55.269C53.1917 54.7893 53.6693 54.562 54.1218 54.562C54.5743 54.562 55.253 54.9912 55.253 55.7991V59.1318H54.4486Z" fill="#73787D"/>
<path d="M58.6215 59.2075C58.1916 59.2075 57.7794 59.0459 57.4651 58.7531C57.4827 58.9197 57.4903 59.0889 57.4903 59.258V60.8233L56.6859 61.0001V55.7739C56.6959 55.4103 56.6607 55.0442 56.5853 54.6882L57.3646 54.562C57.4098 54.769 57.4274 54.9811 57.4149 55.1932C57.7215 54.8094 58.1841 54.5873 58.6718 54.5873C59.5767 54.5873 60.3309 55.3194 60.3309 56.8343C60.3309 58.3491 59.7275 59.2075 58.6215 59.2075ZM58.5461 55.2689C58.1288 55.2841 57.7417 55.4886 57.4903 55.8244V58.0714C57.7266 58.3466 58.0609 58.5208 58.4204 58.5511C59.1242 58.5511 59.451 57.9956 59.451 56.9353C59.451 55.8749 59.2248 55.2689 58.5461 55.2689Z" fill="#73787D"/>
<path d="M64.4283 59.3085C64.1518 59.1949 63.9406 58.9626 63.8501 58.6773C63.546 59.0611 63.0809 59.2757 62.5933 59.258C61.7134 59.258 61.1604 58.8036 61.1604 57.9704C61.1604 57.1372 61.9899 56.4051 63.3977 56.4051H63.6993V56.1021C63.6993 55.5719 63.6239 55.2184 63.0206 55.2184C62.5279 55.2437 62.0553 55.4204 61.6632 55.7234L61.2861 55.1427C61.8391 54.7741 62.4826 54.5721 63.1463 54.562C63.7999 54.562 64.2524 54.7892 64.4283 55.2689C64.5037 55.5214 64.5289 55.789 64.5037 56.0516C64.5037 56.3798 64.4786 57.0615 64.4786 57.6927C64.4786 58.3239 64.5037 58.5511 64.8305 58.7531L64.4283 59.3085ZM63.4228 56.9353C62.8195 56.9353 62.4424 57.0615 62.2665 57.2635C62.1031 57.4402 62.0201 57.6801 62.0402 57.9199C62.0402 58.3996 62.2916 58.6773 62.7441 58.6773C63.1337 58.6622 63.4882 58.4425 63.6742 58.0966V56.9605H63.4228V56.9353Z" fill="#73787D"/>
<path d="M68.4001 59.1318V56.1273C68.4001 55.7234 68.375 55.5972 68.2493 55.4457C68.1336 55.3194 67.9677 55.2538 67.7968 55.2689C67.382 55.322 66.9999 55.5189 66.7159 55.8244V59.1065H65.9115V55.8244C65.9316 55.4633 65.8712 55.0998 65.7355 54.764L66.4896 54.562C66.5952 54.7741 66.648 55.0064 66.6405 55.2437C66.8189 55.0846 67.0125 54.9407 67.2186 54.8145C67.47 54.6655 67.7566 54.5873 68.0482 54.5873C68.4856 54.5746 68.8903 54.8221 69.0788 55.2184C69.1492 55.3952 69.1844 55.5845 69.1794 55.7739V59.1318H68.375H68.4001Z" fill="#73787D"/>
<path d="M72.4473 59.2581C72.2462 59.8892 71.9948 60.3689 71.6932 60.6214C71.4518 60.8133 71.1653 60.942 70.8636 61.0001L70.6122 60.4699C70.9139 60.3942 71.1803 60.2174 71.3664 59.965C71.5348 59.7024 71.6554 59.4121 71.7183 59.1066L71.3915 59.1571C71.2759 58.6622 71.1351 58.1724 70.9642 57.6927L69.9838 54.7893L70.8133 54.6125L71.668 57.3898C71.7434 57.6675 71.8691 58.1219 71.9194 58.4249H71.9697C72.0451 58.1219 72.1456 57.718 72.2713 57.3393L73.0506 54.7135H73.9556L72.4473 59.2581Z" fill="#73787D"/>
<path d="M19.4316 11.9446H1.15634V24.9217C6.08587 19.1451 12.3653 14.6839 19.4316 11.9446Z" fill="#D70A32"/>
<path d="M135.594 48.1744H153.819V35.1216C148.912 40.9209 142.65 45.4048 135.594 48.1744Z" fill="#D70A32"/>
<path d="M28.0036 24.341V28.633H34.8662V31.6627H28.0036V38.7319H24.61V21.3113H36.0477V24.341H28.0036Z" fill="white"/>
<path d="M38.5112 38.7319V21.3113H41.9048V35.7022H49.7729V38.7319H38.5112Z" fill="white"/>
<path d="M52.0605 38.7319V21.3113H63.4982V24.341H55.4541V28.431H62.3167V31.4607H55.4541V35.7022H63.4982V38.7319H52.0605Z" fill="white"/>
<path d="M75.489 38.7319L72.1205 32.6473L68.7772 38.7319H64.9059L70.2854 29.7944L65.2327 21.3113H69.0788L72.0954 26.9414L75.1622 21.3113H78.9831L73.9304 29.8196L79.3351 38.7572H75.489V38.7319Z" fill="white"/>
<path d="M81.0193 38.7319V21.3113H84.4129V35.7022H92.2811V38.7319H81.0193Z" fill="white"/>
<path d="M94.5435 38.7319V21.3113H97.9371V38.7572H94.5435V38.7319Z" fill="white"/>
<path d="M111.285 38.7319L104.398 28.0271V38.7319H101.004V21.3113H104.02L110.908 31.9909V21.3113H114.302V38.7572H111.285V38.7319Z" fill="white"/>
<path d="M127.474 38.7319L123 30.8043L120.762 33.5057V38.7572H117.369V21.3113H120.762V28.9107L126.871 21.3113H130.993L125.237 28.2543L131.396 38.7572H127.474V38.7319Z" fill="white"/>
<path d="M136.323 23.5331C136.323 24.803 135.299 25.8306 134.035 25.8306C132.771 25.8306 131.747 24.803 131.747 23.5331C131.747 22.2632 132.771 21.2356 134.035 21.2356C135.299 21.2356 136.323 22.2632 136.323 23.5331ZM132.024 23.5331C132.024 24.649 132.924 25.5529 134.035 25.5529C135.146 25.5529 136.046 24.649 136.046 23.5331C136.046 22.4172 135.146 21.5133 134.035 21.5133C132.934 21.5259 132.049 22.4273 132.049 23.5331H132.024ZM133.206 22.296H134.085C134.261 22.296 134.915 22.296 134.915 22.9019C134.935 23.1897 134.741 23.4473 134.462 23.5079C134.714 23.5583 134.789 23.6846 134.839 23.9876C134.86 24.2526 134.91 24.5152 134.99 24.7702H134.638C134.576 24.5657 134.533 24.3536 134.513 24.139C134.488 23.7603 134.387 23.6593 133.985 23.6593H133.557V24.7702H133.231V22.296H133.206ZM133.532 23.3564H134.06C134.236 23.3564 134.538 23.3564 134.538 22.9777C134.538 22.599 134.236 22.599 134.06 22.599H133.532V23.3564Z" fill="white"/>
</g>
<defs>
<clipPath id="clip0_2826_6660">
<rect width="155" height="61" fill="white"/>
</clipPath>
</defs>
</svg>
